<svg id="svg2" xmlns="http://www.w3.org/2000/svg" width="446.8" height="535.8" viewBox="0 0 446.8 535.8"><defs><style>.cls-1{fill:#8d8177;}</style></defs><title>Denmark vector lyfe</title><g id="layer1"><path id="path1364" class="cls-1" d="M393.6,578.9c-2.9-3.1-5.3-10.9-4.6-14.7s.2-3.2-1.6.3c-.9,1.7-1.1,3.2-.6,3.8s-5,1.3-9.2-.6-11.9-2.6-15.1-.9a73.6,73.6,0,0,0-7,5l-4.9,3.9-7.4-5.2c-4.1-2.9-8.3-6.1-9.4-7a7.4,7.4,0,0,0-2.6-1.8A16.8,16.8,0,0,1,327,559c-2.7-2-12.1-6.5-13.5-6.3l-3.5-1.1c-3.7-1.3-5.2-3.5-5.2-7.8s2.7-5.6,4.9-4.2,4.8.3,5.6-1-1.1-2.6-3-4.9c-3.6-4.4-4.5-8.6-2.3-10.8.6-.7.9-1.2.6-1.2s.6-1.3,2.2-2.9c3.6-3.6,7.8-5.1,14.3-5.1,4.2,0,5.6.5,9.3,3.5s4.4,4.4,4.4,5.4c0,2.8,2.8,5.7,9.5,9.7s11,5.2,10.2,3c-.3-.7.5-1.3,2.1-1.4,3.5-.3,5.1-2.1,5.4-6s1.8-4.1,5.2-.7c1.4,1.3,3,2.5,3.7,2.5s.1-6.3-2.6-8.7l-2.5-2.2,2.6-2.1c3-2.3,3.8-2.4,6.4-1s2.3.5,3.5-.7,2-1.4,4-.3a6.8,6.8,0,0,1,3.1,3.2,1.7,1.7,0,0,0,2.4,1.3c2.8-.9,6.7.4,7.3,2.4s2.1,2.2,5.7,3,5.4.9,5.7.7,0-1.3-.5-2.6-1-2-2.1-.7-7.4.2-6.9-2.1,3.6-3.9,6.9-2l3.1,1.8-.5-2.6c-.4-2.1,0-2.8,2.2-3.7a19.6,19.6,0,0,0,4.3-2.6,5.6,5.6,0,0,1,4.7-.8c3.6.7,4.6-1.2,3-6-1-3-.9-3.6.7-4.8s2.2-1.1,4,.6a13.2,13.2,0,0,0,6,2.4c10,1.4,11.4,1.8,14.8,5s3.6,4,3.6,6.8-.5,3.6-2.9,4.5-3.2.7-3.6.4-3.4-1.4-9.7-1.9-9.7,1.1-12.3,6.7-6.8,6.6-10.7,3.9-3.8-1.6-1.3,1.1a12.3,12.3,0,0,1,2.1,4.6c.4,2.4.1,3.2-1.8,4.2s-9.8,11.9-9.8,14.1c0,.7-1.3,2.8-3,4.7q-5.1,5.7-3.6,14.7c2,11.4,2,10.7-.6,10.7S395,580.5,393.6,578.9Zm-2.2-21.8c.1-5-1.6-5.9-4.2-2.2s-2.9,3.6-.2,4.7S391.3,560.4,391.4,557.1Zm-5.5-13.7c-1-1-1.1-.9-.5.6s.9,1.5,1.2,1.2S386.6,544.1,385.9,543.4Zm-1.9-4.5a10.1,10.1,0,0,0-2.8-5c-2.8-2.7-3.2-1.5-.6,1.9a25.1,25.1,0,0,1,2.5,4.1C384.1,542.6,384.6,542,384,538.9Zm-111,14a26.8,26.8,0,0,1-1.5-7c-.4-2.9-1.3-6.2-2.1-7.4s-.9-4.6,4.3-8.3,4-3,2.6-4.5-1.9-7.3,1.5-11,3.4-4.4,3.1-6.3c-.1-.4.2-.6.6-.5,3.2.9,10.4-8.7,10.1-13.4-.2-2.8,3.9-9.8,5.7-9.8a4.2,4.2,0,0,1,2.5,1.5c2.6,3.1-1.8,19.9-6.9,26.4a30.9,30.9,0,0,0-4.5,9.1c-1,3-2.2,6.4-2.6,7.5a198.9,198.9,0,0,0-6.5,20.2,7.5,7.5,0,0,1-2.5,4.3C274.3,555,274,555,273,552.9ZM154.8,537.2c0-2.2-.4-2.5-3.3-2.2a52.2,52.2,0,0,0-7.5,2.2c-4.9,2.1-11.5-1.3-10.7-5.5.5-2.6-1.2-3.6-7-4.4a85.6,85.6,0,0,1-17-4.7c-8.6-3.2-10.6-3.3-17.4-1.6-3.7,1-7.5,1.5-8.4,1.1s-3.1-4.5-2.4-8.8c.3-1.8-.1-6.2-.8-9.7-1.2-5.4-1.2-7.5,0-12.9a59.4,59.4,0,0,1,2.8-9.9c1.4-3.5,1.4-3.6-1.6-14.6-1-3.6-1.2-7.2-.7-12.5.9-8.7-.9-20-3.9-24-1.2-1.7-4.2-3.3-8.7-4.8-6.8-2.1-11.4-5.7-11.4-8.7,0-.8-1.3-2.3-2.9-3.5a9.6,9.6,0,0,1-3.6-5c-.7-3-3-4.1-3.8-1.8s2.1,8,4.2,9.8,3.6,7,2,7-.8.4-.4,1,.1,1-.5,1-3.4-2.5-6.4-5.6-6.9-6-10.1-7.1c-6.9-2.3-7.4-4.4-3.2-12.9a109.2,109.2,0,0,0,5.7-14.3c2.1-7,2.2-8.6,1.6-24.5-.4-9.4-.8-18-.9-19s.3-2.1.8-2.3,3.5,6,4.2,15.1c.4,6.3.9,8.6,2,8.6a2.4,2.4,0,0,0,1.9-1.5,2.2,2.2,0,0,1,1.7-1.6c.7,0,3.4-2,6.1-4.4l4.9-4.4-1.3-4.1c-.7-2.2-1.8-3.7-2.3-3.3s-.7.1-.3-.6-.2-5.4-1.2-4.7-.9-2.2-1-5.3c-.4-6.1-1.3-7.7-7.6-12.3s-6-3.6-5.3.6a44.7,44.7,0,0,1,0,9c-.6,5.4-.7,5.6-3.6,5.6h-3l.8-5.3a45.4,45.4,0,0,0,.4-8.7c-.5-6.8.2-16.4,1.4-20,.6-1.9.7-2,1.5-16.2s1.9-15.7,4.7-11.4c1,1.4,2,2.4,2.2,2.2s2.3.7,5.9,4.3c1.9,1.9,2.6,2.1,3.9,1.1s.9-3.4-1.1-2.6-1.3.1-1.1-.3-2-3.2-4.7-6.1c-4.6-4.9-5-5.2-6.3-3.5s-1.6,1.5-2.1,1.1-.7-7.6-.6-16c.2-15.6.4-19.8,1.5-20.6S47.8,220,47.8,218s1.6-3.8,3.5-1.9,1.3,2.3.6,5.8-.7,4.6-.1,5.2a4.1,4.1,0,0,1,1,2.8c0,1,1.1,2.2,2.5,2.8s3,2,2.6,4.2,1.7.9,2.4-.3a1.8,1.8,0,0,1,2.1-.5c.7.2,1.6.1,1.9-.4s1.8-.3,3.3.5a12.3,12.3,0,0,0,4.3,1.5,4.1,4.1,0,0,1,2.9,1.5,4.4,4.4,0,0,0,2.6,1.5c2.8,0,2.4-2.8-1.1-8.9a28.1,28.1,0,0,0-9-9.7c-6.7-4.4-6.8-4.6-6.7-9.9.1-2.9-.4-4.5-1.3-4.9s-2.7.7-2,3.7-1.4,4.5-3.7,1.6-1.8-3.5-1.3-9.4,2.3-11,10.9-24.5c6.2-9.9,8-12.1,15.3-20.2,4-4.3,7.3-8.3,7.3-8.8s1.2-1.6,2.7-2.4,3.3-1.2,7.9.5,12.1,2,13.4-.1a2.1,2.1,0,0,1,1.6-1.1c.5.1,3.4-.9,6.4-2.3,7.9-3.5,10.5-3.7,19.7-1.4s8.4,2,15.9.2,8.9-2.8,14.8-7.2c8-6.1,14.6-14.7,14.6-16.1a4.5,4.5,0,0,1,1.6-2.3c1.5-1.2,7.6-13,11.2-21.5.7-1.7,3.8-5.9,6.9-9.3a69.7,69.7,0,0,0,7.6-9.8c3.7-7.2,7-8.9,11.7-6,1.6,1,3.8.7,12.6-1.6s11-3,16.8-8.5c16.2-15.4,16.2-15.4,20.3-14.7,9.1,1.6,9,2.1-1.8,10.5-5.4,4.2-8.1,7-8.5,8.9-1.8,7.8-2.1,9.9-2.3,12.6s2.2,7.6,3.9,7.6a7.5,7.5,0,0,1,3.2,2.1c2.7,2.8,3.6,10.4,1.6,14.5-1.2,2.3-1.3,4.7-.6,12.4,1.6,16.7,1.5,21-.4,22.4s-10.4,12-12.3,21.2c-.8,3.9-4.5,11-7.5,14.2s-4,15.3-4.4,16,1.2,20.2,2.3,23.1a27.3,27.3,0,0,1,2.1,8.7v3.6l-4.5-2.7c-5.5-3.2-8.9-3-9.3.4s0,2.3,1.7,1.8a8.9,8.9,0,0,1,4.9.8,12.7,12.7,0,0,0,3.7,1.5c.5,0,2.4,1.3,4.2,2.8l3.3,2.8-3.5,3.4c-3.9,3.7-4.3,4.8-1.9,4.6s2.6,1.6,4,4.4c3.6,6.7,4.6,8,6.7,8a9.5,9.5,0,0,1,3.6.9c2,1.1,20.4-1.8,25.8-4,2.9-1.2,3.4-1.1,7.2,1.4s4.1,3.4,4.1,5.4,1,3.5,4,5.6,4,3.6,4,4.5-1.1,3.8-2.5,6.4a20.3,20.3,0,0,0-2.5,8.6c0,3.1-.9,5-4,8.9s-3.7,5.3-3.5,5.6.2.5-.1.3-6.4,4.6-6.1,5.4-.6,1.4-1.6,2.4-1.7,3.3-1.7,6.9c0,6.8-.9,8.1-4.4,6.7s-7.2-11-3.8-11c.7,0,1-.5.7-1s-4.2-1-7.5,2.4l-3.3,3.5,1.7,3.6a11.5,11.5,0,0,1,1.4,5.7c-.4,2.7-5.2,4.5-7.3,2.7s-2-6.1-.4-7.7.9-1.5-.1-2.7-2.3-2-5.5,1.1-2.9,2.3-3.7,1a14.2,14.2,0,0,0-2.2-2.8,12.1,12.1,0,0,1-2-4.1c-.5-2.2-.3-2.9,1.1-3.4a16.8,16.8,0,0,0,3.4-2,3.9,3.9,0,0,1,3-1.1c.7.1,1.5-.6,1.7-1.7a8.7,8.7,0,0,1,1.8-3.6c1.2-1.4,1.1-1.7-1.2-2.8a13.9,13.9,0,0,0-3.4-1.1c-1.5,0-5,3.2-4.4,4.1s.1.9-.4.9-1.3,1.2-1.7,2.7-2.3,4.4-4.2,6.5-3.6,4.2-3.8,10c-.1,3.6.5,7.7,1.3,9.5s1.1,4,.6,5a23.5,23.5,0,0,0-.9,5.8c-.4,17.5-.4,17.2-3.5,20.3s-3,3.9-3,6.9-1.4,6.3-3.3,6.3c-.4,0-1.7-2.1-2.8-4.6-2.1-4.7-4.7-6.4-9.9-6.4-2.1,0-3.6,1-6,4s-3.4,4.5,3.7,5.3c4.9.5,6.7-.9,3-2.3-1.8-.6-2.5-1.6-2.4-3.3s.7-2.3,3-2.2c3.9.2,4.7,1.4,4,6.1-.4,2.9-1,4.1-1.9,3.7s-3.5,7.7-1.7,9.8,1,1.8-.8,3.5a12.7,12.7,0,0,0-3,4.1c-.7,1.7-1.7,2.3-4.2,2.3a18.4,18.4,0,0,0-7.1,1.9c-5.6,2.9-7.1,2.9-14.3,0-1.8-.7-2.1-.5-1.7.9s-.1.7-.7-.6-1.8-2.2-2.4-2.2a4.2,4.2,0,0,1-2.5-1.5c-.7-.9-2.7-1.5-4.4-1.5h-3.1l3.5,1.8c4.1,2.2,11.5,8.9,12.2,11s1.1,1.3,4,.4,3.8-.9,4.3.5a2.5,2.5,0,0,1-.5,2.5,4.6,4.6,0,0,0-1,2.5c0,1.4-3.8,5.1-5.4,5.1a36.1,36.1,0,0,0-5.8,4.6c-4.4,3.9-5.6,4.5-9.7,4.5-2.5,0-5.5.7-6.6,1.6s-1.8,1.5,2,1.2c8.5-.4,11.3,5,5.4,10.5-2.9,2.8-3,3.1-2.4,9.5.7,9.1,1.5,14.6,2.3,15.8a25.5,25.5,0,0,0,3.1,2.7c2.3,1.5,2.6,1.5,4.3,0s2-1.4,3.3-.3c2.9,2.4,1.7,4.6-2.3,4-.6,0-1.2.3-1.2.8s-1.7,3.4-3.7,6.5c-3.7,5.5-5.8,6.8-8,4.6s-2.3-.4-5.3,1.5-4,2.9-2.9,4.2,1,1.7-.1,2.3-.9,1.5.8,3.9c3,4,2.7,5.2-1.6,8.5l-3.7,2.8,6.2-.3c3.6-.2,6.4.1,6.7.7a10.6,10.6,0,0,0,3.2,2.6c2.8,1.7,2.9,1.7,2.9-.8a2.7,2.7,0,0,0-2.3-3c-2.7-.7-2.8-1.4-.2-3.6s1.9-2.1,1.6-2.5,8.5-.6,11.6.6,2.8.8,2.8.4.4-.2.8.5c1.5,2.3,7.5,6.2,8.6,5.6s.8-.4.5,0,2.1,3.5,5.5,6.9c4.7,4.9,6.4,6.1,7.6,5.3s1.3-.8.2.6-1,2.7-.1,6.6c1.3,5.7.8,8.3-1.8,8.3a17.3,17.3,0,0,0-5.6,2c-4.6,2.4-9.7,1.6-11.2-1.8a3.7,3.7,0,0,0-3.7-2.2,5,5,0,0,1-3.3-.9c-.3-.6-1.5-.5-2.9.2s-2.2,1.3-1,3.5,1,3-.2,5.3-1.9,2.8-4.2,2.3a21,21,0,0,1-4.8-2c-3.9-2.4-10.3-1.5-15.4,2.2-2.6,1.8-5,3.4-5.4,3.4S154.8,538.6,154.8,537.2Zm33.6-27.7c.9-1.5-2.4-3.8-5.6-3.8h-2.5l2.9,2.5C186.4,511,187.3,511.2,188.4,509.5ZM94.3,251.8c-.3-.5.3-.7,1.3-.5s2-.2,2.5-4.7-.6-9.5-2.5-8.3-.8.2-.5-.3.1-2.4-.5-4.1c-1.3-3.3-1-4.2,1.5-4.6s4.7-2.5,4.7-3.6,1.4-2.3,3.1-4.1,3.7-3.3,7.2-3.2l4.2.2-3.5-1.6a27.7,27.7,0,0,1-3.9-1.9c-.2-.2,1.8-3.3,4.5-6.9s5.8-6.7,7.6-7.1,2.5-1.1,2.1-2-.9-1.2-1.4-.9.2-2.9,1.5-3.8a12.7,12.7,0,0,1,4.8-.7c4.9,0,5.1,2.5.5,5.8l-3.2,2.2,4.1-.6c3.4-.5,4.4-.3,6.5,1.7s3,4,3.1,9.9a18.1,18.1,0,0,1-2.2,9.9c-.6,1.1-.9,2.1-.6,2.1s-.8,1.4-2.5,3.2a9.2,9.2,0,0,0-2.9,7.4c0,2.4.4,4.5.8,4.8s2.1-.8,3.6-2.4,2.7-3.4,2.1-5.9-.4-3.1,1.4-3.1,2.1.6,2.1,1.6.7,1.4,3.8.9,4.2-.3,5.2,1,1.5,1.5,2.1-.6c1.2-4.3.9-9.6-.6-10.9s-2.1-.9-4.6.4-3.5,1.3-4.6.4-1.1-1.3,0-2.2a14.7,14.7,0,0,0,2.6-5.1c1.2-3.5,1.2-4-.5-5.5a5.8,5.8,0,0,1-2.2-3.5,7.9,7.9,0,0,0-1.2-2.9c-.5-.5-.3-2.4.5-4.3s1.3-6.1,1.2-10.1c-.2-6.7-.1-6.9,3.3-10l7.2-6.5c2.1-1.9,5.3-3.8,7.1-4.1,5.6-1.1,20.7,2.7,20.7,5.2a4.3,4.3,0,0,1-1.5,2.2,4.1,4.1,0,0,0-1.5,2.1c0,1.9,1.6.7,4-2.9,1.3-2,3.7-5.4,5.3-7.5,2.8-3.7,3-3.7,9.7-3.7s10-.6,10-2.9-.2-1.4-1.1.1a4.5,4.5,0,0,1-3.6,1.8c-2.5,0-2.5-.1-.9-2.5s2-3.5.2-3.5-4.9,3.4-4,4.2-2.2.4-5.5.2c-5.1-.4-6.7-.2-9.1,1.5s-8.6,2.8-9.3.8-1.5-.8-5.3.5c-9.8,3.3-12.2,4.4-16.3,7.2s-5.6,2.9-9.7-3.5c-2-3.2-2.6-3.6-5.6-3.1a16.3,16.3,0,0,0-6,2.3,10.5,10.5,0,0,1-4.2,1.9,18,18,0,0,0-5.1,1.4c-2.8,1.2-3.6,1.2-5.3,0s-2.9-1-8.8,5.8c-2.2,2.5-3.9,3.5-5.7,3.4s-2.3-.5-2.1-.9.1-.7-.4-.7-3.9,3.1-5.2,6.3-1,2.9,2.2,2.3a80.1,80.1,0,0,1,10.5-1.5c2.2-.1,5.8-5.3,4.6-6.5s-.2-.6.4-.6,2.6-1.2,4.3-2.7c4.1-3.4,5.2-2,4.3,5.7s-2.8,11.1-5.1,10.8-2.7,3.6-.2,7.7l2.2,3.5-3,3.7a65.6,65.6,0,0,1-5.1,5.7,5.8,5.8,0,0,0-2.1,3.2c0,.7-1.4,2.9-3.1,4.8s-3.9,3.6-6.2,3.6-7.7-3.3-7.7-5.7-.4-1.1-2-.1-2.2.9-3.1.1-.2-3.6,1.7-2.9,1.4,0,1.4-.5-4.2-6.2-6-6-.4,6.1-.2,6.9c.5,2.4-12.8,7.2-14.6,7.3s10.5-1.9,12.1-1,2.2.7,2.9.1,5-.2,4.5,1.9,0,1.8,1.5,1.6,2.2.5,2.4,2-1.1,3.1-2,.8a2.1,2.1,0,0,0-1.7-1.5c-.8,0-.6.7.5,1.9s1.4,2.1.6,2.5a1.2,1.2,0,0,0-.5,1.6c.3.5-.5,2.1-1.9,3.5s-5.7,2.9-4.8,2.9,5.3,1.2,5.7,3.8c1.2,8.4,1.6,9.7,3.3,10.1S94.9,252.7,94.3,251.8ZM88.5,246c-2-2-.1-9.3,2.4-9.3s1.9,4.1.4,6.9S89.5,247,88.5,246Zm43.3-57.8c-1-1.2-1-1.9-.2-2.7s4.4-.2,4,1.8S133.3,190,131.8,188.2Zm23.6,57.3c1.3.2,2.4-.2,2.4-.8s-5.7-1.4-6.5,0-2.7-.4-2.1-4.3.5-3.9-.9-2.8-1.9,4.5.1,7.6,1.9,2.3,3.2,1.2A5.8,5.8,0,0,1,155.4,245.5ZM82.3,204.7c.9-1.9,2.3-3,3.6-3s5.9-1.8,5.9-3.1-.7-.9-1.5-.9-1.9-1,0-3.5a7.7,7.7,0,0,0,1.4-4.5c0-1.9.9-6.2.4-5s-9.2,14-10.3,14-4.2,4.8-3.5,6.9S80.5,208.2,82.3,204.7ZM243.1,533.2c-2.6-3-5.4-5.5-6.2-5.5s-1.2-.3-.9-.6-.4-1.6-1.6-2.9c-3.5-3.9-4.7-5.5-4-5.5s.2-.6-.4-1.3-2.3-6.3-1.5-7.1,2.3,1,4.4,2.9a21.5,21.5,0,0,0,6.4,4.1c1.4.3,2.5,1,2.5,1.4s1.1,2.1,2.5,3.6,3.1,2.1,2.6-.9c-.2-1.2,2.4-.9,3.7.5a5.8,5.8,0,0,1,1.2,3.5c0,2.7.6,2.8,2.7.7s1.8-1.4,3.5.3a4.6,4.6,0,0,1-2.3,7.9,9.1,9.1,0,0,0-4.5,2.5,7.2,7.2,0,0,1-2.5,1.9C248.3,538.7,245.7,536.2,243.1,533.2ZM353,528c-1.8-.7-1.5-3,.5-3.8s4.1,1.1,2.2,2.9A3.4,3.4,0,0,1,353,528Zm-86.2-2.8c-1.5-1.8-.6-4.5,1.5-4.5s1.5.9,1.5,2.4C269.8,526.2,268.4,527.1,266.8,525.2Zm75.6-5.8c-1.5-1.1-1.5-1.6-.4-3.8s1.9-2.4,4.5-2.1c4.1.4,4.2,2.4.4,5.1C344.6,520.2,343.8,520.4,342.4,519.4ZM261,513.1c-3-6.1-2.8-7,1.5-8.8s9.4-5.6,7.7-5.6a4,4,0,0,0-2.5,1.6,9,9,0,0,1-9.3,2.5,107.6,107.6,0,0,0-14.3-3.5,26.3,26.3,0,0,1-6.9-3.4c-2.7-1.7-5.1-2.9-5.5-2.7s-.9,1.8-1.3,3.5-.8,2.9-2,1.8-1.2-1.6-1-2-3.2-2.8-6.6-2.8c-5.5,0-4.9-5.6.9-8l2.9-1.2-2-3.4c-1.6-2.8-2.6-3.4-5.2-3.4a7.7,7.7,0,0,1-4.4-1.2c-1.7-1.8-1.6,1,.3,5.5s.8,5.2-3,4.3-2.6-.8-2.7-10.5c0-3.2-.3-4.1-1.4-3.7a1.8,1.8,0,0,1-2-.6c-.4-.7-.3-.9.4-.4s1.2.2,1.2-.4-.6-1-1.4-1c-2.4,0-4.7-6.6-4.9-14s-.4-7-2.2-7c-4.8,0-9-6.8-5.3-8.4,1-.4.9-.8-.2-1.6s-1.2-1.3-.3-1.7.4-2.3-2.6-2.3-6.6-4.7-5.1-7,.2-2.3-1.1-3.9c-2.5-3.2-2.4-3.7,1.1-5.1a9.8,9.8,0,0,0,3.9-2.8c.4-.8,2.8-1.7,5.4-2,4.2-.4,4.5-.3,4.9,1.9a4.1,4.1,0,0,0,2.9,3.2c2.1.8,3.3.5,6-1.6s7.5-4.2,12.5-6.2,10-4.5,10.9-5.6,8-2.6,8.9-.7.4.3.2-1,0-2.2,1.5-2.2c3.6,0,12.3,6.6,13.4,10.1.4,1.3,1.6,1.9,3.5,1.9a4.4,4.4,0,0,1,4,1.9c1.3,2.6,1.3,3.1-.5,3.1s-1.4.8-1.1,3.5,0,3.5-.7,3.5-7,4.7-6.3,5.9,3.7,1.4,3.3-.1,3.5-3.5,7.3-4.2a12.4,12.4,0,0,0,4.5-2.1c1.9-1.5,1.9-1.6.1-3a4.7,4.7,0,0,0-3.5-.9c-1.4.4-1.3.3.1-.6a3.7,3.7,0,0,0,1.8-2.7c0-1,.5-1.3,1.6-.9s1.4,0,.9-2.4a8.6,8.6,0,0,1,.5-5.1c.9-1.6.9-2.4,0-2.9s-.8-1,.2-1.8,4.3.8,7.1,8.8c1.4,4.1,3.5,8.5,4.6,9.8,2.8,3.2,2.6,3.9-1.4,5.6l-3.6,1.5,2,3.9a61.3,61.3,0,0,0,4.3,6.8,57.8,57.8,0,0,1,5.3,8.9c1.7,3.3,3.3,6.1,3.8,6.3s-1.4,3.1-3,2.5-1.4,1-1.1,11.5c.2,6.7.1,12.2-.3,12.2s-1.1,1.9-1.7,4.2c-2,8-3.7,11.8-5.4,12.3a3.8,3.8,0,0,0-2.1,2.5c-.8,2.9-3.7,2.5-3.7-.5s-.6-2.5-1.6-2.5-1.4.5-1,1.6a16.3,16.3,0,0,1,.6,4.5c0,2.2.4,2.9,2.1,2.9,3.4,0,1.9,4-2.6,7.1C266.2,519,263.6,518.6,261,513.1Zm94.3,2.3c-1.5-4.5-1.1-5.2,3-5.2s4,.3,4.3,2.4a3.3,3.3,0,0,1-1,3.2C359.6,517.1,355.8,516.8,355.3,515.4Zm43.1-.6c1-1-4.3-3.5-6.8-3.3s-3.7-.6-6.6-3.5a46.6,46.6,0,0,0-9.7-7c-3.3-1.8-6.1-3.7-6.3-4.3s7.2-1,11.5,1.4c2.4,1.4,4.3,2.1,4.3,1.7s-3.2-3.9-5-4.3-2.3-1.6-3.3-3.1-2.2-4.8-1-4.6a10,10,0,0,0,3.8-1.2l3-1.4-4.3-.3c-4.6-.4-6.3-2.2-4.2-4.7s.3-4-1.6-2.5-1.2,1.6-.9,2-2.7,0-6.6-1.1-13.5-4.3-17.1-4.6c-5.1-.4-6.9-.1-8.1,1.1-3.6,3.6-9.7.6-9.7-4.8,0-1.8-.4-2.5-1.2-2s-.8.2-.4-.5a1.3,1.3,0,0,1,1.8-.5c2.1,1.3-.3-5.1-3.1-8.1-5.2-5.8-5.6-6.6-4-7.6s1.2-.9-.2-.9a4.2,4.2,0,0,0-2.7,1.2c-1,.9-1.7.7-3.3-.9s-1.8-3.3,4.1-6.1,6.1-7.1,2.5-14.9c-2.2-5-3.2-6.2-5.6-6.7-4.4-.9-4-4.7.6-6.9s4.4-4.1,1-8.7-6.8-6.7-12.7-8.1c-2.7-.6-5.1-1.5-5.3-2s2.9-2.9,6.7-3c1.8-.1,2.5-.4,1.5-.6a5.2,5.2,0,0,1-2.8-3c-.6-1.6-5.7-5.3-9.7-5.3-1.2,0-2.2-.4-2.2-.8,0-3.2,10.4-4.5,14.5-1.8,1.7,1.2,2.6,1,6.3-1.2s4.7-2.3,6.8-1.4,3.1,3.2.4,3.9-1.8.8-.9,1.9,1-1.1,7.3-2.1c4.4-.8,13.6-6.8,13.6-9.5a12.1,12.1,0,0,0-1.2-4.5c-1.4-3.1-.7-4.1,2-2.6s2.4.7,3.4-.2a16.2,16.2,0,0,1,4.5-2.6c3.5-1.5,4.9-5,3.7-9.8s-2.9-5.1-7.9-5.8-13.4-4.5-14.1-6.8,1.5-3.6,6.2-1.1a22,22,0,0,0,8.3,2.4,65.9,65.9,0,0,1,11.7,2c8.3,2.1,13.7,2,17-.6a9.1,9.1,0,0,1,4.1-1.4c1.9,0,2.3.5,2.3,2.8a6.7,6.7,0,0,1-2,4.6c-1.4,1.3-1.7,2.3-1.1,3.5a10,10,0,0,1,.8,4.1c-.2,1.8-.8,2.5-2.4,2.5s-2-.3-1.8-.6-1-1.2-2.6-2.2c-3.6-2-3.6-1.8-.3,3.4a49.6,49.6,0,0,1,3.8,7.7l1.3,3.7-3.5.2c-2.1.2-3.9-.2-4.4-1s-1.1-.7-2.2.8-.5,4,2.2,2.6a11.6,11.6,0,0,1,4.7-1.1c2.2,0,2.9.7,4.2,3.9s2,3.8,2.5,3.5.6.5.2,2-.3,2.6,1,2.6,1.5.3,1.3.7-.1,1.7.3,2.8.9,1.7.9.2a18.8,18.8,0,0,0,0-2.4,2,2,0,0,1,1.1-1.3c.7-.4,1.1-1.8,1.1-3.1-.4-7.4-.2-8.9,1.5-11.2a11.9,11.9,0,0,1,4.6-3.8,10.3,10.3,0,0,0,2.8-1.4,50.2,50.2,0,0,0-2-4.7c-2.7-5.9-2.6-9.2.3-10.6a5.2,5.2,0,0,1,4.7.1c2.1,1,2.5,2,2.8,6.2s1,5.7,1.8,6.6,4.4,10.4,4.4,15.6-1.4,8.3-5.1,8.3c-1.8,0-2.8.4-2.4,1s6.3,1.1,7.5-1c2-3.9.7-17.1-2.8-27a22.4,22.4,0,0,1-.7-4.7,32.4,32.4,0,0,0-.9-5.7c-.7-3-3-3.3-10.2-1.5-2.5.6-4.7.9-4.9.7a10.8,10.8,0,0,1-1.1-3.6c-.7-3.4,24.8-21.4,28.8-24.1,7.3-5,10.4-6.2,12.4-4.9s4.3,1.6,8.4,2.7,7.8,2.5,8.4,3.1a6,6,0,0,0,3.4,1c1.4,0,3.6,1.3,5.4,3.2s3.5,3.2,3.9,3,.8.1.7.5a7.6,7.6,0,0,0,.6,3.1,5.2,5.2,0,0,1-.8,4.6c-1.2,1.8-1.3,2.5-.3,2.9s.2.5-1.1.6-2.2.5-2.2,1.1a23.2,23.2,0,0,1-2,5.2,25.1,25.1,0,0,0-2,5.1,35.6,35.6,0,0,0,3,6.8c1.9,3.8,3,7.4,3,10.2a19.6,19.6,0,0,0,2,7.9c1.1,2.1,3.9,16.2,4.7,17.8s3.5,14.6,2.5,13.5-1.1.4-1.9,1.4a9.3,9.3,0,0,1-4.9,2.7q-7.2,1.3-8.4-8.4c-.5-3.7-.8-4.3-1.5-2.7-1.6,3.8-2.5,4.4-5.1,3.4s-3.8-.2-8.9,2.2a40,40,0,0,0-8.8,5.5c-2.6,2.6-5.7,11-5.7,15.5s5.5,9.2,8.2,8.5c1-.2,1.6-.1,1.3.3s6.5,3.2,7.7,2.5.7-.2.6.2.9,2.4,2.4,4.4c3.3,4.4,5.6,15.3,3.6,17.7-3.4,4.1-8.7,6.3-15.3,6.3-10.8,0-16.2,3.8-17.8,12.7-.6,3-.5,3.2,2.8,3.8s3.7,1.3,4.1,3.1-.1,5.2-2.5,6.1-1.9.9.3,6.4,2.2,5.7.7,7.6a4.1,4.1,0,0,1-3.6,1.7c-1.1-.2-3.1.8-4.6,2.2s-3.4,2.4-7.2,2.2S398.1,515,398.4,514.8Zm11.3-32.2c-.8-1.6-1.4-1.9-2.2-1s-.8,1.4.3,2.1S410.9,484.8,409.7,482.6ZM246.8,513.2c-3.9-1.3-4.7-2.7-2.6-4.5s6.8-2.2,6-.9.2,1.2,1,1.5,2,1.5.3,3.6S249.8,514.3,246.8,513.2ZM233,502.5c-1.5-1.5-1.6-3.5-.1-4.4s3.8,2.3,3.9,4.3S234.6,504,233,502.5Zm187.4-.6c-1.5-1.4-.5-4,1.7-4.4s2.3-.1,1.9,1.8S421.5,503.1,420.4,501.9Zm-197.5-2.5c-1.1-2.8.3-4.5,2.3-2.8s2,3.7,0,4.4S223.4,500.9,222.9,499.4ZM63.8,491.2a2.3,2.3,0,0,0-2.4-.9c-.6.4-.6.1.1-.7s1.3-4.5,1.3-10.1c0-8.2.1-8.9,2.5-10.4s9.9-1.3,11,.6-1.6,6-2.8,6-.8,2.1-.5,4.9c.5,5.1-.4,8.1-2.5,8.1s-1.8.9-2.5,2S65.5,493.2,63.8,491.2ZM166,486.6c.1-1.8.9-3.5,1.5-3.7s1.6,3.6-.3,5.5S165.7,489.7,166,486.6Zm158.2-9.7c-1.4-1-3.8-7.1-3.1-7.9s4.5.8,5.1,3C327.5,476.8,326.7,478.6,324.2,476.9ZM71,458c-2.4-.5-2.9-2.7-1-4.7s5.8-.9,5.8.9-1.1,4.5-1.9,4.3Zm120-3.9c-.2-2.5.2-3.3,1.9-3.7s1.8-.3,1.5,0-.1,1.2.5,1.9.2,5.3-2,5.1S191.1,456.3,191,454.1Zm108.8-.1c.1-.9,3.6-5.3,4.2-5.3s.4,1.2.4,2.7-.7,2.9-2.4,3.1S299.8,454.4,299.8,454ZM60.5,444.3a5.3,5.3,0,0,1-1.7-3.4c0-1.1-.5-2.2-1.1-2.4s-1.3-2.1-1.5-4.2a34.6,34.6,0,0,0-.9-5.5,4.6,4.6,0,0,1,.8-3.5c1.2-1.6,1.4-1.6,4,.8s3.4,2.6,4.2,2.6,1.4,1.8,1.3,8.5C65.5,446.2,64.6,447.4,60.5,444.3Zm412.7-38.8c-4.2-5.7-4.4-11.3-.5-11.3,2.1,0,2.6.6,3.3,3.8S474.9,407.8,473.2,405.5ZM236,381c-1.9-.8-1.4-2.3.7-2.3a4.6,4.6,0,0,0,3.3-1.8,8.4,8.4,0,0,1,2.9-2.5c1.4-.5,1.6,0,1.5,2.4C244.1,381,240.5,382.8,236,381Zm27.3-2.3c-.4-.6-.9-2.9-1.7-4.3-1.6-3-.2-10.4,2.7-14.1s3.2-7.4-.1-8.6-2.5-1.4-2.2-6.8.6-5.8,2.5-6,2.3.2,2.8,2.2.7,3.8,1.1,5.3a15.1,15.1,0,0,0,3,5.5,11.4,11.4,0,0,1,2.4,5.9c0,2.5.3,2.9,2,2.4s2-.5,2-.3a42.4,42.4,0,0,1-2,4.3,17.7,17.7,0,0,0-2,5.9,26.1,26.1,0,0,1-1.1,5.8c-.9,3.5-1.3,3.8-4.9,3.8S263.6,379.2,263.3,378.7Zm56.8-17.3c-5.4-3.7-7.1-10.6-1.8-7.1a58.5,58.5,0,0,1,5.5,3.7c2.2,1.8,2.7,5.7.7,5.6A13.3,13.3,0,0,1,320.1,361.4ZM252,350.5a5.8,5.8,0,0,1-1.2-3.6c0-2,.4-2.3,2.7-2s2.8.8,3.1,3.5,0,3.3-1.5,3.3A5.1,5.1,0,0,1,252,350.5Zm105.8-126c-4-4.3-3.5-6.2,1.5-6.9,2.2-.4,5.2-1,6.6-1.4,3.9-1,4.4,1,1,4.2a11.5,11.5,0,0,0-3.2,4.7C363.1,228.2,361,228,357.8,224.5ZM307.5,139a3.7,3.7,0,0,1-.7-2.3c0-.9-10-6.6-10-6.9s4-6.1,4-6.7c0-3.2,22.3-7.9,26-5.5s-.6,5.3-6.3,6.5c-2.2.5-2.7,1.1-2.7,3.6s-3,7-5,7-1.5,1.1-2,2.5S308.7,140.3,307.5,139Z" transform="translate(-29.4 -45.9)"/></g></svg>
