<svg id="Layer_1" data-name="Layer 1" xmlns="http://www.w3.org/2000/svg" width="1920" height="1080" viewBox="0 0 1920 1080">
    <defs>
        <style>
            .cls-1 {
                fill: #fed77a;
            }

        </style>
    </defs>
    <title>desktop</title>
    <g id="layer1">
        <path id="path1364" class="cls-1" d="M901.34,1986c-31-33.13-56.64-116.5-49.16-157.11s2.14-34.2-17.1,3.2c-9.62,18.17-11.76,34.21-6.42,40.62s-53.44,13.89-98.33-6.41-127.18-27.79-161.38-9.62a785.42,785.42,0,0,0-74.82,53.44l-52.37,41.68-79.09-55.58c-43.82-31-88.71-65.19-100.47-74.81a79.05,79.05,0,0,0-27.79-19.24,179.53,179.53,0,0,1-44.89-28.86C160.66,1751.91,60.2,1703.82,45.23,1706L7.82,1694.2c-39.54-13.89-55.57-37.41-55.57-83.37S-18.9,1551,4.62,1565.94s51.3,3.21,59.85-10.68-11.76-27.79-32.06-52.38c-38.48-47-48.1-91.91-24.59-115.43,6.42-7.48,9.62-12.82,6.42-12.82s6.41-13.9,23.51-31c38.48-38.48,83.37-54.51,152.84-54.51,44.89,0,59.85,5.35,99.4,37.41s47,47,47,57.72c0,29.92,29.92,60.92,101.53,103.67s117.57,55.58,109,32.06c-3.21-7.48,5.34-13.89,22.44-15,37.41-3.2,54.51-22.44,57.72-64.13s19.24-43.82,55.58-7.48c15,13.9,32.06,26.72,39.54,26.72s1.07-67.33-27.79-93l-26.72-23.52,27.79-22.44c32.07-24.59,40.62-25.65,68.41-10.69s24.58,5.34,37.41-7.48,21.37-15,42.75-3.21a72.68,72.68,0,0,1,33.13,34.2,18.17,18.17,0,0,0,25.65,13.9c29.93-9.62,71.61,4.27,78,25.65s22.45,23.51,60.93,32.06,57.71,9.62,60.92,7.48,0-13.89-5.35-27.78-10.68-21.38-22.44-7.49-79.09,2.14-73.75-22.44,38.48-41.68,73.75-21.38l33.13,19.24-5.34-27.79c-4.28-22.44,0-29.92,23.51-39.54a209.91,209.91,0,0,0,46-27.79,59.83,59.83,0,0,1,50.23-8.55c38.48,7.48,49.17-12.83,32.07-64.13-10.69-32.06-9.62-38.48,7.48-51.3s23.51-11.76,42.75,6.41a141.05,141.05,0,0,0,64.13,25.65c106.88,15,121.84,19.24,158.18,53.44s38.48,42.75,38.48,72.68-5.34,38.48-31,48.1-34.2,7.48-38.47,4.27-36.34-15-103.68-20.31-103.67,11.76-131.46,71.61-72.68,70.55-114.36,41.69-40.62-17.1-13.9,11.75a131.49,131.49,0,0,1,22.45,49.17c4.27,25.65,1.07,34.2-19.24,44.89s-104.74,127.19-104.74,150.7c0,7.48-13.9,29.93-32.07,50.23q-54.51,60.93-38.47,157.12c21.37,121.84,21.37,114.36-6.42,114.36S916.31,2003.08,901.34,1986Zm-23.51-233c1.07-53.44-17.1-63.06-44.89-23.51s-31,38.48-2.14,50.23,46,8.55,47-26.72Zm-58.78-146.42c-10.69-10.69-11.76-9.62-5.35,6.41s9.62,16,12.83,12.83S826.53,1614,819.05,1606.56Zm-20.31-48.1A107.94,107.94,0,0,0,768.81,1505c-29.92-28.86-34.2-16-6.41,20.31a268.24,268.24,0,0,1,26.72,43.82C799.81,1598,805.15,1591.59,798.74,1558.46ZM-387.63,1708.09a286.51,286.51,0,0,1-16-74.81c-4.27-31-13.89-66.27-22.44-79.09s-9.62-49.17,46-88.71,42.75-32.07,27.79-48.1-20.31-78,16-117.57,36.34-47,33.13-67.33c-1.07-4.28,2.14-6.42,6.42-5.35,34.2,9.62,111.15-93,107.94-143.22C-191,1054-147.15,979.17-127.91,979.17a44.92,44.92,0,0,1,26.72,16c27.79,33.14-19.24,212.69-73.75,282.17a330,330,0,0,0-48.1,97.26c-10.69,32.06-23.51,68.4-27.79,80.16a2126.89,2126.89,0,0,0-69.47,215.9,80.11,80.11,0,0,1-26.72,46C-373.74,1730.54-376.95,1730.54-387.63,1708.09ZM-1651,1540.29c0-23.51-4.27-26.72-35.27-23.51a557.64,557.64,0,0,0-80.16,23.51c-52.37,22.45-122.91-13.89-114.36-58.78,5.34-27.79-12.83-38.48-74.82-47a915,915,0,0,1-181.69-50.23c-91.92-34.21-113.3-35.27-186-17.1-39.54,10.68-80.16,16-89.78,11.75s-33.13-48.09-25.65-94.05c3.21-19.24-1.07-66.27-8.55-103.68-12.82-57.71-12.82-80.16,0-137.87a634.67,634.67,0,0,1,29.93-105.81c15-37.41,15-38.48-17.1-156-10.69-38.48-12.83-77-7.48-133.6,9.62-93-9.62-213.76-41.69-256.51-12.82-18.17-44.89-35.27-93-51.3-72.68-22.45-121.85-60.93-121.85-93,0-8.55-13.89-24.58-31-37.41a102.61,102.61,0,0,1-38.48-53.44c-7.48-32.06-32.06-43.82-40.61-19.24s22.44,85.51,44.89,104.75,38.47,74.81,21.37,74.81-8.55,4.28-4.27,10.69,1.07,10.69-5.35,10.69-36.34-26.72-68.4-59.86-73.75-64.12-107.95-75.88c-73.75-24.58-79.09-47-34.2-137.88a1167.49,1167.49,0,0,0,60.92-152.83c22.45-74.82,23.51-91.92,17.1-261.86-4.27-100.47-8.55-192.39-9.62-203.07s3.21-22.45,8.55-24.59,37.41,64.13,44.89,161.39c4.28,67.34,9.62,91.92,21.38,91.92a25.67,25.67,0,0,0,20.31-16,23.5,23.5,0,0,1,18.17-17.1c7.48,0,36.34-21.38,65.19-47l52.37-47L-2677-495.78c-7.48-23.51-19.24-39.54-24.58-35.27s-7.48,1.07-3.21-6.41-2.14-57.72-12.82-50.24-9.62-23.51-10.69-56.64c-4.28-65.2-13.9-82.3-81.23-131.47s-64.13-38.47-56.65,6.42a477.17,477.17,0,0,1,0,96.19c-6.41,57.72-7.48,59.85-38.48,59.85h-32.06l8.55-56.64a486.08,486.08,0,0,0,4.28-93c-5.35-72.68,2.13-175.28,15-213.76,6.41-20.31,7.48-21.38,16-173.15s20.31-167.8,50.24-121.84c10.68,15,21.37,25.65,23.51,23.51s24.58,7.49,63.06,46c20.31,20.31,27.79,22.45,41.68,11.76s9.62-36.34-11.75-27.79-13.9,1.07-11.76-3.21-21.38-34.2-50.24-65.19c-49.16-52.37-53.44-55.58-67.33-37.41s-17.1,16-22.44,11.76-7.49-81.23-6.42-171c2.14-166.74,4.28-211.63,16-220.18s73.75-146.42,73.75-167.8,17.1-40.61,37.41-20.31,13.89,24.59,6.41,62-7.48,49.17-1.07,55.58a43.79,43.79,0,0,1,10.69,29.93c0,10.69,11.76,23.51,26.72,29.93s32.07,21.37,27.79,44.89,18.17,9.61,25.65-3.21a19.25,19.25,0,0,1,22.45-5.35c7.48,2.14,17.1,1.07,20.3-4.27s19.24-3.21,35.27,5.34a131.56,131.56,0,0,0,46,16,43.8,43.8,0,0,1,31,16,47,47,0,0,0,27.79,16c29.92,0,25.65-29.93-11.76-95.12a300.25,300.25,0,0,0-96.19-103.68c-71.61-47-72.68-49.16-71.61-105.81,1.07-31-4.28-48.1-13.9-52.37s-28.85,7.48-21.37,39.55-15,48.09-39.55,17.1-19.24-37.41-13.89-100.47,24.58-117.57,116.5-261.86c66.26-105.81,85.5-129.32,163.52-215.9,42.76-45.95,78-88.71,78-94.05s12.82-17.1,28.85-25.65,35.28-12.83,84.44,5.34,129.33,21.38,143.22-1.07a22.45,22.45,0,0,1,17.1-11.75c5.34,1.06,36.34-9.62,68.4-24.59,84.44-37.4,112.23-39.54,210.56-15s89.78,21.38,169.94,2.14,95.12-29.93,158.18-77c85.51-65.19,156-157.11,156-172.07a48.12,48.12,0,0,1,17.1-24.59c16-12.82,81.23-138.94,119.7-229.79,7.48-18.17,40.62-63.06,73.75-99.4a744.37,744.37,0,0,0,81.23-104.74c39.55-77,74.82-95.12,125.05-64.13,17.1,10.69,40.61,7.48,134.67-17.1s117.57-32.06,179.56-90.85c173.14-164.59,173.14-164.59,217-157.11,97.27,17.1,96.2,22.44-19.23,112.22-57.72,44.89-86.58,74.82-90.85,95.13-19.24,83.36-22.45,105.81-24.58,134.67s23.51,81.22,41.68,81.22a80.24,80.24,0,0,1,34.2,22.45c28.86,29.93,38.48,111.16,17.1,155-12.82,24.58-13.89,50.23-6.41,132.53,17.1,178.49,16,224.45-4.28,239.41S-567.19-2607.73-587.5-2509.4c-8.55,41.68-48.09,117.56-80.16,151.77s-42.75,163.52-47,171,12.83,215.9,24.59,246.9a291.75,291.75,0,0,1,22.44,93v38.48l-48.1-28.86c-58.78-34.2-95.12-32.06-99.39,4.28s0,24.58,18.17,19.24a95.1,95.1,0,0,1,52.37,8.55,136,136,0,0,0,39.54,16c5.35,0,25.65,13.89,44.89,29.93l35.27,29.92-37.41,36.34c-41.68,39.55-45.95,51.3-20.3,49.17s27.79,17.1,42.75,47c38.48,71.61,49.16,85.51,71.61,85.51a101.36,101.36,0,0,1,38.48,9.62c21.37,11.75,218-19.24,275.75-42.75,31-12.83,36.34-11.76,76.95,15s43.82,36.34,43.82,57.71,10.69,37.41,42.75,59.86,42.76,38.47,42.76,48.09-11.76,40.62-26.72,68.41a216.87,216.87,0,0,0-26.72,91.91c0,33.14-9.62,53.44-42.76,95.13s-39.54,56.64-37.4,59.85,2.13,5.34-1.07,3.21-68.41,49.16-65.2,57.71-6.41,15-17.1,25.65-18.17,35.27-18.17,73.75c0,72.68-9.62,86.57-47,71.61S-406.87-934-370.53-934c7.48,0,10.69-5.34,7.48-10.69s-44.89-10.68-80.16,25.65l-35.27,37.41,18.17,38.48a122.89,122.89,0,0,1,15,60.92c-4.27,28.86-55.58,48.1-78,28.86s-21.38-65.2-4.28-82.3,9.62-16-1.06-28.86-24.59-21.37-58.79,11.76-31,24.58-39.54,10.69A152.34,152.34,0,0,0-650.56-872a129.25,129.25,0,0,1-21.37-43.82c-5.35-23.51-3.21-31,11.75-36.34a179.69,179.69,0,0,0,36.34-21.37,41.69,41.69,0,0,1,32.07-11.76c7.48,1.07,16-6.41,18.17-18.17a93,93,0,0,1,19.23-38.48c12.83-15,11.76-18.17-12.82-29.92a148.48,148.48,0,0,0-36.34-11.76c-16,0-53.44,34.2-47,43.82s1.07,9.62-4.27,9.62-13.9,12.83-18.17,28.86-24.58,47-44.89,69.47S-756.37-887-758.51-825c-1.07,38.48,5.35,82.3,13.9,101.54s11.75,42.75,6.41,53.44a251.18,251.18,0,0,0-9.62,62c-4.27,187-4.27,183.83-37.41,217s-32.06,41.69-32.06,73.75-15,67.34-35.27,67.34c-4.28,0-18.17-22.45-29.93-49.17-22.44-50.23-50.23-68.4-105.81-68.4-22.44,0-38.48,10.69-64.13,42.75s-36.34,48.1,39.55,56.65c52.37,5.34,71.61-9.62,32.06-24.59-19.24-6.41-26.72-17.1-25.65-35.27s7.48-24.58,32.07-23.51c41.68,2.14,50.23,15,42.75,65.2-4.28,31-10.69,43.82-20.31,39.54s-37.41,82.3-18.17,104.74,10.69,19.24-8.55,37.41a135.72,135.72,0,0,0-32.06,43.82c-7.49,18.17-18.17,24.59-44.89,24.59a196.58,196.58,0,0,0-75.89,20.3c-59.85,31-75.88,31-152.84,0-19.24-7.48-22.44-5.34-18.17,9.62s-1.07,7.48-7.48-6.41-19.24-23.51-25.65-23.51a44.9,44.9,0,0,1-26.72-16c-7.48-9.62-28.86-16-47-16h-33.13L-1405.13-49c43.82,23.51,122.91,95.12,130.39,117.57S-1263,82.44-1232,72.82s40.62-9.62,46,5.35a26.71,26.71,0,0,1-5.34,26.72,49.14,49.14,0,0,0-10.69,26.72c0,15-40.61,54.51-57.72,54.51a386.14,386.14,0,0,0-62,49.16c-47,41.68-59.85,48.1-103.67,48.1-26.72,0-58.78,7.48-70.54,17.1s-19.24,16,21.38,12.82c90.84-4.27,120.77,53.44,57.71,112.23-31,29.93-32.06,33.13-25.65,101.54,7.48,97.26,16,156,24.58,168.87a273,273,0,0,0,33.13,28.85c24.59,16,27.79,16,46,0s21.38-15,35.27-3.2c31,25.65,18.17,49.16-24.58,42.75-6.41,0-12.82,3.21-12.82,8.55s-18.17,36.34-39.55,69.47c-39.55,58.79-62,72.68-85.5,49.17s-24.59-4.28-56.65,16-42.75,31-31,44.89,10.69,18.17-1.06,24.58-9.62,16,8.55,41.68c32.06,42.76,28.85,55.58-17.11,90.85l-39.54,29.93,66.26-3.21c38.48-2.13,68.41,1.07,71.61,7.48a113.23,113.23,0,0,0,34.21,27.79c29.92,18.17,31,18.17,31-8.55a28.86,28.86,0,0,0-24.58-32.06c-28.86-7.48-29.93-15-2.14-38.48s20.31-22.44,17.1-26.72,90.85-6.41,124,6.42,29.93,8.55,29.93,4.27,4.28-2.14,8.55,5.34c16,24.59,80.16,66.27,91.92,59.86s8.55-4.28,5.34,0,22.45,37.41,58.79,73.74c50.23,52.38,68.4,65.2,81.23,56.65s13.89-8.55,2.13,6.41-10.69,28.86-1.07,70.54c13.9,60.93,8.55,88.72-19.23,88.72a184.89,184.89,0,0,0-59.86,21.37c-49.16,25.65-103.67,17.1-119.7-19.24a39.55,39.55,0,0,0-39.55-23.51,53.46,53.46,0,0,1-35.27-9.62c-3.21-6.41-16-5.34-31,2.14s-23.51,13.89-10.68,37.41,10.68,32.06-2.14,56.64-20.31,29.93-44.89,24.58a224.47,224.47,0,0,1-51.3-21.37c-41.69-25.65-110.09-16-164.6,23.51-27.79,19.24-53.44,36.34-57.71,36.34S-1651,1555.25-1651,1540.29Zm359.12-296.06c9.62-16-25.65-40.61-59.85-40.61h-26.72l31,26.72C-1313.22,1260.27-1303.6,1262.4-1291.84,1244.23Zm-1005.74-2754.3c-3.21-5.35,3.2-7.48,13.89-5.35s21.38-2.13,26.72-50.23-6.41-101.54-26.72-88.71-8.55,2.14-5.34-3.21,1.06-25.65-5.35-43.82c-13.89-35.27-10.69-44.89,16-49.16s50.24-26.72,50.24-38.48,15-24.58,33.13-43.82,39.55-35.27,76.95-34.2l44.89,2.13-37.4-17.1a296.69,296.69,0,0,1-41.69-20.3c-2.14-2.14,19.24-35.27,48.1-73.75s62-71.61,81.23-75.89,26.72-11.75,22.44-21.37-9.62-12.83-15-9.62,2.14-31,16-40.62a136,136,0,0,1,51.3-7.48c52.38,0,54.51,26.72,5.35,62l-34.2,23.52,43.82-6.42c36.34-5.34,47-3.2,69.47,18.17s32.06,42.75,33.13,105.81A193.45,193.45,0,0,1-1854-1822.16c-6.41,11.75-9.62,22.44-6.41,22.44s-8.55,15-26.72,34.2a98.31,98.31,0,0,0-31,79.09c0,25.65,4.28,48.1,8.55,51.31s22.45-8.55,38.48-25.65,28.86-36.34,22.44-63.06-4.27-33.14,15-33.14,22.44,6.42,22.44,17.1,7.48,15,40.62,9.62,44.89-3.2,55.57,10.69,16,16,22.45-6.41c12.82-46,9.62-102.61-6.41-116.5s-22.45-9.62-49.17,4.27-37.41,13.9-49.16,4.28-11.76-13.9,0-23.51a157.27,157.27,0,0,0,27.78-54.51c12.83-37.41,12.83-42.76-5.34-58.79a61.93,61.93,0,0,1-23.51-37.41,84.39,84.39,0,0,0-12.83-31c-5.34-5.35-3.21-25.65,5.34-46s13.9-65.2,12.83-107.95c-2.14-71.61-1.07-73.75,35.27-106.88l76.95-69.47c22.45-20.31,56.65-40.62,75.89-43.82,59.85-11.76,221.24,28.85,221.24,55.57a46,46,0,0,1-16,23.52,43.82,43.82,0,0,0-16,22.44c0,20.31,17.1,7.49,42.75-31,13.89-21.38,39.55-57.72,56.65-80.16,29.92-39.55,32.06-39.55,103.67-39.55s106.88-6.41,106.88-31-2.14-15-11.76,1.07a48.07,48.07,0,0,1-38.47,19.23c-26.72,0-26.72-1.06-9.62-26.72s21.37-37.4,2.14-37.4-52.38,36.34-42.76,44.89-23.51,4.27-58.78,2.13c-54.51-4.27-71.61-2.13-97.26,16s-91.92,29.92-99.4,8.55-16-8.55-56.65,5.34c-104.74,35.27-130.39,47-174.21,76.95s-59.86,31-103.68-37.4c-21.37-34.21-27.79-38.48-59.85-33.14a174.32,174.32,0,0,0-64.13,24.59,112.15,112.15,0,0,1-44.89,20.3,192.45,192.45,0,0,0-54.51,15c-29.92,12.82-38.47,12.82-56.64,0s-31-10.69-94.06,62c-23.51,26.72-41.68,37.4-60.92,36.34s-24.58-5.35-22.44-9.62,1.06-7.49-4.28-7.49-41.68,33.14-55.58,67.34-10.69,31,23.52,24.58a855.82,855.82,0,0,1,112.22-16c23.51-1.07,62-56.65,49.17-69.47s-2.14-6.42,4.27-6.42,27.79-12.82,46-28.85c43.82-36.34,55.58-21.38,46,60.92S-2062.45-2162-2087-2165.25s-28.86,38.48-2.14,82.3l23.52,37.41-32.07,39.54a701.12,701.12,0,0,1-54.51,60.92,62,62,0,0,0-22.44,34.2c0,7.49-15,31-33.14,51.31s-41.68,38.47-66.26,38.47-82.3-35.27-82.3-60.92-4.27-11.75-21.38-1.07-23.51,9.62-33.13,1.07-2.14-38.47,18.17-31,15,0,15-5.35-44.88-66.26-64.12-64.12-4.28,65.19-2.14,73.74c5.34,25.65-136.81,77-156,78s112.23-20.31,129.33-10.69,23.51,7.48,31,1.07,53.44-2.14,48.1,20.3,0,19.24,16,17.1,23.52,5.35,25.65,21.38-11.75,33.13-21.37,8.55a22.45,22.45,0,0,0-18.17-16c-8.55,0-6.41,7.48,5.34,20.31s15,22.44,6.42,26.72a12.83,12.83,0,0,0-5.35,17.1c3.21,5.34-5.34,22.44-20.31,37.4s-60.92,31-51.3,31,56.65,12.83,60.92,40.61c12.83,89.78,17.1,103.68,35.27,108S-2291.17-1500.45-2297.58-1510.07Zm-62-62c-21.37-21.38-1.06-99.4,25.66-99.4s20.3,43.82,4.27,73.74S-2348.89-1561.38-2359.58-1572.06Zm462.8-617.77c-10.69-12.83-10.69-20.31-2.14-28.86s47-2.14,42.75,19.24S-1880.75-2170.59-1896.78-2189.83Zm252.23,612.42c13.9,2.14,25.66-2.14,25.66-8.55s-60.93-15-69.48,0-28.85-4.27-22.44-46,5.34-41.68-9.62-29.92-20.31,48.09,1.07,81.23,20.31,24.58,34.2,12.82a62,62,0,0,1,40.61-9.62Zm-781.29-436.07c9.62-20.31,24.58-32.06,38.48-32.06s63.06-19.24,63.06-33.14-7.49-9.62-16-9.62-20.3-10.68,0-37.4a82.36,82.36,0,0,0,15-48.1c0-20.31,9.62-66.27,4.27-53.44s-98.33,149.63-110.09,149.63-44.89,51.3-37.4,73.75S-2445.08-1976.07-2425.84-2013.48Zm1718.63,3511c-27.78-32.06-57.71-58.78-66.26-58.78s-12.83-3.21-9.62-6.42-4.28-17.1-17.1-31c-37.41-41.69-50.24-58.79-42.75-58.79s2.13-6.41-4.28-13.89-24.58-67.34-16-75.89,24.58,10.69,47,31a229.8,229.8,0,0,0,68.4,43.82c15,3.21,26.72,10.69,26.72,15s11.76,22.45,26.72,38.48,33.13,22.44,27.79-9.62c-2.14-12.83,25.65-9.62,39.54,5.34a62,62,0,0,1,12.83,37.41c0,28.86,6.41,29.93,28.86,7.48s19.24-15,37.41,3.21a49.17,49.17,0,0,1,2.66,69.48,49.21,49.21,0,0,1-27.25,15A97.2,97.2,0,0,0-620.63,1536a77,77,0,0,1-26.72,20.3C-651.63,1556.32-679.42,1529.6-707.21,1497.54ZM467.41,1442c-19.24-7.48-16-32.06,5.34-40.61s43.82,11.75,23.52,31A36.35,36.35,0,0,1,467.41,1442ZM-453.9,1412c-16-19.24-6.41-48.1,16-48.1s16,9.62,16,25.65C-421.84,1422.72-436.8,1432.34-453.9,1412Zm808-62c-16-11.75-16-17.1-4.28-40.61s20.31-25.65,48.1-22.44c43.82,4.27,44.89,25.65,4.27,54.5C377.63,1358.6,369.08,1360.73,354.12,1350Zm-870-67.33c-32.06-65.2-29.93-74.82,16-94s100.47-59.86,82.3-59.86a42.76,42.76,0,0,0-26.72,17.1,96.18,96.18,0,0,1-99.4,26.72,1151.34,1151.34,0,0,0-152.84-37.41,280.86,280.86,0,0,1-73.74-36.33c-28.86-18.17-54.51-31-58.79-28.86s-9.62,19.24-13.89,37.41-8.55,31-21.38,19.23-12.82-17.1-10.69-21.37-34.2-29.93-70.54-29.93c-58.78,0-52.37-59.85,9.62-85.5l31-12.83-21.38-36.34c-17.1-29.92-27.79-36.34-55.58-36.34a82.31,82.31,0,0,1-47-12.82c-18.16-19.24-17.1,10.69,3.21,58.78s8.55,55.58-32.06,46-27.79-8.55-28.86-112.22c0-34.21-3.21-43.83-15-39.55a19.24,19.24,0,0,1-21.38-6.41c-4.27-7.48-3.21-9.62,4.28-4.28s12.82,2.14,12.82-4.27-6.41-10.69-15-10.69c-25.65,0-50.24-70.54-52.37-149.63s-4.28-74.82-23.52-74.82c-51.3,0-96.19-72.68-56.64-89.78,10.68-4.27,9.62-8.55-2.14-17.1s-12.83-13.89-3.21-18.17,4.28-24.58-27.79-24.58S-1357,394.53-1341,370s2.14-24.58-11.75-41.68c-26.72-34.2-25.65-39.55,11.75-54.51a104.74,104.74,0,0,0,41.69-29.93c4.27-8.55,29.92-18.17,57.71-21.37,44.89-4.28,48.1-3.21,52.37,20.3a43.85,43.85,0,0,0,31,34.21c22.44,8.55,35.27,5.34,64.13-17.11s80.16-44.89,133.6-66.26,106.88-48.1,116.5-59.85,85.5-27.79,95.12-7.49,4.28,3.21,2.14-10.68,0-23.52,16-23.52c38.48,0,131.46,70.54,143.22,108,4.28,13.9,17.1,20.31,37.41,20.31a47,47,0,0,1,42.75,20.31c13.89,27.78,13.89,33.13-5.34,33.13s-15,8.55-11.76,37.41,0,37.4-7.48,37.4-74.82,50.24-67.34,63.06,39.55,15,35.27-1.06,37.41-37.41,78-44.89a132.59,132.59,0,0,0,48.09-22.45c20.31-16,20.31-17.1,1.07-32.06a50.19,50.19,0,0,0-37.41-9.62c-15,4.27-13.89,3.2,1.07-6.42a39.51,39.51,0,0,0,19.24-28.85c0-10.69,5.34-13.9,17.1-9.62s15,0,9.62-25.65a92,92,0,0,1,5.34-54.51c9.62-17.1,9.62-25.65,0-31s-8.55-10.69,2.14-19.24,46,8.55,75.89,94.06c15,43.82,37.41,90.85,49.16,104.74,29.93,34.2,27.79,41.68-15,59.85l-38.48,16,21.38,41.68a654.45,654.45,0,0,0,46,72.68,617.25,617.25,0,0,1,56.64,95.12c18.17,35.27,35.27,65.2,40.62,67.34s-15,33.13-32.07,26.72-15,10.68-11.75,122.91c2.13,71.61,1.07,130.39-3.21,130.39s-11.76,20.31-18.17,44.89c-21.38,85.51-39.55,126.12-57.71,131.46a40.62,40.62,0,0,0-22.45,26.72c-8.55,31-39.55,26.72-39.55-5.34s-6.41-26.72-17.1-26.72-15,5.34-10.68,17.1a174.55,174.55,0,0,1,6.41,48.1c0,23.51,4.27,31,22.44,31,36.34,0,20.31,42.76-27.79,75.89C-460.31,1345.77-488.1,1341.49-515.89,1282.71ZM492,1307.29c-16-48.09-11.76-55.58,32.07-55.58s42.75,3.21,46,25.66a35.26,35.26,0,0,1-10.68,34.2c-21.38,13.89-62,10.69-67.34-4.28Zm460.66-6.41c10.68-10.69-46-37.41-72.68-35.27s-39.55-6.41-70.54-37.41a498.35,498.35,0,0,0-103.68-74.82c-35.27-19.23-65.19-39.54-67.33-46s77-10.69,122.91,15c25.65,15,46,22.44,46,18.17s-34.2-41.68-53.44-46-24.58-17.1-35.27-33.13-23.52-51.3-10.69-49.17a106.85,106.85,0,0,0,40.61-12.82l32.07-15-46-3.2c-49.16-4.28-67.33-23.52-44.89-50.24s3.21-42.75-17.1-26.72-12.83,17.1-9.62,21.38-28.86,0-70.54-11.76-144.29-46-182.77-49.16c-54.51-4.28-73.74-1.07-86.57,11.75C284.64,915,219.45,883,219.45,825.26c0-19.24-4.28-26.72-12.83-21.37s-8.55,2.13-4.27-5.35A13.88,13.88,0,0,1,221.19,793l.39.22c22.45,13.89-3.2-54.51-33.13-86.57-55.58-62-59.85-70.55-42.75-81.23s12.82-9.62-2.14-9.62A44.91,44.91,0,0,0,114.7,628.6C104,638.22,96.53,636.08,79.43,619s-19.24-35.27,43.82-65.19S188.45,477.9,150,394.53c-23.51-53.44-34.2-66.26-59.85-71.61-47-9.61-42.75-50.23,6.41-73.74s47-43.82,10.69-93S34.54,84.58-28.52,69.62c-28.85-6.41-54.51-16-56.64-21.38s31-31,71.61-32.06c19.24-1.07,26.72-4.28,16-6.41A55.61,55.61,0,0,1-27.45-22.3c-6.41-17.1-60.92-56.65-103.67-56.65-12.83,0-23.51-4.27-23.51-8.55,0-34.2,111.15-48.09,155-19.23C18.51-93.91,28.13-96,67.68-119.56s50.23-24.58,72.67-15,33.14,34.2,4.28,41.68S125.39-84.29,135-72.53,145.7-84.29,213-95c47-8.55,145.36-72.68,145.36-101.53a129.28,129.28,0,0,0-12.83-48.1c-15-33.13-7.48-43.82,21.38-27.79s25.65,7.48,36.34-2.14a173.21,173.21,0,0,1,48.1-27.79c37.4-16,52.37-53.44,39.54-104.74s-31-54.51-84.43-62-143.22-48.09-150.7-72.68,16-38.47,66.26-11.75a235.32,235.32,0,0,0,88.71,25.65,704.55,704.55,0,0,1,125,21.37c88.71,22.45,146.43,21.38,181.7-6.41a97.2,97.2,0,0,1,43.82-15c20.31,0,24.58,5.34,24.58,29.92a71.62,71.62,0,0,1-21.37,49.17c-15,13.89-18.17,24.58-11.76,37.41a106.85,106.85,0,0,1,8.55,43.82c-2.14,19.24-8.55,26.72-25.65,26.72s-21.38-3.21-19.24-6.42S705.75-360,688.65-370.73c-38.48-21.38-38.48-19.24-3.21,36.34a529,529,0,0,1,40.62,82.3L740-212.55l-37.41,2.14c-22.44,2.14-41.68-2.14-47-10.69s-11.76-7.48-23.52,8.55-5.34,42.76,23.52,27.79a124,124,0,0,1,50.23-11.75c23.52,0,31,7.48,44.89,41.68s21.38,40.61,26.72,37.41,6.41,5.34,2.14,21.37-3.21,27.79,10.69,27.79,16,3.21,13.89,7.48S803-42.61,807.29-30.85s9.62,18.17,9.62,2.14a203.26,203.26,0,0,0,0-25.65,21.39,21.39,0,0,1,11.75-13.9c7.49-4.27,11.76-19.24,11.76-33.13-4.27-79.09-2.14-95.12,16-119.71a127.25,127.25,0,0,1,49.17-40.61,110,110,0,0,0,29.92-15,534.73,534.73,0,0,0-21.37-50.24c-28.86-63.06-27.79-98.33,3.2-113.29a55.57,55.57,0,0,1,50.24,1.07c22.44,10.69,26.72,21.37,29.92,66.26s10.69,60.93,19.24,70.55,47,111.15,47,166.73-15,88.71-54.51,88.71c-19.24,0-29.93,4.27-25.65,10.69S1051-24.44,1063.8-46.88c21.38-41.68,7.48-182.77-29.93-288.58a240.18,240.18,0,0,1-7.48-50.23,346.68,346.68,0,0,0-9.62-60.92c-7.48-32.07-32.06-35.27-109-16-26.72,6.42-50.23,9.62-52.37,7.49a115.36,115.36,0,0,1-11.75-38.48c-7.49-36.34,265.06-228.72,307.81-257.58,78-53.44,111.16-66.27,132.53-52.37s46,17.1,89.78,28.85,83.37,26.72,89.78,33.14a64.11,64.11,0,0,0,36.34,10.68c15,0,38.48,13.9,57.72,34.21s37.41,34.2,41.68,32.06,8.55,1.07,7.48,5.34a81.4,81.4,0,0,0,6.41,33.14,55.51,55.51,0,0,1-8.55,49.16c-12.82,19.24-13.89,26.72-3.2,31s2.14,5.34-11.76,6.41-23.51,5.34-23.51,11.76a248.18,248.18,0,0,1-21.38,55.58,268,268,0,0,0-21.37,54.5,379.9,379.9,0,0,0,32.06,72.68c20.31,40.62,32.06,79.09,32.06,109a209.55,209.55,0,0,0,21.38,84.44c11.76,22.44,41.68,173.14,50.23,190.24s37.41,156,26.72,144.29-11.75,4.28-20.3,15a99.44,99.44,0,0,1-52.37,28.85q-77,13.91-89.78-89.78c-5.35-39.54-8.55-45.95-16-28.85-17.1,40.61-26.72,47-54.51,36.34s-40.61-2.14-95.12,23.51a427.67,427.67,0,0,0-94,58.78c-27.79,27.79-60.93,117.57-60.93,165.67s58.79,98.33,87.65,90.85c10.68-2.14,17.1-1.07,13.89,3.2s69.47,34.2,82.3,26.72,7.48-2.14,6.41,2.14,9.62,25.65,25.65,47c35.27,47,59.86,163.52,38.48,189.18-36.34,43.82-93,67.33-163.53,67.33-115.43,0-173.14,40.61-190.24,135.74-6.42,32.06-5.35,34.2,29.92,40.61s39.55,13.9,43.82,33.14-1.07,55.57-26.72,65.19-20.3,9.62,3.21,68.41,23.51,60.92,7.48,81.23a43.81,43.81,0,0,1-38.48,18.16c-11.75-2.13-33.13,8.56-49.16,23.52s-36.34,25.65-77,23.51S949.44,1303,952.65,1300.88Zm120.77-344.16c-8.55-17.1-15-20.3-23.51-10.68s-8.55,15,3.2,22.44,33.14,11.76,20.31-11.76ZM-667.66,1283.78c-41.68-13.9-50.23-28.86-27.79-48.1s72.68-23.51,64.13-9.62,2.14,12.83,10.69,16,21.37,16,3.2,38.47S-635.6,1295.54-667.66,1283.78Zm-147.49-114.36c-16-16-17.11-37.41-1.07-47s40.61,24.58,41.68,46S-798,1185.45-815.15,1169.42ZM1187.78,1163c-16-15-5.34-42.75,18.17-47s24.58-1.07,20.31,19.23S1199.54,1175.83,1187.78,1163ZM-923.1,1136.28c-11.76-29.92,3.2-48.09,24.58-29.92s21.37,39.54,0,47S-917.76,1152.32-923.1,1136.28Zm-1700.47-87.64a24.6,24.6,0,0,0-25.65-9.62c-6.41,4.28-6.41,1.07,1.07-7.48s13.89-48.09,13.89-107.95c0-87.64,1.07-95.12,26.72-111.15s105.81-13.9,117.57,6.41S-2507.07,883-2519.9,883s-8.55,22.44-5.34,52.37c5.34,54.51-4.28,86.57-26.72,86.57s-19.24,9.62-26.72,21.38S-2605.4,1070-2623.57,1048.64Zm1092.32-49.16c1.07-19.24,9.62-37.41,16-39.55s17.1,38.48-3.21,58.79S-1534.46,1032.61-1531.25,999.48ZM159.59,895.8c-15-10.68-40.61-75.88-33.13-84.43s48.1,8.55,54.51,32.06C194.86,894.73,186.31,914,159.59,895.8Zm-2706.21-202c-25.65-5.34-31-28.86-10.68-50.23s62-9.62,62,9.61-11.76,48.1-20.31,46ZM-1264,652.12c-2.14-26.72,2.14-35.27,20.31-39.55s19.23-3.21,16,0-1.07,12.83,5.34,20.31,2.14,56.64-21.37,54.51S-1263,675.63-1264,652.12Zm1162.86-1.07c1.06-9.62,38.47-56.65,44.89-56.65S-52,607.23-52,623.26s-7.48,31-25.65,33.13S-101.19,655.32-101.19,651.05ZM-2658.84,547.37A56.62,56.62,0,0,1-2677,511c0-11.75-5.34-23.51-11.76-25.65s-13.89-22.44-16-44.89a369.86,369.86,0,0,0-9.62-58.78,49.19,49.19,0,0,1,8.55-37.41c12.83-17.1,15-17.1,42.75,8.55s36.34,27.79,44.89,27.79,15,19.24,13.9,90.85C-2605.4,567.68-2615,580.51-2658.84,547.37Zm4411-414.69c-44.89-60.92-47-120.78-5.34-120.78,22.44,0,27.79,6.42,35.27,40.62S1770.28,157.26,1752.11,132.68ZM-783.09-129.18c-20.31-8.55-15-24.58,7.48-24.58A49.18,49.18,0,0,0-740.34-173a89.85,89.85,0,0,1,31-26.72c15-5.34,17.1,0,16,25.65C-696.52-129.18-735-109.94-783.09-129.18Zm291.78-24.58c-4.27-6.41-9.62-31-18.17-46-17.1-32.06-2.13-111.16,28.86-150.7s34.2-79.09-1.07-91.92-26.72-15-23.51-72.68,6.41-62,26.72-64.13,24.58,2.14,29.92,23.52S-441.07-515-436.8-499a161.36,161.36,0,0,0,32.07,58.79,121.93,121.93,0,0,1,25.65,63.06c0,26.72,3.2,31,21.37,25.65s21.38-5.34,21.38-3.21a451.86,451.86,0,0,1-21.38,46,189.3,189.3,0,0,0-21.37,63.06,279.45,279.45,0,0,1-11.76,62c-9.62,37.41-13.89,40.62-52.37,40.62S-488.1-148.42-491.31-153.76Zm607.08-184.9C58.06-378.21,39.89-452,96.53-414.55A623.19,623.19,0,0,1,155.32-375c23.51,19.23,28.86,60.92,7.48,59.85a142.36,142.36,0,0,1-47-23.51Zm-727.85-116.5a62,62,0,0,1-12.83-38.48c0-21.38,4.28-24.58,28.86-21.38s29.93,8.55,33.13,37.41,0,35.27-16,35.27A54.49,54.49,0,0,1-612.08-455.16ZM518.71-1801.86c-42.75-46-37.41-66.26,16-73.74,23.52-4.28,55.58-10.69,70.54-15,41.69-10.69,47,10.69,10.69,44.89a123,123,0,0,0-34.2,50.24C575.36-1762.31,552.91-1764.45,518.71-1801.86ZM-18.9-2715.68a39.59,39.59,0,0,1-7.48-24.59c0-9.62-106.88-70.54-106.88-73.74s42.75-65.2,42.75-71.61c0-34.2,238.35-84.44,277.89-58.79s-6.41,56.65-67.33,69.47c-23.52,5.35-28.86,11.76-28.86,38.48s-32.06,74.82-53.44,74.82-16,11.75-21.38,26.72S-6.07-2701.79-18.9-2715.68Z" />
    </g>
</svg>
