<svg id="Layer_1" data-name="Layer 1" xmlns="http://www.w3.org/2000/svg" width="1920" height="1080" viewBox="0 0 1920 1080">
    <defs>
        <style>
            .cls-1 {
                fill: #cce1a7;
            }

        </style>
    </defs>
    <title>desktop2</title>
    <g id="layer1">
        <path id="path1364" class="cls-1" d="M1439.19,1202.14c-12.24-13.08-22.37-46-19.42-62.05s.85-13.51-6.75,1.26c-3.8,7.18-4.65,13.51-2.53,16.05s-21.11,5.48-38.84-2.54-50.24-11-63.75-3.8a313.32,313.32,0,0,0-29.55,21.11l-20.68,16.47-31.24-22c-17.31-12.24-35-25.75-39.68-29.55a31.37,31.37,0,0,0-11-7.6,70.89,70.89,0,0,1-17.73-11.39c-11.4-8.45-51.08-27.44-57-26.6l-14.77-4.64c-15.62-5.49-22-14.78-22-32.93s11.39-23.64,20.68-17.73,20.26,1.27,23.64-4.22-4.64-11-12.66-20.69c-15.2-18.57-19-36.3-9.71-45.59,2.53-3,3.8-5.06,2.53-5.06s2.53-5.49,9.29-12.25c15.19-15.19,32.92-21.53,60.36-21.53,17.73,0,23.64,2.12,39.26,14.78s18.58,18.57,18.58,22.8c0,11.82,11.82,24.06,40.1,40.94s46.44,22,43.06,12.67c-1.27-3,2.11-5.49,8.87-5.91,14.77-1.27,21.53-8.87,22.79-25.33s7.6-17.31,22-3c5.91,5.49,12.67,10.56,15.62,10.56s.43-26.6-11-36.73l-10.56-9.29,11-8.86c12.66-9.71,16-10.13,27-4.22s9.71,2.11,14.77-3,8.44-5.91,16.89-1.26a28.69,28.69,0,0,1,13.08,13.5,7.18,7.18,0,0,0,10.14,5.49c11.82-3.8,28.28,1.69,30.81,10.13s8.87,9.29,24.06,12.67,22.8,3.8,24.07,3,0-5.48-2.11-11-4.22-8.45-8.87-3-31.24.85-29.13-8.86,15.2-16.47,29.13-8.45l13.09,7.6-2.11-11c-1.69-8.87,0-11.82,9.28-15.62a83.15,83.15,0,0,0,18.16-11,23.64,23.64,0,0,1,19.84-3.37c15.2,3,19.42-5.07,12.66-25.33-4.22-12.67-3.8-15.2,3-20.27s9.28-4.64,16.88,2.54a55.84,55.84,0,0,0,25.33,10.13c42.22,5.91,48.13,7.6,62.48,21.11s15.2,16.88,15.2,28.7-2.11,15.2-12.25,19-13.5,3-15.19,1.69-14.36-5.91-40.95-8-41,4.64-51.92,28.28-28.71,27.86-45.17,16.46-16-6.75-5.49,4.65a51.9,51.9,0,0,1,8.86,19.42c1.69,10.13.42,13.5-7.6,17.73s-41.37,50.23-41.37,59.52c0,2.95-5.48,11.82-12.66,19.84q-21.52,24.06-15.2,62c8.44,48.13,8.44,45.17-2.53,45.17S1445.1,1208.9,1439.19,1202.14Zm-9.29-92c.43-21.11-6.75-24.91-17.73-9.29s-12.24,15.2-.84,19.84,18.15,3.38,18.57-10.55Zm-23.21-57.84c-4.23-4.22-4.65-3.8-2.11,2.53s3.79,6.34,5.06,5.07S1409.64,1055.24,1406.69,1052.28Zm-8-19a42.7,42.7,0,0,0-11.82-21.11c-11.82-11.4-13.51-6.33-2.54,8a105.53,105.53,0,0,1,10.56,17.31C1399.09,1048.9,1401.2,1046.37,1398.67,1033.29Zm-468.59,59.1a113.4,113.4,0,0,1-6.33-29.55c-1.69-12.25-5.49-26.18-8.86-31.24s-3.8-19.42,18.15-35,16.88-12.67,11-19-8-30.81,6.34-46.43,14.35-18.58,13.08-26.6c-.42-1.69.85-2.53,2.54-2.11,13.5,3.8,43.9-36.73,42.63-56.57-.84-11.82,16.47-41.37,24.06-41.37a17.77,17.77,0,0,1,10.56,6.33c11,13.09-7.6,84-29.13,111.45a130.31,130.31,0,0,0-19,38.42c-4.22,12.66-9.28,27-11,31.66a838,838,0,0,0-27.44,85.27,31.63,31.63,0,0,1-10.56,18.15C935.57,1101.25,934.3,1101.25,930.08,1092.39Zm-499-66.28c0-9.29-1.69-10.55-13.94-9.29a220.83,220.83,0,0,0-31.66,9.29c-20.68,8.86-48.54-5.49-45.17-23.22,2.11-11-5.06-15.2-29.55-18.57A362.06,362.06,0,0,1,239,964.48c-36.31-13.51-44.75-13.94-73.45-6.76-15.62,4.22-31.67,6.33-35.46,4.64S117,943.37,120,925.22c1.27-7.6-.42-26.18-3.37-41-5.07-22.8-5.07-31.66,0-54.46A250.31,250.31,0,0,1,128.43,788c5.91-14.78,5.91-15.2-6.76-61.64-4.22-15.19-5.06-30.39-3-52.76,3.8-36.73-3.8-84.43-16.47-101.32-5.06-7.18-17.73-13.93-36.72-20.26C36.82,543.17,17.4,528,17.4,515.31c0-3.38-5.49-9.71-12.24-14.77A40.56,40.56,0,0,1-10,479.43c-3-12.67-12.66-17.31-16-7.6s8.87,33.77,17.73,41.37S6.85,542.75.09,542.75s-3.37,1.69-1.68,4.22.42,4.22-2.12,4.22-14.35-10.55-27-23.64-29.13-25.33-42.64-30c-29.13-9.71-31.24-18.57-13.51-54.46a461,461,0,0,0,24.06-60.36c8.87-29.55,9.29-36.31,6.76-103.43-1.69-39.68-3.38-76-3.8-80.21s1.27-8.86,3.38-9.71,14.77,25.33,17.73,63.75c1.68,26.59,3.8,36.3,8.44,36.3a10.14,10.14,0,0,0,8-6.33,9.28,9.28,0,0,1,7.18-6.75c2.95,0,14.35-8.45,25.75-18.58l20.68-18.57-5.49-17.31c-2.95-9.29-7.59-15.62-9.7-13.93s-3,.42-1.27-2.53S14,182.66,9.8,185.62,6,176.33,5.58,163.24C3.89,137.49.09,130.74-26.5,111.32s-25.33-15.2-22.38,2.53a188.4,188.4,0,0,1,0,38c-2.53,22.8-2.95,23.64-15.19,23.64H-76.74l3.38-22.37a192,192,0,0,0,1.69-36.73c-2.11-28.7.84-69.23,5.91-84.43,2.53-8,3-8.44,6.33-68.38s8-66.28,19.84-48.13c4.22,5.91,8.45,10.13,9.29,9.29s9.71,3,24.91,18.15c8,8,11,8.87,16.46,4.64s3.8-14.35-4.64-11S.94-63,1.78-64.72-6.66-78.23-18.06-90.47c-19.42-20.68-21.11-22-26.59-14.77s-6.76,6.33-8.87,4.64-2.95-32.08-2.53-67.54c.84-65.86,1.69-83.59,6.33-87s29.13-57.83,29.13-66.27,6.75-16,14.77-8,5.49,9.71,2.54,24.48-3,19.42-.43,21.95A17.32,17.32,0,0,1,.52-271.15c0,4.22,4.64,9.29,10.55,11.82s12.66,8.45,11,17.73,7.17,3.8,10.13-1.26A7.57,7.57,0,0,1,41-245c3,.84,6.76.42,8-1.69s7.6-1.27,13.93,2.11a51.94,51.94,0,0,0,18.16,6.33,17.31,17.31,0,0,1,12.24,6.33,18.53,18.53,0,0,0,11,6.33c11.82,0,10.14-11.82-4.64-37.57a118.57,118.57,0,0,0-38-40.94C33.44-322.65,33-323.49,33.44-345.87c.43-12.24-1.69-19-5.48-20.68s-11.4,2.95-8.45,15.62-5.91,19-15.62,6.75-7.6-14.77-5.48-39.68,9.7-46.44,46-103.43c26.17-41.79,33.77-51.08,64.59-85.27,16.88-18.15,30.81-35,30.81-37.15s5.07-6.75,11.4-10.13,13.93-5.07,33.35,2.11,51.08,8.44,56.57-.42a8.89,8.89,0,0,1,6.75-4.65c2.11.43,14.36-3.79,27-9.7,33.35-14.78,44.33-15.62,83.16-5.91s35.46,8.44,67.13.84,37.57-11.82,62.47-30.4c33.77-25.75,61.64-62,61.64-68a19,19,0,0,1,6.75-9.71c6.33-5.07,32.08-54.88,47.28-90.76,3-7.18,16-24.91,29.13-39.26A294.48,294.48,0,0,0,664.55-917c15.62-30.4,29.55-37.57,49.39-25.33,6.76,4.22,16,3,53.19-6.75s46.44-12.67,70.92-35.89c68.39-65,68.39-65,85.7-62,38.42,6.75,38,8.86-7.6,44.32C893.36-985,882-973.18,880.27-965.16c-7.6,32.93-8.87,41.8-9.71,53.19s9.29,32.09,16.46,32.09A31.58,31.58,0,0,1,900.53-871c11.4,11.82,15.2,43.91,6.76,61.21-5.07,9.71-5.49,19.84-2.54,52.35,6.76,70.5,6.34,88.65-1.68,94.56s-43.91,50.66-51.93,89.5c-3.38,16.46-19,46.43-31.66,59.94s-16.89,64.59-18.57,67.54,5.06,85.28,9.71,97.52a115.25,115.25,0,0,1,8.86,36.73v15.19l-19-11.39c-23.21-13.51-37.57-12.67-39.26,1.68s0,9.71,7.18,7.6a37.63,37.63,0,0,1,20.69,3.38,53.5,53.5,0,0,0,15.62,6.33c2.11,0,10.13,5.49,17.73,11.82l13.93,11.82-14.78,14.36c-16.46,15.62-18.15,20.26-8,19.41s11,6.76,16.89,18.58c15.19,28.28,19.42,33.77,28.28,33.77a40.26,40.26,0,0,1,15.2,3.8c8.44,4.64,86.12-7.6,108.91-16.89,12.24-5.06,14.35-4.64,30.4,5.91s17.3,14.36,17.3,22.8,4.23,14.78,16.89,23.64,16.89,15.2,16.89,19-4.65,16-10.56,27a85.8,85.8,0,0,0-10.55,36.31c0,13.09-3.8,21.11-16.89,37.57S1010.71,2.4,1011.56,3.67s.84,2.11-.42,1.27-27,19.42-25.76,22.79-2.53,5.91-6.75,10.13S971.45,51.79,971.45,67c0,28.71-3.8,34.2-18.57,28.29s-30.4-46.44-16-46.44c2.95,0,4.22-2.11,2.95-4.22s-17.73-4.22-31.66,10.13L894.2,69.52l7.18,15.2a48.6,48.6,0,0,1,5.91,24.06c-1.69,11.4-21.95,19-30.82,11.4s-8.44-25.75-1.69-32.5,3.8-6.34-.42-11.4-9.71-8.44-23.22,4.64-12.24,9.71-15.62,4.22a60.63,60.63,0,0,0-9.28-11.82A51,51,0,0,1,817.79,56c-2.11-9.29-1.26-12.25,4.65-14.36a70.84,70.84,0,0,0,14.35-8.44,16.4,16.4,0,0,1,12.66-4.64c3,.42,6.34-2.54,7.18-7.18a36.68,36.68,0,0,1,7.6-15.2C869.29.29,868.87-1,859.16-5.62a58.43,58.43,0,0,0-14.35-4.64c-6.33,0-21.11,13.51-18.57,17.31s.42,3.8-1.69,3.8-5.49,5.06-7.18,11.39-9.71,18.58-17.73,27.44-15.2,17.73-16,42.22c-.42,15.2,2.11,32.5,5.49,40.1s4.64,16.89,2.53,21.11a99.06,99.06,0,0,0-3.8,24.48c-1.69,73.88-1.69,72.61-14.78,85.7s-12.66,16.46-12.66,29.13S754.47,319,746.45,319c-1.69,0-7.18-8.86-11.82-19.42-8.87-19.84-19.84-27-41.79-27-8.87,0-15.2,4.22-25.33,16.88s-14.35,19,15.62,22.38c20.68,2.11,28.28-3.8,12.66-9.71-7.6-2.54-10.55-6.76-10.13-13.93s3-9.71,12.66-9.29c16.47.84,19.85,5.91,16.89,25.75-1.69,12.24-4.22,17.31-8,15.62s-14.78,32.51-7.18,41.37,4.22,7.6-3.37,14.78A53.43,53.43,0,0,0,684,393.73c-3,7.18-7.17,9.71-17.73,9.71a77.68,77.68,0,0,0-30,8c-23.64,12.25-30,12.25-60.37,0-7.6-2.95-8.86-2.11-7.17,3.8s-.43,3-3-2.53-7.6-9.29-10.13-9.29a17.7,17.7,0,0,1-10.55-6.33c-3-3.8-11.4-6.33-18.58-6.33H513.42l14.78,7.6c17.31,9.28,48.55,37.57,51.5,46.43s4.65,5.49,16.89,1.69,16-3.8,18.15,2.11a10.56,10.56,0,0,1-2.11,10.56,19.35,19.35,0,0,0-4.22,10.55c0,5.91-16,21.53-22.8,21.53a152.3,152.3,0,0,0-24.48,19.42c-18.58,16.46-23.64,19-41,19-10.55,0-23.22,3-27.86,6.76s-7.6,6.33,8.44,5.06c35.88-1.68,47.7,21.11,22.8,44.33-12.25,11.82-12.67,13.09-10.14,40.1,3,38.42,6.34,61.64,9.71,66.7A107.48,107.48,0,0,0,536.22,704c9.71,6.33,11,6.33,18.15,0s8.45-5.91,13.93-1.27c12.25,10.14,7.18,19.42-9.71,16.89-2.53,0-5.06,1.27-5.06,3.38s-7.18,14.35-15.62,27.44c-15.62,23.21-24.49,28.7-33.77,19.42s-9.71-1.69-22.38,6.33-16.88,12.24-12.24,17.73,4.22,7.17-.42,9.71-3.8,6.33,3.38,16.46c12.66,16.89,11.39,21.95-6.76,35.88L450.1,867.8l26.18-1.26c15.19-.85,27,.42,28.28,3a44.7,44.7,0,0,0,13.51,11c11.82,7.17,12.24,7.17,12.24-3.38a11.39,11.39,0,0,0-9.71-12.66c-11.4-3-11.82-5.91-.84-15.2s8-8.87,6.75-10.55,35.88-2.54,49,2.53,11.82,3.38,11.82,1.69,1.69-.85,3.38,2.11c6.33,9.71,31.66,26.17,36.3,23.64s3.38-1.69,2.11,0,8.87,14.77,23.22,29.13c19.84,20.68,27,25.75,32.08,22.37s5.49-3.38.85,2.53-4.22,11.4-.42,27.86c5.48,24.07,3.37,35-7.6,35A73,73,0,0,0,653.58,994c-19.42,10.13-41,6.75-47.28-7.6a15.63,15.63,0,0,0-15.62-9.29,21.13,21.13,0,0,1-13.93-3.8c-1.27-2.53-6.34-2.11-12.25.84s-9.28,5.49-4.22,14.78,4.22,12.66-.84,22.37-8,11.82-17.73,9.71a88.38,88.38,0,0,1-20.26-8.44c-16.47-10.13-43.49-6.33-65,9.29-11,7.6-21.11,14.35-22.8,14.35S431.11,1032,431.11,1026.11ZM573,909.17c3.8-6.33-10.13-16-23.64-16H538.75L551,903.69C564.5,915.51,568.3,916.35,573,909.17ZM175.71-178.7c-1.27-2.11,1.26-3,5.48-2.11s8.45-.84,10.56-19.84-2.53-40.1-10.56-35-3.37.85-2.11-1.26.43-10.14-2.11-17.31c-5.48-13.93-4.22-17.73,6.34-19.42s19.84-10.55,19.84-15.2,5.91-9.71,13.08-17.31,15.62-13.93,30.4-13.5l17.73.84-14.78-6.75a117,117,0,0,1-16.46-8c-.85-.84,7.6-13.93,19-29.12s24.48-28.29,32.08-30,10.55-4.64,8.86-8.44-3.8-5.06-5.91-3.8.85-12.24,6.34-16A53.47,53.47,0,0,1,313.75-424c20.68,0,21.53,10.55,2.11,24.48l-13.51,9.29,17.31-2.54c14.35-2.11,18.57-1.26,27.44,7.18s12.66,16.89,13.08,41.79A76.49,76.49,0,0,1,350.9-302c-2.54,4.64-3.8,8.86-2.54,8.86s-3.37,5.91-10.55,13.51a38.83,38.83,0,0,0-12.24,31.24c0,10.13,1.69,19,3.38,20.26s8.86-3.38,15.19-10.13,11.4-14.35,8.87-24.91-1.69-13.08,5.91-13.08,8.86,2.53,8.86,6.75,3,5.91,16.05,3.8,17.73-1.27,21.95,4.22,6.33,6.33,8.86-2.53c5.07-18.15,3.8-40.53-2.53-46s-8.87-3.79-19.42,1.69-14.77,5.49-19.42,1.69-4.64-5.49,0-9.29a62,62,0,0,0,11-21.52c5.06-14.78,5.06-16.89-2.11-23.22a24.5,24.5,0,0,1-9.29-14.78,33.29,33.29,0,0,0-5.07-12.24c-2.11-2.11-1.26-10.13,2.11-18.15s5.49-25.75,5.07-42.64c-.84-28.28-.42-29.13,13.93-42.21l30.4-27.44c8.86-8,22.37-16,30-17.31,23.64-4.65,87.38,11.4,87.38,21.95a18.13,18.13,0,0,1-6.33,9.29,17.26,17.26,0,0,0-6.33,8.86c0,8,6.75,3,16.88-12.24,5.49-8.44,15.62-22.8,22.38-31.66,11.82-15.62,12.66-15.62,41-15.62s42.21-2.53,42.21-12.24-.84-5.91-4.64.42a19,19,0,0,1-15.2,7.6c-10.55,0-10.55-.42-3.8-10.56s8.44-14.77.84-14.77S602.92-570,606.72-566.65s-9.29,1.69-23.22.84c-21.53-1.68-28.28-.84-38.41,6.34s-36.31,11.82-39.26,3.37-6.34-3.37-22.38,2.11c-41.37,13.94-51.5,18.58-68.81,30.4S391-511.35,373.69-538.37c-8.44-13.51-11-15.19-23.64-13.08a68.72,68.72,0,0,0-25.33,9.71,44.34,44.34,0,0,1-17.73,8,76.1,76.1,0,0,0-21.53,5.91c-11.82,5.06-15.19,5.06-22.37,0s-12.24-4.22-37.15,24.48c-9.28,10.56-16.46,14.78-24.06,14.35s-9.71-2.11-8.87-3.79.43-3-1.68-3-16.47,13.09-22,26.6-4.22,12.24,9.29,9.71A338,338,0,0,1,223-465.76c9.28-.42,24.48-22.37,19.42-27.44s-.85-2.53,1.68-2.53,11-5.07,18.16-11.4c17.3-14.35,21.95-8.44,18.15,24.06s-11.82,46.86-21.53,45.6-11.4,15.19-.84,32.5l9.28,14.78-12.66,15.62a277.34,277.34,0,0,1-21.53,24.06A24.52,24.52,0,0,0,224.25-337c0,2.95-5.91,12.24-13.08,20.26s-16.47,15.2-26.18,15.2-32.5-13.93-32.5-24.06-1.69-4.65-8.44-.43-9.29,3.8-13.09.43-.84-15.2,7.18-12.25,5.91,0,5.91-2.11-17.73-26.17-25.33-25.33-1.69,25.75-.85,29.13c2.11,10.13-54,30.4-61.63,30.82s44.32-8,51.08-4.22,9.29,2.95,12.24.42,21.11-.85,19,8,0,7.6,6.33,6.75,9.29,2.12,10.13,8.45-4.64,13.08-8.44,3.37a8.87,8.87,0,0,0-7.18-6.33c-3.37,0-2.53,3,2.11,8s5.91,8.87,2.54,10.56a5.06,5.06,0,0,0-2.11,6.75c1.26,2.11-2.12,8.87-8,14.78s-24.06,12.24-20.26,12.24,22.38,5.06,24.06,16c5.07,35.46,6.76,41,13.93,42.64S178.24-174.9,175.71-178.7Zm-24.49-24.48c-8.44-8.44-.42-39.26,10.13-39.26s8,17.31,1.69,29.13S155.44-199,151.22-203.18ZM334-447.18c-4.22-5.07-4.22-8-.84-11.4s18.57-.84,16.88,7.6S340.34-439.58,334-447.18Zm99.63,241.89c5.49.84,10.13-.85,10.13-3.38s-24.06-5.91-27.44,0-11.4-1.69-8.86-18.15,2.11-16.47-3.8-11.82-8,19,.42,32.08,8,9.71,13.51,5.07a24.4,24.4,0,0,1,16-3.8ZM125.05-377.53c3.8-8,9.71-12.66,15.2-12.66s24.9-7.6,24.9-13.09-3-3.8-6.33-3.8-8-4.22,0-14.77a32.53,32.53,0,0,0,5.91-19c0-8,3.8-26.17,1.69-21.11s-38.84,59.1-43.48,59.1-17.73,20.27-14.78,29.13S117.45-362.75,125.05-377.53ZM803.86,1009.22c-11-12.66-22.79-23.22-26.17-23.22s-5.07-1.26-3.8-2.53-1.69-6.75-6.76-12.24C752.36,954.77,747.29,948,750.25,948s.84-2.53-1.69-5.49-9.71-26.59-6.33-30,9.71,4.22,18.57,12.24a90.83,90.83,0,0,0,27,17.31c5.91,1.27,10.55,4.22,10.55,5.91s4.65,8.87,10.56,15.2,13.08,8.86,11-3.8c-.84-5.07,10.13-3.8,15.62,2.11a24.47,24.47,0,0,1,5.07,14.78c0,11.39,2.53,11.82,11.4,3s7.59-5.91,14.77,1.27a19.42,19.42,0,0,1-9.71,33.35,38.44,38.44,0,0,0-19,10.55,30.2,30.2,0,0,1-10.55,8C825.81,1032.44,814.84,1021.89,803.86,1009.22Zm463.94-22c-7.6-2.95-6.33-12.66,2.11-16s17.31,4.64,9.29,12.24A14.37,14.37,0,0,1,1267.8,987.27ZM903.91,975.45c-6.33-7.6-2.53-19,6.33-19s6.33,3.8,6.33,10.14C916.57,979.67,910.66,983.47,903.91,975.45ZM1223.05,951c-6.33-4.65-6.33-6.76-1.69-16s8-10.14,19-8.87c17.31,1.69,17.73,10.13,1.69,21.53C1232.34,954.34,1229,955.19,1223.05,951Zm-343.62-26.6c-12.67-25.75-11.82-29.55,6.33-37.15s39.68-23.64,32.5-23.64a16.92,16.92,0,0,0-10.55,6.76,38,38,0,0,1-39.26,10.55,453.5,453.5,0,0,0-60.37-14.77A111.32,111.32,0,0,1,779,851.76c-11.39-7.17-21.53-12.24-23.21-11.4s-3.8,7.6-5.49,14.78-3.38,12.24-8.44,7.6-5.07-6.76-4.23-8.44-13.5-11.82-27.86-11.82c-23.22,0-20.68-23.65,3.8-33.78l12.24-5.06-8.44-14.36c-6.75-11.82-11-14.35-22-14.35a32.53,32.53,0,0,1-18.58-5.06c-7.17-7.6-6.75,4.22,1.27,23.21s3.38,22-12.66,18.16-11-3.38-11.4-44.33c0-13.51-1.27-17.31-5.91-15.62a7.59,7.59,0,0,1-8.44-2.53c-1.69-3-1.27-3.8,1.68-1.69s5.07.84,5.07-1.69-2.53-4.22-5.91-4.22c-10.13,0-19.84-27.86-20.68-59.1s-1.69-29.55-9.29-29.55c-20.27,0-38-28.71-22.38-35.46,4.23-1.69,3.8-3.38-.84-6.76s-5.07-5.48-1.27-7.17,1.69-9.71-11-9.71-27.86-19.84-21.53-29.55.84-9.71-4.65-16.47c-10.55-13.5-10.13-15.61,4.65-21.52A41.38,41.38,0,0,0,570,514c1.69-3.37,11.82-7.17,22.8-8.44,17.73-1.69,19-1.26,20.68,8a17.31,17.31,0,0,0,12.25,13.51c8.86,3.38,13.93,2.11,25.32-6.75s31.66-17.73,52.77-26.18,42.22-19,46-23.64,33.77-11,37.57-2.95,1.69,1.27.84-4.22,0-9.29,6.33-9.29c15.2,0,51.93,27.86,56.57,42.64,1.69,5.48,6.76,8,14.78,8a18.56,18.56,0,0,1,16.88,8c5.49,11,5.49,13.08-2.11,13.08s-5.91,3.38-4.64,14.78,0,14.78-3,14.78-29.55,19.84-26.59,24.9,15.62,5.91,13.93-.42,14.77-14.78,30.82-17.73a52.24,52.24,0,0,0,19-8.87c8-6.33,8-6.75.42-12.66a19.82,19.82,0,0,0-14.77-3.8c-5.91,1.69-5.49,1.27.42-2.53a15.62,15.62,0,0,0,7.6-11.4c0-4.22,2.11-5.49,6.75-3.8s5.91,0,3.8-10.13a36.34,36.34,0,0,1,2.11-21.53c3.8-6.75,3.8-10.13,0-12.24s-3.37-4.22.85-7.6,18.15,3.38,30,37.15c5.91,17.31,14.78,35.88,19.42,41.37,11.82,13.51,11,16.46-5.91,23.64l-15.2,6.33,8.44,16.46a258,258,0,0,0,18.16,28.71,244.65,244.65,0,0,1,22.37,37.57c7.18,13.93,13.93,25.75,16,26.6s-5.91,13.08-12.66,10.55-5.91,4.22-4.65,48.55c.85,28.28.43,51.5-1.26,51.5s-4.65,8-7.18,17.73c-8.44,33.77-15.62,49.81-22.79,51.92a16,16,0,0,0-8.87,10.56c-3.38,12.24-15.62,10.55-15.62-2.11s-2.53-10.56-6.75-10.56-5.91,2.11-4.22,6.76a69.21,69.21,0,0,1,2.53,19c0,9.29,1.69,12.25,8.86,12.25,14.36,0,8,16.88-11,30C901.38,949.28,890.4,947.59,879.43,924.37Zm398.08,9.71c-6.33-19-4.64-22,12.66-22s16.89,1.27,18.16,10.13a14,14,0,0,1-4.23,13.51c-8.44,5.49-24.48,4.22-26.59-1.69Zm181.94-2.53c4.23-4.22-18.15-14.78-28.7-13.93s-15.62-2.54-27.86-14.78a196.9,196.9,0,0,0-41-29.55c-13.93-7.6-25.75-15.62-26.6-18.15s30.4-4.22,48.55,5.91C1394,867,1402,869.91,1402,868.23s-13.51-16.47-21.1-18.16-9.71-6.75-13.94-13.08-9.28-20.27-4.22-19.42a42.2,42.2,0,0,0,16-5.07l12.67-5.91-18.15-1.26c-19.42-1.69-26.6-9.29-17.73-19.84s1.26-16.89-6.76-10.56-5.06,6.76-3.8,8.44-11.4,0-27.86-4.64-57-18.15-72.19-19.42c-21.53-1.69-29.12-.42-34.19,4.65-15.2,15.19-41,2.53-41-20.27,0-7.6-1.69-10.55-5.06-8.44s-3.38.84-1.69-2.11a5.49,5.49,0,0,1,7.44-2.2l.16.09c8.86,5.49-1.27-21.53-13.09-34.2-21.95-24.48-23.64-27.86-16.89-32.08s5.07-3.8-.84-3.8a17.69,17.69,0,0,0-11.4,5.07c-4.22,3.8-7.18,3-13.93-3.8s-7.6-13.93,17.31-25.75,25.75-30,10.55-62.9c-9.29-21.11-13.51-26.18-23.64-28.29-18.57-3.8-16.88-19.84,2.53-29.12s18.58-17.31,4.23-36.73-28.71-28.28-53.62-34.19c-11.39-2.54-21.53-6.34-22.37-8.45s12.24-12.24,28.28-12.66c7.6-.42,10.56-1.69,6.34-2.53a22,22,0,0,1-11.82-12.67c-2.54-6.75-24.07-22.37-40.95-22.37-5.07,0-9.29-1.69-9.29-3.38,0-13.51,43.9-19,61.21-7.6,7.18,5.07,11,4.22,26.6-5.06s19.84-9.71,28.7-5.91,13.09,13.5,1.69,16.46-7.6,3.38-3.8,8,4.22-4.64,30.82-8.87c18.57-3.37,57.41-28.7,57.41-40.1a51,51,0,0,0-5.07-19c-5.91-13.08-3-17.3,8.45-11s10.13,3,14.35-.85a68.52,68.52,0,0,1,19-11c14.77-6.33,20.68-21.11,15.62-41.37s-12.25-21.53-33.35-24.49-56.57-19-59.53-28.7,6.34-15.2,26.18-4.65a92.87,92.87,0,0,0,35,10.14,277.52,277.52,0,0,1,49.39,8.44c35,8.86,57.83,8.44,71.76-2.53a38.27,38.27,0,0,1,17.31-5.91c8,0,9.71,2.11,9.71,11.82a28.25,28.25,0,0,1-8.44,19.41c-5.91,5.49-7.18,9.71-4.65,14.78a42.33,42.33,0,0,1,3.38,17.31c-.84,7.6-3.38,10.55-10.13,10.55s-8.44-1.27-7.6-2.53-4.22-5.07-11-9.29c-15.19-8.44-15.19-7.6-1.26,14.35a210.14,210.14,0,0,1,16,32.51l5.49,15.62-14.78.84c-8.86.85-16.46-.84-18.57-4.22s-4.65-3-9.29,3.38-2.11,16.88,9.29,11a49,49,0,0,1,19.84-4.64c9.29,0,12.24,3,17.73,16.46s8.44,16.05,10.55,14.78,2.53,2.11.85,8.44-1.27,11,4.22,11,6.33,1.26,5.49,3-.43,7.18,1.26,11.82,3.8,7.18,3.8.85a77.82,77.82,0,0,0,0-10.13,8.43,8.43,0,0,1,4.65-5.49c3-1.69,4.64-7.6,4.64-13.09-1.69-31.24-.85-37.57,6.33-47.28a50.25,50.25,0,0,1,19.42-16,43.64,43.64,0,0,0,11.82-5.91,213.53,213.53,0,0,0-8.44-19.84c-11.4-24.91-11-38.84,1.26-44.75a22,22,0,0,1,19.84.42c8.87,4.23,10.56,8.45,11.82,26.18s4.23,24.06,7.6,27.86,18.58,43.9,18.58,65.85-5.91,35-21.53,35c-7.6,0-11.82,1.69-10.13,4.22s26.59,4.65,31.66-4.22c8.44-16.46,3-72.19-11.82-114a94.36,94.36,0,0,1-3-19.84,136.82,136.82,0,0,0-3.8-24.06c-3-12.67-12.66-13.93-43.06-6.33-10.55,2.53-19.84,3.8-20.68,3a45.56,45.56,0,0,1-4.65-15.2c-3-14.35,104.7-90.34,121.58-101.73,30.82-21.11,43.91-26.18,52.35-20.69s18.15,6.76,35.46,11.4,32.93,10.55,35.46,13.09a25.32,25.32,0,0,0,14.35,4.22c5.91,0,15.2,5.49,22.8,13.51s14.77,13.51,16.46,12.66a2,2,0,0,1,3,2.11,32.15,32.15,0,0,0,2.53,13.09,22,22,0,0,1-3.38,19.42c-5.06,7.6-5.48,10.55-1.26,12.24s.84,2.11-4.65,2.53-9.28,2.11-9.28,4.65a98.09,98.09,0,0,1-8.45,22,105.69,105.69,0,0,0-8.44,21.53,150.52,150.52,0,0,0,12.66,28.7c8,16,12.67,31.24,12.67,43.06a82.76,82.76,0,0,0,8.44,33.35c4.65,8.87,16.47,68.39,19.84,75.14s14.78,61.64,10.56,57-4.65,1.69-8,5.91a39.29,39.29,0,0,1-20.69,11.4q-30.39,5.49-35.46-35.46c-2.11-15.62-3.38-18.15-6.33-11.4-6.76,16-10.56,18.58-21.53,14.36s-16-.85-37.57,9.28a169,169,0,0,0-37.15,23.22c-11,11-24.06,46.44-24.06,65.43s23.21,38.84,34.61,35.89c4.22-.85,6.76-.43,5.49,1.26s27.44,13.51,32.51,10.56,3-.85,2.53.84,3.8,10.13,10.13,18.58c13.93,18.57,23.64,64.58,15.2,74.72-14.36,17.3-36.73,26.59-64.59,26.59-45.59,0-68.39,16-75.14,53.61-2.54,12.67-2.11,13.51,11.82,16s15.62,5.49,17.3,13.09-.42,22-10.55,25.75-8,3.8,1.27,27,9.28,24.06,3,32.08a17.29,17.29,0,0,1-15.19,7.18c-4.65-.85-13.09,3.38-19.42,9.29s-14.36,10.13-30.4,9.28S1458.19,932.39,1459.45,931.55Zm47.71-135.93c-3.38-6.76-5.91-8-9.29-4.22s-3.38,5.91,1.27,8.86,13.08,4.64,8-4.64ZM819.48,924.79c-16.46-5.48-19.84-11.39-11-19s28.71-9.29,25.33-3.8.85,5.06,4.22,6.33,8.45,6.33,1.27,15.2S832.14,929.44,819.48,924.79Zm-58.26-45.17c-6.33-6.33-6.75-14.77-.42-18.57s16,9.71,16.47,18.15S768,886,761.22,879.62Zm791.11-2.53c-6.34-5.91-2.11-16.88,7.17-18.57s9.71-.43,8,7.6S1557,882.16,1552.33,877.09ZM718.59,866.54c-4.65-11.82,1.26-19,9.71-11.82s8.44,15.62,0,18.57S720.7,872.87,718.59,866.54ZM47,831.92a9.72,9.72,0,0,0-10.13-3.8c-2.53,1.69-2.53.42.42-3s5.49-19,5.49-42.64c0-34.62.42-37.57,10.55-43.9s41.8-5.49,46.44,2.53S93,766.49,87.9,766.49s-3.38,8.86-2.11,20.68c2.11,21.53-1.69,34.2-10.55,34.2s-7.6,3.8-10.56,8.44S54.13,840.36,47,831.92ZM478.39,812.5c.42-7.6,3.8-14.77,6.33-15.62s6.75,15.2-1.27,23.22S477.12,825.59,478.39,812.5Zm667.83-41c-5.91-4.22-16-30-13.08-33.35s19,3.38,21.52,12.67C1160.15,771.13,1156.78,778.73,1146.22,771.55ZM77.35,691.77c-10.13-2.11-12.25-11.4-4.22-19.84s24.48-3.8,24.48,3.8-4.64,19-8,18.15Zm506.57-16.46c-.84-10.56.85-13.94,8-15.62s7.6-1.27,6.34,0-.43,5.06,2.11,8,.84,22.37-8.45,21.53S584.34,684.59,583.92,675.31Zm459.3-.43c.42-3.8,15.2-22.37,17.73-22.37s1.69,5.07,1.69,11.4-3,12.24-10.13,13.08S1043.22,676.57,1043.22,674.88ZM33,633.93a22.4,22.4,0,0,1-7.18-14.35c0-4.64-2.11-9.29-4.64-10.13s-5.49-8.86-6.33-17.73a146,146,0,0,0-3.8-23.22,19.41,19.41,0,0,1,3.38-14.77c5.06-6.76,5.91-6.76,16.88,3.37s14.36,11,17.73,11S55,575.68,54.55,604C54.13,642,50.33,647,33,633.93Zm1742.2-163.79c-17.73-24.06-18.57-47.7-2.11-47.7,8.86,0,11,2.53,13.93,16S1782.4,479.85,1775.22,470.14ZM773.89,366.72c-8-3.38-5.91-9.71,3-9.71a19.43,19.43,0,0,0,13.93-7.6A35.49,35.49,0,0,1,803,338.85c5.91-2.11,6.75,0,6.33,10.14C808.08,366.72,792.89,374.31,773.89,366.72ZM889.13,357c-1.68-2.54-3.79-12.25-7.17-18.16-6.76-12.66-.85-43.9,11.4-59.52s13.5-31.24-.43-36.3-10.55-5.91-9.28-28.71,2.53-24.48,10.55-25.33,9.71.85,11.82,9.29,3,16,4.64,22.37a63.87,63.87,0,0,0,12.67,23.22,48.14,48.14,0,0,1,10.13,24.91c0,10.55,1.27,12.24,8.44,10.13s8.45-2.11,8.45-1.27a180.26,180.26,0,0,1-8.45,18.16,74.78,74.78,0,0,0-8.44,24.9,110.92,110.92,0,0,1-4.64,24.49c-3.8,14.77-5.49,16-20.69,16S890.4,359.12,889.13,357Zm239.78-73c-22.79-15.62-30-44.75-7.59-30a248.39,248.39,0,0,1,23.21,15.62c9.29,7.6,11.4,24.06,3,23.64a56.11,56.11,0,0,1-18.58-9.28ZM841.43,238a24.47,24.47,0,0,1-5.06-15.2c0-8.44,1.68-9.71,11.39-8.44s11.82,3.38,13.09,14.78,0,13.93-6.33,13.93A21.57,21.57,0,0,1,841.43,238Zm446.63-531.9c-16.88-18.16-14.77-26.18,6.34-29.13,9.28-1.69,21.95-4.22,27.86-5.91,16.46-4.22,18.57,4.22,4.22,17.73A48.57,48.57,0,0,0,1313-291.41C1310.44-278.32,1301.57-279.17,1288.06-293.94ZM1075.72-654.88a15.56,15.56,0,0,1-3-9.71c0-3.8-42.22-27.86-42.22-29.13s16.89-25.75,16.89-28.28c0-13.51,94.14-33.35,109.76-23.22s-2.54,22.38-26.6,27.44c-9.28,2.11-11.4,4.65-11.4,15.2S1106.54-673,1098.1-673s-6.34,4.64-8.45,10.55S1080.79-649.39,1075.72-654.88Z" />
    </g>
</svg>
