<svg id="Øsm" xmlns="http://www.w3.org/2000/svg" width="304.8mm" height="19.75mm" viewBox="0 0 864 56"><defs><style>.cls-1{fill:#bab192;}.cls-2{fill:#fff;}</style></defs><title>logoheader</title><g id="New_Symbol" data-name="New Symbol"><path class="cls-1" d="M0,0V56H863.32V0ZM48.26,9.69,31.05,26.89v2.3L48.26,46.4v3l-.46.46H7.42L7,49.38V6.7l.46-.46H47.8l.46.46Z"/></g><path class="cls-2" d="M55.94,42.32l.16.19v2.8h.37l2.18-3h1.09l.17.15V43l-2,2.89V46l2.1,2.7v.54l-.18.17H58.7l-2.05-2.57H56.1v2.42l-.16.15H54.79l-.15-.15v-6.8l.15-.15Z"/><path class="cls-2" d="M74.34,42.32l.17.19v2.8h.36l2.19-3h1.08l.17.15V43l-2,2.89V46l2.1,2.7v.54l-.18.17H77.11l-2-2.57h-.55v2.42l-.17.15H73.2L73,49.27v-6.8l.16-.15Z"/><path class="cls-2" d="M66.82,49.42H65.38L65,47.76H62.43l-.38,1.66H60.6v-.24l1.68-6.86h2.86l1.68,6.85Zm-2.12-3-.63-2.94h-.7l-.65,2.94Z"/><path class="cls-2" d="M72.1,48.16v1.11l-.21.15H67.8l-.16-.15V42.48l.17-.16H69l.16.15V48h2.76Z"/><path class="cls-2" d="M87.75,42.3H85.69l-1.61,7v.08H85l.46-2H88l.46,2h.88v-.09q-.81-3.49-1.61-7Zm-2.14,4.34.8-3.59H87l.8,3.59Z"/><path class="cls-2" d="M99,42.3H96.51l-.1.08v7l.08.08H99a1.79,1.79,0,0,0,1.87-1.9V44.2A1.8,1.8,0,0,0,99,42.3Zm1.1,5.18a1,1,0,0,1-1,1.12H97.24V43.13H99a1,1,0,0,1,1,1.12Z"/><path class="cls-2" d="M95,42.3h-.72l-.07.08v5.76l-.17-.5-2.6-5.34h-1l-.08.08v6.95l.08.08h.73l.07-.08V43.61l.15.46,2.58,5.33h1l.07-.09V42.38Z"/><path class="cls-2" d="M109.8,49.41l.08-.08V43.19h1.74l.1-.1v-.71l-.07-.08h-4.32l-.07.08v.74l.07.07H109v6.22Z"/><path class="cls-2" d="M83.52,48.55H80.41V42.38a.22.22,0,0,1,0-.08h-.8l-.07.08v6.95l.07.08h4l.07-.08v-.7Z"/><polygon class="cls-2" points="102.1 45.3 102.1 46.3 105.97 46.3 106.03 46.22 106.03 45.38 105.97 45.3 102.1 45.3"/><polygon class="cls-2" points="102.1 48.45 102.1 49.31 102.2 49.41 106.19 49.41 106.26 49.33 106.26 48.54 106.18 48.45 102.1 48.45"/><polygon class="cls-2" points="106.17 42.3 102.15 42.3 102.07 42.37 102.07 43.3 102.86 43.3 102.86 43.3 106.16 43.3 106.24 43.22 106.24 42.37 106.17 42.3"/><path class="cls-2" d="M62.67,10.42v6.93a3.83,3.83,0,0,1-4.06,3.84A5.27,5.27,0,0,1,57.15,21l-.4,1.1h-1l-.2-.18V21l.26-.84a3.87,3.87,0,0,1-1.22-2.86V10.4a3.75,3.75,0,0,1,4.06-3.76,6.9,6.9,0,0,1,1.52.2c.1-.34.32-.82.44-1.22h1l.14.14v.92l-.28.86A4.27,4.27,0,0,1,62.67,10.42Zm-4.7,3,1.68-5.09a5.58,5.58,0,0,0-1-.14,2.23,2.23,0,0,0-2.5,2.26v7a1.6,1.6,0,0,0,.22,1Zm3.08-2.95a3.58,3.58,0,0,0-.16-1.3c-.54,1.64-1.3,4.22-3.28,10.33a3.9,3.9,0,0,0,1,.12,2.19,2.19,0,0,0,2.42-2.28Z"/><path class="cls-2" d="M73.39,17.37c0,2.56-1.18,3.86-4.48,3.86s-4.3-1.34-4.36-3.52l.16-.14H66l.14.14c.08,1.42,1,1.94,2.76,1.94,2.34,0,2.94-.58,2.94-2.32a2,2,0,0,0-1.22-2c-1.24-.64-2.46-1.2-4-1.95a3.1,3.1,0,0,1-1.86-3.22c0-2.1,1-3.6,4.14-3.6s4.2.86,4.28,3.4l-.16.17h-1.3l-.16-.19c0-1.44-.52-1.84-2.66-1.84S66.35,8.8,66.35,10a2,2,0,0,0,1.24,2c1,.49,2.58,1.17,3.6,1.65C72.67,14.39,73.39,15.11,73.39,17.37Z"/><path class="cls-2" d="M78.41,21V8.3H74.89l-.14-.14V6.86l.14-.16h8.66l.14.14V8.1l-.2.2H80V20.81l-.16.16Z"/><path class="cls-2" d="M93.73,17.37c0,2.56-1.18,3.86-4.48,3.86s-4.3-1.34-4.36-3.52l.16-.14h1.28l.14.14c.08,1.42,1,1.94,2.76,1.94,2.34,0,2.94-.58,2.94-2.32a2,2,0,0,0-1.22-2c-1.24-.64-2.46-1.2-4-1.95a3.1,3.1,0,0,1-1.86-3.22c0-2.1,1-3.6,4.14-3.6s4.2.86,4.28,3.4l-.16.17h-1.3l-.16-.19c0-1.44-.52-1.84-2.66-1.84S86.69,8.8,86.69,10a2,2,0,0,0,1.24,2c1,.49,2.58,1.17,3.6,1.65C93,14.39,93.73,15.11,93.73,17.37Z"/><path class="cls-2" d="M103.51,6.86V17.53c0,2.4-.94,3.62-4,3.62s-3.92-.8-3.94-3.48l.12-.14h1.34l.12.12c0,1.76.42,1.92,2.38,1.92,1,0,2.38-.18,2.38-1.9V8.28H96.83a1.29,1.29,0,0,1-.16-.18V6.86l.16-.16h6.54Z"/><path class="cls-2" d="M113.39,19.39h5.94l.18.18v1.22l-.16.16h-7.54V17h-3.92c-.14.54-.34,1.26-.48,1.84s-.4,1.44-.58,2.16h-1.52v-.3l3.66-14h10.4l.14.16V8.12l-.14.14h-6v4.37h5.48l.16.17v1.27l-.14.14h-5.5ZM111.81,8.26h-1.66l-1.86,7.11h3.5Z"/><path class="cls-2" d="M130.11,19.57v1.24L130,21H122l-.14-.16V6.86L122,6.7h1.34a.7.7,0,0,0,.1.16V19.41H130Z"/><path class="cls-2" d="M140.25,19.57v1.24l-.14.16h-7.94l-.14-.16V6.86l.14-.16h1.34a.7.7,0,0,0,.1.16V19.41h6.5Z"/><path class="cls-2" d="M152.09,20.79V21h-1.6l-.9-4h-5.54l-.88,4h-1.6v-.16L144.81,6.7h4C149.83,11.4,151,16.11,152.09,20.79Zm-2.92-5.38L147.63,8.2H146l-1.58,7.21Z"/><path class="cls-2" d="M163.33,6.86v14l-.14.18-1.76,0-5.36-10.71-.3-.92V20.83l-.14.16h-1.28l-.16-.16V6.88l.16-.16h1.7l5.38,10.71.34,1V6.86l.16-.14h1.26Z"/><path class="cls-2" d="M175.09,10.48v6.67A3.59,3.59,0,0,1,171.33,21h-4.76s-.14-.14-.16-.16v-14l.2-.16h4.64A3.61,3.61,0,0,1,175.09,10.48Zm-1.56.06a2,2,0,0,0-2.12-2.28H168V19.41h3.44a2,2,0,0,0,2.1-2.28Z"/><path class="cls-2" d="M186.23,17.37c0,2.56-1.18,3.86-4.48,3.86s-4.3-1.34-4.36-3.52l.16-.14h1.28l.14.14c.08,1.42,1,1.94,2.76,1.94,2.34,0,2.94-.58,2.94-2.32a2,2,0,0,0-1.22-2c-1.24-.64-2.46-1.2-4-1.95a3.1,3.1,0,0,1-1.86-3.22c0-2.1,1-3.6,4.14-3.6s4.2.86,4.28,3.4l-.16.17h-1.3l-.16-.19c0-1.44-.52-1.84-2.66-1.84s-2.58.74-2.58,1.94a2,2,0,0,0,1.24,2c1,.49,2.58,1.17,3.6,1.65C185.51,14.39,186.23,15.11,186.23,17.37Z"/><path class="cls-2" d="M66,24.12V37.55l-.42.42H64.07l-.4-.4V28.25l-.44,1.29c-.62,1.27-1.4,2.89-2,4.07H59.45l-2-4.16-.4-1.2v9.32l-.32.4H55l-.34-.4V24.14l.4-.44h2.16l3.1,6.39,3.08-6.39h2.2Z"/><path class="cls-2" d="M77.65,24.12V34c0,2.8-1.4,4.16-4.62,4.16s-4.6-1.38-4.6-4.18V24.14l.4-.44h1.5l.42.44V34c0,1.4.86,1.94,2.28,1.94s2.28-.58,2.28-1.94V24.14l.4-.44h1.52Z"/><path class="cls-2" d="M86.37,30.33c1.58.71,2.32,1.5,2.32,3.84,0,2.7-1.22,4.06-4.64,4.06s-4.46-1.48-4.52-3.9l.42-.4h1.5l.42.4c.06,1.14.82,1.56,2.16,1.56,1.88,0,2.36-.44,2.36-1.76a1.46,1.46,0,0,0-.94-1.54l-3.68-1.82a3.3,3.3,0,0,1-2-3.43c0-2.22,1.06-3.78,4.32-3.78s4.36.94,4.44,3.76l-.4.42H86.53l-.38-.48c0-1.14-.36-1.42-2.08-1.42s-2,.52-2,1.4A1.56,1.56,0,0,0,83,28.79Z"/><path class="cls-2" d="M90.93,37.51V24.12l.42-.42h7.9l.38.42v1.5l-.4.42h-6V29.3h5.54l.4.41v1.52l-.4.4H93.27v4h6l.36.46v1.42l-.38.42H91.39Z"/><path class="cls-2" d="M110.89,24.12V34c0,2.8-1.4,4.16-4.62,4.16s-4.6-1.38-4.6-4.18V24.14l.4-.44h1.5l.42.44V34c0,1.4.86,1.94,2.28,1.94s2.28-.58,2.28-1.94V24.14l.4-.44h1.52Z"/><path class="cls-2" d="M124.43,24.12V37.55L124,38h-1.52l-.4-.4V28.25l-.44,1.29c-.62,1.27-1.4,2.89-2,4.07h-1.82l-2-4.16-.4-1.2v9.32l-.32.4h-1.68l-.34-.4V24.14l.4-.44h2.16l3.1,6.39,3.08-6.39h2.2Z"/></svg>
