<svg xmlns="http://www.w3.org/2000/svg" width="80.689" height="57.634" viewBox="0 0 80.689 57.634">
  <g id="Group_51" data-name="Group 51" transform="translate(-9877 -4125.5)">
    <g id="nq5DFC.tif" transform="translate(9877 4125.5)">
      <g id="Group_3" data-name="Group 3" transform="translate(0 0)">
        <path id="Path_35" data-name="Path 35" d="M-3400.9-1948.079v-5.647c.022-.166.041-.333.066-.5a8.448,8.448,0,0,1,2.054-4.452,8.332,8.332,0,0,1,6.389-2.954c5.277-.026,10.555-.008,15.832-.008q23.857,0,47.714,0a8.06,8.06,0,0,1,1.572.118,8.54,8.54,0,0,1,6.664,5.552,4.552,4.552,0,0,1,.395,1.658q.006,20.84,0,41.68a7.288,7.288,0,0,1-.138,1.536,8.57,8.57,0,0,1-6.178,6.791,9.233,9.233,0,0,1-1.531.294h-43.632a.854.854,0,0,0-.267-.018q-10.234,0-20.468,0a7.08,7.08,0,0,1-1.779-.21,8.531,8.531,0,0,1-6.425-6.184,8.894,8.894,0,0,1-.272-1.518v-17.043c.006-.089.018-.178.018-.267q0-9.271,0-18.542C-3400.886-1947.89-3400.9-1947.984-3400.9-1948.079Zm8.615-8.958a.534.534,0,0,0,.147.181l12.278,12.257,18.35,18.325a1.42,1.42,0,0,0,2.189.017q15.315-15.312,30.628-30.625c.042-.041.1-.072.108-.156Zm4.18,48.682h54.685c.028,0,.056,0,.084,0s.089.016.108-.025-.036-.073-.061-.107a.318.318,0,0,0-.035-.036l-18.623-18.621c-.153-.153-.153-.152-.312.006l-7.036,7.034a1.452,1.452,0,0,1-2.222,0l-7.262-7.308c-.156-.156-.156-.157-.311,0L-3388-1908.51A.267.267,0,0,0-3388.109-1908.355Zm63.508-46.432c-.044.041-.078.069-.109.1q-12.075,12.073-24.152,24.144c-.12.119-.124.188,0,.308.835.828,1.662,1.665,2.493,2.5q4.2,4.21,8.407,8.42,5.283,5.293,10.562,10.59a.308.308,0,0,0,.368.086,3.259,3.259,0,0,0,2.091-1.994,6.465,6.465,0,0,0,.369-2.358q0-20.8,0-41.593A.366.366,0,0,0-3324.6-1954.788Zm-71.432.21a.3.3,0,0,0-.026.2q0,21.142,0,42.284a6.015,6.015,0,0,0,.108,1.2,2.791,2.791,0,0,0,1.653,2.161c.267.117.267.118.473-.089l21.583-21.579a1.027,1.027,0,0,1,.083-.083c.106-.084.113-.16.006-.257-.146-.131-.279-.275-.418-.413q-11.641-11.64-23.283-23.279C-3395.908-1954.485-3395.948-1954.558-3396.033-1954.577Z" transform="translate(3400.904 1961.645)" fill="#fff"/>
      </g>
    </g>
  </g>
</svg>
