<svg id="Layer_1" data-name="Layer 1" xmlns="http://www.w3.org/2000/svg" width="627" height="375" viewBox="0 0 627 375">
    <defs>
        <style>
            .cls-1 {
                fill: #cce1a7;
            }

        </style>
    </defs>
    <title>mobilelandscape</title>
    <g id="layer1">
        <path id="path1364" class="cls-1" d="M449.13,451.7c-5.23-5.59-9.56-19.65-8.3-26.5s.36-5.78-2.88.54c-1.63,3.06-2,5.77-1.08,6.85s-9,2.34-16.59-1.08-21.46-4.69-27.23-1.63a133.45,133.45,0,0,0-12.63,9l-8.83,7-13.35-9.37c-7.39-5.23-15-11-16.95-12.63a13.39,13.39,0,0,0-4.69-3.24,30.5,30.5,0,0,1-7.57-4.87c-4.87-3.61-21.82-11.72-24.35-11.36l-6.31-2c-6.67-2.34-9.37-6.31-9.37-14.06s4.86-10.1,8.83-7.58,8.66.55,10.1-1.8-2-4.69-5.41-8.84c-6.49-7.93-8.12-15.5-4.15-19.47,1.08-1.26,1.63-2.16,1.08-2.16s1.09-2.35,4-5.23c6.49-6.5,14.07-9.2,25.79-9.2,7.57,0,10.1.9,16.77,6.31s7.93,7.93,7.93,9.74c0,5.05,5,10.28,17.14,17.49s19.83,9.38,18.39,5.41c-.54-1.26.9-2.34,3.79-2.52,6.31-.55,9.19-3.79,9.73-10.82s3.25-7.4,9.38-1.27c2.53,2.35,5.41,4.51,6.67,4.51s.18-11.36-4.69-15.69l-4.5-4,4.68-3.79c5.41-4.15,6.86-4.33,11.55-1.8s4.14.9,6.31-1.27,3.6-2.52,7.21-.54a12.27,12.27,0,0,1,5.59,5.77,3.06,3.06,0,0,0,3.47,2.6,3.15,3.15,0,0,0,.86-.25c5.05-1.63,12.08.72,13.16,4.32s3.79,4,10.28,5.41,9.74,1.63,10.28,1.27,0-2.35-.9-4.69-1.8-3.61-3.79-1.26-13.34.36-12.44-3.79,6.49-7,12.44-3.61l5.59,3.25-.9-4.69c-.72-3.79,0-5.05,4-6.67a35.59,35.59,0,0,0,7.75-4.69,10.09,10.09,0,0,1,8.48-1.44c6.49,1.26,8.29-2.17,5.41-10.82-1.81-5.41-1.63-6.5,1.26-8.66s4-2,7.21,1.08a23.76,23.76,0,0,0,10.82,4.33c18,2.53,20.56,3.25,26.69,9s6.49,7.21,6.49,12.26-.9,6.49-5.23,8.11-5.77,1.27-6.49.73-6.13-2.53-17.49-3.43-17.49,2-22.18,12.08-12.26,11.9-19.3,7-6.85-2.88-2.34,2a22.34,22.34,0,0,1,3.79,8.29c.72,4.33.18,5.77-3.25,7.58s-17.67,21.46-17.67,25.42c0,1.27-2.35,5-5.41,8.48q-9.2,10.28-6.49,26.51c3.6,20.56,3.6,19.29-1.09,19.29S451.65,454.59,449.13,451.7Zm-4-39.31c.18-9-2.88-10.64-7.57-4s-5.23,6.5-.36,8.48,7.75,1.44,7.93-4.51Zm-9.92-24.7c-1.8-1.81-2-1.63-.9,1.08s1.62,2.7,2.17,2.16S436.51,389,435.24,387.69Zm-3.42-8.12a18.18,18.18,0,0,0-5.05-9c-5-4.87-5.77-2.71-1.08,3.42a45.38,45.38,0,0,1,4.5,7.4C432,386.24,432.9,385.16,431.82,379.57ZM231.65,404.82a48.35,48.35,0,0,1-2.7-12.63c-.73-5.22-2.35-11.18-3.79-13.34s-1.62-8.29,7.75-15,7.22-5.41,4.69-8.11-3.43-13.17,2.71-19.84,6.13-7.93,5.59-11.36c-.18-.72.36-1.08,1.08-.9,5.77,1.62,18.75-15.69,18.21-24.16-.36-5.05,7-17.68,10.28-17.68a7.61,7.61,0,0,1,4.51,2.71c4.69,5.59-3.25,35.88-12.44,47.61a55.42,55.42,0,0,0-8.12,16.41c-1.8,5.4-4,11.54-4.69,13.52A359.28,359.28,0,0,0,243,398.51a13.56,13.56,0,0,1-4.51,7.75C234,408.6,233.45,408.6,231.65,404.82ZM18.5,376.51c0-4-.72-4.51-5.95-4a94,94,0,0,0-13.53,4c-8.83,3.78-20.73-2.35-19.29-9.92.9-4.69-2.17-6.49-12.62-7.94a154.35,154.35,0,0,1-30.66-8.47c-15.51-5.77-19.12-5.95-31.38-2.89-6.67,1.81-13.52,2.71-15.15,2s-5.59-8.12-4.32-15.87c.54-3.25-.18-11.18-1.45-17.49-2.16-9.74-2.16-13.53,0-23.27a108.37,108.37,0,0,1,5-17.85c2.53-6.31,2.53-6.49-2.88-26.33-1.81-6.49-2.17-13-1.26-22.54,1.62-15.69-1.63-36.07-7-43.28-2.16-3.06-7.57-6-15.69-8.65-12.26-3.79-20.55-10.28-20.55-15.69,0-1.45-2.35-4.15-5.23-6.31a17.37,17.37,0,0,1-6.5-9c-1.26-5.41-5.41-7.39-6.85-3.25s3.79,14.43,7.58,17.67,6.49,12.63,3.6,12.63-1.44.72-.72,1.8.18,1.8-.9,1.8-6.13-4.5-11.54-10.09-12.44-10.82-18.21-12.81c-12.45-4.14-13.35-7.93-5.78-23.26a195.68,195.68,0,0,0,10.28-25.79c3.79-12.62,4-15.51,2.89-44.18-.72-17-1.44-32.46-1.62-34.26s.54-3.79,1.44-4.15,6.31,10.82,7.57,27.23c.72,11.36,1.63,15.51,3.61,15.51a4.35,4.35,0,0,0,3.43-2.7,4,4,0,0,1,3.06-2.89c1.26,0,6.13-3.61,11-7.93l8.84-7.94L-154.62,33c-1.26-4-3.24-6.68-4.14-5.95s-1.27.18-.55-1.09-.36-9.73-2.16-8.47-1.62-4-1.8-9.56C-164-3.09-165.62-6-177-14.27s-10.82-6.49-9.56,1.08a80,80,0,0,1,0,16.23c-1.08,9.74-1.26,10.1-6.49,10.1h-5.41L-197,3.58a82.28,82.28,0,0,0,.72-15.69c-.91-12.26.36-29.57,2.52-36.06,1.08-3.43,1.26-3.61,2.71-29.21s3.42-28.32,8.47-20.56c1.8,2.52,3.61,4.33,4,4s4.15,1.27,10.64,7.76c3.42,3.43,4.69,3.79,7,2s1.62-6.13-2-4.69-2.35.18-2-.54-3.6-5.77-8.47-11c-8.3-8.83-9-9.37-11.36-6.31s-2.89,2.71-3.79,2-1.26-13.71-1.08-28.86c.36-28.13.72-35.7,2.7-37.15s12.45-24.7,12.45-28.31,2.88-6.85,6.31-3.42,2.34,4.14,1.08,10.46-1.26,8.29-.18,9.37a7.41,7.41,0,0,1,1.8,5c0,1.8,2,4,4.51,5.05s5.41,3.61,4.69,7.57,3.07,1.63,4.33-.54a3.25,3.25,0,0,1,3.78-.9c1.27.36,2.89.18,3.43-.72s3.25-.54,5.95.9a22.17,22.17,0,0,0,7.76,2.71,7.44,7.44,0,0,1,5.23,2.7,7.9,7.9,0,0,0,4.68,2.71c5,0,4.33-5.05-2-16.05a50.56,50.56,0,0,0-16.23-17.49c-12.08-7.94-12.26-8.3-12.08-17.86.18-5.23-.72-8.11-2.35-8.83s-4.86,1.26-3.6,6.67-2.53,8.11-6.67,2.88-3.25-6.31-2.35-17,4.15-19.83,19.66-44.18c11.18-17.85,14.42-21.82,27.59-36.42,7.21-7.76,13.16-15,13.16-15.87s2.17-2.89,4.87-4.33,6-2.17,14.25.9,21.82,3.61,24.16-.18a3.79,3.79,0,0,1,2.89-2c.9.18,6.13-1.63,11.54-4.15,14.24-6.31,18.93-6.67,35.52-2.53s15.15,3.61,28.68.36,16-5,26.68-13c14.43-11,26.33-26.51,26.33-29a8.12,8.12,0,0,1,2.89-4.15c2.7-2.16,13.7-23.44,20.19-38.77,1.27-3.07,6.86-10.64,12.45-16.77a125.91,125.91,0,0,0,13.7-17.67c6.67-13,12.63-16.05,21.1-10.82,2.89,1.8,6.85,1.26,22.72-2.89s19.84-5.41,30.3-15.33c29.21-27.77,29.21-27.77,36.61-26.51,16.41,2.89,16.22,3.79-3.25,18.94-9.74,7.57-14.61,12.62-15.33,16.05-3.24,14.06-3.79,17.85-4.15,22.72s4,13.71,7,13.71A13.52,13.52,0,0,1,219-433.9c4.87,5,6.49,18.76,2.88,26.15-2.16,4.15-2.34,8.48-1.08,22.36,2.89,30.12,2.71,37.87-.72,40.4s-18.76,21.63-22.18,38.23c-1.44,7-8.12,19.83-13.53,25.6s-7.21,27.59-7.93,28.85,2.16,36.43,4.15,41.66A49.43,49.43,0,0,1,184.4-195v6.49l-8.11-4.87c-9.92-5.77-16-5.41-16.77.72s0,4.15,3.06,3.25a16,16,0,0,1,8.84,1.44,23.06,23.06,0,0,0,6.67,2.71c.9,0,4.33,2.34,7.58,5.05l6,5L185.31-169c-7,6.67-7.76,8.65-3.43,8.29s4.69,2.89,7.21,7.94c6.49,12.08,8.3,14.42,12.08,14.42a17.08,17.08,0,0,1,6.5,1.63c3.6,2,36.78-3.25,46.52-7.22,5.23-2.16,6.13-2,13,2.53s7.39,6.13,7.39,9.74,1.8,6.31,7.21,10.09,7.22,6.5,7.22,8.12-2,6.85-4.51,11.54A36.61,36.61,0,0,0,280-86.4c0,5.59-1.62,9-7.21,16.05s-6.68,9.56-6.32,10.1.36.9-.18.54-11.54,8.29-11,9.74-1.08,2.52-2.88,4.32-3.07,5.95-3.07,12.45c0,12.26-1.62,14.6-7.93,12.08S228.4-41,234.54-41c1.26,0,1.8-.9,1.26-1.8s-7.58-1.8-13.53,4.33l-6,6.31,3.07,6.49a20.82,20.82,0,0,1,2.52,10.28c-.72,4.87-9.37,8.11-13.16,4.87s-3.61-11-.72-13.89,1.62-2.7-.18-4.87-4.15-3.6-9.92,2-5.23,4.14-6.67,1.8a25.85,25.85,0,0,0-4-5.05,21.93,21.93,0,0,1-3.61-7.39c-.9-4-.54-5.23,2-6.13a30.74,30.74,0,0,0,6.13-3.61,7,7,0,0,1,5.41-2c1.26.18,2.7-1.09,3.06-3.07a15.61,15.61,0,0,1,3.25-6.49c2.16-2.53,2-3.07-2.17-5a25,25,0,0,0-6.13-2c-2.7,0-9,5.77-7.93,7.39s.18,1.62-.72,1.62-2.35,2.17-3.07,4.87-4.15,7.94-7.57,11.72-6.49,7.58-6.85,18c-.18,6.49.9,13.88,2.34,17.13s2,7.21,1.08,9A42.62,42.62,0,0,0,170.88,14c-.72,31.56-.72,31-6.31,36.61s-5.41,7-5.41,12.44-2.53,11.36-5.95,11.36c-.72,0-3.07-3.78-5.05-8.29-3.79-8.48-8.48-11.54-17.86-11.54-3.78,0-6.49,1.8-10.82,7.21s-6.13,8.11,6.68,9.56c8.83.9,12.08-1.63,5.41-4.15-3.25-1.08-4.51-2.89-4.33-5.95s1.26-4.15,5.41-4c7,.36,8.47,2.53,7.21,11-.72,5.23-1.8,7.4-3.42,6.67s-6.32,13.89-3.07,17.68,1.8,3.24-1.44,6.31a22.67,22.67,0,0,0-5.41,7.39c-1.26,3.07-3.07,4.15-7.58,4.15a33,33,0,0,0-12.8,3.43c-10.1,5.22-12.8,5.22-25.79,0-3.24-1.27-3.78-.91-3.06,1.62s-.18,1.26-1.26-1.08-3.25-4-4.33-4a7.56,7.56,0,0,1-4.51-2.71c-1.26-1.62-4.87-2.7-7.94-2.7H53.66L60,108.36c7.39,4,20.73,16,22,19.83s2,2.35,7.21.72,6.85-1.62,7.75.9a4.5,4.5,0,0,1-.9,4.51,8.29,8.29,0,0,0-1.8,4.51c0,2.53-6.85,9.2-9.74,9.2A65.39,65.39,0,0,0,74,156.32c-7.93,7-10.1,8.12-17.49,8.12-4.51,0-9.92,1.26-11.9,2.88s-3.25,2.71,3.6,2.17c15.33-.72,20.38,9,9.74,18.93-5.23,5.05-5.41,5.59-4.33,17.13,1.27,16.41,2.71,26.33,4.15,28.5a46.14,46.14,0,0,0,5.59,4.86c4.15,2.71,4.69,2.71,7.76,0s3.6-2.52,6-.54c5.23,4.33,3.06,8.3-4.15,7.22-1.08,0-2.16.54-2.16,1.44s-3.07,6.13-6.68,11.72c-6.67,9.92-10.46,12.26-14.42,8.3s-4.15-.73-9.56,2.7-7.21,5.23-5.23,7.57,1.8,3.07-.18,4.15-1.62,2.71,1.44,7c5.41,7.22,4.87,9.38-2.88,15.33l-6.68,5.05,11.19-.54c6.49-.36,11.54.18,12.08,1.26a19.09,19.09,0,0,0,5.77,4.69c5.05,3.07,5.23,3.07,5.23-1.44a4.87,4.87,0,0,0-4.15-5.41c-4.87-1.26-5-2.52-.36-6.49s3.43-3.79,2.88-4.51,15.33-1.08,20.92,1.08,5,1.44,5,.72.72-.36,1.44.9c2.71,4.15,13.53,11.18,15.51,10.1s1.45-.72.91,0,3.78,6.31,9.91,12.45c8.48,8.83,11.54,11,13.71,9.55s2.34-1.44.36,1.09-1.8,4.86-.18,11.9c2.34,10.28,1.44,15-3.25,15a31.16,31.16,0,0,0-10.1,3.61c-8.29,4.33-17.49,2.89-20.19-3.24a6.67,6.67,0,0,0-6.68-4,9,9,0,0,1-6-1.63c-.54-1.08-2.7-.9-5.23.37s-4,2.34-1.8,6.31,1.8,5.41-.36,9.55-3.43,5.05-7.57,4.15a38.18,38.18,0,0,1-8.66-3.6c-7-4.33-18.57-2.71-27.77,4-4.69,3.25-9,6.13-9.74,6.13S18.5,379,18.5,376.51Zm60.59-50c1.62-2.7-4.33-6.85-10.1-6.85H64.48l5.23,4.51C75.48,329.26,77.11,329.62,79.09,326.55ZM-90.6-138.16c-.54-.9.54-1.26,2.34-.9s3.61-.36,4.51-8.47-1.08-17.13-4.51-15-1.44.36-.9-.54.18-4.33-.9-7.4c-2.34-5.95-1.8-7.57,2.71-8.29s8.47-4.51,8.47-6.49,2.53-4.15,5.59-7.4,6.67-5.95,13-5.77l7.57.36L-59-200.91a50.29,50.29,0,0,1-7-3.43c-.36-.36,3.25-5.95,8.12-12.44s10.46-12.08,13.7-12.8,4.51-2,3.79-3.61-1.62-2.16-2.52-1.62.36-5.23,2.7-6.86a23,23,0,0,1,8.66-1.26c8.83,0,9.19,4.51.9,10.46l-5.77,4,7.39-1.08c6.13-.91,7.94-.54,11.72,3.06s5.41,7.22,5.59,17.85a32.67,32.67,0,0,1-4,17.86c-1.08,2-1.63,3.78-1.08,3.78s-1.45,2.53-4.51,5.77a16.58,16.58,0,0,0-5.23,13.35c0,4.33.72,8.11,1.44,8.66s3.79-1.45,6.49-4.33,4.87-6.13,3.79-10.64-.72-5.59,2.52-5.59,3.79,1.08,3.79,2.88,1.26,2.53,6.85,1.63,7.58-.55,9.38,1.8,2.7,2.7,3.79-1.08c2.16-7.76,1.62-17.31-1.09-19.66s-3.78-1.62-8.29.72-6.31,2.35-8.3.72-2-2.34,0-4A26.32,26.32,0,0,0-1.52-206c2.17-6.31,2.17-7.21-.9-9.92a10.49,10.49,0,0,1-4-6.31,14.23,14.23,0,0,0-2.16-5.23c-.9-.9-.54-4.33.9-7.75s2.35-11,2.17-18.22c-.36-12.08-.18-12.44,6-18l13-11.72c3.79-3.43,9.56-6.85,12.8-7.4,10.1-2,37.33,4.87,37.33,9.38a7.72,7.72,0,0,1-2.7,4,7.39,7.39,0,0,0-2.71,3.79c0,3.42,2.89,1.26,7.22-5.23,2.34-3.61,6.67-9.74,9.55-13.53,5-6.67,5.41-6.67,17.5-6.67s18-1.08,18-5.23-.36-2.52-2,.18a8.11,8.11,0,0,1-6.49,3.25c-4.51,0-4.51-.18-1.62-4.51s3.61-6.31.36-6.31-8.84,6.13-7.21,7.57-4,.72-9.92.36c-9.2-.72-12.08-.36-16.41,2.71s-15.51,5.05-16.77,1.44-2.71-1.44-9.56.9c-17.67,6-22,7.93-29.39,13S1.37-280.26-6-291.8c-3.6-5.77-4.68-6.49-10.09-5.59a29.26,29.26,0,0,0-10.82,4.15,19,19,0,0,1-7.58,3.43,32.25,32.25,0,0,0-9.19,2.52c-5,2.16-6.5,2.16-9.56,0s-5.23-1.8-15.87,10.46c-4,4.51-7,6.31-10.28,6.13s-4.15-.9-3.79-1.62.18-1.26-.72-1.26-7,5.59-9.37,11.36-1.81,5.23,4,4.14a145.64,145.64,0,0,1,18.94-2.7c4-.18,10.46-9.56,8.29-11.72s-.36-1.08.72-1.08,4.69-2.17,7.76-4.87c7.39-6.13,9.37-3.61,7.75,10.28s-5,20-9.19,19.47-4.87,6.49-.37,13.89l4,6.31-5.41,6.67a117.82,117.82,0,0,1-9.2,10.28,10.47,10.47,0,0,0-3.78,5.77c0,1.26-2.53,5.23-5.59,8.66s-7,6.49-11.18,6.49-13.89-6-13.89-10.28-.72-2-3.6-.18-4,1.62-5.59.18-.37-6.49,3.06-5.23,2.53,0,2.53-.9-7.58-11.18-10.82-10.82-.73,11-.37,12.44c.91,4.33-23.08,13-26.32,13.16s18.93-3.42,21.82-1.8,4,1.26,5.23.18,9-.36,8.11,3.43,0,3.24,2.71,2.88,4,.9,4.32,3.61-2,5.59-3.6,1.44a3.79,3.79,0,0,0-3.07-2.7c-1.44,0-1.08,1.26.9,3.42s2.53,3.79,1.09,4.51a2.17,2.17,0,0,0-.91,2.89c.54.9-.9,3.78-3.42,6.31s-10.28,5.23-8.66,5.23,9.56,2.16,10.28,6.85c2.16,15.15,2.89,17.49,6,18.21S-89.52-136.53-90.6-138.16Zm-10.46-10.46c-3.61-3.6-.18-16.77,4.33-16.77s3.43,7.4.72,12.45S-99.26-146.81-101.06-148.62ZM-23-252.85c-1.8-2.16-1.8-3.42-.36-4.87s7.94-.36,7.22,3.25S-20.27-249.6-23-252.85ZM19.58-149.52c2.35.36,4.33-.36,4.33-1.44s-10.28-2.52-11.72,0-4.87-.72-3.79-7.75.9-7-1.62-5-3.43,8.11.18,13.7,3.42,4.15,5.77,2.17a10.49,10.49,0,0,1,6.85-1.63Zm-131.82-73.57c1.62-3.43,4.15-5.41,6.49-5.41s10.64-3.25,10.64-5.59-1.26-1.62-2.7-1.62-3.43-1.81,0-6.32a13.83,13.83,0,0,0,2.52-8.11c0-3.43,1.62-11.18.72-9s-16.59,25.25-18.57,25.25-7.58,8.65-6.31,12.44S-115.49-216.78-112.24-223.09Zm290,592.38c-4.69-5.41-9.74-9.92-11.18-9.92s-2.16-.54-1.62-1.08-.72-2.88-2.89-5.23c-6.31-7-8.47-9.91-7.21-9.91s.36-1.09-.72-2.35S150,329.44,151.4,328s4.15,1.8,7.94,5.23a38.75,38.75,0,0,0,11.54,7.39c2.52.54,4.51,1.8,4.51,2.53s2,3.78,4.51,6.49,5.59,3.78,4.68-1.63c-.36-2.16,4.33-1.62,6.68.91a10.42,10.42,0,0,1,2.16,6.31c0,4.87,1.08,5,4.87,1.26s3.24-2.53,6.31.54a8.3,8.3,0,0,1-4.15,14.25,16.39,16.39,0,0,0-8.11,4.5,13,13,0,0,1-4.51,3.43C187.11,379.21,182.42,374.7,177.73,369.29Zm198.18-9.37c-3.24-1.27-2.7-5.41.91-6.86s7.39,2,4,5.23A6.13,6.13,0,0,1,375.91,359.92Zm-155.44-5.05c-2.71-3.25-1.08-8.12,2.7-8.12s2.71,1.62,2.71,4.33C225.88,356.67,223.35,358.29,220.47,354.87ZM356.8,344.41c-2.71-2-2.71-2.89-.72-6.86s3.42-4.32,8.11-3.78c7.4.72,7.58,4.33.72,9.19C360.77,345.85,359.32,346.21,356.8,344.41ZM210,333.05c-5.41-11-5-12.63,2.71-15.87s16.95-10.1,13.88-10.1a7.24,7.24,0,0,0-4.51,2.88,16.22,16.22,0,0,1-16.77,4.51,193.61,193.61,0,0,0-25.79-6.31A47.56,47.56,0,0,1,167.09,302c-4.87-3.07-9.19-5.23-9.92-4.87s-1.62,3.25-2.34,6.31-1.44,5.23-3.61,3.25-2.16-2.89-1.8-3.61-5.77-5.05-11.9-5.05c-9.92,0-8.84-10.1,1.62-14.42l5.23-2.17-3.61-6.13c-2.88-5-4.68-6.13-9.37-6.13a13.91,13.91,0,0,1-7.94-2.16c-3.06-3.25-2.88,1.8.54,9.91s1.45,9.38-5.41,7.76-4.69-1.44-4.87-18.94c0-5.77-.54-7.39-2.52-6.67a3.25,3.25,0,0,1-3.61-1.08c-.72-1.26-.54-1.62.72-.72s2.17.36,2.17-.72-1.08-1.81-2.53-1.81c-4.32,0-8.47-11.9-8.83-25.24s-.72-12.63-4-12.63c-8.66,0-16.23-12.26-9.56-15.14,1.81-.73,1.63-1.45-.36-2.89s-2.16-2.34-.54-3.06.72-4.15-4.69-4.15S68.09,183.19,70.8,179s.36-4.14-2-7c-4.51-5.77-4.33-6.67,2-9.2a17.66,17.66,0,0,0,7-5c.72-1.45,5-3.07,9.74-3.61,7.57-.72,8.11-.54,8.83,3.43a7.4,7.4,0,0,0,5.23,5.77c3.79,1.44,6,.9,10.82-2.89S126,152.9,135,149.29s18-8.11,19.66-10.1,14.43-4.69,16-1.26.72.54.36-1.8,0-4,2.7-4c6.5,0,22.18,11.9,24.17,18.21.72,2.35,2.88,3.43,6.31,3.43a7.93,7.93,0,0,1,7.21,3.42c2.35,4.69,2.35,5.59-.9,5.59s-2.52,1.45-2,6.32,0,6.31-1.26,6.31-12.63,8.47-11.37,10.64,6.68,2.52,6-.18,6.31-6.31,13.16-7.58a22.4,22.4,0,0,0,8.11-3.78c3.43-2.71,3.43-2.89.18-5.41A8.48,8.48,0,0,0,217,167.5c-2.52.72-2.34.54.18-1.08a6.68,6.68,0,0,0,3.25-4.87c0-1.8.9-2.34,2.88-1.62s2.53,0,1.63-4.33a15.52,15.52,0,0,1,.9-9.2c1.62-2.88,1.62-4.32,0-5.22s-1.44-1.81.36-3.25S234,139.37,239,153.8c2.53,7.39,6.32,15.33,8.3,17.67,5,5.77,4.69,7-2.53,10.1l-6.49,2.7,3.61,7a110,110,0,0,0,7.75,12.26,103.93,103.93,0,0,1,9.56,16.05c3.07,5.95,5.95,11,6.85,11.36s-2.52,5.59-5.41,4.51-2.52,1.8-2,20.74c.36,12.08.18,22-.54,22s-2,3.42-3.07,7.57c-3.6,14.43-6.67,21.28-9.73,22.18a6.85,6.85,0,0,0-3.79,4.51c-1.44,5.23-6.67,4.51-6.67-.9s-1.09-4.51-2.89-4.51-2.52.9-1.8,2.88a29.75,29.75,0,0,1,1.08,8.12c0,4,.72,5.23,3.79,5.23,6.13,0,3.42,7.21-4.69,12.8C219.39,343.69,214.7,343,210,333.05Zm170.05,4.14c-2.7-8.11-2-9.37,5.41-9.37s7.21.54,7.76,4.32a6,6,0,0,1-1.81,5.78c-3.6,2.34-10.46,1.8-11.36-.73Zm77.72-1.08c1.81-1.8-7.75-6.31-12.26-5.95s-6.67-1.08-11.9-6.31a84,84,0,0,0-17.49-12.62c-5.95-3.25-11-6.68-11.36-7.76s13-1.8,20.74,2.53c4.32,2.52,7.75,3.78,7.75,3.06s-5.77-7-9-7.75-4.14-2.89-5.95-5.59-4-8.66-1.8-8.3a18,18,0,0,0,6.85-2.16l5.41-2.53-7.75-.54c-8.3-.72-11.36-4-7.58-8.47s.54-7.22-2.88-4.51-2.17,2.89-1.63,3.61-4.86,0-11.9-2-24.34-7.75-30.83-8.29c-9.2-.72-12.45-.18-14.61,2-6.49,6.49-17.49,1.08-17.49-8.65,0-3.25-.72-4.51-2.17-3.61s-1.44.36-.72-.9a2.34,2.34,0,0,1,3.18-.94l.07,0c3.79,2.34-.54-9.2-5.59-14.61-9.38-10.46-10.1-11.9-7.22-13.71s2.17-1.62-.36-1.62a7.58,7.58,0,0,0-4.86,2.16c-1.81,1.63-3.07,1.27-6-1.62s-3.24-5.95,7.4-11,11-12.8,4.51-26.87c-4-9-5.77-11.18-10.1-12.08-7.94-1.62-7.22-8.48,1.08-12.44s7.93-7.4,1.8-15.69-12.26-12.08-22.9-14.61c-4.87-1.08-9.2-2.7-9.56-3.6s5.23-5.23,12.09-5.41c3.24-.18,4.5-.73,2.7-1.09a9.37,9.37,0,0,1-5.05-5.41c-1.08-2.88-10.28-9.55-17.49-9.55-2.16,0-4-.73-4-1.45,0-5.77,18.76-8.11,26.15-3.24,3.07,2.16,4.69,1.8,11.36-2.17s8.48-4.14,12.26-2.52,5.59,5.77.72,7-3.24,1.44-1.62,3.43,1.8-2,13.17-3.79c7.93-1.44,24.52-12.26,24.52-17.13a21.86,21.86,0,0,0-2.16-8.12c-2.53-5.59-1.27-7.39,3.6-4.68s4.33,1.26,6.13-.36a29.15,29.15,0,0,1,8.12-4.69c6.31-2.71,8.84-9,6.67-17.68s-5.23-9.19-14.24-10.45-24.17-8.12-25.43-12.27,2.7-6.49,11.18-2a39.62,39.62,0,0,0,15,4.33,118.89,118.89,0,0,1,21.1,3.6c15,3.79,24.7,3.61,30.65-1.08a16.42,16.42,0,0,1,7.39-2.52c3.43,0,4.15.9,4.15,5a12.06,12.06,0,0,1-3.6,8.29c-2.53,2.35-3.07,4.15-2,6.31a17.92,17.92,0,0,1,1.44,7.4c-.36,3.24-1.44,4.51-4.32,4.51s-3.61-.55-3.25-1.09-1.8-2.16-4.69-4c-6.49-3.61-6.49-3.25-.54,6.13a88.57,88.57,0,0,1,6.85,13.88l2.35,6.67-6.31.37c-3.79.36-7-.37-7.94-1.81s-2-1.26-4,1.44-.9,7.22,4,4.69a21.07,21.07,0,0,1,8.48-2c4,0,5.23,1.26,7.57,7s3.61,6.86,4.51,6.31,1.08.91.36,3.61-.54,4.69,1.8,4.69,2.71.54,2.35,1.26-.18,3.07.54,5,1.62,3.07,1.62.36a34.75,34.75,0,0,0,0-4.33,3.63,3.63,0,0,1,2-2.34c1.26-.72,2-3.25,2-5.59-.72-13.35-.36-16,2.7-20.2a21.49,21.49,0,0,1,8.3-6.85,18.54,18.54,0,0,0,5-2.53,90.1,90.1,0,0,0-3.61-8.47c-4.87-10.64-4.69-16.59.54-19.12a9.42,9.42,0,0,1,8.48.18c3.79,1.81,4.51,3.61,5.05,11.19s1.8,10.27,3.24,11.9,7.94,18.75,7.94,28.13-2.53,15-9.2,15c-3.24,0-5,.72-4.33,1.8s11.36,2,13.53-1.8c3.6-7,1.26-30.84-5.05-48.69a40.59,40.59,0,0,1-1.26-8.48,58.54,58.54,0,0,0-1.63-10.28c-1.26-5.41-5.41-6-18.39-2.7-4.51,1.08-8.48,1.62-8.84,1.26a19.71,19.71,0,0,1-2-6.49c-1.26-6.13,44.72-38.59,51.94-43.46,13.16-9,18.75-11.18,22.36-8.84s7.75,2.89,15.14,4.87S542.9-9.58,544-8.5a10.78,10.78,0,0,0,6.13,1.8c2.53,0,6.49,2.35,9.74,5.78s6.31,5.77,7,5.41a.84.84,0,0,1,1.27.9A13.59,13.59,0,0,0,569.23,11a9.38,9.38,0,0,1-1.44,8.29c-2.17,3.25-2.35,4.51-.55,5.23s.37.9-2,1.08-4,.91-4,2a41.73,41.73,0,0,1-3.6,9.37,44.86,44.86,0,0,0-3.61,9.2,63.57,63.57,0,0,0,5.41,12.26c3.43,6.86,5.41,13.35,5.41,18.4A35.24,35.24,0,0,0,568.51,91c2,3.79,7,29.22,8.47,32.1s6.31,26.33,4.51,24.35-2,.72-3.43,2.52a16.78,16.78,0,0,1-8.83,4.87q-13,2.34-15.15-15.15c-.9-6.67-1.44-7.75-2.7-4.87-2.89,6.86-4.51,7.94-9.2,6.14s-6.85-.37-16,4a72.48,72.48,0,0,0-15.87,9.92c-4.69,4.69-10.28,19.84-10.28,28s9.92,16.59,14.79,15.33c1.8-.36,2.88-.18,2.34.54s11.72,5.77,13.89,4.51,1.26-.36,1.08.36,1.62,4.33,4.33,7.93c6,7.94,10.1,27.59,6.49,31.92-6.13,7.4-15.69,11.36-27.59,11.36-19.48,0-29.21,6.86-32.1,22.91-1.08,5.41-.9,5.77,5.05,6.85s6.67,2.34,7.39,5.59-.18,9.38-4.5,11-3.43,1.62.54,11.54,4,10.28,1.26,13.7a7.39,7.39,0,0,1-6.49,3.07c-2-.36-5.59,1.44-8.3,4s-6.13,4.33-13,4S457.24,336.47,457.78,336.11Zm20.38-58.06c-1.44-2.89-2.52-3.43-4-1.81s-1.44,2.53.55,3.79,5.59,2,3.42-2ZM184.4,333.23c-7-2.35-8.47-4.87-4.68-8.12s12.26-4,10.81-1.62.37,2.16,1.81,2.7,3.6,2.71.54,6.5S189.81,335.21,184.4,333.23Zm-24.88-19.3c-2.71-2.7-2.89-6.31-.18-7.93s6.85,4.14,7,7.75S162.4,316.64,159.52,313.93Zm337.94-1.08c-2.71-2.52-.9-7.21,3.06-7.93s4.15-.19,3.43,3.24S499.44,315,497.46,312.85ZM141.3,308.34c-2-5,.55-8.11,4.15-5s3.61,6.67,0,7.94S142.21,311.05,141.3,308.34Zm-286.9-14.79a4.16,4.16,0,0,0-4.33-1.62c-1.08.72-1.08.18.18-1.26s2.35-8.12,2.35-18.21c0-14.79.18-16,4.5-18.76s17.86-2.34,19.84,1.08-2.88,10.82-5.05,10.82-1.44,3.79-.9,8.84c.9,9.2-.72,14.61-4.51,14.61s-3.24,1.62-4.51,3.6S-142.54,297.16-145.6,293.55Zm184.3-8.29c.18-3.25,1.62-6.31,2.7-6.67s2.89,6.49-.54,9.92S38.16,290.85,38.7,285.26ZM324,267.77c-2.53-1.81-6.85-12.81-5.59-14.25s8.11,1.44,9.2,5.41C329.93,267.59,328.49,270.83,324,267.77Zm-456.6-34.09c-4.32-.9-5.23-4.86-1.8-8.47s10.46-1.62,10.46,1.62-2,8.12-3.43,7.76Zm216.4-7c-.36-4.51.36-6,3.43-6.67s3.24-.54,2.7,0-.18,2.16.9,3.43.36,9.55-3.6,9.19S84,230.62,83.78,226.65Zm196.2-.18c.18-1.62,6.49-9.56,7.57-9.56s.72,2.17.72,4.87S287,227,284,227.37,280,227.19,280,226.47ZM-151.55,209a9.54,9.54,0,0,1-3.07-6.13c0-2-.9-4-2-4.33s-2.35-3.79-2.71-7.57a61.62,61.62,0,0,0-1.62-9.92,8.33,8.33,0,0,1,1.44-6.31c2.17-2.89,2.53-2.89,7.22,1.44s6.13,4.69,7.57,4.69,2.53,3.24,2.35,15.33C-142.54,212.41-144.16,214.57-151.55,209Zm744.22-70c-7.57-10.28-7.93-20.38-.9-20.38,3.79,0,4.69,1.09,6,6.86S595.74,143.16,592.67,139ZM164.93,94.83c-3.43-1.44-2.53-4.15,1.26-4.15a8.26,8.26,0,0,0,5.95-3.24,15.05,15.05,0,0,1,5.23-4.51c2.53-.9,2.89,0,2.71,4.33C179.53,94.83,173,98.08,164.93,94.83Zm49.23-4.15c-.72-1.08-1.62-5.23-3.07-7.75-2.88-5.41-.36-18.76,4.87-25.43s5.77-13.34-.18-15.51-4.51-2.52-4-12.26,1.09-10.46,4.51-10.82,4.15.36,5.05,4,1.26,6.85,2,9.56a27.35,27.35,0,0,0,5.41,9.91A20.54,20.54,0,0,1,233.09,53c0,4.51.54,5.23,3.61,4.33s3.61-.9,3.61-.54a75.73,75.73,0,0,1-3.61,7.75,32.16,32.16,0,0,0-3.61,10.64,47.13,47.13,0,0,1-2,10.46c-1.62,6.32-2.35,6.86-8.84,6.86S214.7,91.58,214.16,90.68ZM316.59,59.49c-9.74-6.68-12.81-19.12-3.25-12.81a106.75,106.75,0,0,1,9.92,6.67c4,3.25,4.87,10.28,1.26,10.1a23.82,23.82,0,0,1-7.93-4ZM193.78,39.83a10.44,10.44,0,0,1-2.16-6.49c0-3.61.72-4.15,4.87-3.61s5,1.44,5.59,6.31,0,6-2.71,6A9.13,9.13,0,0,1,193.78,39.83ZM384.57-187.39c-7.21-7.75-6.31-11.18,2.71-12.44,4-.72,9.37-1.8,11.9-2.52,7-1.81,7.93,1.8,1.8,7.57a20.71,20.71,0,0,0-5.77,8.48C394.13-180.71,390.34-181.07,384.57-187.39ZM293.86-341.57a6.68,6.68,0,0,1-1.26-4.15c0-1.62-18-11.9-18-12.44s7.21-11,7.21-12.08c0-5.77,40.22-14.25,46.89-9.92s-1.08,9.56-11.36,11.72c-4,.9-4.87,2-4.87,6.49s-5.41,12.63-9,12.63-2.7,2-3.61,4.51S296-339.22,293.86-341.57Z" />
    </g>
</svg>
