<?xml version="1.0" encoding="utf-8"?>
<!-- Generator: Adobe Illustrator 23.0.3, SVG Export Plug-In . SVG Version: 6.00 Build 0)  -->
<svg version="1.1" id="Layer_1" xmlns="http://www.w3.org/2000/svg" xmlns:xlink="http://www.w3.org/1999/xlink" x="0px" y="0px"
	 viewBox="0 0 100.7 106.2" style="enable-background:new 0 0 100.7 106.2;" xml:space="preserve">
<style type="text/css">
	.st0{fill:#9A4536;}
	.st1{fill:none;stroke:#FFFFFF;stroke-width:3;stroke-miterlimit:10;}
	.st2{fill:none;stroke:#FFFFFF;stroke-width:0.75;stroke-miterlimit:10;}
</style>
<g id="Group_36" transform="translate(-8.409 -6.669)">
	<g id="Group_33" transform="translate(8.409 6.669)">
		<g id="Group_32" transform="translate(0 0)">
			<path id="Path_372" class="st0" d="M1.1,0h98.4l1.1,1.1v7.3L58.7,50.3v5.6l41.9,41.9v7.3l-1.1,1.1H1.1L0,105.1V1.1L1.1,0z"/>
		</g>
	</g>
</g>
<path class="st1" d="M13.2,67.2c1.1-0.6,2.9-1.4,5.2-1.8c1.3-0.2,4.2-0.5,7.5,0.5c3.2,1,3,2,7,3.5c1.7,0.6,3.8,1.4,6.5,1.3
	c2.1-0.1,3.7-0.6,5.1-1.1c3.1-1.1,3.7-2.1,6.5-3.1c1.3-0.5,3.3-1.1,5.9-1.3"/>
<path class="st1" d="M6.6,76.2c1.1-0.6,2.9-1.4,5.2-1.8c1.3-0.2,4.2-0.5,7.5,0.5c3.2,1,3,2,7,3.5c1.7,0.6,3.8,1.4,6.5,1.3
	c2.1-0.1,3.7-0.6,5.1-1.1c3.1-1.1,3.7-2.1,6.5-3.1c1.3-0.5,3.3-1.1,5.9-1.3"/>
<path class="st1" d="M19.6,85.1c1.1-0.6,2.9-1.4,5.2-1.8c1.3-0.2,4.2-0.5,7.5,0.5c3.2,1,3,2,7,3.5c1.7,0.6,3.8,1.4,6.5,1.3
	c2.1-0.1,3.7-0.6,5.1-1.1c3.1-1.1,3.7-2.1,6.5-3.1c1.3-0.5,3.3-1.1,5.9-1.3"/>
<path class="st1" d="M10,94c1.1-0.6,2.9-1.4,5.2-1.8c1.3-0.2,4.2-0.5,7.5,0.5c3.2,1,3,2,7,3.5c1.7,0.6,3.8,1.4,6.5,1.3
	c2.1-0.1,3.7-0.6,5.1-1.1c3.1-1.1,3.7-2.1,6.5-3.1c1.3-0.5,3.3-1.1,5.9-1.3"/>
<path class="st2" d="M23.6,19.3c0.2,0.3,1.2,0.2,2-0.3c1-0.6,1.2-1.4,1.5-1.4c0.3,0.1,0.3,1.3-0.2,2.3s-1.8,1.9-3.3,1.8
	c-1.8-0.1-2.9-2-2.9-2s1.6,1.4,3.1,3.3c0.7,0.9,1,1.3,1.7,1.9c0.6,0.4,1.2,0.7,2.1,1.2c1.4,0.7,1.4,0.6,1.8,0.9
	c0.8,0.7,1,1.6,1.3,2.5c0.2,0.8,0.4,1.5,0,1.8c-0.4,0.4-1,0.2-1.2,0.2c-1.1-0.3-1.2-1.3-2.1-1.4c-0.3,0-0.8,0.1-1,0.4
	c-0.4,0.5,0,1.3,0.1,1.5c0.2,0.4,0.6,0.8,1.3,1.5c0.6,0.6,0.8,0.7,0.7,0.8c-0.1,0.3-1.2,0.4-2,0.2c-0.6-0.1-1.3-0.3-1.6-0.8
	c-0.4-0.7,0.2-1.4-0.3-1.9c-0.4-0.5-1.5-0.4-1.6-0.2c-0.1,0.3,1,0.9,1,1c-0.1,0.1-0.7-0.1-2-0.4C21.2,32,20.8,32,20.5,32
	c-1.1,0-1.2,0.5-2.2,0.7c-0.8,0.2-1.5,0-2.9-0.4c-1.3-0.4-2-0.8-2-0.6c-0.1,0.2,0.8,1,1.9,1.4c0.5,0.2,1.4,0.5,2.4,0.3
	c0.7-0.1,1-0.5,1.3-0.3s0.2,0.6,0.3,1.1c0.1,0.7,0.4,1.1,1.7,2.5c1.8,2,1.3,1.6,1.8,2.1c1.5,1.7,1.8,1.8,2.4,2.6
	c0.3,0.5,0.8,1.2,1.2,2.2c0.5,1.2,0.4,1.7,0.7,3.3C27.3,48,27.5,49,28,50c1.1,2.5,2.9,3.4,2.6,3.8c-0.2,0.4-1.9-0.2-2.8-0.6
	c-1.8-0.8-2.9-2-3.4-2.5c-1.3-1.4-1.7-2.5-2-2.4c-0.2,0.1-0.1,1,0.1,2.9c0.1,1.1,0.2,1.5,0.4,1.9c0.4,0.8,1,1.2,0.9,1.3
	c-0.1,0.2-1.4-0.2-2.5-1s-1.9-1.8-2.2-2.4c-0.8-1.3-1-2.3-1.2-2.2c-0.2,0,0,1.1-0.5,2.6c-0.1,0.4-0.3,1-0.6,1.6
	c-0.8,1.4-2.5,2.5-2.9,2.2c-0.3-0.2,0.2-1,0.3-2.6c0-1.3-0.3-2.7-0.6-2.7s-0.3,0.9-1.1,2c-0.8,1-1.8,1.4-2.2,1.6
	c-1.5,0.6-3.5,0.6-3.7,0c-0.2-0.4,0.8-0.7,1.4-2c0.8-1.6,0.1-2.9,0.8-3.4c0.8-0.5,2.5,0.6,2.5,0.6s-2.2-0.4-3.5-2
	c-1-1.3-0.7-2.6-2-3.2c-0.6-0.3-1-0.1-1.6-0.6c-0.8-0.7-0.9-2-0.6-2.1c0.2-0.1,0.6,0.5,1.1,0.4c0.3-0.1,0.5-0.3,0.7-1
	c0.1-0.3,1-3,0-3.7c-0.5-0.3-1,0.2-1.7-0.2c-0.8-0.4-1.2-1.5-0.9-1.8c0.2-0.2,0.8,0.3,1.3,0.1s0.4-1,0.6-2.4c0.3-2.4,0.9-3,0.4-3.6
	c-0.4-0.5-0.9-0.2-1.5-0.8c-0.9-0.9-0.7-2.6-0.4-2.7c0.2-0.1,0.4,0.8,1.2,1c0.4,0.1,0.7,0,0.8-0.1c1-0.4,1.7-1.6,1.5-2.6
	c-0.1-0.8-0.7-0.8-1.1-1.7c-0.6-1.4,0-3.2,0.5-3.2c0.3,0,0.3,0.6,1.1,1.4c0.3,0.3,0.7,0.7,1.3,0.8c0.3,0,0.6,0,1.7-0.8
	c1.8-1.3,2-2.2,3.1-2.4c0.3-0.1,0.6,0,0.9-0.2c0.6-0.3,0.6-0.7,1.1-1.2c0.7-0.7,1.7-1,2-0.8c0.3,0.3-0.7,1.2-0.3,1.7
	c0.2,0.3,0.6,0.1,1.4,0.1c1.4,0,1.5,0.5,2.9,0.5c0.8,0,1.3,0,1.8-0.3c0.9-0.6,0.9-1.7,1.3-1.7c0.3,0,0.6,0.8,0.6,1.5
	C24.5,18.4,23.4,18.9,23.6,19.3z"/>
<path class="st2" d="M39.2,19.3c-0.2,0.3-1.2,0.2-2-0.3c-1-0.6-1.2-1.4-1.5-1.4c-0.3,0.1-0.3,1.3,0.2,2.3s1.8,1.9,3.3,1.8
	c1.8-0.1,2.9-2,2.9-2S40.5,21.1,39,23c-0.7,0.9-1,1.3-1.7,1.9c-0.6,0.4-1.2,0.7-2.1,1.2c-1.4,0.7-1.4,0.6-1.8,0.9
	c-0.8,0.7-1,1.6-1.3,2.5c-0.2,0.8-0.4,1.5,0,1.8c0.4,0.4,1,0.2,1.2,0.2c1.1-0.3,1.2-1.3,2.1-1.4c0.3,0,0.8,0.1,1,0.4
	c0.4,0.5,0,1.3-0.1,1.5c-0.2,0.4-0.6,0.8-1.3,1.5c-0.6,0.6-0.8,0.7-0.7,0.8c0.1,0.3,1.2,0.4,2,0.2c0.6-0.1,1.3-0.3,1.6-0.8
	c0.4-0.7-0.2-1.4,0.3-1.9c0.4-0.5,1.5-0.4,1.6-0.2c0.1,0.3-1,0.9-1,1c0.1,0.1,0.7-0.1,2-0.4C41.6,32,42,32,42.3,32
	c1.1,0,1.2,0.5,2.2,0.7c0.8,0.2,1.5,0,2.9-0.4c1.3-0.4,2-0.8,2-0.6c0.1,0.2-0.8,1-1.9,1.4c-0.5,0.2-1.4,0.5-2.4,0.3
	c-0.7-0.1-1-0.5-1.3-0.3s-0.2,0.6-0.3,1.1c-0.1,0.7-0.4,1.1-1.7,2.5c-1.8,2-1.3,1.6-1.8,2.1c-1.5,1.7-1.8,1.8-2.4,2.6
	c-0.3,0.5-0.8,1.2-1.2,2.2c-0.5,1.2-0.4,1.7-0.7,3.3C35.5,48,35.3,49,34.8,50c-1.1,2.5-2.9,3.4-2.6,3.8c0.2,0.4,1.9-0.2,2.8-0.6
	c1.8-0.8,2.9-2,3.4-2.5c1.3-1.4,1.7-2.5,2-2.4c0.2,0.1,0.1,1-0.1,2.9c-0.1,1.1-0.2,1.5-0.4,1.9c-0.4,0.8-1,1.2-0.9,1.3
	c0.1,0.2,1.4-0.2,2.5-1s1.9-1.8,2.2-2.4c0.8-1.3,1-2.3,1.2-2.2c0.2,0,0,1.1,0.5,2.6c0.1,0.4,0.3,1,0.6,1.6c0.8,1.4,2.5,2.5,2.9,2.2
	c0.3-0.2-0.2-1-0.3-2.6c0-1.3,0.3-2.7,0.6-2.7s0.3,0.9,1.1,2c0.8,1,1.8,1.4,2.2,1.6c1.5,0.6,3.5,0.6,3.7,0c0.2-0.4-0.8-0.7-1.4-2
	c-0.8-1.6-0.1-2.9-0.8-3.4c-0.8-0.5-2.5,0.6-2.5,0.6s2.2-0.4,3.5-2c1-1.3,0.7-2.6,2-3.2c0.6-0.3,1-0.1,1.6-0.6
	c0.8-0.7,0.9-2,0.6-2.1c-0.2-0.1-0.6,0.5-1.1,0.4c-0.3-0.1-0.5-0.3-0.7-1c-0.1-0.3-1-3,0-3.7c0.5-0.3,1,0.2,1.7-0.2
	c0.8-0.4,1.2-1.5,0.9-1.8c-0.2-0.2-0.8,0.3-1.3,0.1s-0.4-1-0.6-2.4c-0.3-2.4-0.9-3-0.4-3.6c0.4-0.5,0.9-0.2,1.5-0.8
	c0.9-0.9,0.7-2.6,0.4-2.7c-0.2-0.1-0.4,0.8-1.2,1c-0.4,0.1-0.7,0-0.8-0.1c-1-0.4-1.7-1.6-1.5-2.6c0.1-0.8,0.7-0.8,1.1-1.7
	c0.6-1.4,0-3.2-0.5-3.2c-0.3,0-0.3,0.6-1.1,1.4c-0.3,0.3-0.7,0.7-1.3,0.8c-0.3,0-0.6,0-1.7-0.8c-1.8-1.3-2-2.2-3.1-2.4
	c-0.3-0.1-0.6,0-0.9-0.2C48,17,48,16.6,47.5,16.1c-0.7-0.7-1.7-1-2-0.8c-0.3,0.3,0.7,1.2,0.3,1.7c-0.2,0.3-0.6,0.1-1.4,0.1
	c-1.4,0-1.5,0.5-2.9,0.5c-0.8,0-1.3,0-1.8-0.3c-0.9-0.6-0.9-1.7-1.3-1.7c-0.3,0-0.6,0.8-0.6,1.5C38.2,18.4,39.4,18.9,39.2,19.3z"/>
</svg>
