<svg id="stevnsfort" xmlns="http://www.w3.org/2000/svg" width="180.66mm" height="180.4mm" viewBox="0 0 512.12 511.38"><defs><style>.cls-1{fill:#fff;}</style></defs><title>phone</title><g id="azvfP1.tif"><path class="cls-1" d="M80.12,0c2.9.52,5.82,1,8.72,1.58,8.62,1.78,15.49,6.55,21.6,12.67q37.08,37.13,74.19,74.22c18.82,18.84,18.87,43.3.07,62.35-11.82,12-23.77,23.81-35.71,35.66-1.68,1.67-2.55,2.89-1.14,5.47,19,34.7,40.15,67.82,67.91,96.41,24.32,25,51.86,45.78,81.88,63.36,8.45,4.95,17.07,9.62,25.93,14.6,12.44-12.44,24.72-24.86,37.17-37.1a58.56,58.56,0,0,1,10.78-8.82c17.52-10.41,36.59-8.19,51.19,6.23,25.84,25.51,51.39,51.31,77.1,76.95,6.31,6.3,9.83,14.06,12.31,22.42v13c-2.36,8.57-5.34,16.93-12,23.17-9.52,9-18.75,18.48-29.25,26.2A116.34,116.34,0,0,1,409,511.06c-21.94,1.47-43.41-2.26-64.57-7.83-46.26-12.16-88.15-33.66-126.73-61.4C150,393.14,92.93,333.77,46,264.91,24.37,233.2,8.61,198.64,2.7,160.27-1.5,133-1.14,105.92,6.21,79.13c4.55-16.58,12.78-31.45,23-44.94C35.71,25.66,44,18.26,52.29,11.43c5.23-4.29,12-6.75,18.26-9.69C72.84.66,75.58.55,78.12,0Z"/></g></svg>
