<?xml version="1.0" encoding="utf-8"?>
<!-- Generator: Adobe Illustrator 23.0.3, SVG Export Plug-In . SVG Version: 6.00 Build 0)  -->
<svg version="1.1" id="Layer_1" xmlns="http://www.w3.org/2000/svg" xmlns:xlink="http://www.w3.org/1999/xlink" x="0px" y="0px"
	 viewBox="0 0 94.8 100" style="enable-background:new 0 0 94.8 100;" xml:space="preserve">
<style type="text/css">
	.st0{fill:#FFFFFF;}
	.st1{fill:#007EA6;}
	.st2{fill:#9ACCDC;}
	.st3{fill:#43A0BE;}
	.st4{fill:#007FA6;}
	.st5{fill:#1184AA;}
	.st6{fill:#8FC7D8;}
	.st7{fill:#7FBED2;}
	.st8{fill:#3C9CBA;}
	.st9{fill:#76B9CF;}
</style>
<polygon class="st0" points="0,10.5 0,88.6 81.6,78.9 55.7,53 "/>
<g id="cM6E1V.tif" transform="translate(-433.25 139.559)">
	<g id="Group_20" transform="translate(433.25 -139.559)">
		<path id="Path_360" class="st1" d="M0.2,1C0.2,1,0.2,1,0.2,1c0.6-0.8,1.6-1.2,2.5-1C32.9,0,63,0,93.1,0c0.9,0,1.6,0.8,1.7,1.7
			c0,1.9,0,3.9,0,5.8c0,0.3-0.1,0.6-0.3,0.8C81.6,21.2,68.7,34.1,55.8,47c-0.3,0.3-0.5,0.7-0.4,1.1c0,1.4,0,2.8,0,4.1
			c0,0.3,0.1,0.6,0.3,0.8c3.2,3.1,6.3,6.3,9.5,9.5c0.1,0.1,0.3,0.2,0.3,0.4c-0.2,0.1-0.3,0.1-0.5,0.1c-4.6,0-9.3,0-13.9,0
			c-0.6-0.1-1.2-0.3-1.7-0.7c-0.2-0.1-0.1-0.3-0.1-0.5c0.3-1.9,0.8-3.7,1.6-5.3c0.2-0.4,0.3-0.8,0.5-1.2c0.1-0.1,0.1-0.3-0.1-0.5
			c0,0-0.1,0-0.1,0c-0.9-0.5-1.7-1.1-2.5-1.7c-0.1-0.1-0.2-0.2-0.4-0.2c-1.1,0-2.2-0.3-3.1-1c-0.3-0.2-0.6-0.2-0.9,0
			c-0.4,0.2-0.8,0.4-1.3,0.6c0.3,0.3,0.6,0.5,1,0.2c0.4-0.4,0.9-0.4,1.3,0c0,0,0,0,0,0c0.1,0.1,0.3,0.1,0.4,0.2
			c0.6,0.5,1.4,0.7,2.1,0.6c0.3,0,0.6,0.1,0.7,0.3c0.6,0.6,1.2,1.1,2,1.5c0.2,0.2,0.3,0.3,0.2,0.6c-0.4,0.7-0.6,1.4-1,2
			c-0.4,0.7-0.7,1.5-0.6,2.3c0,0.6-0.2,1.3-0.7,1.8c-0.2,0.3-0.2,0.4,0.1,0.7c1,1,2.3,1.4,3.7,1.3c4.6-0.1,9.1,0,13.7,0
			c0.3,0,0.6,0.1,0.8,0.3c9.2,9.3,18.5,18.5,27.7,27.7c0.2,0.2,0.3,0.5,0.3,0.7c0,2,0,4,0,6c0,0.3-0.1,0.5-0.3,0.8
			c-0.4,0.5-1.1,0.8-1.8,0.7c-30.2,0-60.4,0-90.7,0c-0.6,0.1-1.2-0.2-1.5-0.6c-0.1-0.1-0.2-0.2-0.3-0.3C0.1,99,0,98.8,0,98.7
			c0-0.2,0-0.3,0-0.5c0-6.7,0-13.4,0-20.1c0-0.6,0.2-1.1,0.6-1.5c1-1.1,1.9-2.2,2.9-3.3C4,72.4,4.9,72,5.9,72.1c1,0.1,2.1-0.2,3-0.7
			c0.9-0.4,1.7-1,2.3-1.8c0.2-0.2,0.3-0.6,0.1-0.9c-0.1-0.3-0.2-0.6-0.3-0.9c-0.1-0.3,0-0.6,0.2-0.7c0,0,0.1,0,0.1,0
			c1-0.5,2-1,3.1-1.4c0.3-0.1,0.5-0.2,0.8-0.1c0.7,0,1.3,0,2-0.2c0.9-0.1,1.8-0.2,2.8-0.3c0.4-0.1,0.7,0,1,0.2
			c0.1,0.1,0.3,0.1,0.4,0.1c2.1-0.2,4.2-0.4,6.3-0.6c0.6-0.1,1.2-0.3,1.8-0.4c1.4-0.1,2.7,0,4.1-0.1c2.3-0.1,4.7-0.1,7-0.1
			c1,0,2-0.1,3-0.1c1.9,0.1,3.7-0.1,5.6-0.1c0,0,0.1,0,0.1-0.1c-0.3-0.5-0.9-0.8-1.4-0.6c-0.4,0.1-0.8,0.1-1.2-0.1
			c-0.2-0.1-0.4-0.1-0.6-0.1c-0.4,0-0.7,0-1.1-0.2c-0.3-0.1-0.6-0.1-0.9,0c-0.3,0-0.1,0.3-0.1,0.4c0,0.3-0.2,0.3-0.4,0.2
			c-1-0.3-2.1-0.4-3.2-0.3c-0.3,0-0.7-0.1-1-0.1c-0.2,0-0.4,0-0.4,0.3c0,0.2-0.2,0.3-0.4,0.3c-1.1,0.1-2.3,0-3.4-0.4
			c-1.3-0.5-2.6-0.8-4-0.9c-1.1-0.2-2.1-0.4-3.2-0.6c-0.4-0.1-0.7-0.2-0.9-0.5c-0.3-0.3-0.6-0.5-1-0.6c-1.6-0.7-3.3-1.1-5-1.4
			c-2.4-0.4-4.9-0.9-7.3-1.3c-0.6-0.1-1.2,0-1.7,0.1c-0.1,0-0.2,0-0.3,0.1c-2,0.8-4.1,1.3-6.2,1.5c-0.3,0-0.5,0.1-0.8,0.2
			c0.1,0.2,0.3,0.3,0.4,0.4c0.1,0.1,0.1,0.2,0.1,0.3c-0.1,0.1-0.2,0.1-0.3,0.1c-0.3,0-0.6,0-0.9-0.1c-0.6-0.1-1.2-0.1-1.7-0.2
			c-0.5,0-0.9,0.1-1.3,0.4c-0.9,0.4-1,0.4-1-0.6c0-2,0-4,0-6C0,54,0,53.8,0.2,53.6c0.2,0.1,0.3,0.3,0.3,0.5c0.1,0.3,0.3,0.5,0.6,0.5
			c2.1,0.1,4.3,0.2,6.4,0.3c0.9,0,1.8,0,2.6,0.1c0.9,0,1.8,0,2.6-0.2c0.3-0.1,0.5,0,0.7,0.2c0.5,0.5,1.1,0.8,1.8,1
			c0.4,0.1,0.8,0.3,1.1,0.4c0.3,0.2,0.7,0.2,1.1,0c0.2-0.1,0.5-0.1,0.7,0c1.1,0.2,2.2,0.5,3.3,0.9c0.8,0.3,1.6,0.4,2.4,0.6
			c0.4,0.1,0.7,0.2,1,0.4c0.7,0.5,1.5,1,2.3,1.5c0.2,0.2,0.5,0.4,0.7,0.4c0.7,0.1,1.4,0.3,2,0.6c0.9,0.3,1.8,0.5,2.8,0.5
			c-0.3-0.2-0.4-0.5-0.4-0.8c0-0.1-0.1-0.2-0.2-0.3c-0.4-0.3-0.7-0.6-1.1-0.8c-0.2-0.1-0.3-0.4-0.3-0.7c0.1-1,0-2.1-0.4-3.1
			c-0.2-0.9-0.5-1.8-0.7-2.7c-0.1-0.3-0.2-0.5-0.6-0.4c-0.8,0.3-1.7,0-2.3-0.6c-0.4-0.3-0.7-0.6-1.1-0.8c-0.1-0.1-0.3-0.2-0.4-0.2
			c-0.3,0-0.7-0.1-0.9-0.4c-0.6-0.7-1.3-1.2-2-1.9c-0.2-0.2-0.4-0.5-0.4-0.8c0-0.2-0.2-0.4-0.4-0.6c-1.3-0.9-2.8-1.7-4.3-2.3
			c-0.4-0.1-0.5,0-0.7,0.3c-0.6,1.2-1.3,2.3-1.9,3.5c-0.1,0.2-0.2,0.4-0.3,0.5c-0.1,0.1-0.1,0.2-0.2,0.2c-0.1-0.1-0.1-0.2-0.1-0.3
			c0-0.5,0.1-1,0.1-1.4c0.1-0.6,0-0.7-0.5-0.9c-0.5-0.2-0.5-0.4-0.1-0.8c0.5-0.4,1-0.9,1.5-1.4c0.5-0.4,0.4-0.5-0.1-0.8
			c-0.6-0.4-1.2-0.7-1.8-1.1c-0.4-0.3-0.4-0.4-0.2-0.8c0.2-0.4,0.5-0.8,0.7-1.2c0.2-0.2,0.2-0.6,0-0.8c-0.5-0.7-1.1-1.3-1.7-1.8
			c-0.7-0.6-1.4-1.1-2.2-1.5c-0.3-0.2-0.6-0.4-0.7-0.7c-0.7-1.4-1.7-2.6-3-3.6c-0.4-0.3-0.8-0.7-1.1-1c-0.7-0.6-1.5-1-2.4-1.2
			c-0.6-0.2-1.2-0.4-1.8-0.7C0.2,29.2,0,28.9,0,28.6c0-2.5,0-5.1,0-7.6c0-0.5,0.1-0.5,0.5-0.6C1.4,20.2,2.2,20.2,3,20
			c0.3-0.1,0.7,0,0.9,0.3c0.1,0.1,0.3,0.2,0.4,0.2c3.4,1.4,6.7,2.7,10.1,4.1c0.7,0.3,0.8,0.4,0.7,1c-0.1,0.4,0,0.7-0.1,1.1
			c-0.1,0.5,0,1,0.3,1.4c0.3,0.5,0.3,1.1,0,1.6c-0.2,0.3-0.1,0.6,0.2,0.8c0.3,0.3,0.6,0.7,1,1c0.3,0.2,0.4,0.6,0.2,0.8
			c-0.2,0.4-0.2,0.9,0,1.4c0.1,0.5,0.2,1,0.4,1.5c0.3,1.1,0.4,2.3,0.2,3.5c0,0.5,0,0.9,0.1,1.4c0,0.2,0.1,0.2,0.3,0.1
			c0.7-0.3,1.4-0.4,2.1-0.4c1.6-0.2,3.1,0.4,4.6,0.7c0.4,0.1,0.5,0.3,0.6,0.6c0.1,0.4,0.4,0.6,0.8,0.6c0,0,0,0,0,0
			c0.8,0.1,1.6,0.2,2.3,0.5c0.2,0.1,0.4,0.3,0.3,0.5c0,0.4,0.2,0.7,0.6,0.8c0.4,0,0.8,0.3,0.9,0.7c0,0.1,0.2,0.2,0.3,0.2
			c0.3,0,0.6,0,0.7,0.3c0.2,0.3,0.4,0.7,0.4,1.1c0,0.3,0,0.5,0.1,0.8c0.1,0.2,0.1,0.3,0.3,0.3s0.3,0.1,0.4,0.3
			c0.5,0.6,0.7,1.4,0.7,2.2c0,0.2,0.1,0.3,0.2,0.4c0.4,0.2,0.7,0.3,1.1,0.5c0.2,0.1,0.4,0,0.6-0.1c0.4-0.2,0.8-0.2,1.3-0.1
			c1.5,0.3,3,0.5,4.5,0.7c0.7,0.1,1.3,0.4,1.8,0.8c0.1,0.1,0.2,0.2,0.3,0.2c0,0,0,0,0,0c0,0,0,0,0,0c-0.1-0.1-0.2-0.1-0.3-0.2
			c-0.3-0.2-0.6-0.4-0.9-0.7c-0.2-0.3-0.6-0.4-0.9-0.5c-2-0.2-3.9-0.5-5.9-0.9c-0.3,0-0.5-0.1-0.8,0c-0.3,0-0.5-0.2-0.6-0.4
			c-0.3-1.4-0.9-2.7-1.7-3.9c-0.3-0.6-0.8-1.1-1.4-1.3c-0.4-0.1-0.7-0.4-0.9-0.7c-1.3-1.6-0.7-1.2-2.7-1.7c-0.2-0.1-0.4-0.1-0.7-0.2
			c-0.4-0.1-0.7-0.3-0.9-0.6c-0.2-0.3-0.5-0.5-0.8-0.6c-1-0.5-2-0.7-3.1-0.6c-0.7,0.1-1.4,0-2.2,0c-0.4,0-0.8,0-1.2,0.2
			c-0.4,0.1-0.5,0.1-0.5-0.4c0.1-0.6,0-1.2,0.1-1.8c0.1-0.8,0-1.7-0.2-2.5c-0.2-1-0.2-2,0-3c0.1-0.3,0-0.6-0.3-0.7
			c-0.4-0.3-0.8-0.6-1.2-0.9c-0.3-0.2-0.4-0.5-0.2-0.8c0.1-0.3,0.2-0.6,0.4-0.9c0.2-0.3,0.2-0.7-0.1-0.9c-0.4-0.5-0.6-1.2-0.5-1.9
			c0-0.5,0-1,0-1.5c0.1-0.4-0.2-0.7-0.6-0.8c-2.2-0.9-4.4-1.8-6.6-2.7c-0.9-0.4-1.8-0.7-2.7-1.1c-0.9-0.4-1.9-0.5-2.8-0.3
			c-0.7,0.1-1.4,0.2-2.1,0.3c-0.3,0-0.5,0-0.5-0.4c0-6,0-12,0-18.1C0.1,1.2,0,1.1,0.2,1z"/>
		<path id="Path_361" class="st2" d="M41.6,51.7l0.6-0.6l1.4,1c0.2,0.5,0,0.6-0.5,0.6C42.5,52.7,42,52.3,41.6,51.7z"/>
		<path id="Path_362" class="st3" d="M42.1,52.1l0.5-0.6c0.5,0.2,1.2,0.6,0.8,1.1C42.9,53.2,42.5,52.4,42.1,52.1z"/>
		<path id="Path_363" class="st4" d="M23.7,60.2c-1.5-5.5-2.9-11-4.6-17.1c4,2.6,8.1,4.3,10.4,8.3c2,3.5,5.3,5.7,8.3,8.1
			c1.2,1,3,0.9,4.5,1.4c1.1,0.4,2.4,0.4,3.8,1.4c-1.6,0.3-2.9,0.5-4.1,0.8c-0.6,0.1-1.4,0-1.3,0.8c0.3,2.7-1.5,1.8-2.7,1.6
			c-3.2-0.5-6.4-1.3-9.6-1.7c-1.5,0-2.9-1-3.3-2.5C24.8,60.8,24,60.8,23.7,60.2z"/>
		<path id="Path_364" class="st5" d="M57.2,69.4c-1.1-1.2-2.2-2.4-3.3-3.7c-0.8-1.1-1.9-1.8-3.3-2c-0.8-0.1-1.9-0.2-1.6-1.4
			c0.2-1-0.1-2.3,1.4-2.9c2.8-1.1,3-1.1,3.4,1.8c0.3,2,1.7,3.4,2.6,5c0.4,0.9,0.9,1.7,1.4,2.6C58,69.4,57.8,69.5,57.2,69.4z"/>
		<path id="Path_365" class="st6" d="M58.9,65.4l1.5,2.2c-0.9-0.1-1.7-0.8-2.1-1.7C58.5,65.7,58.5,65.4,58.9,65.4z"/>
		<path id="Path_366" class="st7" d="M32.4,63.2c1.2,0,1.1,0.8,1.4,1.4C32.8,64.7,32.6,64.1,32.4,63.2z"/>
		<path id="Path_367" class="st8" d="M58.9,66.7l-0.6,0.5l-1.1-1.5l0.6-0.6C58.2,65.7,58.5,66.2,58.9,66.7z"/>
		<path id="Path_368" class="st9" d="M25.9,56.1c0.7,0.1,1.2,0.4,1.3,1.2C26.7,57,25.8,57.2,25.9,56.1z"/>
	</g>
</g>
</svg>
