<?xml version="1.0" encoding="utf-8"?>
<!-- Generator: Adobe Illustrator 23.0.3, SVG Export Plug-In . SVG Version: 6.00 Build 0)  -->
<svg version="1.1" id="Layer_1" xmlns="http://www.w3.org/2000/svg" xmlns:xlink="http://www.w3.org/1999/xlink" x="0px" y="0px"
	 viewBox="0 0 105.6 106.2" style="enable-background:new 0 0 105.6 106.2;" xml:space="preserve">
<style type="text/css">
	.st0{fill:#FFFFFF;}
	.st1{fill:#377288;}
</style>
<g id="Group_37" transform="translate(325.918 -20.079)">
	<polygon class="st0" points="-321,35.9 -321.1,122.4 -308.5,126.3 -235.9,126.3 -238.2,100.1 -305.3,33.1 	"/>
	<path id="Path_91" class="st1" d="M-280.8,89.8c0.5,0.1,0.9,0.2,1.3,0.2l0.4-6.2L-280.8,89.8z"/>
	<path id="Path_92" class="st1" d="M-279.1,90.6l-0.1,0.1l-0.1,0.7l0.1,4.7c0.8,0.2,1.6,0.3,2.4,0.5l0.1-4.4l-2.3-1.7L-279.1,90.6z"
		/>
	<path id="Path_93" class="st1" d="M-279,102.5v0.7l2.4-1.7l-0.1-2.1L-279,102.5z"/>
	<path id="Path_94" class="st1" d="M-276.3,88.5l-0.1,1.9v0.1c1,0.2,2,0.3,3.2,0.6l0.1-1.3l-0.1-3.7L-276.3,88.5z"/>
	<path id="Path_95" class="st1" d="M-276.4,91.9l3.1,2.3l0.1-0.3l0.1-2.3c-1.2-0.2-2.2-0.4-3.2-0.6L-276.4,91.9z"/>
	<path id="Path_96" class="st1" d="M-277.3,90.4l0.6,0.1v-0.1l0.1-1.7l-2,1.5C-278.1,90.2-277.7,90.3-277.3,90.4z"/>
	<path id="Path_97" class="st1" d="M-279.9,110.4l-0.9-4l-1.6,3.7C-281.6,110.2-280.7,110.3-279.9,110.4z"/>
	<path id="Path_98" class="st1" d="M-276.5,96.6c0.4,0.1,0.9,0.2,1.3,0.2l1.7-2.4l-2.9-2.1L-276.5,96.6z"/>
	<path id="Path_99" class="st1" d="M-284.5,98.1l-0.1-2.8c-0.6-0.1-1.1-0.3-1.7-0.4h-0.1L-284.5,98.1z"/>
	<path id="Path_100" class="st1" d="M-286.8,94.7l-0.1,0.1L-287,95l0.1,8.5c0.8,0.2,1.6,0.4,2.5,0.6l-0.1-5.4L-286.8,94.7
		L-286.8,94.7z"/>
	<path id="Path_101" class="st1" d="M-274.8,116l-1.2-0.3l-0.1,0.1l0.7,1.1L-274.8,116z"/>
	<path id="Path_102" class="st1" d="M-286.9,103.9l0.6,5.5c0.8,0.2,1.5,0.3,2.3,0.4l0.1-0.2l-0.5-5.2
		C-285.2,104.3-286.1,104.1-286.9,103.9z"/>
	<path id="Path_103" class="st1" d="M-284.3,95.4l0.1,3.2l3.2,5.4v-6.3v-1.6C-282.1,95.9-283.2,95.6-284.3,95.4z"/>
	<path id="Path_104" class="st1" d="M-286.2,94.5c0.6,0.1,1.1,0.3,1.7,0.4l0.1-1.4L-286.2,94.5L-286.2,94.5z"/>
	<path id="Path_105" class="st1" d="M-280.9,91.2l1.3-0.7v-0.1c-0.4-0.1-0.9-0.1-1.4-0.2L-280.9,91.2z"/>
	<path id="Path_106" class="st1" d="M-276.3,105.6c-0.9-0.1-1.7-0.1-2.6-0.2l1,4.8l0.1,0.2l-0.1,0.1l0,0l2.1-2L-276.3,105.6z"/>
	<path id="Path_107" class="st1" d="M-278.3,112.8l2.2-0.8l-0.2-0.5h-0.5L-278.3,112.8z"/>
	<path id="Path_108" class="st1" d="M-276.3,101.7l0.2,3.2v0.3c1.1,0.1,2.1,0.1,3.2,0.1l-0.3-5.8L-276.3,101.7z"/>
	<path id="Path_109" class="st1" d="M-280.2,105.2l-0.1,0.2l1.9,3.7l-0.8-3.8C-279.5,105.3-279.9,105.3-280.2,105.2z"/>
	<path id="Path_110" class="st1" d="M-278.2,90.6l1.5,1.1v-0.9c-0.2,0-0.4-0.1-0.6-0.1C-277.6,90.7-277.9,90.7-278.2,90.6z"/>
	<path id="Path_111" class="st1" d="M-276.4,99l0.1,2.2l3.1-2.2l-0.1-1.4v-0.1c-0.6-0.1-1.2-0.2-1.8-0.3L-276.4,99z"/>
	<path id="Path_112" class="st1" d="M-273.2,94.8L-273.2,94.8l-1.6,2.2c0.5,0.1,1.1,0.2,1.6,0.3V94.8z"/>
	<path id="Path_113" class="st1" d="M-276.5,98.5l1-1.3l-1.1-0.2L-276.5,98.5z"/>
	<path id="Path_114" class="st1" d="M-277.1,115l1.4-2.2l-0.2-0.5l-3.1,1.2l-0.9,0.8L-277.1,115L-277.1,115z"/>
	<path id="Path_115" class="st1" d="M-279,103.6v1.3c0.9,0.1,1.7,0.2,2.6,0.2v-0.2l-0.2-3.1L-279,103.6z"/>
	<path id="Path_116" class="st1" d="M-273,105.7c-1,0-2-0.1-3-0.1l0.4,2.7L-273,105.7z"/>
	<path id="Path_117" class="st1" d="M-287,94.2l2.6-1.9l0.1-2.8c-0.8-0.2-1.7-0.3-2.7-0.5V94.2z"/>
	<path id="Path_118" class="st1" d="M-279.2,96.5l0.2,5.5l2.3-3.1l-0.1-1.9C-277.6,96.8-278.4,96.7-279.2,96.5z"/>
	<path id="Path_119" class="st1" d="M-278.1,110.5v-0.2l-2.3-4.5l-0.1,0.2l1,4.4C-279.1,110.4-278.6,110.5-278.1,110.5z"/>
	<path id="Path_120" class="st1" d="M-293,91.9l-0.4,0.5c0.1,0,0.3,0.1,0.4,0.1V91.9z"/>
	<path id="Path_121" class="st1" d="M-295.4,87.4l2.5,2.1l0.1-2c-0.9-0.3-1.8-0.6-2.6-0.9V87.4z"/>
	<path id="Path_122" class="st1" d="M-295.5,91.8c0.6,0.2,1.1,0.4,1.7,0.6l0.8-1l0.1-1.4l-2.5-2.1L-295.5,91.8z"/>
	<path id="Path_123" class="st1" d="M-294.9,105.8l-0.3-4.3c-1-0.3-2-0.7-2.9-1.1l0.2,2L-294.9,105.8z"/>
	<path id="Path_124" class="st1" d="M-289.9,88.5l-0.2,3.4l2.7,2.3V89c-0.9-0.2-1.8-0.4-2.6-0.6L-289.9,88.5z"/>
	<path id="Path_125" class="st1" d="M-294.8,107v-0.6l-3-3.4l0.2,2.8C-296.7,106.2-295.8,106.6-294.8,107z"/>
	<path id="Path_126" class="st1" d="M-291.3,81.3l-0.8,0.5l-0.4,5.4c0.8,0.2,1.6,0.4,2.4,0.7l0.6-5.7L-291.3,81.3z"/>
	<path id="Path_127" class="st1" d="M-295.4,86v0.2c0.8,0.3,1.7,0.6,2.6,0.9l0.4-5.2l-2.9,1.7L-295.4,86z"/>
	<path id="Path_128" class="st1" d="M-292.9,113.6l-0.4-1.5l-1.9,1.1L-292.9,113.6z"/>
	<path id="Path_129" class="st1" d="M-277.6,115.8l-2.8-0.4l1.5,2.5L-277.6,115.8z"/>
	<path id="Path_130" class="st1" d="M-293.3,107.4v0.2c0.5,0.2,1,0.3,1.5,0.5l-0.3-2.8l-1.6,1.9l0.3,0.3L-293.3,107.4z"/>
	<path id="Path_131" class="st1" d="M-283.3,119.3h2.1l-1.4-2.3l-1.6,1.6l0.3,0.6L-283.3,119.3z"/>
	<path id="Path_132" class="st1" d="M-276.9,119.3l1.1-1.7l-0.7-1.1l-1.7,2.7l0.1,0.2L-276.9,119.3z"/>
	<path id="Path_133" class="st1" d="M-289.6,101.4l0.1,1.2v0.3c0.7,0.2,1.5,0.4,2.3,0.6l-0.1-7.7L-289.6,101.4z"/>
	<path id="Path_134" class="st1" d="M-283.3,115.8l-1.2-2.1l0,0l-1,2l0.7,1.6L-283.3,115.8z"/>
	<path id="Path_135" class="st1" d="M-292.8,92.6c0.8,0.2,1.6,0.5,2.4,0.7l0.1-1.2l-1.7-1.4l-0.7,0.9L-292.8,92.6z"/>
	<path id="Path_136" class="st1" d="M-287.3,95v-0.4l0,0c-1-0.2-1.9-0.5-2.8-0.8l0.5,6.9L-287.3,95z"/>
	<path id="Path_137" class="st1" d="M-290.1,102.7c0.1,0,0.2,0.1,0.3,0.1v-0.1l-0.1-0.7L-290.1,102.7z"/>
	<path id="Path_138" class="st1" d="M-288.9,108.9l-0.8-5.7c-0.2-0.1-0.4-0.1-0.6-0.2l-1.6,1.9l0.4,3.2
		C-290.7,108.4-289.8,108.6-288.9,108.9z"/>
	<path id="Path_139" class="st1" d="M-290.1,88.3L-290.1,88.3C-290.2,88.2-290.2,88.2-290.1,88.3L-290.1,88.3z"/>
	<path id="Path_140" class="st1" d="M-279.3,103.8l-1.3,0.9c0.5,0.1,0.9,0.1,1.4,0.2L-279.3,103.8z"/>
	<path id="Path_141" class="st1" d="M-292.5,102L-292.5,102l-0.6-9c-0.2-0.1-0.4-0.1-0.7-0.2l-1.6,2l0.4,6.4
		C-294.1,101.4-293.3,101.7-292.5,102z"/>
	<path id="Path_142" class="st1" d="M-295.4,94.3l1.3-1.6c-0.5-0.2-1-0.3-1.4-0.5L-295.4,94.3z"/>
	<path id="Path_143" class="st1" d="M-290.2,93.4c0.7,0.2,1.4,0.4,2.1,0.6l-2-1.7L-290.2,93.4z"/>
	<path id="Path_144" class="st1" d="M-289.4,103.3l0.8,5.6l0,0c0.7,0.2,1.4,0.3,2.1,0.5l-0.6-5.5
		C-287.9,103.7-288.7,103.5-289.4,103.3z"/>
	<path id="Path_145" class="st1" d="M-292.2,102c0.6,0.2,1.2,0.4,1.8,0.5l0.5-1.2l-0.6-7.6l0,0c-0.8-0.2-1.6-0.5-2.3-0.7l0.5,8.8
		L-292.2,102z"/>
	<path id="Path_146" class="st1" d="M-290.6,102.9c-0.5-0.1-1-0.3-1.6-0.5l0.2,2L-290.6,102.9z"/>
	<path id="Path_147" class="st1" d="M-292.7,91l0.4-0.5l-0.4-0.3V91z"/>
	<path id="Path_148" class="st1" d="M-290.3,91.7l0.2-3.2l0,0l-1.7,2L-290.3,91.7z"/>
	<path id="Path_149" class="st1" d="M-292.7,89.7l0.6,0.5l1.7-2c-0.8-0.2-1.5-0.4-2.2-0.6L-292.7,89.7z"/>
	<path id="Path_150" class="st1" d="M-284.5,92.8l-1.5,1.1l1.5-0.8V92.8z"/>
	<path id="Path_151" class="st1" d="M-265.4,93c1,0.3,2,0.6,3,0.9l-2.8-4.2L-265.4,93z"/>
	<path id="Path_152" class="st1" d="M-262.6,105.3c-0.9,0.1-1.8,0.2-2.7,0.2l0.2,1.2L-262.6,105.3z"/>
	<path id="Path_153" class="st1" d="M-265.4,98.3c1.1,0.1,2.2,0.2,3.2,0.3v-4.2c-1-0.3-2.1-0.7-3.2-1v3.1h0.1l-0.1,0.6V98.3z"/>
	<path id="Path_154" class="st1" d="M-261.9,104.7l-0.3-5.7c-1-0.1-2.1-0.2-3.2-0.3l0.1,6.4C-264.1,105-263,104.9-261.9,104.7
		L-261.9,104.7z"/>
	<path id="Path_155" class="st1" d="M-266.9,104.3l-0.1,0.9c0.5,0,0.9,0,1.4-0.1l-0.1-6.4l-0.6,1.4l-0.3,1.7L-266.9,104.3z"/>
	<path id="Path_156" class="st1" d="M-265.6,93.4c-0.2-0.1-0.4-0.1-0.6-0.2l-0.1,3.2l0.7,0.1V93.4z"/>
	<path id="Path_157" class="st1" d="M-267.1,107.9l1.8-1.1l-0.3-1.3c-0.5,0-0.9,0.1-1.4,0.1L-267.1,107.9z"/>
	<path id="Path_158" class="st1" d="M-272.6,105.3L-272.6,105.3l0.8-0.6v-0.1l1.3-1.3l0.5-2.6l-0.1-1.1l-0.5-1.2l-1.5,1l-0.1-0.4
		l-0.7,0.5L-272.6,105.3z"/>
	<path id="Path_159" class="st1" d="M-265,84.1c-1-0.2-2-0.3-3.1-0.5l-0.1,1l2.9,4.3L-265,84.1z"/>
	<path id="Path_160" class="st1" d="M-260.7,93.2l0.4-8.1c-0.4-0.1-0.9-0.2-1.3-0.3l-0.3,9.1L-260.7,93.2z"/>
	<path id="Path_161" class="st1" d="M-262.2,93.7l0.3-8.9c-0.9-0.2-1.9-0.4-2.9-0.6l-0.3,5.1L-262.2,93.7z"/>
	<path id="Path_162" class="st1" d="M-261.9,98.6c0.3,0,0.6,0,0.9,0.1l0,0l0.2-3.8c-0.4-0.1-0.7-0.3-1.1-0.4V98.6z"/>
	<path id="Path_163" class="st1" d="M-261.6,104.8c0.3,0,0.6-0.1,0.9-0.1l-0.3-5.6l-0.9-0.1l0.3,5.6V104.8z"/>
	<path id="Path_164" class="st1" d="M-260.8,93.7l-0.9,0.5c0.3,0.1,0.6,0.2,0.8,0.3L-260.8,93.7z"/>
	<path id="Path_165" class="st1" d="M-258.5,92.3l-1.2,0.7l-0.1,1.8c0.4,0.2,0.8,0.3,1.2,0.5L-258.5,92.3z"/>
	<path id="Path_166" class="st1" d="M-254.8,97.4v1.5c1,0,2,0,2.9,0C-252.5,98.5-253.5,98-254.8,97.4z"/>
	<path id="Path_167" class="st1" d="M-258.4,104.4c1.2-0.2,2.4-0.3,3.6-0.5l-0.3-4.6c-1,0-2.2,0-3.3-0.1V104.4z"/>
	<path id="Path_168" class="st1" d="M-320,79.5c0.2,0.2,0.5,0.4,0.8,0.6v-0.6C-319.6,79.5-319.8,79.5-320,79.5z"/>
	<path id="Path_169" class="st1" d="M-251.1,98.8c1.4-0.1,2.6-0.2,3.6-0.3v-0.2l0.3-7.2l-2.3-2.3c-0.4-0.2-0.9-0.4-1.4-0.7
		L-251.1,98.8z"/>
	<path id="Path_170" class="st1" d="M-247.2,98.5c1.7-0.2,2.9-0.4,3.7-0.6l0.1-3l-3.6-3.6l-0.2,7V98.5z"/>
	<path id="Path_171" class="st1" d="M-288.9,61.1L-288.9,61.1v-0.3C-288.9,60.9-288.9,61-288.9,61.1z"/>
	<path id="Path_172" class="st1" d="M-258.3,95.8l-0.1,2.9v0.1c1.2,0,2.3,0.1,3.3,0.1v-1.6C-256,96.8-257.1,96.3-258.3,95.8z"/>
	<path id="Path_173" class="st1" d="M-258.3,85.7c-0.3-0.1-0.7-0.2-1-0.3l-0.4,7.2l1.2-0.7L-258.3,85.7z"/>
	<path id="Path_174" class="st1" d="M-258.6,98.7l0.1-3c-0.4-0.2-0.8-0.3-1.2-0.5l-0.2,3.5l0,0C-259.5,98.8-259.1,98.8-258.6,98.7
		L-258.6,98.7z"/>
	<path id="Path_175" class="st1" d="M-279.8,119.3l0.5-0.8l-1.8-2.9l-0.6,0.6l1.8,3l-0.1,0.1L-279.8,119.3z"/>
	<path id="Path_176" class="st1" d="M-255,96.8l0.1-6.5l-3.3,1.9l-0.1,3.2C-257,95.9-256,96.4-255,96.8z"/>
	<path id="Path_177" class="st1" d="M-254.8,86.7c-1.2-0.4-2.2-0.7-3.2-1l-0.2,6l3.3-1.9L-254.8,86.7z"/>
	<path id="Path_178" class="st1" d="M-254.1,106.7l-0.6-2.4c-1.1,0.2-2.3,0.4-3.6,0.5l0.2,0.9L-254.1,106.7z"/>
	<path id="Path_179" class="st1" d="M-251.3,99.2c-1,0-2.1,0.1-3.3,0.1h-0.2l0.3,4.6c1.2-0.2,2.3-0.4,3.4-0.6L-251.3,99.2z"/>
	<path id="Path_180" class="st1" d="M-284.2,92.1l2.8-2c-0.8-0.1-1.7-0.3-2.7-0.5L-284.2,92.1z"/>
	<path id="Path_181" class="st1" d="M-274.9,111.5c-0.2,0-0.5,0-0.7,0l0.1,0.3L-274.9,111.5L-274.9,111.5z"/>
	<path id="Path_182" class="st1" d="M-281.5,105c-0.9-0.1-1.7-0.3-2.6-0.5l0.5,4.7L-281.5,105z"/>
	<path id="Path_183" class="st1" d="M-275.4,110L-275.4,110l1.3,0.1l1.4-2.3l-0.1-0.4L-275.4,110z"/>
	<path id="Path_184" class="st1" d="M-275.3,112.1h-0.1v0.1L-275.3,112.1z"/>
	<path id="Path_185" class="st1" d="M-273.1,97.7l0.1,1.2l0.7-0.5l-0.1-0.7C-272.6,97.7-272.8,97.7-273.1,97.7L-273.1,97.7z"/>
	<path id="Path_186" class="st1" d="M-291.5,112.2l1.3,1.9l3.8,0.7l0.7-1.4L-291.5,112.2z"/>
	<path id="Path_187" class="st1" d="M-271.9,106.7l-0.5,0.5v0.3l0.4-0.7L-271.9,106.7z"/>
	<path id="Path_188" class="st1" d="M-279.5,96.4l-0.3-0.1l-0.8,7.8l1.3-1.8L-279.5,96.4z"/>
	<path id="Path_189" class="st1" d="M-280.1,96.3l-0.7-0.2V99l0.1,3.7L-280.1,96.3z"/>
	<path id="Path_190" class="st1" d="M-279.5,93.8l-0.2,2.1c0.1,0,0.2,0,0.2,0.1V93.8z"/>
	<path id="Path_191" class="st1" d="M-273,95.1l-0.1,2.1c0.2,0,0.4,0.1,0.5,0.1l-0.1-0.7l0.1-0.9L-273,95.1z"/>
	<path id="Path_192" class="st1" d="M-281.1,104.6l-3.1-5.4l0.1,4.9C-283.1,104.4-282.1,104.5-281.1,104.6L-281.1,104.6z"/>
	<path id="Path_193" class="st1" d="M-280.9,91.6v1.1l0.1,3.1c0.3,0.1,0.5,0.1,0.8,0.2l0.5-4.4V91L-280.9,91.6z"/>
	<path id="Path_194" class="st1" d="M-278.7,111.3c-1.4-0.1-2.7-0.2-4-0.4l-0.9,1.9l1.2,2.1L-278.7,111.3z"/>
	<path id="Path_195" class="st1" d="M-272.2,110.7l-0.1-1l-0.6,1C-272.7,110.7-272.4,110.7-272.2,110.7z"/>
	<path id="Path_196" class="st1" d="M-295.7,86l0.2-2.2l-2.5,1.5c0.7,0.3,1.5,0.6,2.3,0.9V86z"/>
	<path id="Path_197" class="st1" d="M-294.2,107.2L-294.2,107.2l-0.4-0.5v0.4L-294.2,107.2z"/>
	<path id="Path_198" class="st1" d="M-295.7,86.6c-0.5-0.2-1-0.4-1.4-0.5l1.4,1.2V86.6z"/>
	<path id="Path_199" class="st1" d="M-295.9,91.5l-0.1,0.2c0.1,0,0.1,0,0.2,0.1v-4l-2.3-1.9L-295.9,91.5z"/>
	<path id="Path_200" class="st1" d="M-288.9,116l1.9,2.8l0.5,0.1l0.8-0.8l-0.7-1.7L-288.9,116z"/>
	<path id="Path_201" class="st1" d="M-284.3,110.6c-3-0.5-5.9-1.2-8.7-2.2l0.5,1.9l7.6,1.6L-284.3,110.6z"/>
	<path id="Path_202" class="st1" d="M-292.2,104.8l-0.3-2.4c-0.8-0.3-1.7-0.5-2.5-0.8l0.3,4.5l0.7,0.8L-292.2,104.8z"/>
	<path id="Path_203" class="st1" d="M-279.3,102.9l-0.8,1.1l0.8-0.6V102.9z"/>
	<path id="Path_204" class="st1" d="M-284.2,92.9l3-1.6v-0.9l-2.9,2.1L-284.2,92.9z"/>
	<path id="Path_205" class="st1" d="M-295.2,101.1l-0.4-6l-2.6,3.2v1.8C-297.2,100.4-296.2,100.7-295.2,101.1z"/>
	<path id="Path_206" class="st1" d="M-284.3,95c1.1,0.3,2.1,0.5,3.2,0.7V94l-0.1-2.3l-3,1.6L-284.3,95z"/>
	<path id="Path_207" class="st1" d="M-298.2,91.3l0.1,4.5l1.8-3.9C-297,91.7-297.6,91.5-298.2,91.3L-298.2,91.3z"/>
	<path id="Path_208" class="st1" d="M-298.2,90.8c0.7,0.2,1.3,0.5,2,0.7v-0.1l-2.1-5.5L-298.2,90.8z"/>
	<path id="Path_209" class="st1" d="M-295.6,94.6l-0.2-2.4c-0.1,0-0.2-0.1-0.4-0.1l-2.1,4.5v1.2L-295.6,94.6z"/>
	<path id="Path_210" class="st1" d="M-301.7,99c-1.1-0.5-2.1-1-3.1-1.4l0.3,3.6l2.6,2.5l0,0l0.6-1.2L-301.7,99z"/>
	<path id="Path_211" class="st1" d="M-298.4,98.5l-0.8,1v0.1c0.3,0.1,0.5,0.2,0.8,0.3V98.5z"/>
	<path id="Path_212" class="st1" d="M-298.4,100.3c-0.3-0.1-0.5-0.2-0.8-0.3l0.1,1.2l0.8,0.9L-298.4,100.3z"/>
	<path id="Path_213" class="st1" d="M-294.6,107.9c-1.3-0.5-2.6-1-3.8-1.6l0.7,6.5h0.2l3.7-2.2L-294.6,107.9z"/>
	<path id="Path_214" class="st1" d="M-298.2,102.6l-0.8-0.9l0.4,3.6c0.2,0.1,0.4,0.2,0.6,0.3L-298.2,102.6z"/>
	<path id="Path_215" class="st1" d="M-300.1,100.8L-300.1,100.8l-0.9,1.7l0.2,1.7c0.4,0.2,0.7,0.4,1.1,0.6L-300.1,100.8
		L-300.1,100.8z"/>
	<path id="Path_216" class="st1" d="M-298.5,91.3v-0.2c-0.2-0.1-0.3-0.1-0.5-0.2l-0.9,8.3c0.1,0,0.1,0,0.2,0.1l0,0l1.3-2.9
		L-298.5,91.3z"/>
	<path id="Path_217" class="st1" d="M-298.4,97.1l-1,2.1l1-1.2V97.1z"/>
	<path id="Path_218" class="st1" d="M-288.5,125.1h2.1l-0.7-3.4L-288.5,125.1z"/>
	<path id="Path_219" class="st1" d="M-300.3,100.3L-300.3,100.3l-0.3-0.8c-0.3-0.1-0.6-0.2-0.9-0.4l0.3,2.9L-300.3,100.3
		L-300.3,100.3z"/>
	<path id="Path_220" class="st1" d="M-284.5,120.8l-1.7-0.2l0.7,3.6l1.2-2.8L-284.5,120.8z"/>
	<path id="Path_221" class="st1" d="M-290.2,120l0.9,3.8l1.4-3.5L-290.2,120z"/>
	<path id="Path_222" class="st1" d="M-293.1,119.7l2.5,3.2l-0.7-3L-293.1,119.7z"/>
	<path id="Path_223" class="st1" d="M-284.6,125.1h2l-1-2.3L-284.6,125.1z"/>
	<path id="Path_224" class="st1" d="M-316.1,90.3c-0.9-0.7-1.6-1.4-2.4-2c-0.2-0.2-0.4-0.3-0.5-0.5l0.2,2.8l2.7,0.3L-316.1,90.3z"/>
	<path id="Path_225" class="st1" d="M-292.5,115.3l-4.4-0.8l2.3,3.1l0.2,0.2l2.7,0.4L-292.5,115.3z"/>
	<path id="Path_226" class="st1" d="M-312.8,93.4l0.4,3c1,0.8,1.9,1.5,2.8,2.2l-0.3-2.4L-312.8,93.4z"/>
	<path id="Path_227" class="st1" d="M-314.8,91.4l-1-0.1l0.1,2.3c0.9,0.8,1.9,1.7,2.8,2.4l-0.4-3L-314.8,91.4z"/>
	<path id="Path_228" class="st1" d="M-309.4,81.1l-0.2,2.8l2.3,2l0.3-4.1c-0.5-0.2-1-0.3-1.5-0.5C-308.8,81.3-309.1,81.2-309.4,81.1
		z"/>
	<path id="Path_229" class="st1" d="M-309.7,96.4l0.3,2.3c0.8,0.6,1.6,1.2,2.3,1.7l-0.1-1.6L-309.7,96.4z"/>
	<path id="Path_230" class="st1" d="M-318.4,91c0.8,0.8,1.7,1.6,2.5,2.4l-0.1-2.1L-318.4,91z"/>
	<path id="Path_231" class="st1" d="M-313.2,90.6v-6.1c-0.9-0.5-1.8-1.1-2.7-1.6l0.1,7.2c0.4,0.3,0.8,0.6,1.2,0.9L-313.2,90.6z"/>
	<path id="Path_232" class="st1" d="M-315.8,90.6V91l0.5,0.1C-315.4,90.8-315.6,90.7-315.8,90.6z"/>
	<path id="Path_233" class="st1" d="M-304.4,102.2c0.5,0.3,0.9,0.5,1.4,0.8l-1.4-1.4V102.2z"/>
	<path id="Path_234" class="st1" d="M-306,100.1l0.1,1.2c0.1,0.1,0.2,0.2,0.4,0.2l0.9,0.5v-0.7L-306,100.1z"/>
	<path id="Path_235" class="st1" d="M-301.6,103.8c0.2,0.1,0.4,0.2,0.5,0.3l-0.1-1.1L-301.6,103.8z"/>
	<path id="Path_236" class="st1" d="M-305,97.4c-0.4-0.2-0.9-0.4-1.3-0.7l0.2,2.8l1.3,1.3L-305,97.4z"/>
	<path id="Path_237" class="st1" d="M-305,89.2l-1.4,4.5V96v0.2c0.4,0.2,0.9,0.5,1.3,0.7L-305,89.2z"/>
	<path id="Path_238" class="st1" d="M-306.1,71.4c-1-0.5-1.8-0.9-2.5-1.3l-0.4,6.4l2.5-1.2l0.3-3.9H-306.1z"/>
	<path id="Path_239" class="st1" d="M-309.3,80.7c0.3,0.1,0.6,0.2,0.9,0.3c0.5,0.1,1,0.3,1.4,0.4l0.4-5.7l-2.5,1.2L-309.3,80.7z"/>
	<path id="Path_240" class="st1" d="M-290.7,115.7l-0.6-0.1l0.7,2.8l1.9,0.3L-290.7,115.7z"/>
	<path id="Path_241" class="st1" d="M-242.2,101.8c-0.2,0.1-0.6,0.1-1,0.3l0.4,1.7C-242.5,103.1-242.3,102.5-242.2,101.8z"/>
	<path id="Path_242" class="st1" d="M-243.5,101.7l0.1-3.3c-0.8,0.2-2.1,0.4-3.7,0.6l0.2,3.5C-245.5,102.2-244.3,101.9-243.5,101.7z
		"/>
	<path id="Path_243" class="st1" d="M-242.4,98.1c-0.2,0-0.4,0.1-0.8,0.2l-0.1,3.3c0.5-0.1,0.8-0.2,1.1-0.3
		C-242.1,100.3-242.2,99.2-242.4,98.1z"/>
	<path id="Path_244" class="st1" d="M-259.4,105.8l0.7,3.7c0.4-0.1,0.9-0.2,1.3-0.2l-0.8-3.1L-259.4,105.8z"/>
	<path id="Path_245" class="st1" d="M-257.9,106.2l0.8,3c1.2-0.3,2.4-0.5,3.5-0.8l-0.3-1.2L-257.9,106.2z"/>
	<path id="Path_246" class="st1" d="M-242.9,96.1c-0.1-0.2-0.1-0.4-0.2-0.6l-0.1,2.4c0.3-0.1,0.6-0.1,0.7-0.2
		C-242.6,97.2-242.7,96.7-242.9,96.1z"/>
	<path id="Path_247" class="st1" d="M-253.4,108.3c0.6-0.2,1.2-0.3,1.8-0.5l-2.1-0.5L-253.4,108.3z"/>
	<path id="Path_248" class="st1" d="M-246.9,102.9l0.7,3.1c1.1-0.4,2-0.9,2.9-1.6c0.1-0.1,0.2-0.2,0.2-0.3l-0.5-2
		C-244.3,102.3-245.5,102.6-246.9,102.9z"/>
	<path id="Path_249" class="st1" d="M-254.6,86.8l-0.1,2.9l3.1-1.8C-252.4,87.5-253.4,87.1-254.6,86.8
		C-254.5,86.8-254.6,86.8-254.6,86.8z"/>
	<path id="Path_250" class="st1" d="M-220.4,28.5v-7.3l-1.1-1.1h-98.4l-1.1,1.1v104l1.1,1.1h98.4l1.1-1.1v-7.3l-22-22
		c1.1,3.9,0.9,7.3-0.6,9.1c-1.3,1.5-11.9,5.4-24,6.3l-0.4,0.7l-0.8,2l-0.1-0.3l-6.4,11.2h2.6v1.3h-21.5v-1.3h3l-4.7-6.2l-3.3-4.4
		l-1-8.7c-2.1-1.1-4.2-2.2-6.2-3.5c-0.3-0.2-0.7-0.5-1.2-0.8c-5.1-3.6-9.8-7.6-14.1-12.1v-1c0.5,0.6,1.1,1.2,1.7,1.8l-1.7-3.3V86
		l2,3.9l-0.2-2.5c-0.6-0.6-1.2-1.2-1.8-1.8v-0.5c0.5,0.6,1.1,1.2,1.8,1.8v-6.5c-0.4-0.3-0.8-0.6-1.2-0.9l-0.6,1.1V80l0.3-0.6
		c-0.1-0.1-0.2-0.2-0.3-0.3v-0.5c0.2,0.1,0.3,0.3,0.5,0.4l0.1-0.2l1.3,0.1l0.7-12.5h-0.1c-0.8,0-1.7,0.1-2.5,0.3V66
		c3.1-0.8,6.8,0,10.8,2.3c0.1,0.1,12.9,6.9,17.7,8.3c0,0,1.3,0.4,3.2,1.1l1.5,0.5l0.2,0.1c0.3,0.1,0.5,0.2,0.8,0.2
		c0-0.2,0-0.4,0-0.6s0-0.5,0.1-0.7l-3-0.9c0,0.1,0,0.1,0,0.1c0.3,0,0.4,0.2,0.7,0.1c0,0.4,0.3,1,0.1,1.2c-0.4-0.1-0.2-1-0.6-1.1
		c-0.2-0.1-0.2,1-0.3,0.7c0-0.3,0.2-0.3,0.1-0.7c-0.1-0.3-0.4,0-0.3-0.5c0.1-3.5,0.2-7.6,0.2-10.9c0-0.7-0.2-1.7,0.3-2.2
		c0,0.1,0,0.2,0,0.3l0.4-0.3v-0.6c0,0.2-0.1,0.4-0.2,0.6c0.1-0.5-0.2-1.7,0.2-1.8v-0.1h0.1c0.2-0.2,0-1,0.2-1.3
		c0.6,0.1,1.2,0.3,1.7,0.6l0.6,0.2l0.3,2.6l0.6,0.6v13.6c0.1,0.1,0.2,0.2,0.2,0.4V78h-0.2c-0.2,0-0.3,0-0.5-0.1
		c-0.1,0-0.2-0.1-0.3-0.1c0,0.1,0,0.1,0,0.1c0,0.2,0,0.3,0,0.5c4.3,1.3,8.7,2.4,13.1,3.2l0.5,0.1l0.1-0.7l2.6,0.9l0.1,0.2l0.3,0.1
		v-0.1l0.1,0.1h0.1c5.1,0.7,10.1,1.9,15,3.5c1.2,0.4,2.3,0.8,3.3,1.2l-11-10.9v-5.6L-220.4,28.5z"/>
	<path id="Path_251" class="st1" d="M-254.8,97c1.8,0.9,3,1.5,3.4,1.8l0.2-10.6l-3.5,2L-254.8,97z"/>
	<path id="Path_252" class="st1" d="M-253.8,106.8l2.9,0.8l0.5-0.1l-0.7-3.7c-1.1,0.2-2.2,0.4-3.4,0.6L-253.8,106.8z"/>
	<path id="Path_253" class="st1" d="M-247.2,102.5l-0.2-3.6c-1.1,0.1-2.3,0.2-3.6,0.3l0.2,4C-249.5,103-248.3,102.8-247.2,102.5z"/>
	<path id="Path_254" class="st1" d="M-250.1,107.3L-250.1,107.3c1.4-0.4,2.6-0.9,3.7-1.3l-0.7-3.1c-1.1,0.2-2.3,0.5-3.7,0.7
		L-250.1,107.3z"/>
	<path id="Path_255" class="st1" d="M-269.5,83.4V84l0.7,2.2l0.2,0.2l0.1-1.6L-269.5,83.4C-269.4,83.4-269.4,83.4-269.5,83.4z"/>
	<path id="Path_256" class="st1" d="M-282.5,125.1h0.7l-0.3-0.5L-282.5,125.1z"/>
	<path id="Path_257" class="st1" d="M-274.7,118.2l1.3,2.2l2.2-3.9h-2.4L-274.7,118.2z"/>
	<path id="Path_258" class="st1" d="M-270.9,112.1l-0.7,1.2l1.2,1.7l1.5-2.6l-0.2-0.5L-270.9,112.1z"/>
	<path id="Path_259" class="st1" d="M-273.1,115.6h2.3l-1.2-1.8L-273.1,115.6z"/>
	<path id="Path_260" class="st1" d="M-282.8,120.9l2.3,3.9l2.5-3.9H-282.8z"/>
	<path id="Path_261" class="st1" d="M-279.2,125.1h3l2-3.5h-2.8L-279.2,125.1z"/>
	<path id="Path_262" class="st1" d="M-276.4,120.7h2.5l-1.2-2L-276.4,120.7z"/>
	<path id="Path_263" class="st1" d="M-258.6,99.2c-0.4,0-0.9,0-1.3-0.1l0.3,5.5c0.4,0,0.7-0.1,1-0.1V99.2z"/>
	<path id="Path_264" class="st1" d="M-265,107.1l0.7,3.2c1.1-0.1,2.2-0.3,3.2-0.4l-0.7-4.6L-265,107.1z"/>
	<path id="Path_265" class="st1" d="M-261.5,105.3l0.7,4.5c0.4-0.1,0.7-0.1,1-0.2l-0.8-4.1L-261.5,105.3z"/>
	<path id="Path_266" class="st1" d="M-258.6,104.9c-0.4,0-0.7,0.1-1.1,0.1l0.1,0.3l1.2,0.3L-258.6,104.9z"/>
	<path id="Path_267" class="st1" d="M-267.1,108.4l-0.1,2.1c0.9-0.1,1.8-0.1,2.7-0.2l-0.6-3L-267.1,108.4z"/>
	<path id="Path_268" class="st1" d="M-265.6,92.7l0.2-3.3l-2.9-4.3l-0.1,1.5l1.7,1.8L-265.6,92.7z"/>
	<path id="Path_269" class="st1" d="M-268.4,84.2v-0.7c-0.2,0-0.4-0.1-0.6-0.1L-268.4,84.2z"/>
	<path id="Path_270" class="st1" d="M-307.2,98.4l-0.1-1.5l-0.3,1l-0.2-0.2l0.5-1.6l0,0c-0.9-0.5-1.7-1-2.5-1.5l0.2,1.2L-307.2,98.4
		z"/>
	<path id="Path_271" class="st1" d="M-304.7,97.1c1,0.5,2,1,3,1.4v-2.1l-3-7.4V97.1z"/>
	<path id="Path_272" class="st1" d="M-301.5,89.6l0.5,0.2l-0.3-3.9L-301.5,89.6z"/>
	<path id="Path_273" class="st1" d="M-300.3,99.1l-0.8-8.9c-0.2-0.1-0.4-0.1-0.5-0.2l0.1,6.3L-300.3,99.1L-300.3,99.1z"/>
	<path id="Path_274" class="st1" d="M-299.3,90.9c-0.5-0.2-1-0.4-1.5-0.6l0.7,7.8L-299.3,90.9z"/>
	<path id="Path_275" class="st1" d="M-292.4,81.5l0.3-3.8c-0.3-0.1-0.5-0.2-0.5-0.2c-0.6-0.2-1.3-0.4-2.1-0.7l-0.5,6.4L-292.4,81.5z
		"/>
	<path id="Path_276" class="st1" d="M-295.5,83.3l0.5-6.6c-0.8-0.3-1.7-0.7-2.7-1.1l-0.6,9.4L-295.5,83.3z"/>
	<path id="Path_277" class="st1" d="M-297.9,75.4c-0.9-0.4-1.9-0.9-2.9-1.3l-0.1,1.8l2.4,8.6L-297.9,75.4z"/>
	<path id="Path_278" class="st1" d="M-304.4,82.4c1,0.4,1.9,0.8,2.8,1.2l0.4-7.7l-0.7-2.4c0,0,0,0-0.1,0l-2,1l-0.5,7.7L-304.4,82.4z
		"/>
	<path id="Path_279" class="st1" d="M-318.3,88c0.7,0.6,1.4,1.2,2.2,1.9l-0.1-7.2c-1-0.7-2-1.3-2.8-1.9v6.6l0,0
		C-318.8,87.5-318.5,87.8-318.3,88z"/>
	<path id="Path_280" class="st1" d="M-301,73.9c-0.1-0.1-0.3-0.1-0.4-0.2l0.4,1.4V73.9z"/>
	<path id="Path_281" class="st1" d="M-298.7,85.4c-0.9-0.4-1.7-0.8-2.6-1.2l0,0l0.5,5.7c0.5,0.2,1,0.4,1.6,0.6L-298.7,85.4z"/>
	<path id="Path_282" class="st1" d="M-291.6,81l0.4-1.8l1.8,0.2l0.1-0.9c-1-0.3-1.9-0.6-2.4-0.8l-0.3,3.5L-291.6,81z"/>
	<path id="Path_283" class="st1" d="M-301.3,83.8l0.2,0.1c0.8,0.4,1.7,0.8,2.6,1.2l-2.3-8.3L-301.3,83.8L-301.3,83.8z"/>
	<path id="Path_284" class="st1" d="M-298.5,86.4l-0.5,4.2l0.5,0.2V86.4z"/>
	<path id="Path_285" class="st1" d="M-300.7,98.9l-0.7-1.8v1.5C-301.2,98.7-301,98.8-300.7,98.9z"/>
	<path id="Path_286" class="st1" d="M-272.5,91.7c-0.1,0-0.2-0.1-0.4-0.1V93L-272.5,91.7z"/>
	<path id="Path_287" class="st1" d="M-273,94.6l0.4,0.6l0.2-3.3L-273,94V94.6z"/>
	<path id="Path_288" class="st1" d="M-273.2,85.6v-1.1l0.3-1.7l-0.4-0.1c-0.8-0.1-1.7-0.3-2.6-0.5l-0.3,5.7L-273.2,85.6z"/>
	<path id="Path_289" class="st1" d="M-272,111.5c-0.3,0-0.5,0-0.8,0l0.4,0.6L-272,111.5z"/>
	<path id="Path_290" class="st1" d="M-271.9,110.7l0.2-0.1l-0.3-1.4l0,0l-0.1,0.1L-271.9,110.7L-271.9,110.7z"/>
	<path id="Path_291" class="st1" d="M-272.8,112.7l-0.8-1.1l-1.3,2l0.6,1.4L-272.8,112.7z"/>
	<path id="Path_292" class="st1" d="M-279,90.1l2.5-1.9l0.3-6c-0.4-0.1-0.8-0.2-1.1-0.2l-2,7.9L-279,90.1z"/>
	<path id="Path_293" class="st1" d="M-279.1,82.5l0.1-1c-0.5-0.1-1-0.2-1.5-0.4l-0.4,8L-279.1,82.5z"/>
	<path id="Path_294" class="st1" d="M-283.7,80.3c-0.7-0.2-1.3-0.4-1.9-0.6l1.8,2L-283.7,80.3z"/>
	<path id="Path_295" class="st1" d="M-284.3,89.1L-284.3,89.1l0.4-5.3l-0.3-0.5l0,0l-2.4-0.3l-0.4,5.5
		C-286,88.8-285.1,88.9-284.3,89.1z"/>
	<path id="Path_296" class="st1" d="M-277.6,81.9c-0.3-0.1-0.6-0.1-1-0.2l-0.6,6.5L-277.6,81.9z"/>
	<path id="Path_297" class="st1" d="M-284.1,89.2c1,0.2,1.9,0.4,2.7,0.5l-1.1-2.9l-1.2-2.4L-284.1,89.2L-284.1,89.2z"/>
	<path id="Path_298" class="st1" d="M-287.3,88.5l0.4-5.5l-1.1-0.1l-1.3-0.6l-0.6,5.7C-289,88.1-288.2,88.3-287.3,88.5z"/>
	<path id="Path_299" class="st1" d="M-281.2,89.2l0.4-8.2c-0.9-0.2-1.8-0.5-2.6-0.7l-0.2,3.4l1.4,2.8L-281.2,89.2z"/>
	<path id="Path_300" class="st1" d="M-303.8,72.6l-0.1,1.5l1.6-0.8C-302.8,73-303.3,72.8-303.8,72.6z"/>
	<path id="Path_301" class="st1" d="M-307.4,95.7v-6.4l-2.4,0.7l-0.2,4.1l0,0C-309.2,94.7-308.3,95.2-307.4,95.7z"/>
	<path id="Path_302" class="st1" d="M-310.1,95.6l-0.1-1.1c-0.9-0.6-1.8-1.2-2.7-1.8v0.1L-310.1,95.6z"/>
	<path id="Path_303" class="st1" d="M-312.9,84.6v5.9l2.8-0.8l0.1-3.5C-311,85.7-312,85.1-312.9,84.6z"/>
	<path id="Path_304" class="st1" d="M-310.1,90.1l-2.8,0.8v1.3c0.8,0.6,1.7,1.2,2.7,1.8L-310.1,90.1z"/>
	<path id="Path_305" class="st1" d="M-312.9,84.1L-312.9,84.1c0.9,0.6,1.9,1.2,3,1.7l0,0l0.1-1.6l-2.9-2.6L-312.9,84.1z"/>
	<path id="Path_306" class="st1" d="M-314.4,79.6c0.5,0.1,1,0.2,1.5,0.3l0.1-1.1L-314.4,79.6L-314.4,79.6z"/>
	<path id="Path_307" class="st1" d="M-312.9,80.3c-0.3-0.1-0.6-0.1-0.9-0.2l0.9,0.8V80.3z"/>
	<path id="Path_308" class="st1" d="M-314.8,79.3l2.1-1l0.8-10c-1-0.5-2-0.9-3-1.2l-0.7,12.2H-314.8z"/>
	<path id="Path_309" class="st1" d="M-307.4,88.9v-1.4c-0.8-0.4-1.6-0.8-2.3-1.1l-0.1,3.2L-307.4,88.9z"/>
	<path id="Path_310" class="st1" d="M-274.6,115.6l-0.6-1.4l-0.7,1.1L-274.6,115.6L-274.6,115.6z"/>
	<path id="Path_311" class="st1" d="M-316,79.8c-1.2-0.2-2.2-0.2-3-0.3v0.7c0.9,0.6,1.8,1.3,2.9,2L-316,79.8z"/>
	<path id="Path_312" class="st1" d="M-315.2,67c-1-0.3-1.9-0.4-2.9-0.5l-0.7,12.5l3,0.2L-315.2,67z"/>
	<path id="Path_313" class="st1" d="M-312.5,78.6l-0.1,1.3c0.9,0.2,2,0.4,3,0.7l0.2-3.6L-312.5,78.6z"/>
	<path id="Path_314" class="st1" d="M-309.7,85.8L-309.7,85.8c0.7,0.5,1.5,0.9,2.3,1.2l0.1-0.7l-2.2-2L-309.7,85.8z"/>
	<path id="Path_315" class="st1" d="M-314.5,80c-0.4-0.1-0.8-0.1-1.2-0.2l-0.2,2.6c0.8,0.5,1.7,1.1,2.7,1.6l0.2-2.7L-314.5,80z"/>
	<path id="Path_316" class="st1" d="M-304,72.4c-0.4-0.2-0.8-0.4-1.1-0.6l-0.2,2.9l1.3-0.6L-304,72.4z"/>
	<path id="Path_317" class="st1" d="M-304.6,82.2l0.5-7.6l-1.3,0.6l-0.5,6.6C-305.5,82-305,82.1-304.6,82.2L-304.6,82.2z"/>
	<path id="Path_318" class="st1" d="M-304.9,88l0.3-5.3c-0.4-0.2-0.9-0.3-1.3-0.5l-0.3,4.6L-304.9,88z"/>
	<path id="Path_319" class="st1" d="M-312.7,80.4l-0.1,0.8l2.9,2.6l0.2-2.6C-310.7,80.8-311.7,80.6-312.7,80.4z"/>
	<path id="Path_320" class="st1" d="M-304.4,82.8l-0.3,5l2.9-3.9C-302.7,83.6-303.5,83.2-304.4,82.8z"/>
	<path id="Path_321" class="st1" d="M-306.4,88.6l0.8-0.2c-0.3-0.1-0.5-0.2-0.8-0.4V88.6z"/>
	<path id="Path_322" class="st1" d="M-304.6,88.3L-304.6,88.3c1,0.5,1.9,0.8,2.8,1.2l0.2-5.3L-304.6,88.3z"/>
	<path id="Path_323" class="st1" d="M-304.5,88.8l2.7,6.8l-0.1-5.7C-302.7,89.5-303.6,89.2-304.5,88.8z"/>
	<path id="Path_324" class="st1" d="M-306.4,87.4L-306.4,87.4c0.3,0.2,0.5,0.3,0.8,0.5l-0.8-0.7V87.4z"/>
	<path id="Path_325" class="st1" d="M-314.2,91.3c0.3,0.2,0.7,0.5,1,0.8V91L-314.2,91.3z"/>
	<path id="Path_326" class="st1" d="M-313.2,92.5L-313.2,92.5L-313.2,92.5z"/>
	<path id="Path_327" class="st1" d="M-309.3,76.7l0.5-6.7c-0.9-0.5-1.5-0.8-1.6-0.8c-0.4-0.3-0.9-0.5-1.3-0.7l-0.8,9.8L-309.3,76.7z
		"/>
	<path id="Path_328" class="st1" d="M-306.4,92.8l1.3-4.2l-1.3,0.4V92.8z"/>
	<path id="Path_329" class="st1" d="M-325.9,75.4L-325.9,75.4L-325.9,75.4L-325.9,75.4l0.2-0.1v-0.1L-325.9,75.4z"/>
	<path id="Path_330" class="st1" d="M-242.4,95.9l-1-1V95L-242.4,95.9C-242.3,95.9-242.4,95.9-242.4,95.9z"/>
	<path id="Path_331" class="st1" d="M-249.4,88.9l-1.6-1.6h-0.1l1.6,1.6H-249.4z"/>
	<path id="Path_332" class="st1" d="M-246.9,91.3l-0.3-0.3v0.1L-246.9,91.3L-246.9,91.3z"/>
</g>
</svg>
