<svg id="Layer_1" data-name="Layer 1" xmlns="http://www.w3.org/2000/svg" width="768" height="1024" viewBox="0 0 768 1024">
    <defs>
        <style>
            .cls-1 {
                fill: #cce1a7;
            }

        </style>
    </defs>
    <title>tabletportrait</title>
    <g id="layer1">
        <path id="path1364" class="cls-1" d="M517.25,973.27c-8.26-8.84-15.1-31.06-13.1-41.89s.57-9.12-4.56.85c-2.57,4.85-3.14,9.12-1.71,10.83s-14.25,3.7-26.22-1.71-33.91-7.41-43-2.56A210,210,0,0,0,408.68,953l-14,11.12-21.08-14.82C362,941.07,350,932,346.85,929.38a21.19,21.19,0,0,0-7.41-5.13,47.77,47.77,0,0,1-12-7.69C319.78,910.86,293,898,289,898.61l-10-3.14c-10.54-3.7-14.82-10-14.82-22.22s7.7-16,14-12,13.68.85,16-2.85-3.13-7.41-8.55-14c-10.25-12.53-12.82-24.5-6.55-30.77,1.71-2,2.56-3.42,1.71-3.42s1.71-3.7,6.27-8.26c10.26-10.26,22.23-14.54,40.75-14.54,12,0,15.95,1.43,26.5,10S366.8,810,366.8,812.83c0,8,8,16.25,27.07,27.65s31.34,14.81,29.06,8.54c-.85-2,1.43-3.7,6-4,10-.85,14.53-6,15.38-17.09s5.13-11.69,14.82-2c4,3.71,8.55,7.13,10.55,7.13s.28-18-7.41-24.79L455.13,802l7.41-6c8.55-6.55,10.83-6.84,18.24-2.85s6.55,1.43,10-2,5.7-4,11.4-.86a19.34,19.34,0,0,1,8.83,9.12,4.85,4.85,0,0,0,6.84,3.71c8-2.57,19.1,1.14,20.81,6.84s6,6.26,16.24,8.54,15.39,2.57,16.24,2,0-3.71-1.42-7.41-2.85-5.7-6-2-21.09.57-19.66-6,10.26-11.11,19.66-5.7l8.84,5.13-1.43-7.41c-1.14-6,0-8,6.27-10.54a55.41,55.41,0,0,0,12.25-7.41,16,16,0,0,1,13.4-2.28c10.25,2,13.1-3.42,8.54-17.1-2.85-8.55-2.56-10.26,2-13.67s6.27-3.14,11.4,1.7a37.42,37.42,0,0,0,17.09,6.84c28.5,4,32.49,5.13,42.18,14.25s10.26,11.4,10.26,19.38-1.43,10.26-8.27,12.82-9.12,2-10.26,1.14-9.68-4-27.64-5.41S620.69,800,613.28,816s-19.37,18.81-30.49,11.11-10.82-4.56-3.7,3.14a35,35,0,0,1,6,13.11c1.14,6.83.29,9.11-5.13,12S552,889.2,552,895.47c0,2-3.71,8-8.55,13.4q-14.54,16.23-10.26,41.88c5.7,32.49,5.7,30.49-1.71,30.49S521.24,977.82,517.25,973.27ZM511,911.14c.29-14.24-4.55-16.81-12-6.26s-8.27,10.25-.57,13.39,12.25,2.28,12.53-7.13Zm-15.67-39c-2.85-2.85-3.13-2.57-1.42,1.71s2.56,4.27,3.42,3.41S497.31,874.1,495.31,872.11Zm-5.41-12.83a28.8,28.8,0,0,0-8-14.25c-8-7.69-9.12-4.27-1.71,5.42a71.48,71.48,0,0,1,7.12,11.68C490.18,869.83,491.61,868.12,489.9,859.28Zm-316.3,39.9a76.59,76.59,0,0,1-4.28-19.95c-1.14-8.26-3.7-17.67-6-21.09s-2.57-13.11,12.25-23.65,11.4-8.55,7.41-12.82-5.42-20.8,4.27-31.35,9.69-12.53,8.84-18c-.29-1.14.57-1.71,1.71-1.42,9.12,2.56,29.63-24.8,28.78-38.19-.57-8,11.11-27.92,16.24-27.92a11.88,11.88,0,0,1,7.12,4.27c7.41,8.83-5.13,56.71-19.66,75.23a88.07,88.07,0,0,0-12.82,25.93c-2.85,8.55-6.27,18.24-7.41,21.37a567.1,567.1,0,0,0-18.52,57.56,21.39,21.39,0,0,1-7.13,12.26C177.3,905.16,176.45,905.16,173.6,899.18Zm-336.82-44.74c0-6.27-1.14-7.13-9.41-6.27A148.62,148.62,0,0,0-194,854.44c-14,6-32.77-3.71-30.49-15.67,1.43-7.41-3.42-10.26-19.95-12.54a243.69,243.69,0,0,1-48.44-13.4c-24.51-9.11-30.2-9.4-49.58-4.55-10.54,2.84-21.37,4.27-23.94,3.13s-8.83-12.82-6.84-25.08c.86-5.13-.28-17.66-2.28-27.64-3.42-15.38-3.42-21.37,0-36.76a169.75,169.75,0,0,1,8-28.21c4-10,4-10.26-4.56-41.6-2.85-10.26-3.42-20.52-2-35.62,2.56-24.79-2.57-57-11.11-68.39-3.42-4.84-12-9.4-24.8-13.68-19.37-6-32.48-16.24-32.48-24.79,0-2.28-3.71-6.55-8.27-10A27.37,27.37,0,0,1-461,485.42c-2-8.55-8.55-11.68-10.83-5.13s6,22.8,12,27.93,10.25,19.94,5.7,19.94-2.28,1.14-1.14,2.85.28,2.85-1.43,2.85-9.69-7.12-18.24-16-19.66-17.09-28.78-20.23c-19.66-6.55-21.08-12.54-9.12-36.76a310.51,310.51,0,0,0,16.25-40.75c6-19.94,6.27-24.5,4.56-69.81-1.14-26.79-2.28-51.29-2.57-54.14s.86-6,2.28-6.56,10,17.1,12,43c1.14,17.95,2.56,24.51,5.7,24.51a6.83,6.83,0,0,0,5.41-4.28,6.28,6.28,0,0,1,4.85-4.56c2,0,9.69-5.69,17.38-12.53l14-12.54-3.7-11.68c-2-6.27-5.13-10.55-6.56-9.41s-2,.29-.85-1.71-.57-15.39-3.42-13.39-2.57-6.27-2.85-15.1c-1.14-17.39-3.7-22-21.66-35.05s-17.09-10.26-15.1,1.71a127.73,127.73,0,0,1,0,25.64c-1.71,15.39-2,16-10.26,16H-506l2.28-15.1a128.48,128.48,0,0,0,1.14-24.79c-1.42-19.38.57-46.74,4-57,1.71-5.41,2-5.69,4.28-46.16s5.41-44.74,13.39-32.48c2.85,4,5.7,6.84,6.27,6.27s6.55,2,16.81,12.25c5.42,5.41,7.41,6,11.11,3.13s2.57-9.68-3.13-7.41-3.7.29-3.13-.85-5.7-9.12-13.4-17.38c-13.11-14-14.25-14.82-17.95-10s-4.56,4.28-6,3.14-2-21.66-1.71-45.59c.57-44.46,1.14-56.43,4.27-58.71s19.66-39,19.66-44.73,4.56-10.83,10-5.42,3.7,6.56,1.71,16.53-2,13.11-.29,14.82a11.66,11.66,0,0,1,2.85,8c0,2.85,3.13,6.26,7.12,8s8.55,5.7,7.41,12,4.85,2.57,6.84-.85a5.15,5.15,0,0,1,6-1.43c2,.57,4.56.29,5.41-1.14s5.13-.85,9.4,1.43A35.2,35.2,0,0,0-399.45,1a11.68,11.68,0,0,1,8.26,4.28,12.52,12.52,0,0,0,7.41,4.27c8,0,6.84-8-3.13-25.36a80.11,80.11,0,0,0-25.65-27.64C-431.65-56-431.94-56.57-431.65-71.67c.28-8.27-1.14-12.82-3.71-14s-7.69,2-5.7,10.54-4,12.82-10.54,4.56-5.13-10-3.7-26.79,6.55-31.34,31.06-69.81c17.66-28.21,22.79-34.48,43.59-57.56,11.4-12.26,20.81-23.65,20.81-25.08s3.42-4.56,7.69-6.84,9.4-3.42,22.51,1.43,34.48,5.7,38.19-.29a5.93,5.93,0,0,1,4.56-3.13c1.42.28,9.68-2.57,18.23-6.56,22.51-10,29.92-10.54,56.14-4s23.94,5.7,45.31.57,25.36-8,42.17-20.51c22.8-17.39,41.6-41.89,41.6-45.88a12.93,12.93,0,0,1,4.56-6.56c4.28-3.42,21.66-37,31.92-61.26,2-4.85,10.83-16.81,19.66-26.5A198.47,198.47,0,0,0-5.64-457.22C4.9-477.74,14.3-482.58,27.7-474.32c4.56,2.85,10.83,2,35.9-4.55S95-487.42,111.48-503.1C157.64-547,157.64-547,169.32-545c25.93,4.56,25.65,6-5.13,29.93-15.39,12-23.08,19.94-24.22,25.36-5.13,22.22-6,28.21-6.55,35.9s6.27,21.66,11.11,21.66a21.31,21.31,0,0,1,9.12,6c7.69,8,10.26,29.64,4.56,41.32-3.42,6.55-3.71,13.39-1.71,35.34,4.56,47.58,4.27,59.84-1.14,63.83s-29.64,34.19-35.05,60.41c-2.28,11.11-12.82,31.34-21.37,40.46s-11.4,43.6-12.54,45.59S89.82-81.65,93-73.38a77.72,77.72,0,0,1,6,24.79v10.26L86.11-46c-15.67-9.11-25.36-8.54-26.5,1.14s0,6.56,4.85,5.13a25.35,25.35,0,0,1,14,2.28A36.08,36.08,0,0,0,89-33.2c1.43,0,6.84,3.7,12,8l9.41,8-10,9.68C89.25,3,88.11,6.12,95,5.55s7.41,4.56,11.4,12.54c10.25,19.09,13.1,22.8,19.09,22.8a27.08,27.08,0,0,1,10.26,2.56c5.7,3.14,58.13-5.13,73.52-11.4,8.26-3.42,9.68-3.13,20.51,4s11.69,9.69,11.69,15.39,2.85,10,11.39,16,11.4,10.26,11.4,12.82S261.08,91,257.09,98.45A57.81,57.81,0,0,0,250,123c0,8.84-2.56,14.25-11.39,25.37s-10.55,15.1-10,16,.57,1.43-.28.86-18.24,13.11-17.38,15.39-1.71,4-4.56,6.83-4.85,9.41-4.85,19.67c0,19.37-2.56,23.08-12.54,19.09s-20.51-31.35-10.82-31.35c2,0,2.84-1.42,2-2.85s-12-2.85-21.37,6.84l-9.41,10L154.22,219a32.8,32.8,0,0,1,4,16.25c-1.14,7.69-14.82,12.82-20.8,7.69s-5.7-17.38-1.14-21.94,2.56-4.28-.29-7.69-6.55-5.7-15.67,3.13-8.26,6.55-10.54,2.85a41,41,0,0,0-6.27-8,34.33,34.33,0,0,1-5.7-11.68c-1.43-6.27-.86-8.27,3.13-9.69a47.86,47.86,0,0,0,9.69-5.7,11.08,11.08,0,0,1,8.55-3.13c2,.28,4.27-1.71,4.84-4.85A24.85,24.85,0,0,1,129.14,166c3.42-4,3.14-4.84-3.42-8a39.63,39.63,0,0,0-9.69-3.13c-4.27,0-14.24,9.12-12.53,11.68s.28,2.57-1.14,2.57-3.71,3.42-4.85,7.69-6.55,12.54-12,18.52-10.25,12-10.82,28.5c-.29,10.26,1.42,21.94,3.7,27.07s3.13,11.4,1.71,14.25a67,67,0,0,0-2.56,16.52c-1.14,49.87-1.14,49-10,57.85S59,350.63,59,359.18s-4,18-9.4,18c-1.14,0-4.84-6-8-13.11-6-13.4-13.39-18.24-28.21-18.24-6,0-10.26,2.85-17.1,11.4S-13.34,370,6.9,372.29c14,1.43,19.09-2.56,8.54-6.55-5.12-1.71-7.12-4.56-6.83-9.41s2-6.55,8.54-6.27c11.12.57,13.4,4,11.4,17.39-1.14,8.26-2.85,11.68-5.41,10.54s-10,21.94-4.85,27.93,2.85,5.13-2.28,10a36.22,36.22,0,0,0-8.54,11.68c-2,4.85-4.85,6.56-12,6.56a52.26,52.26,0,0,0-20.23,5.41c-16,8.26-20.24,8.26-40.75,0-5.13-2-6-1.42-4.85,2.57s-.28,2-2-1.71-5.13-6.27-6.84-6.27a12,12,0,0,1-7.12-4.28c-2-2.56-7.7-4.27-12.54-4.27h-8.84l10,5.13C-86,437-64.91,456.07-62.92,462.05s3.14,3.71,11.4,1.14,10.83-2.56,12.25,1.43a7.1,7.1,0,0,1-1.42,7.12,13.13,13.13,0,0,0-2.85,7.12c0,4-10.83,14.54-15.39,14.54a102.86,102.86,0,0,0-16.53,13.11c-12.53,11.11-16,12.82-27.64,12.82-7.12,0-15.67,2-18.8,4.56s-5.13,4.27,5.69,3.42c24.23-1.14,32.2,14.25,15.39,29.92-8.26,8-8.55,8.83-6.84,27.07,2,25.93,4.28,41.6,6.56,45a72.71,72.71,0,0,0,8.83,7.7c6.56,4.27,7.41,4.27,12.25,0s5.7-4,9.41-.86c8.26,6.84,4.84,13.11-6.56,11.4-1.71,0-3.42.85-3.42,2.28s-4.84,9.69-10.54,18.52c-10.54,15.67-16.53,19.38-22.8,13.11s-6.55-1.14-15.1,4.27-11.4,8.27-8.26,12,2.85,4.85-.29,6.56-2.56,4.27,2.28,11.11c8.55,11.4,7.7,14.82-4.56,24.22l-10.54,8,17.67-.86c10.26-.57,18.23.29,19.09,2a30.15,30.15,0,0,0,9.12,7.41c8,4.84,8.26,4.84,8.26-2.28a7.69,7.69,0,0,0-6.55-8.55c-7.7-2-8-4-.57-10.26s5.41-6,4.56-7.12,24.22-1.71,33.05,1.71,8,2.28,8,1.14,1.14-.57,2.28,1.42c4.28,6.56,21.37,17.67,24.51,16s2.28-1.14,1.42,0,6,10,15.67,19.66c13.4,14,18.24,17.38,21.66,15.1s3.71-2.28.57,1.71-2.85,7.7-.28,18.81c3.7,16.24,2.28,23.65-5.13,23.65a49.58,49.58,0,0,0-16,5.7c-13.11,6.84-27.64,4.56-31.92-5.13a10.54,10.54,0,0,0-10.54-6.27,14.23,14.23,0,0,1-9.4-2.56c-.86-1.71-4.28-1.43-8.27.57s-6.27,3.7-2.85,10,2.85,8.55-.57,15.1-5.41,8-12,6.56a59.86,59.86,0,0,1-13.68-5.7c-11.12-6.84-29.35-4.27-43.89,6.27-7.4,5.13-14.24,9.69-15.38,9.69S-163.22,858.43-163.22,854.44Zm95.74-78.93c2.57-4.28-6.84-10.83-16-10.83h-7.12l8.26,7.12C-73.18,779.78-70.61,780.35-67.48,775.51ZM-335.62,41.17c-.86-1.42.85-2,3.7-1.42s5.7-.57,7.13-13.4S-326.5-.72-331.92,2.7s-2.28.57-1.42-.85.28-6.84-1.43-11.69c-3.7-9.4-2.85-12,4.28-13.1s13.39-7.13,13.39-10.26,4-6.56,8.83-11.69,10.55-9.4,20.52-9.11l12,.57-10-4.56a79.89,79.89,0,0,1-11.12-5.42c-.57-.57,5.13-9.4,12.82-19.66s16.53-19.09,21.66-20.23,7.13-3.14,6-5.7-2.57-3.42-4-2.57.57-8.26,4.27-10.82a36.15,36.15,0,0,1,13.68-2c14,0,14.53,7.13,1.42,16.53l-9.12,6.27,11.69-1.71c9.69-1.43,12.54-.86,18.52,4.84s8.55,11.4,8.83,28.21A51.45,51.45,0,0,1-217.37-42c-1.71,3.14-2.56,6-1.71,6s-2.27,4-7.12,9.12a26.22,26.22,0,0,0-8.26,21.08c0,6.84,1.14,12.83,2.28,13.68s6-2.28,10.26-6.84,7.69-9.69,6-16.81-1.14-8.83,4-8.83,6,1.71,6,4.56,2,4,10.83,2.56,12-.85,14.82,2.85,4.27,4.27,6-1.71c3.42-12.25,2.57-27.36-1.71-31.06s-6-2.56-13.1,1.14-10,3.7-13.11,1.14-3.14-3.71,0-6.27A42,42,0,0,0-194.85-66c3.42-10,3.42-11.4-1.43-15.68a16.57,16.57,0,0,1-6.27-10A22.47,22.47,0,0,0-206-99.88c-1.42-1.43-.85-6.84,1.43-12.26s3.7-17.38,3.42-28.78c-.57-19.09-.29-19.66,9.4-28.49l20.52-18.52c6-5.42,15.1-10.83,20.23-11.69,16-3.13,59,7.7,59,14.82a12.32,12.32,0,0,1-4.28,6.27,11.66,11.66,0,0,0-4.27,6c0,5.42,4.56,2,11.4-8.26,3.7-5.7,10.54-15.39,15.1-21.37,8-10.55,8.55-10.55,27.64-10.55S-17.9-214.44-17.9-221s-.57-4-3.13.29a12.84,12.84,0,0,1-10.26,5.13c-7.12,0-7.12-.29-2.56-7.13s5.7-10,.57-10-14,9.69-11.4,12-6.27,1.14-15.67.57c-14.54-1.14-19.1-.57-25.94,4.27s-24.5,8-26.5,2.28-4.27-2.28-15.1,1.42c-27.92,9.41-34.76,12.54-46.45,20.52s-15.95,8.27-27.64-10c-5.7-9.12-7.41-10.26-16-8.84A46.47,46.47,0,0,0-235-203.89a29.84,29.84,0,0,1-12,5.41,51.25,51.25,0,0,0-14.53,4c-8,3.42-10.26,3.42-15.11,0s-8.26-2.85-25.07,16.53c-6.27,7.12-11.12,10-16.25,9.69s-6.55-1.43-6-2.57.29-2-1.14-2-11.11,8.83-14.82,18-2.85,8.26,6.27,6.55a228.81,228.81,0,0,1,29.92-4.27c6.27-.28,16.53-15.1,13.11-18.52s-.57-1.71,1.14-1.71,7.41-3.42,12.25-7.7c11.69-9.68,14.82-5.69,12.26,16.25s-8,31.63-14.54,30.77-7.69,10.26-.57,21.94l6.27,10L-282.34-91a184.85,184.85,0,0,1-14.53,16.24,16.51,16.51,0,0,0-6,9.12c0,2-4,8.27-8.84,13.68s-11.11,10.26-17.66,10.26S-351.3-51.15-351.3-58s-1.13-3.14-5.69-.29-6.27,2.57-8.84.29-.57-10.26,4.85-8.27,4,0,4-1.42-12-17.67-17.1-17.1-1.14,17.38-.57,19.66c1.42,6.84-36.48,20.52-41.61,20.8s29.93-5.41,34.48-2.85,6.27,2,8.27.29,14.25-.57,12.82,5.41,0,5.13,4.28,4.56,6.26,1.43,6.83,5.7-3.13,8.84-5.69,2.28a6,6,0,0,0-4.85-4.27c-2.28,0-1.71,2,1.43,5.41s4,6,1.71,7.13a3.41,3.41,0,0,0-1.43,4.55c.86,1.43-1.42,6-5.41,10s-16.25,8.26-13.68,8.26,15.1,3.42,16.24,10.83c3.42,23.94,4.56,27.64,9.41,28.78S-333.91,43.74-335.62,41.17Zm-16.53-16.53c-5.7-5.7-.28-26.5,6.84-26.5s5.41,11.69,1.14,19.66S-349.3,27.49-352.15,24.64Zm123.39-164.7c-2.85-3.42-2.85-5.42-.57-7.7s12.53-.57,11.39,5.13S-224.49-134.93-228.76-140.06Zm67.25,163.28c3.7.57,6.84-.57,6.84-2.28s-16.25-4-18.53,0-7.69-1.14-6-12.25,1.42-11.12-2.57-8-5.41,12.82.29,21.65,5.41,6.56,9.12,3.42a16.54,16.54,0,0,1,10.83-2.56ZM-369.82-93c2.57-5.42,6.56-8.55,10.26-8.55s16.81-5.13,16.81-8.84-2-2.56-4.27-2.56-5.41-2.85,0-10a22,22,0,0,0,4-12.83c0-5.41,2.56-17.66,1.14-14.24s-26.22,39.89-29.35,39.89-12,13.68-10,19.66S-374.95-83.07-369.82-93ZM88.39,843C81,834.49,73,827.37,70.73,827.37s-3.42-.86-2.57-1.71S67,821.1,63.6,817.39c-10-11.11-13.39-15.67-11.4-15.67s.57-1.71-1.14-3.7-6.55-18-4.27-20.23,6.55,2.84,12.54,8.26a61,61,0,0,0,18.24,11.68c4,.86,7.12,2.85,7.12,4s3.13,6,7.12,10.26,8.84,6,7.41-2.56c-.57-3.42,6.84-2.57,10.55,1.42a16.55,16.55,0,0,1,3.41,10c0,7.7,1.71,8,7.7,2s5.13-4,10,.85a13.1,13.1,0,0,1-6.55,22.51,26,26,0,0,0-12.83,7.13,20.35,20.35,0,0,1-7.12,5.41C103.21,858.71,95.8,851.59,88.39,843Zm313.17-14.82c-5.13-2-4.27-8.55,1.43-10.83s11.68,3.14,6.27,8.27A9.7,9.7,0,0,1,401.56,828.22Zm-245.63-8c-4.28-5.13-1.71-12.82,4.27-12.82s4.28,2.57,4.28,6.84C164.48,823.09,160.49,825.66,155.93,820.24Zm215.43-16.52c-4.28-3.14-4.28-4.56-1.14-10.83s5.41-6.84,12.82-6c11.68,1.14,12,6.84,1.14,14.54C377.62,806,375.35,806.57,371.36,803.72Zm-232-18c-8.55-17.38-8-19.94,4.28-25.07s26.78-16,21.94-16a11.4,11.4,0,0,0-7.13,4.56,25.63,25.63,0,0,1-26.5,7.12,306.54,306.54,0,0,0-40.75-10,74.85,74.85,0,0,1-19.66-9.69c-7.69-4.84-14.53-8.26-15.67-7.69s-2.57,5.13-3.71,10-2.28,8.26-5.7,5.13-3.41-4.56-2.84-5.7-9.12-8-18.81-8c-15.67,0-14-16,2.56-22.79l8.27-3.42L30,694.58c-4.56-8-7.41-9.69-14.82-9.69a22,22,0,0,1-12.54-3.42c-4.84-5.13-4.56,2.85.86,15.67S5.76,712-5.07,709.4s-7.41-2.28-7.7-29.93c0-9.11-.85-11.68-4-10.54a5.11,5.11,0,0,1-5.69-1.71c-1.14-2-.86-2.56,1.14-1.14s3.41.57,3.41-1.14-1.71-2.85-4-2.85c-6.84,0-13.4-18.8-14-39.89s-1.14-20-6.27-20c-13.67,0-25.64-19.38-15.1-23.93,2.85-1.14,2.57-2.28-.57-4.56s-3.42-3.71-.85-4.85,1.14-6.55-7.41-6.55-18.81-13.4-14.54-20,.57-6.55-3.13-11.11c-7.12-9.12-6.84-10.55,3.13-14.54a27.88,27.88,0,0,0,11.12-8c1.14-2.28,8-4.85,15.39-5.7,12-1.14,12.82-.86,14,5.41a11.69,11.69,0,0,0,8.26,9.12c6,2.28,9.41,1.42,17.1-4.56s21.37-12,35.62-17.67,28.49-12.82,31.06-16,22.8-7.4,25.36-2,1.14.86.57-2.85,0-6.27,4.27-6.27c10.26,0,35.05,18.81,38.19,28.78,1.14,3.71,4.56,5.42,10,5.42a12.54,12.54,0,0,1,11.4,5.41c3.7,7.41,3.7,8.83-1.42,8.83s-4,2.28-3.14,10,0,10-2,10-19.95,13.39-18,16.81,10.55,4,9.41-.28,10-10,20.8-12a35.28,35.28,0,0,0,12.82-6c5.42-4.28,5.42-4.56.29-8.55a13.4,13.4,0,0,0-10-2.57c-4,1.14-3.7.86.29-1.71a10.54,10.54,0,0,0,5.13-7.69c0-2.85,1.42-3.71,4.56-2.57s4,0,2.56-6.83a24.56,24.56,0,0,1,1.43-14.54c2.56-4.56,2.56-6.84,0-8.26s-2.28-2.85.57-5.13,12.25,2.28,20.23,25.08c4,11.68,10,24.22,13.11,27.92,8,9.12,7.41,11.12-4,16l-10.26,4.27,5.7,11.12a174.05,174.05,0,0,0,12.25,19.37,164.81,164.81,0,0,1,15.1,25.37c4.85,9.4,9.41,17.38,10.83,18s-4,8.83-8.55,7.12-4,2.85-3.13,32.77c.57,19.09.28,34.77-.86,34.77s-3.13,5.41-4.84,12c-5.7,22.8-10.54,33.63-15.39,35a10.85,10.85,0,0,0-6,7.13c-2.28,8.26-10.55,7.12-10.55-1.43s-1.71-7.12-4.55-7.12-4,1.42-2.85,4.56A46.66,46.66,0,0,1,173,762.11c0,6.27,1.14,8.27,6,8.27,9.69,0,5.41,11.39-7.41,20.23C154.22,802.58,146.81,801.44,139.4,785.76Zm268.72,6.56c-4.28-12.83-3.14-14.82,8.54-14.82s11.4.85,12.26,6.84a9.41,9.41,0,0,1-2.85,9.12c-5.7,3.7-16.53,2.85-17.95-1.14Zm122.81-1.71c2.85-2.85-12.25-10-19.38-9.41s-10.54-1.71-18.8-10a133.08,133.08,0,0,0-27.64-20c-9.41-5.13-17.39-10.54-18-12.25s20.52-2.85,32.77,4c6.84,4,12.26,6,12.26,4.84s-9.12-11.11-14.25-12.25-6.55-4.56-9.4-8.83-6.27-13.68-2.85-13.11a28.5,28.5,0,0,0,10.82-3.42l8.55-4-12.25-.85c-13.11-1.14-17.95-6.27-12-13.4s.86-11.4-4.56-7.12-3.42,4.56-2.56,5.7-7.7,0-18.81-3.14-38.47-12.25-48.73-13.1c-14.53-1.14-19.66-.29-23.08,3.13-10.26,10.26-27.64,1.71-27.64-13.68,0-5.13-1.14-7.12-3.42-5.7s-2.28.57-1.14-1.42a3.72,3.72,0,0,1,5-1.49l.1.06c6,3.71-.85-14.53-8.83-23.08-14.82-16.53-16-18.81-11.4-21.65s3.42-2.57-.57-2.57a12,12,0,0,0-7.69,3.42c-2.85,2.56-4.85,2-9.41-2.56S293,599.4,309.8,591.42s17.39-20.23,7.13-42.46c-6.27-14.24-9.12-17.66-16-19.09-12.54-2.56-11.4-13.39,1.71-19.66s12.54-11.68,2.85-24.79-19.38-19.09-36.19-23.08c-7.69-1.71-14.53-4.28-15.1-5.7s8.26-8.27,19.09-8.55c5.13-.29,7.12-1.14,4.27-1.71a14.84,14.84,0,0,1-8-8.55c-1.71-4.56-16.25-15.1-27.64-15.1-3.42,0-6.27-1.14-6.27-2.28,0-9.12,29.63-12.82,41.31-5.13,4.85,3.42,7.41,2.85,18-3.42s13.39-6.55,19.37-4S323.2,417,315.5,419s-5.13,2.28-2.56,5.42,2.85-3.14,20.8-6c12.54-2.28,38.76-19.37,38.76-27.07a34.49,34.49,0,0,0-3.42-12.82c-4-8.83-2-11.68,5.69-7.41s6.84,2,9.69-.57a46.42,46.42,0,0,1,12.83-7.41c10-4.27,14-14.25,10.54-27.92s-8.26-14.54-22.51-16.53-38.19-12.82-40.18-19.38,4.27-10.26,17.67-3.13a62.77,62.77,0,0,0,23.65,6.84,187.45,187.45,0,0,1,33.34,5.7c23.65,6,39,5.7,48.44-1.71a26,26,0,0,1,11.68-4c5.42,0,6.56,1.42,6.56,8a19.09,19.09,0,0,1-5.7,13.1c-4,3.71-4.85,6.56-3.14,10a28.24,28.24,0,0,1,2.28,11.68c-.57,5.13-2.28,7.12-6.83,7.12s-5.7-.85-5.13-1.71-2.85-3.42-7.41-6.26c-10.26-5.7-10.26-5.13-.86,9.68a141.13,141.13,0,0,1,10.83,21.95l3.7,10.54-10,.57c-6,.57-11.11-.57-12.54-2.85s-3.13-2-6.27,2.28-1.42,11.4,6.27,7.41a33.23,33.23,0,0,1,13.4-3.14c6.27,0,8.26,2,12,11.12s5.7,10.83,7.13,10,1.71,1.43.57,5.7-.86,7.41,2.85,7.41,4.27.85,3.7,2-.28,4.85.86,8,2.56,4.85,2.56.57a52,52,0,0,0,0-6.84,5.67,5.67,0,0,1,3.14-3.7c2-1.14,3.13-5.13,3.13-8.84-1.14-21.08-.57-25.36,4.28-31.91A33.94,33.94,0,0,1,518.39,374a29.11,29.11,0,0,0,8-4,140.84,140.84,0,0,0-5.7-13.39c-7.69-16.81-7.41-26.22.86-30.21a14.83,14.83,0,0,1,13.39.29c6,2.85,7.12,5.7,8,17.67s2.85,16.24,5.13,18.8,12.54,29.64,12.54,44.46-4,23.65-14.54,23.65c-5.13,0-8,1.14-6.84,2.85s18,3.13,21.38-2.85c5.7-11.12,2-48.73-8-76.94a63.81,63.81,0,0,1-2-13.39A93,93,0,0,0,548,324.7c-2-8.55-8.55-9.4-29.07-4.27-7.12,1.71-13.39,2.56-14,2a30.57,30.57,0,0,1-3.13-10.25c-2-9.69,70.66-61,82.06-68.68,20.8-14.25,29.64-17.67,35.34-14s12.25,4.56,23.93,7.69,22.23,7.13,23.94,8.84a17.2,17.2,0,0,0,9.69,2.85c4,0,10.26,3.7,15.39,9.11s10,9.12,11.11,8.55a1.32,1.32,0,0,1,2,1.43,21.75,21.75,0,0,0,1.71,8.83,14.8,14.8,0,0,1-2.28,13.11c-3.41,5.13-3.7,7.12-.85,8.26s.57,1.43-3.13,1.71-6.27,1.43-6.27,3.14a66,66,0,0,1-5.7,14.81,71.17,71.17,0,0,0-5.7,14.54,100.81,100.81,0,0,0,8.55,19.37c5.41,10.83,8.55,21.09,8.55,29.07a55.9,55.9,0,0,0,5.69,22.51c3.14,6,11.12,46.16,13.4,50.72s10,41.61,7.12,38.47-3.13,1.14-5.41,4a26.5,26.5,0,0,1-14,7.7q-20.5,3.7-23.93-23.94c-1.43-10.54-2.28-12.25-4.28-7.69-4.56,10.82-7.12,12.53-14.53,9.68s-10.83-.57-25.36,6.27a114.59,114.59,0,0,0-25.08,15.68c-7.41,7.41-16.24,31.34-16.24,44.16s15.67,26.22,23.37,24.23c2.85-.57,4.56-.29,3.7.85s18.52,9.12,21.94,7.12,2-.56,1.71.57,2.57,6.84,6.84,12.54c9.41,12.54,16,43.6,10.26,50.44-9.69,11.68-24.79,18-43.6,18-30.77,0-46.16,10.83-50.72,36.19-1.71,8.55-1.42,9.12,8,10.83s10.54,3.7,11.68,8.83-.28,14.82-7.12,17.39-5.42,2.56.85,18.23,6.27,16.25,2,21.66a11.67,11.67,0,0,1-10.26,4.84c-3.14-.57-8.83,2.28-13.11,6.27s-9.69,6.84-20.52,6.27S530.08,791.18,530.93,790.61Zm32.2-91.76c-2.28-4.56-4-5.41-6.27-2.85s-2.28,4,.86,6,8.83,3.13,5.41-3.14ZM98.94,786.05c-11.12-3.71-13.4-7.7-7.41-12.82s19.38-6.27,17.1-2.57.57,3.42,2.84,4.28,5.7,4.27.86,10.25S107.49,789.18,98.94,786.05ZM59.61,755.56c-4.27-4.28-4.56-10-.28-12.54s10.83,6.55,11.11,12.25S64.17,759.83,59.61,755.56Zm534-1.71c-4.27-4-1.42-11.4,4.85-12.54s6.55-.28,5.41,5.13S596.76,757.27,593.62,753.85ZM30.83,746.72c-3.13-8,.86-12.82,6.56-8s5.7,10.54,0,12.53S32.26,751,30.83,746.72Zm-453.36-23.36a6.55,6.55,0,0,0-6.84-2.57c-1.71,1.14-1.71.29.28-2s3.71-12.82,3.71-28.78c0-23.37.28-25.36,7.12-29.64s28.21-3.7,31.35,1.71-4.56,17.1-8,17.1-2.28,6-1.43,14c1.43,14.54-1.14,23.08-7.12,23.08s-5.13,2.57-7.13,5.7S-417.69,729.06-422.53,723.36Zm291.22-13.11c.29-5.13,2.57-10,4.28-10.54s4.56,10.26-.86,15.67S-132.16,719.08-131.31,710.25Zm450.8-27.64c-4-2.85-10.82-20.23-8.83-22.51s12.82,2.28,14.53,8.55C328.9,682.32,326.62,687.45,319.49,682.61ZM-402,628.75c-6.84-1.42-8.26-7.69-2.85-13.39s16.53-2.57,16.53,2.56-3.13,12.83-5.41,12.26Zm342-11.11c-.57-7.12.57-9.4,5.42-10.54s5.12-.86,4.27,0-.29,3.42,1.42,5.41.57,15.1-5.69,14.53S-59.78,623.91-60.07,617.64Zm310-.29c.29-2.56,10.26-15.1,12-15.1s1.14,3.42,1.14,7.7-2,8.26-6.84,8.83S250,618.49,250,617.35Zm-681.9-27.64a15.08,15.08,0,0,1-4.84-9.69c0-3.13-1.43-6.26-3.14-6.83s-3.7-6-4.27-12a97.55,97.55,0,0,0-2.57-15.67,13.13,13.13,0,0,1,2.28-10c3.42-4.56,4-4.56,11.4,2.28s9.69,7.41,12,7.41,4,5.13,3.7,24.22C-417.69,595.13-420.25,598.55-431.94,589.71Zm1176-110.56c-12-16.24-12.54-32.2-1.43-32.2,6,0,7.41,1.71,9.41,10.83S748.92,485.7,744.08,479.15ZM68.16,409.34c-5.41-2.28-4-6.56,2-6.56a13.1,13.1,0,0,0,9.4-5.13,24,24,0,0,1,8.26-7.12c4-1.43,4.56,0,4.28,6.84C91.24,409.34,81,414.46,68.16,409.34ZM146,402.78c-1.14-1.71-2.56-8.26-4.84-12.25-4.56-8.55-.57-29.64,7.69-40.18s9.12-21.09-.28-24.51-7.12-4-6.27-19.37,1.71-16.53,7.12-17.1,6.56.57,8,6.27,2,10.83,3.14,15.1A42.86,42.86,0,0,0,169,326.41a32.55,32.55,0,0,1,6.84,16.82c0,7.12.85,8.26,5.69,6.83s5.7-1.42,5.7-.85a119.44,119.44,0,0,1-5.7,12.25,50.67,50.67,0,0,0-5.69,16.82,74.29,74.29,0,0,1-3.14,16.52c-2.56,10-3.7,10.83-14,10.83S146.81,404.21,146,402.78Zm161.86-49.3c-15.39-10.54-20.23-30.2-5.13-20.23a167,167,0,0,1,15.67,10.55c6.27,5.12,7.7,16.24,2,15.95a37.7,37.7,0,0,1-12.54-6.27ZM113.75,322.42a16.51,16.51,0,0,1-3.41-10.25c0-5.7,1.13-6.56,7.69-5.7s8,2.28,8.83,10,0,9.4-4.27,9.4A14.49,14.49,0,0,1,113.75,322.42Zm301.49-359c-11.4-12.26-10-17.67,4.27-19.66,6.27-1.14,14.82-2.85,18.81-4,11.11-2.85,12.54,2.85,2.85,12a32.86,32.86,0,0,0-9.12,13.4C430.34-26.08,424.36-26.65,415.24-36.62ZM271.91-280.26a10.54,10.54,0,0,1-2-6.55c0-2.57-28.49-18.81-28.49-19.67s11.39-17.38,11.39-19.09c0-9.12,63.55-22.51,74.09-15.67s-1.71,15.1-17.95,18.52c-6.27,1.43-7.69,3.14-7.69,10.26s-8.55,19.95-14.25,19.95-4.28,3.13-5.7,7.12S275.33-276.56,271.91-280.26Z" />
    </g>
</svg>
