<svg id="Layer_1" data-name="Layer 1" xmlns="http://www.w3.org/2000/svg" width="1024" height="768" viewBox="0 0 1024 768">
    <defs>
        <style>
            .cls-1 {
                fill: #cce1a7;
            }

        </style>
    </defs>
    <title>tabletlandscape</title>
    <g id="layer1">
        <path id="path1364" class="cls-1" d="M760.12,903.3c-8.23-8.81-15-30.95-13.06-41.74s.57-9.08-4.54.85c-2.56,4.83-3.13,9.09-1.71,10.79s-14.19,3.69-26.12-1.7-33.78-7.38-42.87-2.56A208.5,208.5,0,0,0,652,883.14L638,894.21l-21-14.76c-11.64-8.24-23.56-17.32-26.69-19.88a21,21,0,0,0-7.38-5.11A47.66,47.66,0,0,1,571,846.8c-7.67-5.68-34.35-18.46-38.33-17.89l-9.94-3.12c-10.5-3.69-14.76-9.94-14.76-22.15s7.67-15.9,13.91-11.92,13.63.85,15.9-2.84S534.7,781.5,529.3,775c-10.22-12.49-12.77-24.42-6.53-30.66,1.71-2,2.56-3.41,1.71-3.41s1.7-3.69,6.24-8.23c10.22-10.22,22.15-14.48,40.6-14.48,11.93,0,15.9,1.42,26.41,9.93s12.49,12.5,12.49,15.34c0,7.94,7.95,16.18,27,27.53s31.23,14.77,29,8.52c-.85-2,1.42-3.69,6-4,9.94-.85,14.48-6,15.33-17s5.11-11.64,14.76-2c4,3.7,8.52,7.1,10.51,7.1s.28-17.88-7.38-24.7l-7.1-6.24,7.38-6c8.52-6.53,10.79-6.81,18.17-2.83s6.53,1.42,9.94-2,5.68-4,11.35-.85a19.28,19.28,0,0,1,8.8,9.08,4.83,4.83,0,0,0,5.47,4.09,4.66,4.66,0,0,0,1.35-.4c7.95-2.55,19,1.14,20.72,6.82s6,6.24,16.19,8.51,15.33,2.56,16.18,2,0-3.69-1.42-7.38-2.84-5.68-6-2-21,.57-19.59-6,10.22-11.07,19.59-5.68l8.8,5.11-1.42-7.38c-1.14-6,0-8,6.24-10.5A55.45,55.45,0,0,0,832.23,710a15.93,15.93,0,0,1,13.35-2.27c10.22,2,13.06-3.4,8.51-17-2.84-8.52-2.55-10.22,2-13.63s6.25-3.12,11.36,1.7a37.49,37.49,0,0,0,17,6.82c28.39,4,32.37,5.11,42,14.19s10.22,11.36,10.22,19.31-1.42,10.22-8.23,12.78-9.09,2-10.22,1.13-9.66-4-27.54-5.39-27.54,3.12-34.92,19-19.31,18.74-30.38,11.07-10.79-4.54-3.69,3.12a34.94,34.94,0,0,1,6,13.06c1.14,6.82.28,9.09-5.11,11.93s-27.82,33.78-27.82,40c0,2-3.69,8-8.52,13.34Q771.77,855.32,776,880.87c5.68,32.36,5.68,30.37-1.7,30.37S764.09,907.84,760.12,903.3Zm-6.25-61.9c.29-14.19-4.54-16.75-11.92-6.24s-8.23,10.22-.57,13.34,12.21,2.27,12.49-7.1Zm-15.61-38.89c-2.84-2.84-3.12-2.56-1.42,1.7s2.55,4.26,3.41,3.41S740.25,804.5,738.26,802.51Zm-5.39-12.78a28.72,28.72,0,0,0-8-14.19c-7.95-7.67-9.09-4.26-1.71,5.39a71.71,71.71,0,0,1,7.1,11.64C733.15,800.24,734.57,798.53,732.87,789.73ZM417.73,829.48a76.06,76.06,0,0,1-4.26-19.87c-1.14-8.24-3.69-17.61-6-21S405,775.54,419.72,765s11.35-8.52,7.38-12.77-5.4-20.73,4.26-31.23,9.65-12.5,8.8-17.89c-.29-1.14.56-1.7,1.7-1.42,9.09,2.56,29.53-24.7,28.67-38-.56-7.95,11.08-27.83,16.19-27.83a12,12,0,0,1,7.1,4.26c7.38,8.8-5.12,56.5-19.59,74.95a87.71,87.71,0,0,0-12.78,25.84c-2.84,8.52-6.25,18.17-7.38,21.29a565.51,565.51,0,0,0-18.46,57.35,21.26,21.26,0,0,1-7.09,12.21C421.42,835.44,420.57,835.44,417.73,829.48ZM82.15,784.91c0-6.25-1.14-7.1-9.37-6.25a147.52,147.52,0,0,0-21.29,6.25c-13.91,6-32.65-3.7-30.38-15.62,1.42-7.38-3.41-10.22-19.87-12.49A244,244,0,0,1-47,743.46c-24.41-9.09-30.09-9.37-49.4-4.55-10.5,2.84-21.29,4.26-23.85,3.13s-8.8-12.78-6.81-25c.85-5.11-.28-17.6-2.27-27.54-3.41-15.33-3.41-21.29,0-36.62a168.27,168.27,0,0,1,8-28.11c4-9.93,4-10.22-4.54-41.45-2.84-10.22-3.41-20.44-2-35.49,2.55-24.7-2.56-56.78-11.07-68.13-3.41-4.83-11.93-9.37-24.7-13.63-19.31-6-32.37-16.19-32.37-24.7,0-2.27-3.69-6.53-8.23-9.94a27.21,27.21,0,0,1-10.22-14.19c-2-8.52-8.52-11.64-10.79-5.11s6,22.71,11.92,27.82,10.22,19.87,5.68,19.87-2.27,1.14-1.14,2.84.29,2.84-1.41,2.84-9.66-7.1-18.17-15.9-19.59-17-28.68-20.16c-19.59-6.53-21-12.49-9.08-36.62A310.13,310.13,0,0,0-250,352.23c6-19.87,6.24-24.42,4.54-69.56-1.13-26.68-2.27-51.1-2.55-53.94s.85-6,2.27-6.53,9.93,17,11.92,42.87c1.14,17.89,2.56,24.42,5.68,24.42a6.8,6.8,0,0,0,5.39-4.26,6.24,6.24,0,0,1,4.83-4.54c2,0,9.65-5.68,17.32-12.5l13.91-12.49-3.69-11.64c-2-6.24-5.11-10.5-6.53-9.37s-2,.29-.85-1.7-.57-15.33-3.41-13.34-2.55-6.25-2.84-15.05c-1.13-17.32-3.69-21.86-21.58-34.92s-17-10.22-15,1.7a126.83,126.83,0,0,1,0,25.55c-1.71,15.33-2,15.9-10.22,15.9h-8.52l2.27-15a129.16,129.16,0,0,0,1.14-24.7c-1.42-19.31.56-46.57,4-56.79,1.7-5.39,2-5.67,4.26-46s5.39-44.57,13.34-32.36c2.84,4,5.68,6.81,6.25,6.24s6.53,2,16.75,12.21c5.39,5.39,7.38,6,11.07,3.12s2.56-9.65-3.12-7.38-3.69.28-3.12-.85S-212.26,42.2-219.93,34C-233,20.06-234.12,19.21-237.81,24s-4.55,4.26-6,3.13-2-21.58-1.7-45.43c.57-44.29,1.14-56.21,4.26-58.48s19.59-38.9,19.59-44.58,4.54-10.78,9.94-5.39,3.69,6.53,1.7,16.47-2,13.06-.28,14.76a11.63,11.63,0,0,1,2.83,7.95c0,2.84,3.13,6.24,7.1,8s8.52,5.68,7.38,11.92,4.83,2.56,6.82-.85a5.12,5.12,0,0,1,6-1.42c2,.57,4.54.28,5.39-1.13s5.11-.86,9.37,1.41a34.73,34.73,0,0,0,12.21,4.26A11.61,11.61,0,0,1-145-61.14a12.51,12.51,0,0,0,7.39,4.26c7.94,0,6.81-7.95-3.13-25.27a79.79,79.79,0,0,0-25.55-27.54c-19-12.49-19.3-13.06-19-28.1.28-8.24-1.14-12.78-3.69-13.91s-7.67,2-5.68,10.5-4,12.78-10.5,4.54-5.11-9.93-3.7-26.68,6.53-31.23,31-69.56c17.6-28.11,22.71-34.35,43.44-57.35,11.35-12.21,20.72-23.57,20.72-25s3.41-4.55,7.67-6.82,9.37-3.41,22.43,1.42,34.35,5.68,38-.28A6,6,0,0,1-41.07-324c1.42.29,9.66-2.55,18.17-6.53,22.43-9.93,29.81-10.5,55.93-4s23.85,5.68,45.15.57,25.26-7.95,42-20.44c22.72-17.32,41.45-41.74,41.45-45.71a12.73,12.73,0,0,1,4.55-6.53c4.25-3.41,21.57-36.91,31.79-61,2-4.83,10.79-16.75,19.59-26.41a197,197,0,0,0,21.58-27.82c10.51-20.44,19.87-25.27,33.22-17,4.54,2.84,10.79,2,35.77-4.55s31.23-8.51,47.7-24.13c46-43.72,46-43.72,57.63-41.73,25.84,4.54,25.55,6-5.11,29.81-15.33,11.92-23,19.87-24.13,25.27-5.11,22.14-6,28.1-6.53,35.77s6.24,21.57,11.07,21.57a21.32,21.32,0,0,1,9.08,6c7.67,8,10.23,29.52,4.55,41.16-3.41,6.53-3.69,13.35-1.71,35.21C405.24-367.19,405-355,399.56-351S370-316.94,364.64-290.82c-2.27,11.07-12.78,31.23-21.3,40.32S332-207.07,330.85-205.08s3.41,57.35,6.53,65.58a77.21,77.21,0,0,1,6,24.7v10.22l-12.77-7.66c-15.62-9.09-25.27-8.52-26.4,1.13s0,6.53,4.82,5.11a25.25,25.25,0,0,1,13.91,2.28,36,36,0,0,0,10.51,4.25c1.42,0,6.81,3.7,11.92,8l9.37,8-9.94,9.66c-11.07,10.5-12.2,13.62-5.39,13.06s7.38,4.54,11.36,12.49c10.22,19,13.06,22.71,19,22.71A26.89,26.89,0,0,1,380-23.09c5.68,3.12,57.92-5.11,73.25-11.36,8.23-3.41,9.65-3.12,20.44,4s11.64,9.66,11.64,15.33,2.84,9.94,11.35,15.9S508,11,508,13.53s-3.12,10.79-7.1,18.17a57.56,57.56,0,0,0-7.09,24.42c0,8.8-2.56,14.19-11.36,25.26S472,96.43,472.52,97.28s.57,1.42-.28.85-18.17,13.06-17.32,15.33-1.7,4-4.54,6.82-4.83,9.37-4.83,19.59c0,19.3-2.55,23-12.49,19s-20.44-31.23-10.79-31.23c2,0,2.84-1.42,2-2.84S412.33,122,403,131.63l-9.37,9.94,4.82,10.22a32.67,32.67,0,0,1,4,16.19c-1.14,7.66-14.77,12.77-20.73,7.66s-5.68-17.32-1.13-21.86,2.55-4.26-.29-7.67-6.53-5.67-15.61,3.13-8.24,6.53-10.51,2.84a40.09,40.09,0,0,0-6.24-8,34.37,34.37,0,0,1-5.68-11.64c-1.42-6.25-.85-8.24,3.12-9.66a47.44,47.44,0,0,0,9.65-5.67A11.11,11.11,0,0,1,363.5,114c2,.29,4.26-1.7,4.83-4.82A24.66,24.66,0,0,1,373.44,99c3.41-4,3.12-4.83-3.41-7.95a39,39,0,0,0-9.65-3.13c-4.26,0-14.2,9.09-12.49,11.64s.28,2.56-1.14,2.56-3.69,3.41-4.82,7.66-6.53,12.5-11.93,18.46-10.22,11.92-10.79,28.39c-.28,10.22,1.42,21.86,3.69,27s3.13,11.36,1.71,14.2a66.52,66.52,0,0,0-2.56,16.46c-1.13,49.69-1.13,48.83-9.94,57.64S303.6,283,303.6,291.47s-4,17.89-9.37,17.89c-1.14,0-4.83-6-8-13.06-6-13.34-13.34-18.17-28.11-18.17-6,0-10.22,2.84-17,11.36s-9.65,12.77,10.5,15c13.91,1.42,19-2.55,8.52-6.53-5.11-1.7-7.1-4.54-6.81-9.36s2-6.53,8.51-6.25c11.08.57,13.35,4,11.36,17.32-1.14,8.23-2.84,11.64-5.39,10.5S257.89,332.07,263,338s2.84,5.11-2.27,9.93a36.11,36.11,0,0,0-8.52,11.64c-2,4.83-4.83,6.53-11.92,6.53a52.26,52.26,0,0,0-20.16,5.4c-15.9,8.23-20.16,8.23-40.6,0-5.11-2-6-1.42-4.83,2.55s-.28,2-2-1.7-5.11-6.25-6.82-6.25a11.83,11.83,0,0,1-7.09-4.26c-2-2.55-7.67-4.26-12.5-4.26h-8.8l9.94,5.12C159.09,369,180.1,388,182.09,394s3.12,3.69,11.35,1.13,10.79-2.55,12.21,1.42a7.11,7.11,0,0,1-1.42,7.1,13.1,13.1,0,0,0-2.84,7.1c0,4-10.79,14.47-15.33,14.47a103.22,103.22,0,0,0-16.47,13.06C157.1,449.33,153.69,451,142.05,451c-7.09,0-15.61,2-18.73,4.54s-5.11,4.26,5.67,3.41c24.14-1.14,32.09,14.2,15.34,29.81-8.24,7.95-8.52,8.8-6.82,27,2,25.84,4.26,41.45,6.53,44.86a72,72,0,0,0,8.8,7.66c6.53,4.26,7.38,4.26,12.21,0s5.68-4,9.37-.85c8.23,6.82,4.83,13.06-6.53,11.36-1.7,0-3.41.85-3.41,2.27s-4.82,9.65-10.5,18.45c-10.51,15.62-16.47,19.31-22.71,13.06s-6.53-1.13-15.05,4.26-11.36,8.24-8.23,11.93,2.83,4.82-.29,6.53-2.55,4.25,2.27,11.07c8.52,11.35,7.67,14.76-4.54,24.13l-10.5,8,17.6-.85c10.22-.57,18.17.28,19,2a30.05,30.05,0,0,0,9.09,7.38c7.94,4.82,8.23,4.82,8.23-2.27a7.67,7.67,0,0,0-6.53-8.52c-7.67-2-8-4-.57-10.22s5.39-6,4.54-7.1,24.14-1.7,32.94,1.7,7.95,2.28,7.95,1.14,1.13-.57,2.27,1.42c4.26,6.53,21.29,17.6,24.41,15.9s2.27-1.14,1.42,0,6,9.93,15.62,19.59c13.34,13.91,18.17,17.32,21.57,15s3.7-2.27.57,1.71-2.84,7.66-.28,18.74c3.69,16.18,2.27,23.56-5.11,23.56a49,49,0,0,0-15.9,5.68c-13.06,6.81-27.54,4.54-31.8-5.11a10.49,10.49,0,0,0-10.5-6.25,14.2,14.2,0,0,1-9.37-2.55c-.85-1.71-4.26-1.42-8.24.56s-6.24,3.7-2.83,9.94,2.83,8.52-.57,15.05-5.4,7.95-11.93,6.53a59.54,59.54,0,0,1-13.62-5.68c-11.08-6.81-29.25-4.26-43.73,6.25-7.38,5.11-14.19,9.65-15.33,9.65S82.15,788.88,82.15,784.91Zm95.39-78.65c2.56-4.26-6.81-10.79-15.9-10.79h-7.09l8.23,7.1C171.86,710.52,174.42,711.09,177.54,706.26ZM-89.61-25.37c-.86-1.42.85-2,3.69-1.42s5.67-.56,7.09-13.34-1.7-27-7.09-23.56-2.27.56-1.42-.85.28-6.82-1.42-11.65c-3.69-9.36-2.84-11.92,4.26-13s13.34-7.1,13.34-10.23,4-6.53,8.8-11.64,10.51-9.36,20.44-9.08l11.93.57-9.94-4.55A77,77,0,0,1-51-129.56c-.57-.57,5.11-9.37,12.77-19.59s16.47-19,21.58-20.16,7.1-3.12,6-5.67-2.55-3.41-4-2.56.57-8.23,4.26-10.79a36.06,36.06,0,0,1,13.62-2c13.91,0,14.48,7.1,1.42,16.47l-9.08,6.25L7.2-169.31c9.65-1.42,12.49-.85,18.45,4.83s8.52,11.36,8.8,28.11a51.33,51.33,0,0,1-6.24,28.1c-1.71,3.13-2.56,6-1.71,6s-2.27,4-7.09,9.08a26.11,26.11,0,0,0-8.24,21c0,6.81,1.14,12.78,2.27,13.63s6-2.27,10.22-6.82,7.67-9.65,6-16.75-1.14-8.8,4-8.8,6,1.71,6,4.54,2,4,10.79,2.56S62.28-84.7,65.12-81s4.25,4.26,6-1.71c3.4-12.2,2.55-27.25-1.71-30.94s-6-2.56-13.06,1.13-9.93,3.7-13.06,1.14-3.12-3.69,0-6.25a41.61,41.61,0,0,0,7.39-14.48C54-142,54-143.47,49.22-147.73A16.42,16.42,0,0,1,43-157.67a22.31,22.31,0,0,0-3.41-8.23c-1.42-1.42-.85-6.81,1.42-12.21s3.69-17.32,3.41-28.67c-.57-19-.28-19.59,9.37-28.39L74.2-253.63c6-5.39,15-10.79,20.16-11.64,15.9-3.12,58.77,7.67,58.77,14.77a12.27,12.27,0,0,1-4.26,6.24,11.63,11.63,0,0,0-4.26,6c0,5.4,4.54,2,11.36-8.23,3.69-5.68,10.5-15.33,15-21.29,8-10.51,8.52-10.51,27.54-10.51s28.39-1.7,28.39-8.23-.57-4-3.12.28a12.76,12.76,0,0,1-10.22,5.11c-7.1,0-7.1-.28-2.56-7.09s5.68-9.94.57-9.94-13.91,9.65-11.35,11.92-6.25,1.14-15.62.57c-14.48-1.13-19-.57-25.84,4.26s-24.41,7.95-26.4,2.27-4.26-2.27-15.05,1.42c-27.82,9.37-34.63,12.49-46.27,20.44s-15.9,8.24-27.54-9.93c-5.68-9.09-7.38-10.23-15.9-8.81a46.35,46.35,0,0,0-17,6.53,29.79,29.79,0,0,1-11.93,5.4,51.06,51.06,0,0,0-14.48,4c-7.95,3.41-10.22,3.41-15,0s-8.23-2.84-25,16.47c-6.25,7.1-11.07,9.94-16.18,9.65s-6.53-1.42-6-2.55.28-2-1.14-2-11.07,8.8-14.76,17.89-2.84,8.23,6.24,6.53a226.9,226.9,0,0,1,29.81-4.26c6.25-.29,16.47-15.05,13.06-18.46s-.56-1.7,1.14-1.7,7.38-3.41,12.21-7.67c11.64-9.65,14.76-5.67,12.2,16.19s-7.94,31.51-14.47,30.66-7.67,10.22-.57,21.86L-28-167.6l-8.51,10.5A186.77,186.77,0,0,1-51-140.92a16.45,16.45,0,0,0-6,9.09c0,2-4,8.23-8.81,13.63S-76.84-108-83.37-108s-21.86-9.37-21.86-16.19-1.13-3.12-5.68-.28-6.24,2.56-8.8.28-.57-10.22,4.83-8.23,4,0,4-1.42-11.92-17.6-17-17-1.14,17.32-.57,19.59c1.42,6.81-36.34,20.44-41.45,20.72s29.81-5.39,34.35-2.84,6.25,2,8.24.29,14.19-.57,12.77,5.39,0,5.11,4.26,4.54,6.25,1.42,6.81,5.68-3.12,8.8-5.67,2.27A6,6,0,0,0-114-99.47c-2.27,0-1.7,2,1.42,5.4s4,6,1.7,7.1a3.42,3.42,0,0,0-1.42,4.54c.85,1.42-1.42,6-5.39,9.94s-16.18,8.23-13.63,8.23,15,3.41,16.18,10.79c3.41,23.85,4.55,27.54,9.37,28.67S-87.91-22.81-89.61-25.37Zm-16.47-16.46c-5.68-5.68-.28-26.41,6.81-26.41s5.4,11.64,1.14,19.59S-103.24-39-106.08-41.83ZM16.85-205.93c-2.84-3.41-2.84-5.39-.57-7.67s12.5-.56,11.36,5.11S21.11-200.82,16.85-205.93Zm67,162.68c3.69.57,6.82-.57,6.82-2.27s-16.19-4-18.46,0-7.66-1.14-6-12.21,1.42-11.07-2.55-8S58.3-52.9,64-44.1s5.39,6.53,9.08,3.4a16.51,16.51,0,0,1,10.79-2.55ZM-123.68-159.09c2.55-5.39,6.53-8.51,10.22-8.51s16.75-5.11,16.75-8.8S-98.7-179-101-179s-5.39-2.84,0-9.94a21.75,21.75,0,0,0,4-12.77c0-5.4,2.56-17.6,1.14-14.2S-122-176.12-125.1-176.12-137-162.49-135-156.53-128.79-149.15-123.68-159.09ZM332.84,773.55c-7.38-8.52-15.33-15.62-17.6-15.62s-3.41-.85-2.56-1.7-1.13-4.54-4.54-8.23c-9.94-11.07-13.34-15.62-11.36-15.62s.57-1.7-1.13-3.69-6.53-17.88-4.26-20.16,6.53,2.84,12.49,8.24a61,61,0,0,0,18.17,11.64c4,.85,7.1,2.84,7.1,4s3.12,6,7.1,10.22,8.8,6,7.38-2.55c-.57-3.41,6.81-2.56,10.5,1.42a16.46,16.46,0,0,1,3.41,9.93c0,7.67,1.7,8,7.67,2s5.11-4,9.93.85a13.06,13.06,0,0,1-6.53,22.43,25.8,25.8,0,0,0-12.77,7.1,20.4,20.4,0,0,1-7.1,5.39C347.6,789.16,340.22,782.07,332.84,773.55Zm312-14.76c-5.11-2-4.25-8.52,1.42-10.79s11.64,3.12,6.25,8.23A9.67,9.67,0,0,1,644.85,758.79Zm-244.72-7.95c-4.26-5.11-1.71-12.78,4.25-12.78s4.26,2.56,4.26,6.81C408.64,753.68,404.67,756.23,400.13,750.84Zm214.63-16.47c-4.26-3.12-4.26-4.54-1.14-10.79s5.4-6.81,12.78-6c11.64,1.14,11.92,6.81,1.14,14.48C621,736.64,618.73,737.21,614.76,734.37Zm-231.1-17.89c-8.52-17.31-8-19.87,4.26-25s26.69-15.9,21.86-15.9a11.42,11.42,0,0,0-7.1,4.54,25.53,25.53,0,0,1-26.4,7.1,307.81,307.81,0,0,0-40.6-9.94,74.61,74.61,0,0,1-19.59-9.65c-7.67-4.82-14.48-8.23-15.62-7.66s-2.55,5.11-3.69,9.93-2.27,8.24-5.67,5.11-3.41-4.54-2.84-5.67-9.09-8-18.74-8c-15.62,0-13.91-15.9,2.55-22.72l8.24-3.4-5.68-9.66c-4.54-8-7.38-9.65-14.76-9.65a21.91,21.91,0,0,1-12.5-3.41c-4.82-5.11-4.54,2.84.86,15.62s2.27,14.76-8.52,12.21-7.38-2.27-7.67-29.81c0-9.09-.85-11.64-4-10.51a5.11,5.11,0,0,1-5.68-1.7c-1.14-2-.85-2.56,1.14-1.14s3.4.57,3.4-1.13-1.7-2.84-4-2.84c-6.82,0-13.35-18.74-13.91-39.75s-1.14-19.87-6.25-19.87c-13.63,0-25.55-19.31-15.05-23.85,2.84-1.14,2.56-2.27-.56-4.54s-3.41-3.69-.86-4.83,1.14-6.53-7.38-6.53S160.22,480.56,164.48,474s.57-6.53-3.12-11.08c-7.1-9.08-6.81-10.5,3.12-14.47a28,28,0,0,0,11.08-8c1.13-2.28,7.94-4.83,15.33-5.68,11.92-1.14,12.77-.85,13.91,5.39a11.63,11.63,0,0,0,8.23,9.09c6,2.27,9.37,1.42,17-4.55s21.29-11.92,35.48-17.6,28.39-12.77,30.95-15.9,22.71-7.38,25.27-2,1.13.85.57-2.84,0-6.25,4.25-6.25c10.22,0,34.92,18.74,38.05,28.68,1.13,3.69,4.54,5.39,9.93,5.39a12.49,12.49,0,0,1,11.36,5.39c3.69,7.39,3.69,8.81-1.42,8.81s-4,2.27-3.12,9.93,0,9.94-2,9.94-19.87,13.34-17.89,16.75,10.51,4,9.37-.28,9.94-9.94,20.73-11.93a35,35,0,0,0,12.77-6c5.4-4.26,5.4-4.54.29-8.52a13.34,13.34,0,0,0-9.94-2.55c-4,1.13-3.69.85.29-1.71a10.53,10.53,0,0,0,5.11-7.66c0-2.84,1.42-3.69,4.54-2.56s4,0,2.55-6.81a24.44,24.44,0,0,1,1.42-14.48c2.56-4.54,2.56-6.81,0-8.23s-2.27-2.84.57-5.11,12.21,2.27,20.16,25c4,11.64,9.93,24.13,13.06,27.82,7.95,9.09,7.38,11.08-4,15.9l-10.22,4.26,5.68,11.07a173,173,0,0,0,12.21,19.31,163.89,163.89,0,0,1,15.05,25.27c4.82,9.36,9.36,17.31,10.78,17.88s-4,8.8-8.51,7.1-4,2.84-3.13,32.65c.57,19,.29,34.64-.85,34.64s-3.12,5.39-4.82,11.92C449,664.81,444.13,675.6,439.3,677a10.82,10.82,0,0,0-6,7.1c-2.27,8.23-10.5,7.1-10.5-1.42s-1.71-7.1-4.54-7.1-4,1.42-2.84,4.54a46.37,46.37,0,0,1,1.7,12.78c0,6.25,1.14,8.23,6,8.23,9.65,0,5.4,11.36-7.38,20.16C398.42,733.23,391,732.1,383.66,716.48ZM651.38,723c-4.25-12.77-3.12-14.76,8.52-14.76s11.36.85,12.21,6.81a9.37,9.37,0,0,1-2.84,9.09c-5.68,3.69-16.47,2.84-17.89-1.14Zm122.37-1.7c2.84-2.84-12.21-9.94-19.31-9.37s-10.5-1.7-18.74-9.94a132.39,132.39,0,0,0-27.53-19.87c-9.37-5.11-17.32-10.5-17.89-12.21s20.44-2.84,32.65,4c6.81,4,12.21,6,12.21,4.82s-9.09-11.07-14.2-12.2-6.53-4.55-9.37-8.8-6.24-13.63-2.84-13.06a28.34,28.34,0,0,0,10.79-3.41l8.52-4-12.21-.85c-13.06-1.13-17.89-6.24-11.92-13.34s.85-11.36-4.55-7.1-3.4,4.54-2.55,5.68-7.67,0-18.74-3.12-38.33-12.21-48.55-13.06c-14.48-1.14-19.59-.29-23,3.12C596.31,618.82,579,610.3,579,595c0-5.11-1.14-7.1-3.41-5.68s-2.27.57-1.14-1.42a3.69,3.69,0,0,1,5-1.47l.11.05c6,3.7-.86-14.47-8.81-23C556,547,554.86,544.72,559.4,541.88s3.4-2.55-.57-2.55a12,12,0,0,0-7.67,3.4c-2.83,2.56-4.82,2-9.36-2.55s-5.11-9.37,11.64-17.32,17.31-20.16,7.09-42.3c-6.24-14.2-9.08-17.61-15.9-19-12.49-2.56-11.35-13.35,1.71-19.59s12.49-11.64,2.84-24.7-19.31-19-36.06-23c-7.66-1.7-14.48-4.26-15.05-5.68s8.24-8.23,19-8.52c5.11-.28,7.09-1.13,4.25-1.7a14.78,14.78,0,0,1-8-8.52c-1.7-4.54-16.18-15-27.53-15-3.41,0-6.25-1.14-6.25-2.28,0-9.08,29.53-12.77,41.17-5.11,4.82,3.41,7.38,2.84,17.88-3.4S552,337.47,558,340s8.8,9.09,1.13,11.08-5.11,2.27-2.55,5.39,2.84-3.12,20.72-6c12.5-2.27,38.62-19.31,38.62-27a34.47,34.47,0,0,0-3.41-12.78c-4-8.8-2-11.64,5.68-7.38s6.81,2,9.65-.57a46.15,46.15,0,0,1,12.77-7.38c9.94-4.26,13.92-14.2,10.51-27.82s-8.23-14.48-22.43-16.47-38-12.78-40-19.31,4.26-10.22,17.6-3.12a62.59,62.59,0,0,0,23.57,6.82A186.88,186.88,0,0,1,663,241.22c23.57,6,38.9,5.68,48.27-1.7a25.72,25.72,0,0,1,11.64-4c5.39,0,6.53,1.41,6.53,7.94a19,19,0,0,1-5.68,13.06c-4,3.69-4.83,6.53-3.12,9.94a28.53,28.53,0,0,1,2.27,11.64c-.57,5.11-2.27,7.1-6.82,7.1s-5.67-.85-5.11-1.7-2.84-3.41-7.38-6.25c-10.22-5.68-10.22-5.11-.85,9.65a141.33,141.33,0,0,1,10.79,21.86l3.69,10.51-9.94.57c-6,.56-11.07-.57-12.49-2.84s-3.12-2-6.24,2.27-1.42,11.35,6.24,7.38a32.8,32.8,0,0,1,13.34-3.12c6.25,0,8.24,2,11.93,11.07s5.68,10.79,7.1,9.94,1.7,1.41.56,5.67-.85,7.39,2.84,7.39,4.26.85,3.69,2-.28,4.83.86,7.95,2.55,4.83,2.55.57a51.59,51.59,0,0,0,0-6.81,5.68,5.68,0,0,1,3.12-3.69c2-1.14,3.13-5.12,3.13-8.81-1.14-21-.57-25.26,4.26-31.79a33.72,33.72,0,0,1,13.06-10.79,29,29,0,0,0,7.94-4,143.47,143.47,0,0,0-5.67-13.34c-7.67-16.75-7.38-26.12.85-30.09a14.73,14.73,0,0,1,13.34.28c6,2.84,7.1,5.68,7.95,17.6s2.84,16.18,5.11,18.74,12.49,29.53,12.49,44.29-4,23.56-14.48,23.56c-5.11,0-7.94,1.14-6.81,2.84s17.89,3.13,21.29-2.84c5.68-11.07,2-48.54-7.95-76.65a63.41,63.41,0,0,1-2-13.35,92.39,92.39,0,0,0-2.56-16.18c-2-8.52-8.52-9.37-29-4.26-7.09,1.71-13.34,2.56-13.91,2a30.62,30.62,0,0,1-3.12-10.22c-2-9.65,70.41-60.76,81.76-68.42,20.73-14.2,29.53-17.6,35.21-13.91S874,166.84,885.61,170s22.14,7.1,23.84,8.8a17,17,0,0,0,9.66,2.84c4,0,10.22,3.69,15.33,9.09s9.94,9.08,11.07,8.52a1.31,1.31,0,0,1,2,1.41,21.48,21.48,0,0,0,1.7,8.81,14.76,14.76,0,0,1-2.27,13.06c-3.41,5.11-3.69,7.09-.85,8.23s.57,1.42-3.12,1.7-6.25,1.42-6.25,3.13A65.77,65.77,0,0,1,931,250.31a71.52,71.52,0,0,0-5.68,14.48,101.6,101.6,0,0,0,8.52,19.3c5.4,10.79,8.52,21,8.52,29a55.56,55.56,0,0,0,5.68,22.43c3.12,6,11.07,46,13.34,50.54s9.94,41.45,7.1,38.32-3.13,1.14-5.4,4A26.34,26.34,0,0,1,949.2,436q-20.44,3.69-23.85-23.84c-1.42-10.51-2.27-12.21-4.25-7.67-4.55,10.79-7.1,12.49-14.48,9.65s-10.79-.56-25.27,6.25a114.09,114.09,0,0,0-25,15.61c-7.38,7.39-16.18,31.23-16.18,44s15.62,26.12,23.28,24.13c2.84-.57,4.54-.28,3.69.85s18.46,9.09,21.86,7.1,2-.57,1.71.57,2.55,6.81,6.81,12.49c9.37,12.49,15.9,43.44,10.22,50.25-9.65,11.64-24.7,17.89-43.44,17.89-30.66,0-46,10.79-50.53,36.05-1.71,8.52-1.42,9.09,8,10.79s10.5,3.69,11.64,8.8-.29,14.77-7.1,17.32-5.39,2.56.85,18.17,6.25,16.19,2,21.58a11.65,11.65,0,0,1-10.22,4.83c-3.12-.57-8.8,2.27-13.06,6.24s-9.65,6.82-20.44,6.25S772.9,721.88,773.75,721.31Zm32.08-91.42c-2.27-4.54-4-5.39-6.25-2.84s-2.27,4,.85,6,8.81,3.12,5.4-3.13ZM343.34,716.77C332.27,713.08,330,709.1,336,704s19.31-6.24,17-2.55.57,3.4,2.84,4.26,5.67,4.25.85,10.22S351.86,719.89,343.34,716.77Zm-39.17-30.38c-4.26-4.26-4.55-9.94-.29-12.49s10.79,6.53,11.07,12.21S308.71,690.65,304.17,686.39Zm532-1.7c-4.26-4-1.42-11.36,4.82-12.5s6.53-.28,5.4,5.11S839.33,688.09,836.21,684.69Zm-560.72-7.1c-3.12-8,.85-12.78,6.53-8s5.68,10.5,0,12.49S276.91,681.85,275.49,677.59Zm-451.7-23.28a6.52,6.52,0,0,0-6.81-2.56c-1.7,1.14-1.7.29.28-2S-179,637-179,621.09c0-23.28.29-25.27,7.1-29.53s28.11-3.69,31.23,1.71-4.54,17-7.95,17-2.27,6-1.42,13.91c1.42,14.48-1.13,23-7.09,23s-5.11,2.56-7.1,5.68S-171.38,660-176.21,654.31ZM114,641.25c.28-5.11,2.55-9.94,4.26-10.51s4.54,10.22-.86,15.62S113.1,650.05,114,641.25Zm449.14-27.54c-4-2.84-10.79-20.16-8.8-22.43s12.77,2.27,14.48,8.52C572.46,613.43,570.19,618.54,563.09,613.71Zm-718.85-53.66c-6.82-1.42-8.24-7.66-2.84-13.34s16.46-2.56,16.46,2.55-3.12,12.78-5.39,12.21ZM184.92,549c-.56-7.1.57-9.37,5.4-10.51s5.11-.85,4.26,0-.29,3.41,1.42,5.4.56,15-5.68,14.48S185.21,555.22,184.92,549Zm308.9-.29c.28-2.55,10.22-15,11.92-15s1.13,3.4,1.13,7.66-2,8.24-6.81,8.8S493.82,549.83,493.82,548.69Zm-679.39-27.53a15,15,0,0,1-4.83-9.66c0-3.12-1.42-6.24-3.12-6.81s-3.7-6-4.26-11.93a98.29,98.29,0,0,0-2.56-15.61,13.08,13.08,0,0,1,2.27-9.94c3.41-4.54,4-4.54,11.36,2.27s9.65,7.39,11.92,7.39,4,5.11,3.69,24.13C-171.38,526.55-173.93,530-185.57,521.16ZM986.11,411c-11.92-16.18-12.49-32.08-1.42-32.08,6,0,7.38,1.7,9.37,10.79S990.94,417.53,986.11,411ZM312.68,341.44c-5.39-2.27-4-6.53,2-6.53A13,13,0,0,0,324,329.8a24,24,0,0,1,8.23-7.1c4-1.41,4.54,0,4.26,6.82C335.68,341.44,325.46,346.55,312.68,341.44Zm77.51-6.53c-1.14-1.7-2.56-8.23-4.83-12.21-4.54-8.51-.57-29.52,7.67-40s9.08-21-.29-24.41-7.09-4-6.24-19.31,1.7-16.46,7.1-17,6.53.57,7.95,6.24,2,10.79,3.12,15.05a42.89,42.89,0,0,0,8.52,15.62A32.37,32.37,0,0,1,420,275.58c0,7.09.85,8.23,5.68,6.81s5.68-1.42,5.68-.85a121.82,121.82,0,0,1-5.68,12.21A50.2,50.2,0,0,0,420,310.5,74.31,74.31,0,0,1,416.88,327c-2.56,9.94-3.69,10.79-13.92,10.79S391,336.33,390.19,334.91ZM551.45,285.8c-15.33-10.51-20.16-30.1-5.11-20.16A165.64,165.64,0,0,1,562,276.14c6.25,5.11,7.67,16.19,2,15.9a37.58,37.58,0,0,1-12.49-6.24Zm-193.34-31a16.49,16.49,0,0,1-3.41-10.22c0-5.68,1.14-6.53,7.67-5.68s7.95,2.27,8.8,9.94,0,9.37-4.26,9.37A14.46,14.46,0,0,1,358.11,254.85ZM658.48-102.87c-11.35-12.21-9.94-17.6,4.26-19.59,6.25-1.14,14.76-2.84,18.74-4,11.07-2.84,12.49,2.84,2.84,11.93a32.63,32.63,0,0,0-9.09,13.34C673.53-92.37,667.57-92.94,658.48-102.87ZM515.68-345.61a10.55,10.55,0,0,1-2-6.53c0-2.56-28.39-18.74-28.39-19.59s11.35-17.32,11.35-19c0-9.09,63.32-22.43,73.82-15.62s-1.7,15.05-17.89,18.45c-6.24,1.42-7.66,3.13-7.66,10.23s-8.52,19.87-14.2,19.87-4.26,3.12-5.68,7.1S519.08-341.92,515.68-345.61Z" />
    </g>
</svg>
