<svg id="New_Symbol_35" data-name="New Symbol 35" xmlns="http://www.w3.org/2000/svg" width="100.657" height="106.249" viewBox="0 0 100.657 106.249">
  <path id="Path_1" data-name="Path 1" d="M376.945,147.877l-.24.333a7.61,7.61,0,0,1,.6,2.088c-.012.121-.011.418-.008.732a5.523,5.523,0,0,1-.123,1.715c-.054.116-.305.964-.524,1.709a27.105,27.105,0,0,1-1.063,3.271,8.638,8.638,0,0,0-.591,3.182,5.173,5.173,0,0,0,1.929,3.077c.2.1.369.194.509.272a3.147,3.147,0,0,0,1.3.5c.02,0,.044.006.069.01a31.574,31.574,0,0,0,4.03-.01,40.454,40.454,0,0,0,4.385-1.378c.46-.24,4.291-1.506,4.7-1.615.215-.056,1.152-.332,2.057-.6,1.058-.311,2.156-.637,2.375-.694a11.058,11.058,0,0,1,3.074-.416,1.358,1.358,0,0,1,.319.074,2.734,2.734,0,0,1,1.292,1.746,8.258,8.258,0,0,1,.147,4.123c-.344,1.873-.814,3.642-1.149,4.794a17.254,17.254,0,0,1-.808,2.36c.005,0,.006,0,.012-.01-.083.1-.857,1.258-1.542,2.28-.9,1.345-1.5,2.24-1.612,2.375-.212.278-2.259,2.52-2.48,2.751a39.325,39.325,0,0,0-2.431,4.983c-.193.862-.225,5.748-.22,6.164a8.588,8.588,0,0,0,.366,1.99c.046.081.09.174.132.269l.021-.005.2.088c.018,0,.069.018.147.028a1.471,1.471,0,0,0,1.111-.345c.513-.4,1.076-.793,1.614-1.176s1.072-.757,1.557-1.139a25.857,25.857,0,0,0,3.5-3.792,17.785,17.785,0,0,1,1.573-1.969c.355-.414.837-.971.949-1.142a10.16,10.16,0,0,1,1.583-1.862c.343-.363.8-.857.911-1,.156-.317.708-2.051,1.164-3.574l0-.012-.524.262-.138-.163a9.491,9.491,0,0,1-1.577-2.606c-.041-.142-.087-.3-.144-.488a9.713,9.713,0,0,1-.509-4.655,23.06,23.06,0,0,0,.372-2.373c.1-.855.146-1.215.321-1.4a17.709,17.709,0,0,0,.814-3.606,46.349,46.349,0,0,0,.155-6.1,29.631,29.631,0,0,0-1.293-5.368c-.122-.274-.243-.588-.362-.888-.214-.551-.573-1.477-.823-1.538a1.575,1.575,0,0,0-1.131.045c-.167.1-1.144.921-1.852,1.51s-1.159.964-1.277,1.046c-.238.166-2.407,2.455-2.7,2.845-.243.327-3.279,3.921-3.7,4.215a16.549,16.549,0,0,1-4.214,1.862l-.286.02a9.052,9.052,0,0,1-1.849,0,3.184,3.184,0,0,1-2.034-.922,13.957,13.957,0,0,1-2.2-3.775c-.086-.325-.506-2.581-.523-2.977-.01-.3-.79-3.215-.874-3.463-.056-.154-.613-1.53-.714-1.714a6.076,6.076,0,0,0-.8-.508Z" transform="translate(-351.803 -92.27)" fill="#19a6a2"/>
  <path id="Path_2" data-name="Path 2" d="M412.813,97.306a54.247,54.247,0,0,0-3.066-4.786c-.117-.129-.343-.412-.653-.8-.554-.69-1.393-1.736-2.167-2.633a10.848,10.848,0,0,0-1.633-1.685,2.513,2.513,0,0,1-.908-.325c-.147.35-.284.364-.373.375a3.5,3.5,0,0,1-.656-.033,32.789,32.789,0,0,1-3.536-.772c-.184-.081-.6-.26-1.079-.468-.754-.321-1.694-.726-2.1-.926l-.125-.058a19.25,19.25,0,0,0-2.911-1.186,27.406,27.406,0,0,0-3.9-.945,3.7,3.7,0,0,0-.448-.029c-.159,0-.377,0-.628,0-.523,0-1.173,0-1.734.041-.875.071-1,.227-1.005.235-.022.03-.044.058-.067.091-.322.434-.411.556-.075.94.159.179.379.45.634.764a26,26,0,0,0,1.8,2.064c.745.692,1.616,1.648,1.746,1.794.085.1.621.876.768,1.089a4.026,4.026,0,0,1,.707.811c.086.12.19.27.351.485a4.7,4.7,0,0,1,.7,1.2c.051.121.111.255.187.415.485.775.5.881.513.953s.062.253.122.456c.352,1.18.659,2.374.257,2.89a5.1,5.1,0,0,1-2.365,1.366,16.385,16.385,0,0,1-3.136.356h-.1c-.867.007-2.318.02-2.523.077-.059.018-.168.038-.389.081a9.449,9.449,0,0,0-2.707.773c-.354.312-.152,1.413-.03,1.631a.41.41,0,0,1,.085.122.146.146,0,0,0,.037-.02c.1-.049.177-.1.255-.138a2.21,2.21,0,0,1,1.654-.319c.061.009.122.016.186.023a30.415,30.415,0,0,1,3.034.578c.476.128,3.512,1.655,3.855,1.83a9.15,9.15,0,0,0,2.289.7.955.955,0,0,0,.211.007c.172-.035.428-.111.676-.185s.464-.134.595-.16a2.372,2.372,0,0,0,1.129-.456,4,4,0,0,0,1.008-2.66,32,32,0,0,0-1.318-5.823,28.943,28.943,0,0,1-1.069-3.325c-.871-3.2-.722-3.509-.668-3.626.178-.371.646-1.222,1.19-1.156.016,0,.034.005.049.006.247.058,4.743,1.568,5.09,1.837.047.038.22.168.473.363a56.611,56.611,0,0,1,4.608,3.632c.062.087.655.754,1.174,1.347,1.074,1.213,1.785,2.015,1.886,2.192a40.293,40.293,0,0,0,3.572,3.629c.138.052.449.211.839.412.272.14.663.341,1.009.506-.156-.41-.358-.941-.528-1.38A22.372,22.372,0,0,1,412.813,97.306Z" transform="translate(-356.185 -52.793)" fill="#19a6a2"/>
  <path id="Path_3" data-name="Path 3" d="M327.543,201.9c3.614-1.746,7.027-2.987,7.708-3.728,1.243-1.344,1.025-1.533,1.225-3.174.281-2.271-6.749-2.748-12.205-7.345a43.751,43.751,0,0,0-3.916-3.018,25.853,25.853,0,0,1-5.436-5.167v31.495a13.52,13.52,0,0,1,2.5-3.576C318.725,206.162,323.006,204.093,327.543,201.9Z" transform="translate(-314.918 -112.017)" fill="#19a6a2"/>
  <path id="Path_4" data-name="Path 4" d="M386.232,130.476c.149.365,1.357,3.342,1.582,4.1a11.213,11.213,0,0,1,.227,1.757,11.782,11.782,0,0,0,.3,2.173c.074.2.159.458.251.76a7.63,7.63,0,0,0,1.06,2.438l.255.264a3.42,3.42,0,0,0,1.653,1.177.945.945,0,0,0,.211,0c.2-.02.44-.042.717-.068a11,11,0,0,0,2.823-.446,17.118,17.118,0,0,0,2.581-1.716c.142-.168.553-.576,1.029-1.051.623-.617,1.4-1.389,1.617-1.681.393-.519,1.4-1.729,1.814-2.223.182-.212.556-.617.957-1.042.469-.5,1-1.07,1.266-1.39a9.125,9.125,0,0,1,2.315-2.079,3.857,3.857,0,0,1,1.8-.657.511.511,0,0,1,.213.064.156.156,0,0,0,.056.019.333.333,0,0,0,.038,0c.022,0,.042,0,.061.005.274.036.49.218.846.74a41.013,41.013,0,0,1,2.375,7.069,34.165,34.165,0,0,1,.4,5.412l-.017.176a21.571,21.571,0,0,1-.771,4.886,24.837,24.837,0,0,0-1.22,4.425,24.664,24.664,0,0,0-.036,3.459,22.626,22.626,0,0,0,1.323,3.434c.271.414.527.774.527.778l.041.057.026-.085.423-.086a11.109,11.109,0,0,0,1.28-.316,6.926,6.926,0,0,0,1.378-1.356,13.016,13.016,0,0,0,1.958-4.175c.159-.745.484-1.764.769-2.663.213-.665.454-1.415.48-1.631.208-1.7.6-4.708.886-5.717a2.2,2.2,0,0,0-.207-1.52l-.528-.87.32-.06c-.109-.1-.218-.194-.28-.248s-.383-.264-.639-.437a9.079,9.079,0,0,1-.9-.637c-.025-.025-.14-.124-.251-.218a8.992,8.992,0,0,1-1.335-1.265c-.056-.073-.118-.158-.187-.255a20.914,20.914,0,0,1-1.366-2.012,35.96,35.96,0,0,1-1.247-4.387c-.156-.632-.3-1.181-.331-1.285-.058-.163-.232-.7-.43-1.322-.26-.814-.584-1.828-.662-2.023-.063-.168-.39-.784-.677-1.33s-.544-1.04-.627-1.23c-.15-.348-1.276-2.329-1.408-2.541a18.751,18.751,0,0,0-2.8-2.753l-.018-.01a4.85,4.85,0,0,0-.9-.306l-.031,0c-.222.5-1.488,3.778-1.584,4.361-.064.372-.372,1.5-.673,2.591-.236.849-.5,1.811-.519,1.973-.051.433-1.523,4.8-2.407,5.49-1.347,1.05-2.358,1.54-3.1,1.5-.1-.008-.2-.017-.314-.028a5.853,5.853,0,0,1-2.13-.625.074.074,0,0,0,.022.027c-.038-.033-.248-.178-.454-.32a12.8,12.8,0,0,1-2.52-2.009,50.338,50.338,0,0,0-3.309-4,3.4,3.4,0,0,0-1.369-.908.136.136,0,0,0-.092.012c-.117.091-.255.175-.387.258-.228.148-.574.364-.593.512a1.232,1.232,0,0,0,.226.638C386.092,130.189,386.165,130.326,386.232,130.476Z" transform="translate(-358.444 -75.851)" fill="#19a6a2"/>
  <path id="Path_5" data-name="Path 5" d="M415.575,5.779,414.453,4.66H316.034l-1.116,1.119v32.3l.137-.188c.281-.374,1.933-2.382,2.737-3.183a7.488,7.488,0,0,1,2.419-1.39,13.4,13.4,0,0,1,2.353-1.9c.394-.209.988-.483,1.62-.771.68-.312,1.445-.665,1.736-.839a20.132,20.132,0,0,1,5.137-1.8,4.931,4.931,0,0,1,.669.037c.154.018.289.042.409.064.088.016.166.027.238.034a.675.675,0,0,0,.3-.007.4.4,0,0,0,.178-.1,2.391,2.391,0,0,1,1.393-.473,6.761,6.761,0,0,0,.941-.177,12.748,12.748,0,0,1,3.407-.384,45.1,45.1,0,0,1,5.93.423c.244.034.495.058.742.087s.5.062.754.09a9.456,9.456,0,0,1,3.593.934l1.046.626c.48.174,3.663,1.37,4.766,1.723a15.245,15.245,0,0,1,4.474,2.682,21.211,21.211,0,0,1,3.452,3.654c.049.066.108.139.124.159a1.305,1.305,0,0,0,.823.475c.591.072,1.4.79,4.656,4.831.287.357.516.642.612.756.328.376,1.21,1.713,1.867,2.743,1.382,2.172,1.508,2.527,1.531,2.713.06.237.437,1.212.715,1.935a15.816,15.816,0,0,1,.837,2.36c.048.125.182.393.3.619L415.575,13.05Z" transform="translate(-314.918 -4.66)" fill="#19a6a2"/>
  <path id="Path_6" data-name="Path 6" d="M372.612,201.3a23.967,23.967,0,0,0,3.259-1.924c.315-.288,1.094-1.116,1.367-1.408l.087-.094a12.122,12.122,0,0,1-.445-2.239c0-.209-.027-.707-.057-1.234a17.34,17.34,0,0,1-.056-2.518,7.46,7.46,0,0,0,.035-.971,6.249,6.249,0,0,1,.175-1.909l.055-.147c1.246-3.353,2.184-5.336,2.792-5.9a18.776,18.776,0,0,0,2.256-2.738c.1-.147.317-.444.595-.821a25.368,25.368,0,0,0,1.5-2.159c.179-.4.718-1.769,1.041-2.592.118-.294.208-.524.254-.638.161-.4.8-2.91.885-3.355.075-.393.188-3.554.143-3.916a2.128,2.128,0,0,1-.067-.274c-.216-1.053-.4-1.183-.467-1.2a16.363,16.363,0,0,0-4.931.632c-2.941.9-8.083,2.492-8.707,2.741a30.076,30.076,0,0,1-6.159,1.2l-.275-.025a5.97,5.97,0,0,1-2.706-1.018l-.057-.051c-.585-.5-2.134-1.824-2.209-3.02a13.751,13.751,0,0,1,.2-3.769c.084-.194.294-.816.52-1.467a21.869,21.869,0,0,1,.816-2.2,22.191,22.191,0,0,0,.814-2.915,8.326,8.326,0,0,0,.041-1.294c-.044-.694-.191-.864-.227-.869a1.534,1.534,0,0,0-1.2.289,6.06,6.06,0,0,0-.539,1.348,6.741,6.741,0,0,1-.481,1.246c-.189.3-1.1,1.285-2.281,2.537-.523.551-.972,1.029-1.148,1.23a8.753,8.753,0,0,1-.958.826c-.984.788-2.474,1.98-2.692,2.821-.363,1.378-.643,2.824.193,3.986a13.934,13.934,0,0,0,3.8,2.985,53.354,53.354,0,0,0,6.173,1.822c.544.069,6.027.349,6.427.37.257.009,3.409.242,5.648.517a7.019,7.019,0,0,1,2.284.453c.634.4,1.77,1.437,1.536,2.445-.014.051-1.213,5.082-4.312,7.889-1.968,1.783-4.592,3.92-6,5.068-.56.451-1,.813-1.072.886-.309.3-4.669,4.773-5.122,5.458-.126.189-.343.479-.593.816a11.716,11.716,0,0,0-1.743,2.765c-.023.254-.053.538-.087.838a16.068,16.068,0,0,0-.13,1.636,3.925,3.925,0,0,1-.062.688h9.737C371.323,201.826,372.138,201.517,372.612,201.3Z" transform="translate(-338.571 -95.882)" fill="#19a6a2"/>
  <path id="Path_7" data-name="Path 7" d="M315.542,118.5c.034.064.086.173.153.313.248.506.707,1.454.913,1.753a4.771,4.771,0,0,1,.375.783,6.6,6.6,0,0,0,.984,1.78c.2.209.367.4.512.561a4.053,4.053,0,0,0,.977.887,4.922,4.922,0,0,0,1.5.719.513.513,0,0,0,.174,0,1.676,1.676,0,0,1,.479-.025c.234.017.3.02.433-.225.055-.109.112-.207.163-.3a2.557,2.557,0,0,0,.435-1.3c.014-.329.025-.71.036-1.083.013-.483.025-.941.047-1.222a6.357,6.357,0,0,0-.015-.683,6.786,6.786,0,0,1,.017-1.318l.009-.054a8.25,8.25,0,0,1,.395-1.8c.029-.064.068-.16.113-.264a3,3,0,0,1,.871-1.38c.035-.026.075-.05.114-.077a3.068,3.068,0,0,1,1.822-.716l.105.018a5.867,5.867,0,0,1,1.206.495,1.679,1.679,0,0,1,.367.2,5.055,5.055,0,0,1,.715.47c.14.12.425.4.76.716.448.434,1.011.974,1.2,1.123.042.033.095.069.152.115a6.077,6.077,0,0,0,1.158.761l0,0,.1-.772a2.216,2.216,0,0,0-.057-.713.863.863,0,0,1-.009-.353c.011-.105.011-.105-.058-.166a2.867,2.867,0,0,1-.706-.821,5.271,5.271,0,0,1-.413-.81c-.051-.118-.1-.224-.148-.324-.1-.2-.185-.417-.281-.667-.068-.17-.147-.366-.235-.573a3.266,3.266,0,0,1-.189-.569,4.252,4.252,0,0,0-.19-.612,5.65,5.65,0,0,1-.255-.826c-.012-.041-.022-.085-.031-.109s-.046-.071-.081-.132a2.183,2.183,0,0,0-1.175-1.069,2.356,2.356,0,0,1-.708-.276.057.057,0,0,0-.024-.011,1.24,1.24,0,0,0-.189.041l-.265.055a2.884,2.884,0,0,0-1.95,1.157,25.213,25.213,0,0,0-2.294,4,19.833,19.833,0,0,1-1.988,2.926c-.055.066-.116.147-.179.232-.378.505-.769,1.029-1.207.972a.439.439,0,0,1-.08-.018,1,1,0,0,0-.2-.023c-.052,0-.112-.008-.179-.014a1.67,1.67,0,0,1-1.073-.694,8.242,8.242,0,0,1-1.325-2.05,9.426,9.426,0,0,1-.554-2.275,14.884,14.884,0,0,1,.015-2.445c.025-.311.072-.61.117-.905a4.354,4.354,0,0,0,.006-1.982,1.388,1.388,0,0,1-.053-.943.019.019,0,0,0,0-.007,1.1,1.1,0,0,0-.123-.088,3.024,3.024,0,0,1-.579-.511,3.083,3.083,0,0,0-.239-.237v10.416A10.321,10.321,0,0,1,315.542,118.5Z" transform="translate(-314.918 -67.594)" fill="#19a6a2"/>
  <path id="Path_8" data-name="Path 8" d="M315.043,165.6a31.721,31.721,0,0,0,2.669,3.638,5.07,5.07,0,0,1,.807.8c.045.04.11.1.181.171a.712.712,0,0,0,.484-.247,3.771,3.771,0,0,1-.363-2.392,9.126,9.126,0,0,1,.625-1.559l-.025-.016a.224.224,0,0,0,.034,0c.084-.159.175-.31.262-.456,0-.038.01-.081.016-.129-1.1.24-.984-.294-1.56-.543-.624-.269-1.551-2.687-2.358-3.523a9.4,9.4,0,0,0-.9-.8v4.88C314.959,165.477,315,165.543,315.043,165.6Z" transform="translate(-314.918 -100.392)" fill="#19a6a2"/>
  <path id="Path_9" data-name="Path 9" d="M316.686,91.829a11.731,11.731,0,0,1,.191,3.653,12.856,12.856,0,0,0-.133,2.8l.014.12a3.441,3.441,0,0,0,.719,2.059,10.566,10.566,0,0,1,.633.863c.189.274.505.736.634.764a1.081,1.081,0,0,1,.131-.031,1.717,1.717,0,0,0,1.183-.757,9.342,9.342,0,0,1,.755-.955,7.913,7.913,0,0,0,.6-.731,7.156,7.156,0,0,0,.674-1.209c.084-.177.169-.359.271-.545.112-.221.227-.454.337-.676.2-.4.38-.768.563-1.074l.02-.032a4.852,4.852,0,0,1,.992-1.3,5.336,5.336,0,0,1,1.7-1.165l.02-.005a3.528,3.528,0,0,1,1.4-.243,1.425,1.425,0,0,1,.348.092c.063.03,1.571.68,1.846,1.171.116.213.363.848.7,1.731.131.35.255.681.326.847.053.13.11.3.176.49a5.375,5.375,0,0,0,.769,1.644c.08.089.149.17.214.246.2.238.362.426.451.438a.161.161,0,0,0,.059,0,1.266,1.266,0,0,1,.409-.02,1.055,1.055,0,0,0,.291-.014.213.213,0,0,0,.005-.083,6.859,6.859,0,0,0-.162-1.2c-.044-.2-.084-.591-.126-1-.021-.214-.042-.436-.064-.605a9.058,9.058,0,0,1,.033-2.282c.054-.226.153-.785.329-2.2,0-.042.01-.087.017-.14a2.3,2.3,0,0,0-.03-1.109c-.041-.1-.082-.209-.122-.308a2.133,2.133,0,0,0-.338-.673,4.652,4.652,0,0,0-.973-.647,1.964,1.964,0,0,0-.313-.058,3.662,3.662,0,0,0-1.6.155A7.277,7.277,0,0,0,327.4,91a20.955,20.955,0,0,1-1.959,1.338c-.246.154-.478.3-.664.424-.593.393-1.659.995-2.364,1.394-.161.094-.3.177-.418.239a5.088,5.088,0,0,0-.485.348,1.837,1.837,0,0,1-1.31.563,1.707,1.707,0,0,1-.186-.041c-.145-.046-.264-.074-.358-.1-.395-.091-.541-.166-.74-.651a1.232,1.232,0,0,0-.158-.3,1,1,0,0,1-.166-.576,14.434,14.434,0,0,1,.155-2.585c.014-.052.04-.159.071-.293a8.759,8.759,0,0,1,.588-1.945c.086-.14.233-.456.391-.789a12.1,12.1,0,0,1,.932-1.739,11.078,11.078,0,0,0,.739-1.185c.153-.269.3-.526.428-.723a2.563,2.563,0,0,0,.559-1.319,2.747,2.747,0,0,0-.265-1.268,4.281,4.281,0,0,1-.4-.169,3.248,3.248,0,0,0-.474-.193c-.014-.005-.028-.009-.043-.013-.065.064-.121.118-.167.166l-.116.113-.157.056a6.6,6.6,0,0,0-2.031,1.112c-.7.694-2.3,2.629-2.6,3.023-.254.339-.8,1.1-1.286,1.81v2.621A2.14,2.14,0,0,1,316.686,91.829Z" transform="translate(-314.918 -51.803)" fill="#19a6a2"/>
  <path id="Path_10" data-name="Path 10" d="M355.63,148.812l-.533.127-1.1.1a4.39,4.39,0,0,0-.914.167,7.956,7.956,0,0,1-1.142,1.356l.2,1.386.685.8a18.228,18.228,0,0,0,3.335-1.693l.95-1.529a1.258,1.258,0,0,1,.252-.423l.288-.524-.311-.384Z" transform="translate(-337.658 -92.81)" fill="#19a6a2"/>
  <path id="Path_11" data-name="Path 11" d="M318.612,144.41c.453.676,2.215.259,2.215.259a15.744,15.744,0,0,1,2.663-1.657c.269-.138,2.248-.9,3.462-1.267l-1.352-2.889-.006-.027c-.057-.218-.328-1.307-.35-1.478,0-.019-.006-.057-.013-.106a3.85,3.85,0,0,1-.084-1.381c.012-.027.041-.131.067-.226a3.337,3.337,0,0,1,.511-1.272,1.3,1.3,0,0,0,.136-.15,1.5,1.5,0,0,1,.541-.428.485.485,0,0,0,.167-.118.742.742,0,0,1,.71-.213c.52.045.862.087,1.335.144a12.73,12.73,0,0,1,1.42.346c.129.036.282.081.319.088a.793.793,0,0,1,.166.045,2.667,2.667,0,0,0,.482.124.585.585,0,0,0,.294-.021.637.637,0,0,1,.252-.046l.178-.333c.091-.166.091-.166.095-.278a.229.229,0,0,0-.06-.179.189.189,0,0,1-.031-.04c-.1-.08-.458-.336-.728-.529a5.7,5.7,0,0,1-.837-.632c-.069-.08-.784-.762-1.092-1.019s-.69-.6-1.046-.943a3.983,3.983,0,0,1-.3-.329,1.839,1.839,0,0,0-.3-.322c-.095-.05-.192-.105-.289-.156a.271.271,0,0,0-.054-.019,4.714,4.714,0,0,0-.835-.189,2.167,2.167,0,0,0-.626,0,3.487,3.487,0,0,0-1.431,1.137,14.207,14.207,0,0,0-.526,2.494c-.012.112,0,.646.01,1.116a15.464,15.464,0,0,1-.009,1.653c-.024.125-.084.659-.147,1.225-.1.849-.2,1.808-.265,2.13-.068.338-.351,1.454-1.139,1.545a2.351,2.351,0,0,1-.574-.01,3.14,3.14,0,0,1-1.362-.491,10.112,10.112,0,0,1-1.732-1.406c-.251-.32-1.743-2.453-1.857-2.7-.091-.213-1.225-2.549-1.3-2.69-.022-.039-.175-.285-.377-.607v7.375C316.029,141.148,318.239,143.852,318.612,144.41Z" transform="translate(-314.918 -81.112)" fill="#19a6a2"/>
  <path id="Path_12" data-name="Path 12" d="M316.034,203.66h19.527a2.128,2.128,0,0,0,.446-.419,10.121,10.121,0,0,0,.3-1.811c.051-.424,1.138-4.236,2.185-5.421.144-.16.345-.388.59-.664a65.716,65.716,0,0,1,5.078-5.451l.013-.012a30.943,30.943,0,0,0,3.315-2.32c.313-.287.646-.571,1-.865a14.823,14.823,0,0,0,1.964-1.868,25.537,25.537,0,0,0,3.24-5.135c.4-1.217.363-2.228-.082-2.512a81.123,81.123,0,0,0-7.9-2.115l-.008,0c-.105-.006-.561-.01-1.139-.015-1.726-.025-4.942-.062-5.98-.189-.1-.012-.173-.027-.234-.037s-5.635-1.315-6.976-2.594l-.259-.248c-1.168-1.1-2.935-2.767-2.678-4.637a6.514,6.514,0,0,1,2.472-4.833,46.862,46.862,0,0,0,4.434-4.077,11.189,11.189,0,0,0,.931-1.378c.44-.766.382-.994.372-1.014a1.392,1.392,0,0,0-.68-.355,9.1,9.1,0,0,1-2.99,2.142,29.572,29.572,0,0,1-3.323,1.341c-.24.081-.428.149-.564.2-.279.106-.659.267-1.1.459l-.078.268-.092-.2c-.333.146-.691.305-1.058.465-1.1.491-2.241.99-3.008,1.283-.931.352-2.654,1.432-3.077,4.856-.134,1.1,1.826,2.806,4.473,4.729a34.707,34.707,0,0,0,6.221,3.581c3.612,1.454,6.106,2.628,7.561,3.357.291.149.571.3.843.435a.436.436,0,0,1,.075.008,1.278,1.278,0,0,1,.737.423c2.823,1.547,4.332,2.782,4.6,3.764.554,2.052-1.206,3.119-2.758,4.062a13.177,13.177,0,0,0-1.532,1.027c-1.531,1.267-6.952,3.6-8.99,4.482-.267.115-.465.2-.581.251a47.43,47.43,0,0,1-7.646,1.352,1.5,1.5,0,0,0-.155.016c-.178.037-.352.071-.525.108a18.783,18.783,0,0,0-3.657,1.663c-.526.28-1.024.545-1.481.771-.747.81-1.454,1.666-2.017,2.4q-.253.491-.494,1.07c-.164.387-.309.766-.435,1.126v1.417Z" transform="translate(-314.918 -97.411)" fill="#19a6a2"/>
  <path id="Path_13" data-name="Path 13" d="M354.119,87.021a2.016,2.016,0,0,1,.72-.772,5.673,5.673,0,0,0,.637-.556c.512-.538,1.545-1.566,2.115-2.133a4.223,4.223,0,0,1,.384-.334,2.4,2.4,0,0,0,.788-1.085,4.617,4.617,0,0,1,.491-.8c.227-.3.331-.444.323-1.366,0-.284,0-.528.008-.742.019-.9.023-1.083-.543-1.556a6.123,6.123,0,0,0-2.046-.982c-.1-.034-.187-.058-.261-.083a18.137,18.137,0,0,0-1.966-.559c-.329-.075-.674-.15-1.012-.22-.465-.1-.866-.177-1.109-.247a23.781,23.781,0,0,1-2.555-1.047c-.5-.26-1.092-.886-.928-1.314a3.264,3.264,0,0,1,.853-1.25c.107-.079.272-.216.45-.358a7.279,7.279,0,0,1,1.215-.878c.073-.03.174-.078.3-.13.479-.216,1.205-.536,1.563-.657.068-.019.151-.05.244-.081a9.909,9.909,0,0,1,2.077-.556c.642-.056,1.944-.088,2.724-.108l.4-.01c.209-.007.481-.027.769-.047a11.75,11.75,0,0,1,1.829-.041c.076.011.155.019.234.03s.168.023.256.034a4.443,4.443,0,0,0,1.589-.011c.17-.042.336-.083.494-.117A3.754,3.754,0,0,0,365.4,68.6a6.125,6.125,0,0,0,.918-.711l-.452-.27a8.814,8.814,0,0,0-3.034-.741c-.245-.03-.5-.055-.744-.089s-.5-.055-.751-.085a43.011,43.011,0,0,0-5.76-.412,11.481,11.481,0,0,0-3.074.341,8.2,8.2,0,0,1-1.133.214c-.476.044-.561.105-.667.188a2.084,2.084,0,0,1-.245.164,3.545,3.545,0,0,1,.129,1.9,6.64,6.64,0,0,1-1.748,1.755,20.09,20.09,0,0,0-2.611,1.462c-.091.071-.238.184-.428.327-.666.512-2.44,1.869-2.6,2.39-.063.2-.153.4-.249.624-.254.573-.515,1.164-.242,1.626A1.418,1.418,0,0,0,344,78.06a13.591,13.591,0,0,0,2.765-.2,33.841,33.841,0,0,1,5.076-.6.063.063,0,0,1,.027,0c.641.1,3.015.97,3.373,2.6a5.817,5.817,0,0,1-.437,3.572c-.267.563-.7,1.43-.779,1.568-.016.029-.045.071-.106.166a9.409,9.409,0,0,0-1.233,2.251c-.047.224-.114.482-.18.732-.075.284-.178.679-.208.9a2.557,2.557,0,0,0,1.108-.5,8.932,8.932,0,0,0,.707-1.515Z" transform="translate(-331.911 -42.511)" fill="#19a6a2"/>
  <path id="Path_14" data-name="Path 14" d="M340.959,87.435c-.016.1-.034.242-.057.405a8.149,8.149,0,0,0-.134,1.221,3.39,3.39,0,0,1,.019.483,3.722,3.722,0,0,0,.194,1.617c.06.051.112.1.159.138a.7.7,0,0,0,.14.117.879.879,0,0,0,.319-.149,4.166,4.166,0,0,1,.379-.2c.021-.007.044-.02.059-.026.007-.041.017-.112.024-.177a2.909,2.909,0,0,0,.021-.342,4.388,4.388,0,0,1,.155-1.077c.054-.233.085-.411.112-.567a2.3,2.3,0,0,1,.522-1.222,11.173,11.173,0,0,0,.636-.967,8.036,8.036,0,0,1,.45-.7,3.324,3.324,0,0,0,.541-1.262,4.116,4.116,0,0,1,.166-.52,3.858,3.858,0,0,0,.315-1.244c-.005-.082-.007-.167-.01-.255a3.743,3.743,0,0,0-.267-1.516,2.887,2.887,0,0,0-1.134-1.058c-.083-.039-.171-.09-.264-.145a1.923,1.923,0,0,0-.792-.309c-.066-.008-.13-.01-.2-.013a25.487,25.487,0,0,0-3.451.251c-.462.081-.964.149-1.448.22-.566.08-1.1.155-1.488.24l-.169.034a6.514,6.514,0,0,1-2.425.2c-.126-.018-.26-.037-.412-.054-.088-.012-.171-.019-.252-.029s-.149-.018-.217-.027a1.91,1.91,0,0,1-.993-.335c-.728-.558.3-2.49.34-2.573a8.729,8.729,0,0,1,1.39-1.952c.1-.1.249-.246.417-.417a10.41,10.41,0,0,1,1.569-1.407c.186-.119.461-.3.754-.488a20.1,20.1,0,0,1,1.879-1.166,9.869,9.869,0,0,0,1.428-.749,4.726,4.726,0,0,0,.936-1.031,2.851,2.851,0,0,0,.14-.708,1.293,1.293,0,0,0-.056-.637c0-.01,0-.019-.007-.027a2.139,2.139,0,0,1-.6,0c-.106-.012-.21-.033-.31-.051s-.216-.035-.335-.051a3.6,3.6,0,0,0-.478-.027,20.735,20.735,0,0,0-4.422,1.6c-.353.207-1.088.551-1.869.911-.585.268-1.193.548-1.555.739a8.3,8.3,0,0,0-1.362,1.046,1.756,1.756,0,0,1,.46.189l.016.01a1.9,1.9,0,0,1,.822,2.218,12.737,12.737,0,0,1-.978,2.488c-.04.079-.077.149-.11.22-.126.262-.4.7-.688,1.159-.313.517-.678,1.1-.8,1.393a12.528,12.528,0,0,0-.964,4.08c.167,1.079.4,1.226.624,1.283a1.838,1.838,0,0,0,.286.062,1.514,1.514,0,0,0,.854-.182,14.951,14.951,0,0,0,2.067-1.07c.363-.284,1.909-1.315,2.343-1.579.071-.043.147-.091.238-.142.416-.25.985-.6,1.4-.888a10.393,10.393,0,0,1,2.058-.959c.021,0,.054-.019.09-.03a2.668,2.668,0,0,1,1.333-.154,4.7,4.7,0,0,1,1.141.307,2.815,2.815,0,0,1,1.788,2.588C341.307,84.534,341.087,86.373,340.959,87.435Z" transform="translate(-322.377 -44.103)" fill="#19a6a2"/>
  <path id="Path_15" data-name="Path 15" d="M345.718,147.335a1.8,1.8,0,0,1,.585-1.417,3.672,3.672,0,0,1,3.044-1.419,1.168,1.168,0,0,0,.394-.027,2.366,2.366,0,0,1,.637-.176,1.09,1.09,0,0,0,.365-.1.114.114,0,0,0,0-.027,2.621,2.621,0,0,0-.461-.934l-.567-.069c-.133,0-1.2-.039-1.978-.136-.665-.081-.866-.175-.962-.308a7.423,7.423,0,0,0-1.89-.389,3.371,3.371,0,0,0-1.429.982.353.353,0,0,0-.07.264,10.628,10.628,0,0,1,.232,1.35,7.527,7.527,0,0,0,.261,1.392c.057.135.211.472.407.9.256.56.576,1.256.849,1.891.1.218.174.406.241.571l0,0c.1.214.632-.035,1.56-.34A3.233,3.233,0,0,1,345.718,147.335Z" transform="translate(-332.397 -89.208)" fill="#19a6a2"/>
  <path id="Path_16" data-name="Path 16" d="M416.213,111.656l.105-.1-.143-.285a8.258,8.258,0,0,1-.477-1.033,5.908,5.908,0,0,0-.573-.168,9.058,9.058,0,0,1-3.61-2.435,14.3,14.3,0,0,0-2.4-2.495l-.021-.014-.016-.022c-1.094-1.321-2.344-2.8-2.539-2.968-.062-.036-.157-.122-.531-.428-1.078-.906-3.6-3.022-5.062-3.553-.727-.26-1.336-.505-1.821-.7a7.792,7.792,0,0,0-1.493-.514c-.029,0-.06,0-.086-.007-.415-.007-.811.48-.859.888a46.906,46.906,0,0,0,1.269,5.247c0-.008-.009-.016-.01-.022.027.053,2.431,6.056,1.593,7.642-.967,1.833-1.759,2.72-2.569,2.886a6.684,6.684,0,0,1-2.252,0,26.137,26.137,0,0,1-2.912-1.009c-1.138-.426-2.546-.953-2.8-.983-.155-.018-.439-.085-.8-.169-.556-.128-1.3-.3-1.911-.378-.732-.088-.869.019-.878.021-.176.148-.383.282-.582.419a2.843,2.843,0,0,0-.593.463,7.157,7.157,0,0,0,.642,1.276c.13,0,.383-.033.56-.054a4.35,4.35,0,0,1,.547-.048.37.37,0,0,1,.086,0,6.4,6.4,0,0,1,1.64.545c.061.047.225.238,1.237,1.45.978,1.166,2.605,3.117,2.842,3.3a5.46,5.46,0,0,1,.781.645c.276.243.589.526.911.783a4.943,4.943,0,0,0,2.352.731,2.62,2.62,0,0,0,1.666-.545,4.823,4.823,0,0,0,1.676-1.831l.083-.188a12.141,12.141,0,0,0,.965-2.553c.04-.331.134-.753.229-1.2.111-.507.226-1.038.285-1.5a11.5,11.5,0,0,1,.673-2.7c.149-.338.48-1.675.72-2.649.151-.607.271-1.089.325-1.258.023-.064.046-.158.079-.27.167-.628.448-1.686,1.208-1.592l.03.005a1.276,1.276,0,0,0,.384-.02,1.829,1.829,0,0,1,.551-.024,3.007,3.007,0,0,1,1.653,1.052c1.371,1.393,4.439,4.989,5.176,7.2.344,1.028.979,2.987,1.525,4.754,1.006,3.257.984,3.446.97,3.548a13.124,13.124,0,0,0,.733,2.5,22.013,22.013,0,0,0,1.852,2.569,18.565,18.565,0,0,0,1.6,1.283,8.155,8.155,0,0,1,.726.57.725.725,0,0,1,.136.22c0-.179,0-.366,0-.513,0-.243-.007-.494,0-.718.022-.469-.28-3.484-.46-5.283-.091-.931-.158-1.61-.183-1.929l-2.244-2.244Z" transform="translate(-357.498 -61.325)" fill="#19a6a2"/>
  <path id="Path_17" data-name="Path 17" d="M370.095,92.2c.1-.03.237-.06.426-.1.213-.041.48-.1.712-.164l.088-.027c.415-.118.928-.27,1.589-.4A25.6,25.6,0,0,1,375.8,91.1a3.062,3.062,0,0,1,.565.015,3.952,3.952,0,0,1,.542.114,1.37,1.37,0,0,0,.586.066q.2-.032.492-.067a6.9,6.9,0,0,0,1.887-.412,3.842,3.842,0,0,1,.53-.2c.314-.092.43-.126.663-.678a4.64,4.64,0,0,1,.338-.657c.171-.281.207-.345.079-.892-.079-.338-.125-.617-.169-.862a4.047,4.047,0,0,0-.333-1.194l-.014-.031c-.617-.979-1.571-2.377-1.877-2.824-.023-.019-.042-.038-.063-.056-.365-.331-.614-.6-.833-.842a6.964,6.964,0,0,0-.626-.638c-.361-.324-.729-.711-1.146-1.154-.209-.225-.422-.454-.668-.708-.181-.191-.316-.329-.419-.437a3.349,3.349,0,0,0-.661-.594,4.876,4.876,0,0,1-1.476-1.61,4.4,4.4,0,0,0-.241-.406,1.49,1.49,0,0,1-.254-.549.606.606,0,0,1,.337-.607c.1-.058.191-.126.292-.2a2.8,2.8,0,0,1,1.579-.646c.167-.012.384-.033.63-.053a16.324,16.324,0,0,1,2.931-.087c.091.012.178.024.255.042.419.089.869.2,1.3.3.525.131,1.024.255,1.354.3a15.957,15.957,0,0,1,2.872.869,11.208,11.208,0,0,1,1.081.6,12.474,12.474,0,0,0,1.223.665,15.071,15.071,0,0,1,1.4.754,10.1,10.1,0,0,0,1.247.669c.407.116,1.764.389,2.21.478l.11.022c.065.01.152.036.268.067a7.162,7.162,0,0,0,.734.166l.088.005s.007-.012.007-.012a.108.108,0,0,0,.008-.016.717.717,0,0,0,.012-.071c-.082-.081-.146-.15-.184-.2s-.082-.1-.18-.226a20.154,20.154,0,0,0-3.195-3.4,14.124,14.124,0,0,0-4.036-2.451c-1.081-.347-3.967-1.423-4.714-1.7-.049.048-.1.1-.143.135l-.043.045a11.809,11.809,0,0,1-2.083,1.325,14.133,14.133,0,0,1-2.694.311c-.567-.009-2.976.121-3.521.164-.588.057-2.425.283-3.312.485a13.677,13.677,0,0,0-2.63.89l-.231.118a3.454,3.454,0,0,0-1.362,1.014,3.279,3.279,0,0,1-.349.49c-.032.042-.068.083-.09.117a.129.129,0,0,1,.013.014,11.473,11.473,0,0,0,2.174,1.265c.1.027.32.081.605.147a20.555,20.555,0,0,1,2.459.679c.129.059.424.149.762.25,1.714.532,3.267,1.075,3.442,1.9a9.891,9.891,0,0,1,.047,3.111c-.1.333-.672,1.55-.735,1.688l-.019.034-.026.034c-.22.242-1.318,1.46-1.477,1.6s-2.728,2.52-2.952,2.764a7.553,7.553,0,0,0-.994,1.568,4.857,4.857,0,0,0,1,.237,1.456,1.456,0,0,0,.366.014l.063-.11.179.021.326.044A5.857,5.857,0,0,0,370.095,92.2Z" transform="translate(-344.982 -45.868)" fill="#19a6a2"/>
  <path id="Path_18" data-name="Path 18" d="M434.526,165.213c-.008.181-.006.4,0,.631a8.66,8.66,0,0,1-.025,1.024,1.358,1.358,0,0,1-.378.87,3.384,3.384,0,0,1,.031,1.863c-.184.66-.5,2.716-.842,5.5a13.947,13.947,0,0,1-.534,1.887c-.276.87-.588,1.852-.733,2.53a14.57,14.57,0,0,1-2.271,4.812,7.154,7.154,0,0,1-1.886,1.731,8.24,8.24,0,0,1-1.156.322,24.647,24.647,0,0,1-1.213,3.539,13.621,13.621,0,0,1-1.059,1.193c-.445.475-1.175,1.257-1.331,1.48a8.606,8.606,0,0,1-1.168,1.484,20.018,20.018,0,0,0-1.415,1.744,25.588,25.588,0,0,1-3.863,4.208c-.512.4-1.073.8-1.614,1.182s-1.073.761-1.559,1.135a2.911,2.911,0,0,1-2.167.636,1.719,1.719,0,0,1-.21-.034l-.057.019c-.293.309-.981,1.038-1.317,1.345a20.087,20.087,0,0,1-2.718,1.7H471.03l1.122-1.117v-7.273l-38.106-38.1c.006.066.013.13.019.2C434.341,162.51,434.55,164.684,434.526,165.213Z" transform="translate(-371.494 -99.77)" fill="#19a6a2"/>
</svg>
