<svg xmlns="http://www.w3.org/2000/svg" width="800.656" height="1218.84" viewBox="0 0 800.656 1218.84">
  <g id="Group_75" data-name="Group 75" transform="translate(-40.065 -151.568)">
    <g id="Group_6" data-name="Group 6" transform="translate(40.065 151.568)">
      <path id="Path_37" data-name="Path 37" d="M1823.462,1659.89c-13.522,11.679-13.518,2.173-13.143-8.3.213-6.067,10.188-14.574-3.261-17.42-9.393-1.993-17.593-.258-19.626,11.873-1.383,8.267-11.575,17.1,3.763,22.955,5.168,1.97,9.375,6.469,14.023,9.817,9.88-5.525,21.762,2.087,31.435-4.793,10.143-11.847,15.993-.737,20.917,5.082,7.029,8.3,3.556,20.018-3.732,23.606-24.035,11.827-11.5,26.447-5.232,40.818,2.814,6.447,6.7,12.424,11.091,20.407,1.455-9.944,4.572-17.286,13.78-11.354,12.912,8.318,26.167-1.3,39.721,2.449,8.714,2.412,3.249-5.62.311-9.189-7.626-7.242,3.949-18.6-5.466-25.454l.4.42c-1.387-6.154-1.509-11.851,5.395-15.031l5.44,4.27c23.614,5.674,47.392,3.081,71.156,1.423,21.857,2.576,35.424,14.724,42.4,35.443,5.4,16.034-2.865,27.848-19.711,25.417-10.2-1.469-20.2-5.065-29.976-8.575-32.4-11.638-50.763-5.367-68.635,23.632-5.083,8.25-12.293,15.451-16.065,24.2-9.321,21.618-24.41,27.83-46.069,20.443-14.114-9.551-18.745-23.425-16.824-43.177-18.781,23.031-38.786,25.621-61.158,12.315a24.244,24.244,0,0,1-7.359-5.426c-3.85-4.4-6.845-9.537-11.4-13.332-7.12-4.974-14.909-2.977-22.571-2.191-1,.117-2,.176-3,.271a8.652,8.652,0,0,1-5.485-2.1q-18.534-15.173-37.073-30.346c-3.338-9.022,6.831-6.262,9.085-10.409,2.665-13.305-9.343-15.6-16.328-16.829-13.978-2.471-21.125-11.078-25.344-22.3-7.026-18.7-15.641-36.247-28.639-51.5,1.442-7.269,2.065-14.52-.366-21.721-.908-11.087,13.622-25.128,2.228-31.58-11-6.225-21.284,8.051-30.468,16.219-8.1,7.2-17.046,13.454-25.616,20.123-7.612,3.4-16.2-.6-23.768,3.112-18.582-5.733-37.077-10.63-53.319,5.67-12.062,4.544-25.047-1.026-37.122,3.374-8.887-3.745-18.822-5.444-25.644-13.2-2.8-13.251-.253-26.817-2.358-40.1a24.541,24.541,0,0,0-3.438-5.092c-1.3-12.447-7.1-19.666-20.109-23.3-7.906-2.214-14.172-10.291-21.175-15.736-5.53-3.943-1.234-16.472-13.039-14.926-8.01-1.848-11.629-7.852-9.135-14.706,2.417-6.655,7.446-6.636,15.736-4.838,13.414,2.914,29.158-23.7,24.156-37.719-3.076-7.59.308-15.934-2.737-23.529,1.21-18.726-8.033-34.132-16.7-49.371-4.59-8.069-12.343-6.022-19.765-2.105-6.677,3.524-13.463,3.366-16.608-5.051-3.221-8.611,1.283-13.929,8.679-17.886,30.749-16.463,31.932-25.232,9.167-52.6-15.288-18.37-35.085-27.391-57.851-31.48-5.914-1.066-11.886-1.852-17.733-3.212-5.805-1.346-13.626-3.063-11.376-10.671,2.516-8.48,9.045,1.147,12.523-.542,5.946-2.883,11.154.7,16.666-.194,10.531-1.721,26.208,7.5,30.463-5.3,3.335-10.034-13.458-13.256-20.813-20.028-14.209-13.075-32.321-14.394-50.351-16.106-6.727-.637-14.055-2.575-16.115-10.151-1.731-6.361,2.755-9.361,8.8-9.957,13.373,2.918,26.777,2.078,40.19.4,5.435,1.373,10.983,2.489,14.877,7.089,8.638,5.119,17.218,5.484,25.719-.316,14.8-13.825,29.448-23.913,49.941-8.037,6.189,4.793,21.247-14.52,25.074,6.663,11.958-3.474,11.073-18.27,20.859-23.66,7.354,1.247,14.891,4.392,21.514-2.042,8.005-9.036,3.633-20.439,5.837-30.581,1.468-7.463,4.527-15.1-2.385-21.636l1.1-.609-.972.8c-1.224-5.141,2.133-7.477,5.86-9.591,25.065-3.212,52.533-1.8,63.132-32.831,4.265-6.971,4.134-13.91-.14-20.822-4.011-23.773-19.634-29.655-41.4-28.444-8.494.47-17.208-3.144-25.823-4.9-2.617-3.33-2.847-6.582.32-9.718,36.07-.664,71.765-5.209,107.818,7.712,10.41,3.727,30.03-9.04,41.794-20.516,6.967-6.795,12.908-12.686,22.554-5.042,2.281,6.176,3.609,12.334-.322,18.4l-8.8,16.138c-6.018,6.375-3.176,13.472-1.667,20.461-5.213,8.349-10.825,5.783-15.957.185-4.612-5.028-10.6-12.682-16.223-6.826-6.438,6.7-5.345,19.765,1.639,24.6,13.3,9.216,16.78,23.791,24.758,35.758,9.4,14.114,1.893,22.815-12.162,19.68-19.621-4.382-20.353,14.547-30.979,20.787-5.024,2.95-.967,6.939,2.941,10.241,3.817,3.226,6.641,6.447,10.785,1.5,4.35-5.2,9.8-8.484,15.409-12.171,8.317-5.471,16.834-17.746,24.546-4.066,6.925,12.293,21.12,28.214.587,42.422-4.618,6.433-11.837,7.4-19.1,8.937,7.011-.041,12.867-3.511,19.286-4.654,23.023,2.987,30.482,11.67,25.915,30.166-5.4,21.884,6.659,49.927,27.391,63.674,5.868-14.687,3.018-29.659,1.468-44.59l-.014-4.766a64.58,64.58,0,0,0,.077-30.929c4.269-16.553-12.4-29.565-7.816-46.172,9.035-7.8,2.109-19.147,6.244-28.038,5.751-15.441,30.22-11.556,32.058-31.042,4.373-5.53,3.957-11.1.127-16.689-7.41-18.478-22.956-33.626-22.608-55.275,20.289-16.219,34.358,4.78,50.694,9.542,10.369,3.023,5.959,15.225,4.672,23.99-.75,5.11-2.412,10.59,2.67,14.534a3.906,3.906,0,0,0,5.76-1.116c3.452-4.992,2.119-10.4-.465-14.909-6.09-10.612-5.2-23.38-11.322-33.951-9.677-16.734-17.47-19.608-34.661-10.883-7.427,3.768-14.828,6.962-23.059,8.145-11.005,3.357-18.966-.131-23.859-10.58-5.164-11.019-.321-19.282,8.353-25.11,51.888-34.855,93.6-82.211,145.38-117.328,29.23-19.824,55.207-11.548,80.164,5.34,11.069,7.49,20.579,11.471,33.4,7.554,17.254-5.272,32.036-.926,42.815,13.707,2.155,2.927,4.667,2.693,6.84,4.106,27.459,17.877,26.357,17.082,4.224,43.774-8.561,10.323-11.15,25.593-16.463,38.614-2.891,10.472-2.3,20.976-.271,31.494,4.441,20.321,17.122,37.805,23.045,56.473,7.328,23.077,20.046,46.407,17.547,71.851-1.5,15.225,3.6,34.887,9.347,40.145,16.531,15.144,14.281,36.906,26.158,52.452,1.581,2.078,1.6,5.349,2.339,8.069,2.946,7.662.286,15.862,2.269,23.619-4.595,15.938-20.34,23.176-31.634,29.009-14.556,7.513-27.459-6.529-33.68-21.013-4.215-9.817-8.566-16-19.309-9.406-6.009,3.686-9.835-.14-14.308-2.236-4.711-2.2-10.011-6.293-14.443-1.807-24.487,24.763-62.907,33.026-78.751,68.608-4.879,10.96-2.665,21.749-6.1,32.108-1.924,10.445-2.552,20.877.285,31.281,2.186,29.728,33.558,32.289,47.107,32.863,37.145,1.568,50.852,27.518,70.193,49.284a139.1,139.1,0,0,0,.027,44.288c-17.191,30.364-28.024,33.749-58.628,18.934-18.125-8.774-35.41-19.4-55.053-24.893-8.784-2.457-13.418-1.26-10.31,9.23,1.314,4.437-8.2,69.593-10.477,73.414-1.875,3.154-3.628,6.38-5.439,9.573C1822.942,1636.117,1829.525,1648.749,1823.462,1659.89Z" transform="translate(-1249.911 -876.817)" fill="#19a6a2"/>
      <path id="Path_38" data-name="Path 38" d="M1712.466,1090.739l6.479,5.774c11.349,5.76,13.544,18.821,21.726,27.08,11.859,5.1,23.8,2.123,35.745.546,6.049-.189,11.069,1.442,13.531,7.6-1.437,5.652,1.133,10.423,3.944,14.773,5.431,8.412,19.21,14.8,15.781,24.649-3.922,11.272-14.363,20.592-22.924,29.885-31.593,34.317-55.813,71.937-56.713,120.613-.971,5.66-4.852,11.547,1.279,16.67a10.554,10.554,0,0,1,3.2,10.6c-1.522,5.828-3.885,11.71,1.012,17.159,4.391,5.777,4.315,12.6,4.139,19.291-.275,10.54-8.182,11.8-13.111,6.189-6.858-7.807-18.365-10.915-18.5-26.863-.122-14.042-11.864-27.979-18.479-41.966-3.8-8.986.159-18.744-2.779-27.816,2.761-12.226,18.736-28.409-8.949-31.612-5.159-.6-11.525-2.851-15.727,4.577-4.089,7.237-2.914,15.862,1.689,18.437,16.775,9.375,8.576,21.315,2.58,29.85-6.808,9.691-16.445,21.1-31.5,10.336-5.448-5.982-12.622-1.1-18.721-2.972-11.814-4.568-24.1-4.92-36.513-4.058-.456.032-1.233.547-1.247.863a7.087,7.087,0,0,0,.547,2.088c-22.639,4.693-40.583,19.047-60.354,29.609-2.968,1.585-7.07,5.909-6.627,8.186,2,10.233,13.337,9.334,22.187,14.967-13.924,9.849-23.845,3.506-31.57-4.7-13.35-14.186-29.6-22.485-47.65-28.367-9.32-3.041-16.427-8.277-22.581-16.875-12.993-18.17-31.236-29.474-53.305-35.284-24.555-6.465-48.77-14.313-72.908-22.241-20.267-6.65-35.65-18.713-40.06-41.121,1.482-2.173,3.1-2.389,4.879-.343l10.649,2.308c-1.062-29.429,20.312-12.09,25.064-8.534,11.846,8.859,10.292-1.735,14.828-5.905,6.565-6.022,7.034-9.351-.538-14.417-12.14-8.123-15.148-23.42-27.7-32.862-14-10.527-4.878-41.871,14.313-51.508,15.3-7.685,29.827-18.727,48.246-18.953,13.4,4.663,27.766-1.617,41.116,3.628,19.255,12.05,45.025,14.823,51.54,44.135,2.751,12.388,21.311,13.142,32.872,18.143,9.112,3.94,17.344,5.128,20.244,17.078,2.458,10.12,16.12,4.044,22.106,10.847,4.111,4.843,8.376,4.011,12.713.338.375-14.47-1.929-30.129,22.413-23.56,8.019,2.164,12.167-6.862,10.12-15.695-1.639-7.092-3.46-14.145-5.8-23.659,21.32,5.407,33.405,35.257,58.813,18.622-5.146-8.81.533-18.957-3.442-27.911-.818-7.992-8.209-9.627-13.242-13.4-8.217-6.157-4.143-10.431,1.74-14.7,6.026-3.045,11.448-9.338,19.124-3.573,6.578,5.046,15.256,9.126,18.442-1.08,4.752-15.239,14.723-7.635,23.1-8.019l4.627.217a13.731,13.731,0,0,1,4.784,4.342c5.719,8.751,9.8,21.546,23.2,7.265C1703.322,1086.194,1708.568,1088.376,1712.466,1090.739Z" transform="translate(-1193.021 -176.021)" fill="#19a6a2"/>
      <path id="Path_39" data-name="Path 39" d="M1343.751,1096.513c-8.407,3.953-9.912,20.9-23.6,13.964-7.671-3.89-16.6-10.64-15.677-19.987,1.061-10.8,14.091-4.41,20.064-9.532a45.49,45.49,0,0,1,27.875.118l-.2-.2C1358.543,1091.041,1346.015,1091,1343.751,1096.513Z" transform="translate(-1058.185 -166.177)" fill="#19a6a2"/>
      <path id="Path_40" data-name="Path 40" d="M1332.974,940.2q-.163,4.859-.321,9.718c-40.9-13.346-45.341-17.525-45.839-45.824C1296.28,924.257,1319.14,926.028,1332.974,940.2Z" transform="translate(-1120.089 -780.862)" fill="#19a6a2"/>
      <path id="Path_41" data-name="Path 41" d="M1337.316,1110.024c-6.6-8.99-15.117-16.721-18.446-26.257-3.009-8.638,9.225-8.484,13.87-9.776,6.442-1.785,17.981,1.423,16.76,9.646C1348.262,1091.939,1346.609,1102.484,1337.316,1110.024Z" transform="translate(-1008.983 -184.879)" fill="#19a6a2"/>
      <path id="Path_42" data-name="Path 42" d="M1309.914,1079.169c-22.047-7.423-31.914-22.44-27.021-40.426,1.111-4.079,3.5-7.147,6.826-7.929,4.306-1.012,6.65,2.639,7.066,6.66,1.391,13.563,10.007,24.2,14.484,36.5A3.822,3.822,0,0,1,1309.914,1079.169Z" transform="translate(-1138.206 -335.681)" fill="#19a6a2"/>
      <path id="Path_43" data-name="Path 43" d="M1381.121,1086.469c-13.968-4.843-27.983-9.565-41.839-14.7-1.558-.579-2.259-3.484-4.621-7.414,19.182,2.3,35.736,7.107,52.045,13.052C1386.181,1081.256,1384.044,1084.106,1381.121,1086.469Z" transform="translate(-951.78 -217.079)" fill="#19a6a2"/>
      <path id="Path_44" data-name="Path 44" d="M1415.02,1071.871q-2.7,7.515-5.39,15.027c-1.283-1.671-3.356-3.194-3.7-5.042-1.6-8.511-23.772-10.811-9.388-22.607C1407.823,1050,1405.167,1072.517,1415.02,1071.871Z" transform="translate(-751.095 -242.915)" fill="#19a6a2"/>
      <path id="Path_45" data-name="Path 45" d="M1333.147,1097.014c7.413,2.508,12.324,7.631,5.941,14.114-4.65,4.722-14.489,3.832-18.415-.465-5.173-5.661-5.967-15.423-.573-21.848,4.029-4.789,7.5-.316,8.511,4.762C1328.335,1097.081,1327.829,1100.89,1333.147,1097.014Z" transform="translate(-1015.991 -138.238)" fill="#19a6a2"/>
      <path id="Path_46" data-name="Path 46" d="M1280.564,1062.265c-1.73-9.13-.388-16.806,10.6-18.107,3.985-.47,9.786-2.914,12,2.187,1.952,4.513-2.607,8-5.377,11.412C1292.305,1060.273,1288.249,1068.193,1280.564,1062.265Z" transform="translate(-1144.283 -291.648)" fill="#19a6a2"/>
      <path id="Path_47" data-name="Path 47" d="M1469.231,1062.675c-23.836,5.227-47.618,7.626-71.16-1.428Q1433.656,1061.966,1469.231,1062.675Z" transform="translate(-728.711 -228.027)" fill="#19a6a2"/>
      <path id="Path_48" data-name="Path 48" d="M1335.335,1135.3c12.749-10.21,25.806-5.484,38.858-.8,1.459.845,1.942,1.68,1.455,2.516s-.972,1.252-1.469,1.252Q1354.758,1136.786,1335.335,1135.3Z" transform="translate(-949.405 11.11)" fill="#19a6a2"/>
      <path id="Path_49" data-name="Path 49" d="M1276.524,1130.7q-2.439.176-4.879.343a58.08,58.08,0,0,1-2.883-6.067c-2.326-6.754-8.173-14.805-.23-20.059,5.683-3.759,11.706-1.509,7.694,7.991-1.089,2.571-.542,5.9-.47,8.869S1276.254,1127.732,1276.524,1130.7Z" transform="translate(-1198.583 -80.461)" fill="#19a6a2"/>
      <path id="Path_50" data-name="Path 50" d="M1280.076,1050.9q8.606-2.256,17.217-4.509c-.244,1.437.01,3.32-.812,4.238-4.473,5,4.49,16.02-5.187,16.585C1283.5,1067.666,1281.183,1058.314,1280.076,1050.9Z" transform="translate(-1143.796 -280.283)" fill="#19a6a2"/>
      <path id="Path_51" data-name="Path 51" d="M1347.247,961.4c5.191,15.053,7.287,30-1.473,44.6C1350.6,991.273,1345.616,976.224,1347.247,961.4Z" transform="translate(-912.682 -579.266)" fill="#19a6a2"/>
      <path id="Path_52" data-name="Path 52" d="M1412.227,1057.778a57.3,57.3,0,0,1-.027-44.293C1415.213,1028.249,1414.187,1043.013,1412.227,1057.778Z" transform="translate(-694.625 -396.044)" fill="#19a6a2"/>
      <path id="Path_53" data-name="Path 53" d="M1289.894,1073.832q-.081-20.174-.158-40.34c10.075,14.291,5.927,29.339,2.371,44.351Z" transform="translate(-1109.818 -325.664)" fill="#19a6a2"/>
      <path id="Path_54" data-name="Path 54" d="M1327.06,1086.24c-13.684-1.427-27.983,4.107-41.112-3.628C1299.836,1081.705,1314.212,1075.353,1327.06,1086.24Z" transform="translate(-1123.14 -162.239)" fill="#19a6a2"/>
      <path id="Path_55" data-name="Path 55" d="M1292.13,953.095c-13.449,5.241-26.849,5.711-40.186-.4A120.962,120.962,0,0,1,1292.13,953.095Z" transform="translate(-1242.759 -615.122)" fill="#19a6a2"/>
      <path id="Path_56" data-name="Path 56" d="M1276.953,1022.356c15.952-5.169,12.713,6.433,13.038,14.926C1279.867,1037.351,1284.416,1024.606,1276.953,1022.356Z" transform="translate(-1154.782 -369.338)" fill="#19a6a2"/>
      <path id="Path_57" data-name="Path 57" d="M1396.128,1063.537c11.127,6.483,4.45,16.8,5.475,25.454C1388.465,1082.932,1401.193,1071.325,1396.128,1063.537Z" transform="translate(-737.995 -219.971)" fill="#19a6a2"/>
      <path id="Path_58" data-name="Path 58" d="M1377.278,1077.463c1.892-11.634-4.527-24.247,4.143-35.081C1378.534,1053.9,1387,1066.756,1377.278,1077.463Z" transform="translate(-803.727 -294.39)" fill="#19a6a2"/>
      <path id="Path_59" data-name="Path 59" d="M1328.775,1063.284c10.576-2.218,16.6-.2,19.928,9.343C1340.8,1072.849,1334.332,1071.99,1328.775,1063.284Z" transform="translate(-972.482 -223.743)" fill="#19a6a2"/>
      <path id="Path_60" data-name="Path 60" d="M1295.936,1049.516c11.782-7.63,24.74-2.376,37.122-3.379C1321.547,1056.731,1308.391,1049.268,1295.936,1049.516Z" transform="translate(-1088.004 -284.135)" fill="#19a6a2"/>
      <path id="Path_61" data-name="Path 61" d="M1404.261,1053.329c-9.248,9.682-20.963,3.162-31.435,4.793C1382.105,1048.667,1394.019,1056.491,1404.261,1053.329Z" transform="translate(-817.518 -256.129)" fill="#19a6a2"/>
      <path id="Path_62" data-name="Path 62" d="M1411.916,935.9c-5.277-10.545-5.728-21.049.271-31.494Q1412.052,920.15,1411.916,935.9Z" transform="translate(-694.405 -779.757)" fill="#19a6a2"/>
      <path id="Path_63" data-name="Path 63" d="M1350.631,937.074c-1.591,9.461,7.065,21.207-6.248,28.042C1349.433,956.428,1341.541,944.858,1350.631,937.074Z" transform="translate(-917.575 -664.844)" fill="#19a6a2"/>
      <path id="Path_64" data-name="Path 64" d="M1311.841,921.618c10.445,5.575,3.086,14.294,3.737,21.586a3.092,3.092,0,0,1-1.843.456c-.641-.144-1.174-.791-1.753-1.22Q1311.914,932.032,1311.841,921.618Z" transform="translate(-1032.053 -719.216)" fill="#19a6a2"/>
      <path id="Path_65" data-name="Path 65" d="M1346.207,1085.4c6.994,8.584,2.675,18.559,3.443,27.911C1339.24,1105.152,1344.884,1095.009,1346.207,1085.4Z" transform="translate(-920.71 -143.06)" fill="#19a6a2"/>
      <path id="Path_66" data-name="Path 66" d="M1327.308,1091.715c-.714,3.153,3.234,7.134-1.116,9.452a5.088,5.088,0,0,1-7.17-2.327c-2.259-4.613-.316-8.037,3.754-10.563Q1325.04,1090,1327.308,1091.715Z" transform="translate(-1010.153 -132.94)" fill="#19a6a2"/>
      <path id="Path_67" data-name="Path 67" d="M1386.093,1019.657c-5.859-10.373-5.395-20.8-.285-31.277Q1385.952,1004.014,1386.093,1019.657Z" transform="translate(-785.82 -484.359)" fill="#19a6a2"/>
      <path id="Path_68" data-name="Path 68" d="M1346.174,953.5c5.746,10.323,5.66,20.633-.077,30.929Z" transform="translate(-911.546 -607.061)" fill="#19a6a2"/>
      <path id="Path_69" data-name="Path 69" d="M1335.069,926.537q.157-9.2.317-18.4C1345.614,914.452,1344.091,920.56,1335.069,926.537Z" transform="translate(-950.341 -766.643)" fill="#19a6a2"/>
      <path id="Path_70" data-name="Path 70" d="M1344.944,1076.306c.055-4.13,1.717-7.269,5.58-9.059q5.888.237,11.759.484-4.547,5.212-9.09,10.413Q1349.067,1077.223,1344.944,1076.306Z" transform="translate(-915.602 -206.915)" fill="#19a6a2"/>
      <path id="Path_71" data-name="Path 71" d="M1352.988,926.509c9.541,4.261,3.776,11.557,3.433,17.746a2.983,2.983,0,0,1-1.911.289c-.628-.194-1.107-.876-1.649-1.346Q1352.922,934.849,1352.988,926.509Z" transform="translate(-887.748 -702.01)" fill="#19a6a2"/>
      <path id="Path_72" data-name="Path 72" d="M1336.743,1084.083q-13.939-.055-27.874-.117C1318.2,1074.608,1327.482,1077.441,1336.743,1084.083Z" transform="translate(-1042.511 -169.184)" fill="#19a6a2"/>
      <path id="Path_73" data-name="Path 73" d="M1335.935,937.867c-5.452-7.111-4.811-14.733-1.8-22.5a3.635,3.635,0,0,1,2,.371,7.011,7.011,0,0,1,1.468,1.667Q1336.77,927.634,1335.935,937.867Z" transform="translate(-961.675 -741.375)" fill="#19a6a2"/>
      <path id="Path_74" data-name="Path 74" d="M1361.031,1124.482c6.158,8.75,2.382,18.491,2.783,27.82C1355.389,1143.777,1359.536,1134,1361.031,1124.482Z" transform="translate(-867.261 -5.577)" fill="#19a6a2"/>
      <path id="Path_75" data-name="Path 75" d="M1289.855,953.125c-8.48,8.34-17.054,8.521-25.724.307Q1277,953.283,1289.855,953.125Z" transform="translate(-1199.887 -608.38)" fill="#19a6a2"/>
      <path id="Path_76" data-name="Path 76" d="M1315.955,1047.343c7.206-6.523,15.718-3.1,23.773-3.113C1332.767,1052.624,1324.105,1048.048,1315.955,1047.343Z" transform="translate(-1017.581 -291.006)" fill="#19a6a2"/>
      <path id="Path_77" data-name="Path 77" d="M1334.288,1042.486c5.552,7.147,5.092,14.4.371,21.721C1331.866,1057.011,1332.653,1049.755,1334.288,1042.486Z" transform="translate(-958.288 -294.024)" fill="#19a6a2"/>
      <path id="Path_78" data-name="Path 78" d="M1296.572,935.574c10.07,6.189,7.039,13.82,2.385,21.636Q1297.764,946.394,1296.572,935.574Z" transform="translate(-1085.766 -670.121)" fill="#19a6a2"/>
      <path id="Path_79" data-name="Path 79" d="M1308.5,935.742q-2.928,4.791-5.854,9.591c-4.415-3.018-8.313-6.356-7.69-12.478Z" transform="translate(-1091.699 -679.686)" fill="#19a6a2"/>
      <path id="Path_80" data-name="Path 80" d="M1360.675,1083.931q-9.569,1.789-19.129,3.583C1345.508,1073.377,1352.294,1074.385,1360.675,1083.931Z" transform="translate(-927.555 -173.261)" fill="#19a6a2"/>
      <path id="Path_81" data-name="Path 81" d="M1313.12,1094.919c.954-6.226,9.248-8.476,8.467-15.637C1329.1,1091.264,1328.593,1092.208,1313.12,1094.919Z" transform="translate(-1027.553 -164.583)" fill="#19a6a2"/>
      <path id="Path_82" data-name="Path 82" d="M1312.563,947.132c-6.393,8.923-13.829,6.817-21.518,2.042Q1301.813,948.151,1312.563,947.132Z" transform="translate(-1105.209 -629.462)" fill="#19a6a2"/>
      <path id="Path_83" data-name="Path 83" d="M1284.926,1003.477c6.149,7.233,2.824,15.573,2.742,23.529C1278.882,1020.08,1284.145,1011.519,1284.926,1003.477Z" transform="translate(-1134.736 -431.251)" fill="#19a6a2"/>
      <path id="Path_84" data-name="Path 84" d="M1336.8,1101.646c1.437,8.779-5.335,3.389-8.105,4.243-1.612.5-8.719,2.511-4.612-4.581Z" transform="translate(-993.409 -87.103)" fill="#19a6a2"/>
      <path id="Path_85" data-name="Path 85" d="M1429.053,985.684c-5.227-7.446-2.426-15.659-2.273-23.619C1434.257,969.293,1431.09,977.543,1429.053,985.684Z" transform="translate(-630.836 -576.931)" fill="#19a6a2"/>
      <path id="Path_86" data-name="Path 86" d="M1343.933,1134.8q0-1.884.014-3.768c5.308,2.977,14.118-6.317,17.082,4.879Z" transform="translate(-919.159 14.587)" fill="#19a6a2"/>
      <path id="Path_87" data-name="Path 87" d="M1373.534,1147.069c-9.388-4.87-5.372-10.766-1.279-16.67Q1372.892,1138.734,1373.534,1147.069Z" transform="translate(-835.24 15.238)" fill="#19a6a2"/>
      <path id="Path_88" data-name="Path 88" d="M1374.123,1153.6c-8-5.268-5.787-11.137-1.013-17.159Q1373.613,1145.016,1374.123,1153.6Z" transform="translate(-831.619 36.475)" fill="#19a6a2"/>
      <path id="Path_89" data-name="Path 89" d="M1386.807,1081.113q-15.4-.142-30.8-.294C1366.345,1073.51,1376.619,1072.986,1386.807,1081.113Z" transform="translate(-876.691 -179.023)" fill="#19a6a2"/>
      <path id="Path_90" data-name="Path 90" d="M1369.96,1087.474l40.3.366C1396.774,1093.577,1383.333,1094.07,1369.96,1087.474Z" transform="translate(-827.601 -135.764)" fill="#19a6a2"/>
    </g>
    <g id="Group_74" data-name="Group 74">
      <g id="zKjzR9.tif" transform="translate(282.956 1713.329)">
        <g id="Group_73" data-name="Group 73" transform="translate(362.044 -982.329)">
          <path id="Path_378" data-name="Path 378" d="M376.388-982.329c.145.016.289.038.434.049a12.943,12.943,0,0,1,2.8.523,13.466,13.466,0,0,1,4.642,2.447,13.551,13.551,0,0,1,3.929,5.132,13.552,13.552,0,0,1,.966,3.251,14.632,14.632,0,0,1,.149,3.412,22.835,22.835,0,0,1-.75,4.356,37.258,37.258,0,0,1-2.132,5.833,59.257,59.257,0,0,1-3.519,6.53,80.9,80.9,0,0,1-5.209,7.451c-.427.545-.87,1.079-1.309,1.615a.864.864,0,0,1-1.4,0c-1.387-1.627-2.68-3.327-3.918-5.068a66.7,66.7,0,0,1-5.427-8.962,40.942,40.942,0,0,1-2.373-5.771,25.856,25.856,0,0,1-1.008-4.234c-.094-.662-.135-1.332-.2-2-.006-.056-.017-.112-.025-.168v-1.44c.009-.043.021-.086.026-.129.054-.48.091-.963.164-1.44a12.8,12.8,0,0,1,.959-3.239,13.553,13.553,0,0,1,3.929-5.132,13.464,13.464,0,0,1,4.642-2.447,12.943,12.943,0,0,1,2.8-.523c.145-.01.29-.032.434-.049Zm-.7,38.763c.034-.04.053-.059.068-.08.84-1.1,1.7-2.19,2.515-3.308a69.238,69.238,0,0,0,5.067-8,44.1,44.1,0,0,0,2.878-6.408,23.2,23.2,0,0,0,1.411-6.78,12.409,12.409,0,0,0-.24-2.978,11.731,11.731,0,0,0-1.429-3.674,11.82,11.82,0,0,0-3.632-3.821,11.75,11.75,0,0,0-5.15-1.908,12.319,12.319,0,0,0-2.645-.038,11.359,11.359,0,0,0-2.317.458,11.766,11.766,0,0,0-5.871,4,11.778,11.778,0,0,0-2.586,7.631,19.007,19.007,0,0,0,.514,4.084,31.124,31.124,0,0,0,1.387,4.433,49.028,49.028,0,0,0,3.248,6.634,74.37,74.37,0,0,0,5.833,8.568C375.046-944.359,375.362-943.97,375.685-943.566Z" transform="translate(-362.044 982.329)" fill="#fff"/>
          <path id="Path_379" data-name="Path 379" d="M661.994-656.352a5.975,5.975,0,0,1-5.978,5.973,5.975,5.975,0,0,1-5.967-5.984,5.975,5.975,0,0,1,5.991-5.96A5.976,5.976,0,0,1,661.994-656.352Zm-5.971,4.266a4.256,4.256,0,0,0,4.258-4.266,4.234,4.234,0,0,0-4.26-4.258,4.234,4.234,0,0,0-4.258,4.26A4.256,4.256,0,0,0,656.023-652.086Z" transform="translate(-642.371 670.855)" fill="#fff"/>
        </g>
      </g>
      <circle id="Ellipse_4" data-name="Ellipse 4" cx="5.5" cy="5.5" r="5.5" transform="translate(653 740)" fill="#fff"/>
    </g>
  </g>
</svg>
