<svg xmlns="http://www.w3.org/2000/svg" width="100.844" height="106.361" viewBox="0 0 100.844 106.361">
  <g id="cM6E1V.tif" transform="translate(-433.25 139.559)" opacity="0.99">
    <g id="Group_18" data-name="Group 18" transform="translate(433.25 -139.559)">
      <path id="Path_350" data-name="Path 350" d="M433.431-138.506c.014-.007.034-.011.042-.022a2.788,2.788,0,0,1,2.665-1.032q48.093.036,96.186.019a1.845,1.845,0,0,1,1.763,1.756c0,2.056-.009,4.111.008,6.167a1.115,1.115,0,0,1-.367.873q-20.579,20.561-41.152,41.127a1.408,1.408,0,0,0-.47,1.119c.03,1.465.021,2.932,0,4.4a1.108,1.108,0,0,0,.357.878q5.05,5.023,10.078,10.069c.129.129.309.225.349.439-.164.114-.343.057-.509.058-4.94,0-9.88,0-14.82.014a4.568,4.568,0,0,1-1.851-.694c-.244-.105-.095-.372-.074-.564a18.927,18.927,0,0,1,1.721-5.68c.188-.421.343-.858.534-1.277a.344.344,0,0,0-.168-.531,13.8,13.8,0,0,1-2.661-1.851.567.567,0,0,0-.429-.181,5.448,5.448,0,0,1-3.3-1.062.849.849,0,0,0-.928-.04c-.419.216-.862.385-1.333.592.342.343.656.482,1.024.168a.982.982,0,0,1,1.438.013c.118.1.281.154.405.252a2.911,2.911,0,0,0,2.274.619.784.784,0,0,1,.782.34,8.28,8.28,0,0,0,2.091,1.569c.256.177.33.3.169.6-.379.7-.688,1.438-1.075,2.132a4.71,4.71,0,0,0-.684,2.493,2.956,2.956,0,0,1-.708,1.879c-.221.3-.172.443.1.726a4.892,4.892,0,0,0,3.951,1.379c4.858-.092,9.72-.03,14.58-.041a1.073,1.073,0,0,1,.835.348q14.748,14.762,29.513,29.509a1.012,1.012,0,0,1,.323.795q-.02,3.179,0,6.358a1.163,1.163,0,0,1-.321.8,2.187,2.187,0,0,1-1.9.8q-48.212-.032-96.424,0a1.75,1.75,0,0,1-1.614-.667,2.152,2.152,0,0,0-.352-.316.489.489,0,0,1-.213-.452c-.013-.175-.008-.35-.008-.526q0-10.683-.009-21.365a2.273,2.273,0,0,1,.611-1.637c1.031-1.15,2-2.36,3.033-3.5a3.073,3.073,0,0,1,2.654-1.251,5.51,5.51,0,0,0,3.192-.74,6.592,6.592,0,0,0,2.4-1.9.855.855,0,0,0,.158-.917c-.128-.326-.22-.666-.336-1a.553.553,0,0,1,.328-.778c1.089-.491,2.164-1.011,3.246-1.518a1.491,1.491,0,0,1,.879-.109,9.027,9.027,0,0,0,2.135-.162c.982-.1,1.963-.209,2.944-.327a1.277,1.277,0,0,1,1.087.22.577.577,0,0,0,.457.082c2.222-.173,4.437-.421,6.655-.629.643-.06,1.245-.331,1.911-.382,1.45-.11,2.9-.03,4.345-.071,2.483-.069,4.967-.078,7.451-.118,1.08-.018,2.163-.059,3.244-.073,1.985.08,3.966-.139,5.951-.1.035,0,.062-.015.094-.06a1.3,1.3,0,0,0-1.538-.68A1.776,1.776,0,0,1,482.9-72.3a1.5,1.5,0,0,0-.654-.1,2.111,2.111,0,0,1-1.146-.221,1.466,1.466,0,0,0-.983-.037c-.3.052-.118.308-.146.474-.031.3-.231.323-.45.247a13.017,13.017,0,0,0-3.357-.368c-.365-.028-.724-.109-1.093-.1-.251,0-.436.038-.459.345-.018.237-.2.315-.41.315a8.056,8.056,0,0,1-3.569-.409,17.425,17.425,0,0,0-4.219-1c-1.127-.212-2.255-.421-3.386-.613a1.913,1.913,0,0,1-1.007-.512,3.36,3.36,0,0,0-1.093-.666,25.348,25.348,0,0,0-5.352-1.535c-2.6-.411-5.178-.909-7.763-1.389a4.637,4.637,0,0,0-1.841.129,1.829,1.829,0,0,0-.273.089,29.329,29.329,0,0,1-6.618,1.635,2.509,2.509,0,0,0-.829.2c.088.232.294.32.423.477.072.087.16.175.1.295a.274.274,0,0,1-.289.13c-.333-.028-.667-.051-1-.1-.615-.09-1.234-.14-1.849-.225a2.469,2.469,0,0,0-1.35.413c-.954.427-1.016.4-1.016-.631q0-3.2,0-6.406c0-.244-.065-.515.167-.712.246.1.292.338.351.546a.612.612,0,0,0,.662.484c2.273.083,4.546.19,6.817.308.935.049,1.875.026,2.811.145a13.174,13.174,0,0,0,2.8-.212.894.894,0,0,1,.759.187,5.089,5.089,0,0,0,1.918,1.034c.4.149.81.292,1.2.464a1.091,1.091,0,0,0,1.131-.015.912.912,0,0,1,.744-.026,21.465,21.465,0,0,1,3.484.964,13.259,13.259,0,0,0,2.508.587,2.843,2.843,0,0,1,1.048.44c.785.546,1.611,1.03,2.4,1.568.236.161.479.4.749.4a5.374,5.374,0,0,1,2.11.688,8.686,8.686,0,0,0,2.959.531.856.856,0,0,1-.418-.837c.025-.145-.145-.236-.26-.32-.385-.283-.753-.589-1.132-.88a.7.7,0,0,1-.32-.7,7.734,7.734,0,0,0-.382-3.288c-.257-.937-.485-1.883-.706-2.829-.084-.36-.246-.559-.623-.434a2.3,2.3,0,0,1-2.47-.651A13.881,13.881,0,0,0,460.4-85.3a.639.639,0,0,0-.473-.2,1,1,0,0,1-.95-.431c-.645-.708-1.417-1.282-2.076-1.976a1.507,1.507,0,0,1-.473-.862.835.835,0,0,0-.421-.6,22.9,22.9,0,0,0-4.6-2.422c-.379-.15-.559-.016-.725.291-.665,1.234-1.363,2.45-2.034,3.681a4.628,4.628,0,0,1-.344.573c-.065.087-.135.212-.26.164a.267.267,0,0,1-.124-.291c.052-.506.066-1.016.138-1.521.091-.641.045-.722-.535-.991-.522-.242-.559-.455-.132-.83.538-.473,1.039-.986,1.581-1.456.491-.426.475-.485-.071-.808-.631-.373-1.246-.772-1.874-1.149-.446-.267-.478-.4-.244-.853.225-.44.492-.857.755-1.275a.754.754,0,0,0,0-.844,8.261,8.261,0,0,0-1.828-1.865,9.041,9.041,0,0,0-2.352-1.617,1.6,1.6,0,0,1-.8-.793,10.182,10.182,0,0,0-3.183-3.8,10.082,10.082,0,0,1-1.207-1.085,5.754,5.754,0,0,0-2.552-1.33,10.592,10.592,0,0,1-1.9-.768.825.825,0,0,1-.448-.776c0-2.709,0-5.418.006-8.126,0-.509.072-.561.567-.634.851-.125,1.706-.221,2.557-.341a.883.883,0,0,1,.947.28.979.979,0,0,0,.457.249q5.361,2.171,10.721,4.344c.721.292.825.379.707,1.112-.063.389-.042.793-.1,1.188a2.437,2.437,0,0,0,.288,1.525,1.715,1.715,0,0,1,.03,1.729.69.69,0,0,0,.173.895c.348.371.669.77,1.044,1.116a.712.712,0,0,1,.209.9,2.016,2.016,0,0,0-.037,1.488c.153.519.263,1.054.432,1.566a8.525,8.525,0,0,1,.253,3.732,5.071,5.071,0,0,0,.111,1.472c.034.2.113.226.294.138a6.47,6.47,0,0,1,2.216-.465c1.7-.181,3.261.459,4.881.742.381.067.544.36.655.69a.739.739,0,0,0,.859.62,9.378,9.378,0,0,1,2.47.512.475.475,0,0,1,.345.56c-.046.479.212.7.626.814a1.2,1.2,0,0,1,.991.79A.361.361,0,0,0,465.3-92c.285.032.586.032.762.315a2.284,2.284,0,0,1,.456,1.188,2.693,2.693,0,0,0,.078.806c.057.181.13.325.365.281s.354.109.449.283a3.349,3.349,0,0,1,.717,2.36c-.044.205.078.328.258.4q.595.249,1.2.481a.774.774,0,0,0,.6-.061,2.273,2.273,0,0,1,1.355-.108q2.4.441,4.809.779a5.347,5.347,0,0,1,1.952.846,1.874,1.874,0,0,0,.289.247c.011.014.019.023.019.023.031-.026.026-.038-.019-.038a1.537,1.537,0,0,1-.288-.24,3.917,3.917,0,0,1-.909-.769,1.574,1.574,0,0,0-1-.492,62.024,62.024,0,0,1-6.223-1.006,3.638,3.638,0,0,0-.809-.05.564.564,0,0,1-.628-.47,12.588,12.588,0,0,0-1.808-4.169,2.46,2.46,0,0,0-1.521-1.391,1.817,1.817,0,0,1-.936-.708c-1.377-1.685-.765-1.308-2.845-1.808-.232-.056-.462-.126-.7-.172a1.437,1.437,0,0,1-.945-.594,1.961,1.961,0,0,0-.868-.646,6.705,6.705,0,0,0-3.284-.663c-.76.059-1.529.017-2.293.009a3.578,3.578,0,0,0-1.267.19c-.426.153-.572.059-.53-.4.06-.652.008-1.313.1-1.952a8.076,8.076,0,0,0-.179-2.654,6.652,6.652,0,0,1,.017-3.212.65.65,0,0,0-.3-.781c-.427-.307-.864-.6-1.291-.906a.657.657,0,0,1-.258-.87c.127-.327.25-.656.4-.97a.846.846,0,0,0-.068-.984,2.751,2.751,0,0,1-.559-2.016c.032-.54-.018-1.084.013-1.624a.8.8,0,0,0-.588-.9c-2.355-.931-4.7-1.9-7.046-2.844-.976-.392-1.967-.756-2.914-1.206a4.832,4.832,0,0,0-3.019-.353c-.737.129-1.486.178-2.228.269-.339.041-.481-.042-.48-.424q.015-9.606.01-19.212C433.356-138.307,433.3-138.431,433.431-138.506Z" transform="translate(-433.25 139.559)" fill="#007ea6"/>
      <path id="Path_351" data-name="Path 351" d="M668.968,148.994l.111-.112.276.2c.03.088,0,.124-.093.113A.469.469,0,0,1,668.968,148.994Z" transform="translate(-623.89 -93.721)" fill="#007ea6"/>
      <path id="Path_352" data-name="Path 352" d="M670.5,150.044l.093-.113c.093.046.233.109.144.216S670.569,150.113,670.5,150.044Z" transform="translate(-625.13 -94.57)" fill="#007ea6"/>
      <path id="Path_353" data-name="Path 353" d="M575.406,161.565l-.873-3.262a5.146,5.146,0,0,1,1.98,1.591,5.926,5.926,0,0,0,1.592,1.557c.238.2.571.175.856.27a2.281,2.281,0,0,1,.734.264l-.789.147c-.105.02-.271.009-.256.152.053.507-.282.338-.516.3-.612-.1-1.217-.241-1.831-.322a.686.686,0,0,1-.64-.474C575.613,161.673,575.457,161.679,575.406,161.565Z" transform="translate(-547.514 -101.341)" fill="#007ea6"/>
      <path id="Path_354" data-name="Path 354" d="M483.825,221.252c-.212-.234-.43-.465-.635-.7a.916.916,0,0,0-.624-.39c-.143-.013-.356-.043-.313-.27.038-.2-.026-.436.263-.554.532-.217.572-.21.655.34a3.352,3.352,0,0,0,.494.965c.085.169.181.333.272.5C483.972,221.247,483.921,221.272,483.825,221.252Z" transform="translate(-472.877 -150.593)" fill="#007ea6"/>
      <path id="Path_355" data-name="Path 355" d="M491.667,230.839l.289.421a.5.5,0,0,1-.4-.316C491.591,230.9,491.6,230.844,491.667,230.839Z" transform="translate(-480.41 -160.005)" fill="#007ea6"/>
      <path id="Path_356" data-name="Path 356" d="M615.548,216.033c.223.009.213.155.262.271C615.618,216.331,615.586,216.208,615.548,216.033Z" transform="translate(-580.686 -148.03)" fill="#007ea6"/>
      <path id="Path_357" data-name="Path 357" d="M490.806,229.619l-.106.1-.2-.279.112-.114Z" transform="translate(-479.548 -158.785)" fill="#007ea6"/>
      <path id="Path_358" data-name="Path 358" d="M579.083,175.359c.126.028.238.072.258.224C579.225,175.542,579.052,175.568,579.083,175.359Z" transform="translate(-551.191 -115.135)" fill="#007ea6"/>
    </g>
  </g>
</svg>
