<svg id="Group_83" data-name="Group 83" xmlns="http://www.w3.org/2000/svg" width="50.35" height="21.008" viewBox="0 0 50.35 21.008">
  <path id="Path_334" data-name="Path 334" d="M1159.466,302.721c-.4-.159-.84-.218-1.237-.416a4.268,4.268,0,1,1,6.06-4.405,4.23,4.23,0,0,1-3.594,4.763c-.029,0-.052.038-.078.058h-.144a2.051,2.051,0,0,0-.863,0Z" transform="translate(-1118.04 -281.713)" fill="#fff"/>
  <path id="Path_335" data-name="Path 335" d="M692.259,302.777a6.433,6.433,0,0,1-1.708-.667,4.26,4.26,0,1,1,3.192.58c-.135.029-.289-.027-.406.087h-.144a1.793,1.793,0,0,0-.791,0Z" transform="translate(-684.419 -281.769)" fill="#fff"/>
  <path id="Path_336" data-name="Path 336" d="M1209,411.887a1.122,1.122,0,0,1,.863,0Z" transform="translate(-1167.43 -390.879)" fill="#fff"/>
  <path id="Path_337" data-name="Path 337" d="M742,411.868a.936.936,0,0,1,.791,0Z" transform="translate(-734.016 -390.86)" fill="#fff"/>
  <path id="Path_338" data-name="Path 338" d="M681.338,136.612q-.24-2.591-.508-5.18a1.177,1.177,0,0,0-1.009-1c-.532-.075-1.063-.16-1.593-.245-1.874-.3-3.748-.606-5.622-.9q-3.042-.482-6.087-.951a.7.7,0,0,1-.392-.232q-3.35-3.362-6.7-6.724a1.366,1.366,0,0,0-1.043-.449c-2.709.012-5.417.006-8.126.006q-4.1,0-8.2,0a.808.808,0,0,0-.577.214q-4.471,3.9-8.954,7.777a1.5,1.5,0,0,0-.532.972c-.152,1.04-.317,2.079-.472,3.118-.177,1.182-.356,2.363-.522,3.546a.966.966,0,0,0,.886,1.119c.683.014,1.366,0,2.049.007.168,0,.225-.044.233-.219a6.8,6.8,0,0,1,.161-1.243c.9-3.841,5.477-4.829,8.218-2.839a4.912,4.912,0,0,1,2.005,3.948c.016.31.119.357.4.356q9.168-.013,18.337-.006c1.39,0,2.78,0,4.171,0,.208,0,.29-.034.3-.268a5.744,5.744,0,0,1,.162-1.206c.992-4.094,6.135-4.852,8.731-2.449a5.064,5.064,0,0,1,1.575,3.652c.011.226.079.277.293.272.611-.014,1.222,0,1.834-.006A.947.947,0,0,0,681.338,136.612ZM649.8,129.317c-1.846-.012-3.691-.006-5.537-.006q-2.733,0-5.465,0c-.172,0-.385.066-.492-.123s.043-.368.142-.521a6.953,6.953,0,0,1,.792-1.063c1.333-1.395,2.673-2.784,4-4.181A.948.948,0,0,1,644,123.1q2.894.021,5.789,0c.285,0,.354.074.352.355q-.019,2.769,0,5.538C650.141,129.268,650.06,129.319,649.8,129.317Zm14.178-.361a.682.682,0,0,1-.657.357c-1.869-.005-3.739,0-5.609,0-1.845,0-3.691-.005-5.537.006-.261,0-.34-.05-.338-.328q.022-2.787,0-5.573c0-.249.06-.319.315-.318q3.182.016,6.364,0a.7.7,0,0,1,.548.209q2.385,2.494,4.772,4.987A.563.563,0,0,1,663.978,128.956Z" transform="translate(-630.994 -120.927)" fill="#fff"/>
</svg>
