<svg id="Group_85" data-name="Group 85" xmlns="http://www.w3.org/2000/svg" width="50" height="27.78" viewBox="0 0 50 27.78">
  <path id="Path_333" data-name="Path 333" d="M73.866,184.355c1.468-1.778,2.882-3.6,4.314-5.407l5.215-6.577c.072.043.082.114.109.177q.583,1.415,1.168,2.829c.162.392.161.392-.191.6a9.245,9.245,0,1,0,2.449-1.009c-.247.063-.334.014-.427-.211q-1.8-4.4-3.615-8.794a1.03,1.03,0,0,0-1.126-.761H77.59a1.281,1.281,0,0,0-.52.087.958.958,0,0,0,.368,1.842c1.2.006,2.407,0,3.611,0,.112,0,.226-.031.286.125.259.667.529,1.329.8,1.993.015.1.046.2-.083.243a1.546,1.546,0,0,1-.235.009q-7.825,0-15.65,0l-.745-1.306c.119-.021.2-.039.273-.048l3.437-.374a.737.737,0,0,0,.739-.73.723.723,0,0,0-.806-.679c-.641,0-1.282,0-1.924,0q-2.146,0-4.291,0a.675.675,0,0,0-.735.614,3.139,3.139,0,0,0-.008.5c.044.712.319.971,1.024.947a.294.294,0,0,1,.316.185q.434.8.894,1.594a.288.288,0,0,1,0,.341q-1.406,2.371-2.8,4.753c-.086.147-.146.183-.311.113a9.076,9.076,0,0,0-5.838-.465,9.148,9.148,0,0,0,3.566,17.926,8.968,8.968,0,0,0,7.187-5.545,10.152,10.152,0,0,0,.654-2.38l.089-.059a.56.56,0,0,1,.26-.035c1.772,0,2.991-.02,4.912,0h.1a3.4,3.4,0,0,0,1.705-.508m-9.074.6a6.536,6.536,0,0,1-1.5,3.405,7.115,7.115,0,0,1-6.228,2.68,7.224,7.224,0,0,1-.667-14.326,7.1,7.1,0,0,1,4.035.459c-.118.2-.235.407-.353.609q-1.6,2.719-3.2,5.437a.973.973,0,0,0,.563,1.565.865.865,0,0,0,.322.021q3.342,0,6.684,0c.1,0,.215-.035.31.035v.08m-.15-2.045c-1.743,0-3.486,0-5.286,0l1.588-2.7c.359-.609.723-1.214,1.072-1.828.092-.162.144-.211.31-.069a7.259,7.259,0,0,1,2.514,4.379C64.846,182.885,64.771,182.881,64.609,182.88Zm6.327,0c-1.262,0-2.525-.012-3.787.009-.293,0-.373-.088-.411-.357a8.924,8.924,0,0,0-2.718-5.271c-.247-.24-.518-.455-.785-.673-.1-.078-.14-.129-.061-.26.782-1.318,1.556-2.641,2.348-3.989l5.907,10.541Zm1.577-2.02-5.226-9.327H81.6l-1.579,1.995-4.242,5.348a1.422,1.422,0,0,1-.1.1c-.694.887-1.622,2.164-2.358,3.1m1.892-3.164h0M90.32,190.987a7.231,7.231,0,0,1-4.936-13.3c.2-.119.232-.029.3.126q1.3,3.159,2.6,6.314a.967.967,0,1,0,1.8-.7c-.584-1.436-1.179-2.868-1.769-4.3-.284-.689-.564-1.381-.858-2.066-.073-.171-.041-.229.137-.272a7.282,7.282,0,0,1,8.751,5.668,7.494,7.494,0,0,1,.127,1.381A7.248,7.248,0,0,1,90.32,190.987Z" transform="translate(-48.424 -165.205)" fill="#377288"/>
</svg>
