<svg xmlns="http://www.w3.org/2000/svg" xmlns:xlink="http://www.w3.org/1999/xlink" width="50.4" height="18.949" viewBox="0 0 50.4 18.949">
  <defs>
    <clipPath id="clip-path">
      <rect width="50.4" height="18.949" fill="none"/>
    </clipPath>
  </defs>
  <g id="dot" clip-path="url(#clip-path)">
    <g id="dot-2" data-name="dot">
      <path id="Path_375" data-name="Path 375" d="M178.267,6.046c-1.446,0-2.778-.024-4.114.01-.752.018-1.085-.286-1.066-1.034a19.173,19.173,0,0,1,.045-2.351c.049-.327.5-.84.784-.846,3.062-.061,6.124-.039,9.271-.039.02.378.053.69.053,1V18.939c0,1.224-.041,1.264-1.26,1.271-.848,0-1.7-.041-2.547.014-.909.059-1.193-.319-1.185-1.2.029-3.918.012-7.836.012-11.745Z" transform="translate(-139.165 -1.432)" fill="#377288"/>
      <path id="Path_376" data-name="Path 376" d="M15.021,7.095c-.535-3.548-1.894-4.972-5.341-5.233-2.952-.223-5.932-.09-8.9-.106-.662,0-.784.419-.784.989.016,2.743,0,5.486,0,8.228.016,2.7.037,5.4,0,8.111C0,19.876.227,20.2,1.05,20.2c2.8-.055,5.611,0,8.412-.078,3.166-.08,4.8-1.489,5.427-4.561a24.336,24.336,0,0,0,.131-8.465ZM9.837,14.841a1.431,1.431,0,0,1-1.428,1.244c-1.1.035-2.192,0-3.35,0V5.849a21.3,21.3,0,0,1,3.421.057,1.977,1.977,0,0,1,1.311,1.2A17.439,17.439,0,0,1,9.837,14.841Z" transform="translate(0 -1.392)" fill="#377288"/>
      <path id="Path_377" data-name="Path 377" d="M103.526,6.17c-.46-3.019-1.763-4.614-4.24-4.927a26.791,26.791,0,0,0-6.034-.086c-3,.308-4.432,1.824-4.878,4.829-.217,1.448-.278,2.919-.455,4.9.215,1.446.392,3.4.821,5.29a4.1,4.1,0,0,0,3.656,3.36,34.547,34.547,0,0,0,5.834.2c3.052-.147,4.594-1.581,5.192-4.6a25.87,25.87,0,0,0,.1-8.955Zm-5,7.885c-.143,1.158-.609,1.567-1.763,1.732a5.29,5.29,0,0,1-.682.043c-2.155.039-2.809-.539-2.866-2.725q-.072-2.829.018-5.66c.029-.864.092-1.875,1.111-2.194a4.064,4.064,0,0,1,3.479.2,2.017,2.017,0,0,1,.686,1.322c.17,1.219.206,2.457.3,3.7C98.723,11.661,98.678,12.864,98.531,14.055Z" transform="translate(-70.695 -0.825)" fill="#377288"/>
      <circle id="Ellipse_3" data-name="Ellipse 3" cx="2.564" cy="2.564" r="2.564" transform="translate(45.271 0)" fill="#377288"/>
    </g>
  </g>
</svg>
