<svg xmlns="http://www.w3.org/2000/svg" width="100.658" height="106.249" viewBox="0 0 100.658 106.249">
  <g id="Group_87" data-name="Group 87" transform="translate(330.02 -20.079)">
    <path id="Path_91" data-name="Path 91" d="M-209.091,191.259c.456.081.884.153,1.281.223l.372-6.159Z" transform="translate(-80.748 -101.483)" fill="#377288"/>
    <path id="Path_92" data-name="Path 92" d="M-204.858,202.773l-.139.077-.071.676.05,4.706c.826.173,1.635.332,2.426.485l.127-4.378-2.281-1.655Z" transform="translate(-83.219 -112.146)" fill="#377288"/>
    <path id="Path_93" data-name="Path 93" d="M-204.367,228.743l.021.659,2.422-1.722-.112-2.088Z" transform="translate(-83.649 -126.214)" fill="#377288"/>
    <path id="Path_94" data-name="Path 94" d="M-197.4,193.5l-.113,1.938,0,.133c1.039.17,2.035.343,3.244.59l.077-1.325-.141-3.706Z" transform="translate(-87.855 -105.048)" fill="#377288"/>
    <path id="Path_95" data-name="Path 95" d="M-197.621,204.705l3.1,2.254.1-.324.067-2.348c-1.208-.249-2.2-.419-3.241-.593Z" transform="translate(-87.793 -112.766)" fill="#377288"/>
    <path id="Path_96" data-name="Path 96" d="M-201.791,199.532l.633.1,0-.118.1-1.7-1.959,1.516C-202.581,199.4-202.177,199.471-201.791,199.532Z" transform="translate(-84.479 -109.156)" fill="#377288"/>
    <path id="Path_97" data-name="Path 97" d="M-210.574,247.788l-.9-3.967-1.639,3.677C-212.28,247.608-211.438,247.707-210.574,247.788Z" transform="translate(-78.278 -137.409)" fill="#377288"/>
    <path id="Path_98" data-name="Path 98" d="M-197.975,211.7c.447.086.886.166,1.319.248l1.741-2.351-2.939-2.134Z" transform="translate(-87.575 -115.082)" fill="#377288"/>
    <path id="Path_99" data-name="Path 99" d="M-221.636,217.077l-.051-2.777c-.563-.139-1.132-.277-1.708-.421-.041-.013-.079-.022-.117-.031Z" transform="translate(-71.892 -119.002)" fill="#377288"/>
    <path id="Path_100" data-name="Path 100" d="M-224.957,213.565l-.119.062-.093.23.118,8.472c.819.2,1.649.4,2.5.585l-.094-5.382-2.308-3.964A.009.009,0,0,1-224.957,213.565Z" transform="translate(-70.874 -118.828)" fill="#377288"/>
    <path id="Path_101" data-name="Path 101" d="M-195.633,268.215l-1.225-.305-.073.118.687,1.141Z" transform="translate(-88.216 -152.204)" fill="#377288"/>
    <path id="Path_102" data-name="Path 102" d="M-224.732,237.382l.619,5.527c.759.153,1.526.291,2.307.414l.082-.164-.54-5.2C-223.1,237.774-223.923,237.58-224.732,237.382Z" transform="translate(-71.143 -133.455)" fill="#377288"/>
    <path id="Path_103" data-name="Path 103" d="M-218.038,215.191l.051,3.212,3.159,5.433v-6.288l-.027-1.621Q-216.412,215.581-218.038,215.191Z" transform="translate(-75.254 -119.827)" fill="#377288"/>
    <path id="Path_104" data-name="Path 104" d="M-223.2,211.348c.565.141,1.12.277,1.672.411l.057-1.371-1.788.946Z" transform="translate(-72.049 -116.876)" fill="#377288"/>
    <path id="Path_105" data-name="Path 105" d="M-209.322,202.729l1.339-.706v-.055c-.422-.075-.871-.15-1.356-.237Z" transform="translate(-80.596 -111.56)" fill="#377288"/>
    <path id="Path_106" data-name="Path 106" d="M-201.446,241.382c-.873-.055-1.741-.134-2.6-.224l.967,4.768.125.243-.112.135h0l2.059-2Z" transform="translate(-83.846 -135.774)" fill="#377288"/>
    <path id="Path_107" data-name="Path 107" d="M-202.4,258.186l2.186-.837-.216-.523-.544-.025Z" transform="translate(-84.855 -145.381)" fill="#377288"/>
    <path id="Path_108" data-name="Path 108" d="M-197.318,228.179l.176,3.23.041.263c1.053.065,2.114.1,3.174.123l-.315-5.8Z" transform="translate(-87.979 -126.461)" fill="#377288"/>
    <path id="Path_109" data-name="Path 109" d="M-207.643,240.741l-.093.208,1.9,3.744-.77-3.825C-206.955,240.832-207.3,240.786-207.643,240.741Z" transform="translate(-81.581 -135.518)" fill="#377288"/>
    <path id="Path_110" data-name="Path 110" d="M-202.276,202.931l1.539,1.118.021-.861c-.213-.037-.427-.069-.647-.109C-201.654,203.031-201.957,202.986-202.276,202.931Z" transform="translate(-84.934 -112.297)" fill="#377288"/>
    <path id="Path_111" data-name="Path 111" d="M-197.693,221.952l.121,2.236,3.077-2.188-.078-1.413,0-.068c-.6-.1-1.21-.208-1.826-.318Z" transform="translate(-87.748 -122.904)" fill="#377288"/>
    <path id="Path_112" data-name="Path 112" d="M-191.993,213.592l-.016-.019-1.62,2.192c.528.1,1.051.185,1.57.274Z" transform="translate(-90.244 -118.833)" fill="#377288"/>
    <path id="Path_113" data-name="Path 113" d="M-197.895,221.032l.97-1.311-1.051-.194Z" transform="translate(-87.575 -122.489)" fill="#377288"/>
    <path id="Path_114" data-name="Path 114" d="M-203.8,261.854l1.391-2.213-.2-.475-3.054,1.168-.873.847,2.639.659Z" transform="translate(-82.321 -146.833)" fill="#377288"/>
    <path id="Path_115" data-name="Path 115" d="M-204.269,233.854l.046,1.346q1.281.138,2.58.222l-.026-.181-.171-3.113Z" transform="translate(-83.71 -130.228)" fill="#377288"/>
    <path id="Path_116" data-name="Path 116" d="M-193.552,241.891q-1.531-.025-3.046-.119l.4,2.683Z" transform="translate(-88.421 -136.151)" fill="#377288"/>
    <path id="Path_117" data-name="Path 117" d="M-225.176,203.818l2.577-1.858.122-2.789c-.806-.163-1.684-.343-2.656-.545Z" transform="translate(-70.87 -109.653)" fill="#377288"/>
    <path id="Path_118" data-name="Path 118" d="M-204.907,218.142l.19,5.51,2.324-3.141-.106-1.887C-203.284,218.47-204.091,218.308-204.907,218.142Z" transform="translate(-83.318 -121.639)" fill="#377288"/>
    <path id="Path_119" data-name="Path 119" d="M-205.954,246.929l-.048-.243-2.276-4.491-.085.191,1.012,4.43C-206.89,246.859-206.426,246.9-205.954,246.929Z" transform="translate(-81.195 -136.411)" fill="#377288"/>
    <path id="Path_120" data-name="Path 120" d="M-241.356,206.282l-.419.519c.128.038.257.076.391.119Z" transform="translate(-60.676 -114.355)" fill="#377288"/>
    <path id="Path_121" data-name="Path 121" d="M-246.953,193.359l2.527,2.1.09-2c-.943-.286-1.807-.57-2.609-.86Z" transform="translate(-57.496 -105.951)" fill="#377288"/>
    <path id="Path_122" data-name="Path 122" d="M-247.072,199.685c.558.186,1.126.368,1.7.55l.791-.964.06-1.417-2.512-2.087Z" transform="translate(-57.423 -107.897)" fill="#377288"/>
    <path id="Path_123" data-name="Path 123" d="M-250.622,233.688l-.265-4.305c-1.007-.345-1.977-.7-2.919-1.065l.17,1.972Z" transform="translate(-53.287 -127.888)" fill="#377288"/>
    <path id="Path_124" data-name="Path 124" d="M-232.818,197.1l-.193,3.389,2.74,2.274.044-5.241c-.913-.2-1.768-.4-2.578-.6Z" transform="translate(-66.058 -108.609)" fill="#377288"/>
    <path id="Path_125" data-name="Path 125" d="M-250.2,238.878l-.038-.614-2.994-3.383.243,2.823Q-251.6,238.338-250.2,238.878Z" transform="translate(-53.64 -131.919)" fill="#377288"/>
    <path id="Path_126" data-name="Path 126" d="M-238.159,178.651l-.833.489-.43,5.421c.759.221,1.568.447,2.442.668l.556-5.746Z" transform="translate(-62.12 -97.386)" fill="#377288"/>
    <path id="Path_127" data-name="Path 127" d="M-246.921,184.437l-.005.214c.812.294,1.684.583,2.634.871l.412-5.181-2.853,1.673Z" transform="translate(-57.512 -98.424)" fill="#377288"/>
    <path id="Path_128" data-name="Path 128" d="M-244.005,260.059l-.377-1.529-1.922,1.117Z" transform="translate(-57.894 -146.442)" fill="#377288"/>
    <path id="Path_129" data-name="Path 129" d="M-205.18,267.539l-2.825-.355,1.506,2.464Z" transform="translate(-81.415 -151.757)" fill="#377288"/>
    <path id="Path_130" data-name="Path 130" d="M-242.075,242.906l.04.162c.488.171.975.336,1.469.5l-.324-2.8-1.6,1.9.278.316Z" transform="translate(-60.235 -135.534)" fill="#377288"/>
    <path id="Path_131" data-name="Path 131" d="M-216.976,273.544l2.106-.009-1.35-2.287-1.641,1.594.276.623Z" transform="translate(-75.362 -154.253)" fill="#377288"/>
    <path id="Path_132" data-name="Path 132" d="M-200.973,272.588l1.1-1.715-.681-1.133-1.674,2.669.115.185Z" transform="translate(-84.965 -153.328)" fill="#377288"/>
    <path id="Path_133" data-name="Path 133" d="M-231.78,221.762l.09,1.188.035.266c.742.2,1.493.4,2.26.594l-.109-7.72Z" transform="translate(-66.814 -120.379)" fill="#377288"/>
    <path id="Path_134" data-name="Path 134" d="M-219,264.74l-1.233-2.086h0l-.976,2.008.69,1.554Z" transform="translate(-73.307 -148.975)" fill="#377288"/>
    <path id="Path_135" data-name="Path 135" d="M-240.094,205.06c.774.237,1.561.468,2.368.7l.072-1.248-1.676-1.389-.713.876Z" transform="translate(-61.708 -112.414)" fill="#377288"/>
    <path id="Path_136" data-name="Path 136" d="M-230.422,212.367l-.008-.351-.012-.012c-.962-.248-1.9-.505-2.823-.762l.522,6.908Z" transform="translate(-65.902 -117.401)" fill="#377288"/>
    <path id="Path_137" data-name="Path 137" d="M-233.114,233.017c.113.03.228.061.34.095l-.014-.109-.052-.666Z" transform="translate(-65.995 -130.356)" fill="#377288"/>
    <path id="Path_138" data-name="Path 138" d="M-234.748,240.882l-.795-5.666c-.186-.051-.374-.1-.561-.156l-1.619,1.925.363,3.158Q-236.072,240.542-234.748,240.882Z" transform="translate(-63.164 -132.029)" fill="#377288"/>
    <path id="Path_139" data-name="Path 139" d="M-233.244,196.779l0-.042a.122.122,0,0,1-.023,0Z" transform="translate(-65.902 -108.49)" fill="#377288"/>
    <path id="Path_140" data-name="Path 140" d="M-207.1,237.109l-1.33.949c.452.061.911.12,1.37.17Z" transform="translate(-81.153 -133.287)" fill="#377288"/>
    <path id="Path_141" data-name="Path 141" d="M-243.813,217.661l-.007-.064-.553-8.906c-.223-.066-.444-.137-.666-.2l-1.6,1.969.4,6.412C-245.455,217.144-244.641,217.406-243.813,217.661Z" transform="translate(-57.689 -115.71)" fill="#377288"/>
    <path id="Path_142" data-name="Path 142" d="M-246.922,209.065l1.3-1.588c-.482-.156-.955-.309-1.423-.463Z" transform="translate(-57.437 -114.805)" fill="#377288"/>
    <path id="Path_143" data-name="Path 143" d="M-233.232,208.41c.679.191,1.374.384,2.076.567l-2.015-1.671Z" transform="translate(-65.922 -114.984)" fill="#377288"/>
    <path id="Path_144" data-name="Path 144" d="M-231.291,235.685l.791,5.638-.03.008q1.038.258,2.1.479l-.62-5.543Q-230.2,235.983-231.291,235.685Z" transform="translate(-67.114 -132.413)" fill="#377288"/>
    <path id="Path_145" data-name="Path 145" d="M-239.5,218.212c.606.186,1.221.366,1.843.544l.5-1.236-.575-7.573v-.022c-.794-.224-1.575-.453-2.336-.685l.547,8.762Z" transform="translate(-61.721 -116.172)" fill="#377288"/>
    <path id="Path_146" data-name="Path 146" d="M-236.907,234.07c-.523-.148-1.041-.3-1.55-.461l.234,2.031Z" transform="translate(-62.713 -131.138)" fill="#377288"/>
    <path id="Path_147" data-name="Path 147" d="M-239.9,202.586l.435-.535-.4-.332Z" transform="translate(-61.827 -111.553)" fill="#377288"/>
    <path id="Path_148" data-name="Path 148" d="M-236.053,200.391l.177-3.213,0-.043-1.656,2.032Z" transform="translate(-63.285 -108.737)" fill="#377288"/>
    <path id="Path_149" data-name="Path 149" d="M-239.743,197.161l.6.5,1.661-2.039c-.766-.195-1.489-.395-2.167-.6Z" transform="translate(-61.924 -107.442)" fill="#377288"/>
    <path id="Path_150" data-name="Path 150" d="M-220.942,208.47l-1.506,1.088,1.494-.791Z" transform="translate(-72.545 -115.699)" fill="#377288"/>
    <path id="Path_151" data-name="Path 151" d="M-168.988,203.932c1.047.3,2.045.6,2.987.916l-2.765-4.177Z" transform="translate(-105.377 -110.91)" fill="#377288"/>
    <path id="Path_152" data-name="Path 152" d="M-166.123,241.006c-.872.079-1.758.152-2.654.211l.246,1.2Z" transform="translate(-105.507 -135.681)" fill="#377288"/>
    <path id="Path_153" data-name="Path 153" d="M-169,215.059q1.646.174,3.176.294l0-4.175c-1-.332-2.058-.664-3.174-.979v3.148l.055.01-.055.552Z" transform="translate(-105.371 -116.761)" fill="#377288"/>
    <path id="Path_154" data-name="Path 154" d="M-165.5,229.87l-.3-5.718c-1.023-.077-2.088-.177-3.192-.292l.06,6.418c1.164-.077,2.318-.175,3.448-.285Z" transform="translate(-105.374 -125.15)" fill="#377288"/>
    <path id="Path_155" data-name="Path 155" d="M-173,229.544l-.059.938q.685-.035,1.365-.077l-.058-6.369-.556,1.42-.253,1.656Z" transform="translate(-102.877 -125.258)" fill="#377288"/>
    <path id="Path_156" data-name="Path 156" d="M-170.867,209.739c-.2-.058-.416-.113-.624-.17l-.121,3.206.745.137Z" transform="translate(-103.766 -116.374)" fill="#377288"/>
    <path id="Path_157" data-name="Path 157" d="M-173.5,243.986l1.827-1.067-.269-1.32q-.7.045-1.412.081Z" transform="translate(-102.604 -136.045)" fill="#377288"/>
    <path id="Path_158" data-name="Path 158" d="M-188.365,229.758h.083l.667-.647,0-.141,1.261-1.333.5-2.637-.053-1.107-.507-1.219-1.5.973-.063-.38-.717.509Z" transform="translate(-93.275 -124.422)" fill="#377288"/>
    <path id="Path_159" data-name="Path 159" d="M-173.173,185.169c-.964-.174-1.983-.348-3.113-.537l-.07.99,2.858,4.32Z" transform="translate(-100.852 -101.059)" fill="#377288"/>
    <path id="Path_160" data-name="Path 160" d="M-158.892,196.247l.429-8.118q-.672-.168-1.321-.316l-.3,9.124Z" transform="translate(-110.847 -103.013)" fill="#377288"/>
    <path id="Path_161" data-name="Path 161" d="M-165.4,195.647l.292-8.915c-.949-.218-1.885-.405-2.871-.585l-.346,5.086Z" transform="translate(-105.785 -101.989)" fill="#377288"/>
    <path id="Path_162" data-name="Path 162" d="M-160.089,217.073c.3.023.606.045.9.063v0l.2-3.784c-.36-.129-.728-.255-1.109-.383Z" transform="translate(-110.84 -118.46)" fill="#377288"/>
    <path id="Path_163" data-name="Path 163" d="M-159.724,230.466c.294-.028.582-.059.872-.09l-.284-5.634-.9-.064.295,5.634Z" transform="translate(-110.872 -125.653)" fill="#377288"/>
    <path id="Path_164" data-name="Path 164" d="M-158.442,210.841l-.866.5c.279.1.556.193.828.289Z" transform="translate(-111.322 -117.155)" fill="#377288"/>
    <path id="Path_165" data-name="Path 165" d="M-153.168,207.367l-1.215.706-.094,1.8q.636.239,1.227.474Z" transform="translate(-114.289 -115.021)" fill="#377288"/>
    <path id="Path_166" data-name="Path 166" d="M-141.589,220.4l-.029,1.527c1.038,0,2.013-.013,2.92-.046C-139.293,221.551-140.269,221.029-141.589,220.4Z" transform="translate(-122.186 -123.029)" fill="#377288"/>
    <path id="Path_167" data-name="Path 167" d="M-150.855,230.425c1.242-.159,2.446-.33,3.6-.512l-.277-4.619c-1.043-.009-2.15-.029-3.321-.079Z" transform="translate(-116.514 -125.983)" fill="#377288"/>
    <path id="Path_168" data-name="Path 168" d="M-310.6,174.152c.25.187.508.382.774.575l.036-.568C-310.146,174.149-310.414,174.149-310.6,174.152Z" transform="translate(-18.41 -94.622)" fill="#377288"/>
    <path id="Path_169" data-name="Path 169" d="M-131.9,207.159c1.367-.059,2.574-.154,3.62-.264l-.008-.195.255-7.246-2.312-2.312c-.438-.227-.89-.45-1.376-.664Z" transform="translate(-128.156 -108.335)" fill="#377288"/>
    <path id="Path_170" data-name="Path 170" d="M-121.845,212.008c1.675-.184,2.918-.4,3.734-.566l.106-2.993-3.6-3.6-.247,6.987Z" transform="translate(-134.324 -113.474)" fill="#377288"/>
    <path id="Path_171" data-name="Path 171" d="M-229.951,125.961l.024-.008-.025-.305C-229.957,125.747-229.952,125.854-229.951,125.961Z" transform="translate(-67.935 -64.834)" fill="#377288"/>
    <path id="Path_172" data-name="Path 172" d="M-150.777,216.441l-.078,2.9v.079c1.164.049,2.265.07,3.3.078l.036-1.646C-148.45,217.415-149.538,216.937-150.777,216.441Z" transform="translate(-116.514 -120.594)" fill="#377288"/>
    <path id="Path_173" data-name="Path 173" d="M-152.792,189.6c-.34-.1-.672-.187-.992-.273l-.38,7.217,1.2-.7Z" transform="translate(-114.481 -103.944)" fill="#377288"/>
    <path id="Path_174" data-name="Path 174" d="M-153.668,218.412l.082-2.992c-.4-.159-.81-.316-1.237-.475l-.184,3.47v0c.455.026.9.051,1.339.069Z" transform="translate(-113.964 -119.675)" fill="#377288"/>
    <path id="Path_175" data-name="Path 175" d="M-209.361,271.2l.5-.794-1.8-2.942-.592.575,1.8,3.045-.081.12Z" transform="translate(-79.424 -151.932)" fill="#377288"/>
    <path id="Path_176" data-name="Path 176" d="M-147.367,208.569l.128-6.547-3.29,1.91-.089,3.235C-149.385,207.661-148.3,208.137-147.367,208.569Z" transform="translate(-116.659 -111.739)" fill="#377288"/>
    <path id="Path_177" data-name="Path 177" d="M-147.008,191.187c-1.17-.369-2.216-.684-3.18-.958l-.168,6.012,3.284-1.907Z" transform="translate(-116.82 -104.496)" fill="#377288"/>
    <path id="Path_178" data-name="Path 178" d="M-146.45,240.854l-.635-2.414c-1.141.18-2.334.35-3.567.51l.235.891Z" transform="translate(-116.638 -134.105)" fill="#377288"/>
    <path id="Path_179" data-name="Path 179" d="M-138.082,225.245q-1.515.069-3.286.069h-.194l.271,4.576c1.185-.186,2.314-.381,3.375-.576Z" transform="translate(-122.221 -126.001)" fill="#377288"/>
    <path id="Path_180" data-name="Path 180" d="M-217.735,202.7l2.783-2.008c-.787-.146-1.67-.311-2.676-.515Z" transform="translate(-75.44 -110.608)" fill="#377288"/>
    <path id="Path_181" data-name="Path 181" d="M-194.9,256.963c-.249-.008-.5-.015-.745-.024l.118.288.607-.232Z" transform="translate(-89.006 -145.466)" fill="#377288"/>
    <path id="Path_182" data-name="Path 182" d="M-215.01,239.51c-.867-.135-1.723-.289-2.569-.472l.487,4.657Z" transform="translate(-75.536 -134.472)" fill="#377288"/>
    <path id="Path_183" data-name="Path 183" d="M-194.9,248.905l.017.115h1.314l1.447-2.307-.064-.439Z" transform="translate(-89.465 -138.916)" fill="#377288"/>
    <path id="Path_184" data-name="Path 184" d="M-194.837,258.527l-.11.036.031.083Z" transform="translate(-89.435 -146.441)" fill="#377288"/>
    <path id="Path_185" data-name="Path 185" d="M-188.918,221.151l.066,1.242.671-.476-.115-.685c-.207-.033-.412-.065-.622-.1Z" transform="translate(-93.137 -123.475)" fill="#377288"/>
    <path id="Path_186" data-name="Path 186" d="M-236.676,258.867l1.275,1.892,3.808.69.681-1.37Z" transform="translate(-63.807 -146.65)" fill="#377288"/>
    <path id="Path_187" data-name="Path 187" d="M-186.78,244.488l-.474.459.047.319.424-.676Z" transform="translate(-94.16 -137.819)" fill="#377288"/>
    <path id="Path_188" data-name="Path 188" d="M-207.421,217.884l-.3-.062-.811,7.775,1.314-1.776Z" transform="translate(-81.092 -121.442)" fill="#377288"/>
    <path id="Path_189" data-name="Path 189" d="M-208.259,217.428l-.729-.161v2.883l.057,3.689Z" transform="translate(-80.812 -121.101)" fill="#377288"/>
    <path id="Path_190" data-name="Path 190" d="M-206.086,211.242l-.225,2.133c.081.019.164.035.247.052Z" transform="translate(-82.456 -117.401)" fill="#377288"/>
    <path id="Path_191" data-name="Path 191" d="M-188.834,214.553l-.06,2.129c.184.03.36.057.542.087l-.123-.737.063-.884Z" transform="translate(-93.152 -119.435)" fill="#377288"/>
    <path id="Path_192" data-name="Path 192" d="M-214.72,230.558l-3.143-5.412.084,4.939c1,.218,2.023.4,3.059.556Z" transform="translate(-75.361 -125.94)" fill="#377288"/>
    <path id="Path_193" data-name="Path 193" d="M-209.28,204.306l.016,1.068.093,3.087c.261.057.517.109.774.164l.461-4.4-.008-.629Z" transform="translate(-80.632 -112.707)" fill="#377288"/>
    <path id="Path_194" data-name="Path 194" d="M-211.365,255.81q-2.077-.159-4.039-.425l-.869,1.949,1.214,2.059Z" transform="translate(-76.338 -144.511)" fill="#377288"/>
    <path id="Path_195" data-name="Path 195" d="M-187.839,253.366l-.149-1.018-.634,1.01C-188.361,253.36-188.1,253.365-187.839,253.366Z" transform="translate(-93.32 -142.646)" fill="#377288"/>
    <path id="Path_196" data-name="Path 196" d="M-251.3,187.334l.174-2.23-2.5,1.463c.727.3,1.491.611,2.322.913Z" transform="translate(-53.4 -101.349)" fill="#377288"/>
    <path id="Path_197" data-name="Path 197" d="M-244.351,245.013l.043-.049-.423-.476.022.393Z" transform="translate(-58.861 -137.819)" fill="#377288"/>
    <path id="Path_198" data-name="Path 198" d="M-249.9,191.483c-.5-.181-.981-.367-1.438-.545l1.43,1.187Z" transform="translate(-54.802 -104.932)" fill="#377288"/>
    <path id="Path_199" data-name="Path 199" d="M-251.486,195.959l-.077.169c.066.02.129.042.192.063l.042-4.043-2.317-1.925Z" transform="translate(-53.385 -104.493)" fill="#377288"/>
    <path id="Path_200" data-name="Path 200" d="M-230.083,268.642l1.9,2.816.528.07.789-.766-.744-1.672Z" transform="translate(-67.856 -152.653)" fill="#377288"/>
    <path id="Path_201" data-name="Path 201" d="M-232,251.3a53.168,53.168,0,0,1-8.714-2.173l.462,1.871,7.606,1.6Z" transform="translate(-61.327 -140.671)" fill="#377288"/>
    <path id="Path_202" data-name="Path 202" d="M-242.813,234.516l-.274-2.4q-1.259-.386-2.455-.8l.278,4.534.676.761Z" transform="translate(-58.362 -129.733)" fill="#377288"/>
    <path id="Path_203" data-name="Path 203" d="M-206.308,234.712l-.779,1.052.8-.564Z" transform="translate(-81.979 -131.815)" fill="#377288"/>
    <path id="Path_204" data-name="Path 204" d="M-217.822,204.89l2.988-1.583-.025-.9-2.949,2.128Z" transform="translate(-75.386 -111.978)" fill="#377288"/>
    <path id="Path_205" data-name="Path 205" d="M-251,220.386l-.375-6.022-2.574,3.161.027,1.79C-252.982,219.681-252.012,220.038-251,220.386Z" transform="translate(-53.197 -119.319)" fill="#377288"/>
    <path id="Path_206" data-name="Path 206" d="M-218.045,209.035c1.081.257,2.144.5,3.18.732l-.025-1.654-.066-2.273-3.019,1.6Z" transform="translate(-75.249 -114.084)" fill="#377288"/>
    <path id="Path_207" data-name="Path 207" d="M-254.2,204.629l.064,4.493,1.789-3.93q-.945-.32-1.854-.648Z" transform="translate(-53.042 -113.288)" fill="#377288"/>
    <path id="Path_208" data-name="Path 208" d="M-254.2,195.7c.658.236,1.327.472,2.019.7l.046-.1-2.064-5.48Z" transform="translate(-53.042 -104.863)" fill="#377288"/>
    <path id="Path_209" data-name="Path 209" d="M-251.447,209.03l-.152-2.441c-.118-.044-.238-.082-.355-.123l-2.062,4.524.017,1.171Z" transform="translate(-53.158 -114.468)" fill="#377288"/>
    <path id="Path_210" data-name="Path 210" d="M-267.932,222.211q-1.6-.709-3.061-1.438l.251,3.575,2.58,2.542c.014.011.026.016.038.025l.594-1.22Z" transform="translate(-42.732 -123.255)" fill="#377288"/>
    <path id="Path_211" data-name="Path 211" d="M-255.884,223.381l-.794.972.009.076c.264.11.533.215.8.319Z" transform="translate(-51.523 -124.856)" fill="#377288"/>
    <path id="Path_212" data-name="Path 212" d="M-255.751,227.552c-.263-.1-.519-.206-.776-.31l.13,1.153.8.9Z" transform="translate(-51.616 -127.228)" fill="#377288"/>
    <path id="Path_213" data-name="Path 213" d="M-250.884,245.067q-1.922-.729-3.82-1.621l.729,6.48.212.038,3.729-2.162Z" transform="translate(-52.736 -137.179)" fill="#377288"/>
    <path id="Path_214" data-name="Path 214" d="M-255.24,232.618l-.781-.882.406,3.607c.212.1.424.206.637.3Z" transform="translate(-51.927 -129.988)" fill="#377288"/>
    <path id="Path_215" data-name="Path 215" d="M-260.44,229.263l0-.028-.856,1.757.2,1.7c.371.2.741.382,1.111.568l-.45-4Z" transform="translate(-48.686 -128.452)" fill="#377288"/>
    <path id="Path_216" data-name="Path 216" d="M-257.18,204.189V204c-.171-.058-.336-.121-.507-.185l-.928,8.29c.051.024.107.045.163.065l.012,0,1.335-2.933Z" transform="translate(-50.334 -112.841)" fill="#377288"/>
    <path id="Path_217" data-name="Path 217" d="M-256.227,219.643l-.976,2.143.99-1.214Z" transform="translate(-51.201 -122.56)" fill="#377288"/>
    <path id="Path_218" data-name="Path 218" d="M-228.923,286.707h2.058l-.7-3.432Z" transform="translate(-68.569 -161.64)" fill="#377288"/>
    <path id="Path_219" data-name="Path 219" d="M-261.208,226.013l.042-.052-.306-.766c-.293-.123-.581-.246-.867-.37l.341,2.912.818-1.688Z" transform="translate(-48.047 -125.743)" fill="#377288"/>
    <path id="Path_220" data-name="Path 220" d="M-221.38,280.7l-1.711-.225.728,3.6,1.239-2.8Z" transform="translate(-72.15 -159.922)" fill="#377288"/>
    <path id="Path_221" data-name="Path 221" d="M-233.313,279.143l.942,3.808,1.387-3.506Z" transform="translate(-65.873 -159.102)" fill="#377288"/>
    <path id="Path_222" data-name="Path 222" d="M-240.778,278.152l2.454,3.236-.74-3.008Z" transform="translate(-61.288 -158.494)" fill="#377288"/>
    <path id="Path_223" data-name="Path 223" d="M-218.941,288.554h2.021l-1.013-2.272Z" transform="translate(-69.699 -163.487)" fill="#377288"/>
    <path id="Path_224" data-name="Path 224" d="M-304.951,198.159c-.864-.7-1.647-1.378-2.36-2.03-.179-.162-.352-.322-.519-.484l.225,2.766,2.688.294Z" transform="translate(-20.109 -107.822)" fill="#377288"/>
    <path id="Path_225" data-name="Path 225" d="M-246.286,265.7l-4.429-.8,2.29,3.08.155.209,2.685.35Z" transform="translate(-55.185 -150.354)" fill="#377288"/>
    <path id="Path_226" data-name="Path 226" d="M-291.957,209.98l.35,2.985c.957.789,1.9,1.532,2.784,2.212l-.324-2.423Z" transform="translate(-29.857 -116.626)" fill="#377288"/>
    <path id="Path_227" data-name="Path 227" d="M-298.551,204.827l-.967-.108.144,2.336c.943.844,1.893,1.658,2.827,2.434l-.356-3.038Z" transform="translate(-25.213 -113.395)" fill="#377288"/>
    <path id="Path_228" data-name="Path 228" d="M-283.32,178.323l-.192,2.771,2.254,1.986.3-4.051c-.465-.157-.95-.309-1.465-.455C-282.723,178.484-283.023,178.4-283.32,178.323Z" transform="translate(-35.043 -97.184)" fill="#377288"/>
    <path id="Path_229" data-name="Path 229" d="M-283.868,217.952l.311,2.346c.837.635,1.62,1.206,2.335,1.7l-.132-1.562Z" transform="translate(-34.825 -121.522)" fill="#377288"/>
    <path id="Path_230" data-name="Path 230" d="M-306.448,203.969c.821.8,1.676,1.6,2.537,2.376l-.132-2.116Z" transform="translate(-20.957 -112.935)" fill="#377288"/>
    <path id="Path_231" data-name="Path 231" d="M-297.211,190.467l0-6.121q-1.42-.817-2.67-1.615l.064,7.234c.375.306.77.611,1.18.925Z" transform="translate(-24.987 -99.891)" fill="#377288"/>
    <path id="Path_232" data-name="Path 232" d="M-299.645,202.737l.023.353.5.053C-299.306,203.008-299.475,202.869-299.645,202.737Z" transform="translate(-25.135 -112.178)" fill="#377288"/>
    <path id="Path_233" data-name="Path 233" d="M-270.208,231.968c.452.269.9.538,1.35.794l-1.39-1.366Z" transform="translate(-43.19 -129.779)" fill="#377288"/>
    <path id="Path_234" data-name="Path 234" d="M-274.349,227.342l.1,1.184c.12.08.242.158.359.233l.884.547-.042-.683Z" transform="translate(-40.671 -127.289)" fill="#377288"/>
    <path id="Path_235" data-name="Path 235" d="M-262.88,235.758c.175.1.35.188.524.281l-.127-1.1Z" transform="translate(-47.714 -131.956)" fill="#377288"/>
    <path id="Path_236" data-name="Path 236" d="M-273.769,219.348c-.443-.221-.878-.445-1.3-.671l.233,2.816,1.307,1.289Z" transform="translate(-40.229 -121.967)" fill="#377288"/>
    <path id="Path_237" data-name="Path 237" d="M-273.819,199.314l-1.4,4.48v2.339l.017.2c.432.229.876.457,1.329.688Z" transform="translate(-40.139 -110.076)" fill="#377288"/>
    <path id="Path_238" data-name="Path 238" d="M-279.19,151.053c-.973-.495-1.84-.947-2.537-1.312l-.448,6.426,2.53-1.222.292-3.923Z" transform="translate(-35.864 -79.631)" fill="#377288"/>
    <path id="Path_239" data-name="Path 239" d="M-282.936,169.352q.453.123.919.257c.506.145.984.3,1.448.448l.423-5.673-2.527,1.218Z" transform="translate(-35.397 -88.623)" fill="#377288"/>
    <path id="Path_240" data-name="Path 240" d="M-235.566,267.648l-.613-.111.684,2.773,1.891.251Z" transform="translate(-64.113 -151.974)" fill="#377288"/>
    <path id="Path_241" data-name="Path 241" d="M-110.624,231.788c-.227.063-.568.149-1.016.261l.409,1.705A5.565,5.565,0,0,0-110.624,231.788Z" transform="translate(-140.597 -130.019)" fill="#377288"/>
    <path id="Path_242" data-name="Path 242" d="M-118.126,226.312l.056-3.294c-.819.166-2.053.378-3.7.556l.207,3.531C-120.139,226.8-118.969,226.521-118.126,226.312Z" transform="translate(-134.374 -124.633)" fill="#377288"/>
    <path id="Path_243" data-name="Path 243" d="M-110.771,222.377c-.157.041-.423.108-.805.191l-.052,3.284c.482-.121.84-.218,1.057-.276A12.443,12.443,0,0,0-110.771,222.377Z" transform="translate(-140.605 -124.24)" fill="#377288"/>
    <path id="Path_244" data-name="Path 244" d="M-153.655,242.225l.737,3.655c.427-.079.853-.162,1.27-.247l-.8-3.1Z" transform="translate(-114.794 -136.429)" fill="#377288"/>
    <path id="Path_245" data-name="Path 245" d="M-149.748,243.219l.77,2.971c1.221-.252,2.39-.519,3.5-.8l-.3-1.157Z" transform="translate(-117.193 -137.04)" fill="#377288"/>
    <path id="Path_246" data-name="Path 246" d="M-111.174,216.076c-.065-.21-.133-.416-.2-.617l-.091,2.446c.327-.074.565-.134.714-.17Q-110.92,216.928-111.174,216.076Z" transform="translate(-140.702 -119.991)" fill="#377288"/>
    <path id="Path_247" data-name="Path 247" d="M-138.415,247.067c.616-.159,1.214-.322,1.788-.485l-2.051-.525Z" transform="translate(-123.992 -138.783)" fill="#377288"/>
    <path id="Path_248" data-name="Path 248" d="M-121.051,233.413l.7,3.081a9.643,9.643,0,0,0,2.9-1.586c.085-.1.163-.2.24-.307l-.473-1.964C-118.523,232.841-119.663,233.112-121.051,233.413Z" transform="translate(-134.817 -130.541)" fill="#377288"/>
    <path id="Path_249" data-name="Path 249" d="M-141.092,192.934l-.056,2.908,3.118-1.809c-.924-.379-1.934-.745-3.027-1.089A.078.078,0,0,0-141.092,192.934Z" transform="translate(-122.475 -106.158)" fill="#377288"/>
    <path id="Path_250" data-name="Path 250" d="M-212.567,28.469V21.2l-1.122-1.118h-98.418l-1.118,1.118V125.211l1.118,1.117h98.418l1.122-1.117v-7.272l-21.975-21.972c1.144,3.949.919,7.328-.622,9.06-1.313,1.476-11.888,5.407-24.025,6.322l.03.042-.42.742,0,.036-.848,1.96-.12-.287-6.383,11.226h2.622v1.26h-21.5v-1.26h3.018l-4.708-6.2-3.291-4.432-.98-8.717a69.408,69.408,0,0,1-6.187-3.491c-.347-.218-.738-.481-1.162-.772l-.048.011,0-.042a94.027,94.027,0,0,1-14.051-12.1v-1q.819.9,1.713,1.805l-1.713-3.322v-.656l2,3.872-.206-2.487c-.646-.622-1.242-1.231-1.792-1.823v-.5c.544.591,1.131,1.2,1.774,1.821v-6.5q-.632-.464-1.2-.9l-.57,1.088v-.645l.33-.63c-.115-.09-.22-.175-.33-.264v-.458c.165.132.326.262.5.4l.08-.154,1.274.074.738-12.507c-.035,0-.071-.006-.1-.006a9.38,9.38,0,0,0-2.488.335v-.83c3.113-.806,6.784-.031,10.794,2.343.121.064,12.925,6.91,17.732,8.313.037.014,1.256.443,3.189,1.063l0-.025,1.473.491,0-.022.191.083c.259.081.531.166.808.249.023-.177.033-.377.042-.576a6.594,6.594,0,0,1,.063-.725l-3.022-.894c0,.051.005.1.012.145.279-.029.364.238.689.139.009.356.253,1.029.088,1.21-.38-.082-.209-1.016-.6-1.077-.249-.068-.218,1-.346.673-.036-.328.159-.3.086-.673-.054-.279-.436-.042-.346-.539.063-3.465.161-7.571.176-10.916,0-.7-.217-1.745.256-2.152.007.092.011.184.016.275l.415-.275V62.57a1.314,1.314,0,0,1-.171.583c.091-.531-.2-1.66.171-1.753v-.136l.145-.049c.211-.2.029-1.03.2-1.295a7.717,7.717,0,0,1,1.691.607l.561.2.275,2.626.645.553V77.514a.575.575,0,0,1,.245.394l.044.227-.152.039a.679.679,0,0,1-.49-.073.571.571,0,0,0-.273-.081c0,.05,0,.1.008.144a1.589,1.589,0,0,1-.019.5,114.88,114.88,0,0,0,13.137,3.234l.528.089.13-.666,2.566.876.08.25.318.052.026-.084.068.1.116.019a86.347,86.347,0,0,1,15.027,3.451c1.209.384,2.3.786,3.31,1.208L-254.508,76V70.41Z" transform="translate(-16.795)" fill="#377288"/>
    <path id="Path_251" data-name="Path 251" d="M-141.521,205.211c1.811.853,2.986,1.526,3.45,1.8l.181-10.65-3.494,2.03Z" transform="translate(-122.246 -108.26)" fill="#377288"/>
    <path id="Path_252" data-name="Path 252" d="M-140.043,239.947l2.929.752.477-.144-.71-3.718c-1.057.194-2.183.388-3.363.575Z" transform="translate(-122.744 -133.12)" fill="#377288"/>
    <path id="Path_253" data-name="Path 253" d="M-128.021,228.089l-.209-3.561c-1.05.108-2.258.206-3.633.267l.163,4.03C-130.35,228.573-129.115,228.323-128.021,228.089Z" transform="translate(-128.177 -125.561)" fill="#377288"/>
    <path id="Path_254" data-name="Path 254" d="M-130.615,239.207l-.093.044c1.459-.451,2.737-.9,3.793-1.327l-.705-3.13c-1.1.233-2.339.486-3.7.74Z" transform="translate(-128.51 -131.866)" fill="#377288"/>
    <path id="Path_255" data-name="Path 255" d="M-179.7,184.063l-.042.55.7,2.182.22.225.111-1.591-.9-1.35C-179.637,184.072-179.668,184.07-179.7,184.063Z" transform="translate(-98.773 -100.71)" fill="#377288"/>
    <path id="Path_256" data-name="Path 256" d="M-213.411,291.4h.741l-.293-.484Z" transform="translate(-73.095 -166.332)" fill="#377288"/>
    <path id="Path_257" data-name="Path 257" d="M-193.3,271.486l1.3,2.161,2.215-3.894-2.39-.021Z" transform="translate(-90.448 -153.322)" fill="#377288"/>
    <path id="Path_258" data-name="Path 258" d="M-184.412,258.327l-.745,1.16,1.187,1.736,1.466-2.574-.209-.487Z" transform="translate(-95.447 -146.217)" fill="#377288"/>
    <path id="Path_259" data-name="Path 259" d="M-189.023,264.844l2.328.024L-187.9,263.1Z" transform="translate(-93.073 -149.251)" fill="#377288"/>
    <path id="Path_260" data-name="Path 260" d="M-214.233,281.411l2.338,3.86,2.492-3.884Z" transform="translate(-77.591 -160.48)" fill="#377288"/>
    <path id="Path_261" data-name="Path 261" d="M-204.771,286.589h3.036l1.979-3.479-2.765-.027Z" transform="translate(-83.402 -161.521)" fill="#377288"/>
    <path id="Path_262" data-name="Path 262" d="M-197.583,277.78l2.5.024-1.216-2.025Z" transform="translate(-87.816 -157.036)" fill="#377288"/>
    <path id="Path_263" data-name="Path 263" d="M-153.637,225.072c-.434-.019-.868-.042-1.32-.068l.277,5.452c.352-.04.7-.085,1.043-.127Z" transform="translate(-113.994 -125.853)" fill="#377288"/>
    <path id="Path_264" data-name="Path 264" d="M-167.928,242.719l.652,3.158c1.093-.123,2.171-.265,3.221-.428l-.71-4.578Z" transform="translate(-106.028 -135.598)" fill="#377288"/>
    <path id="Path_265" data-name="Path 265" d="M-159.035,240.843l.7,4.549c.353-.056.7-.113,1.042-.172l-.821-4.142Z" transform="translate(-111.49 -135.581)" fill="#377288"/>
    <path id="Path_266" data-name="Path 266" d="M-153.011,239.851c-.35.042-.7.088-1.055.127l.07.349,1.183.3Z" transform="translate(-114.542 -134.971)" fill="#377288"/>
    <path id="Path_267" data-name="Path 267" d="M-173.794,247.166l-.135,2.148c.908-.064,1.809-.139,2.695-.237l-.623-3.042Z" transform="translate(-102.343 -138.769)" fill="#377288"/>
    <path id="Path_268" data-name="Path 268" d="M-173.976,196.109l.222-3.252-2.864-4.319-.1,1.482,1.723,1.763Z" transform="translate(-100.628 -103.458)" fill="#377288"/>
    <path id="Path_269" data-name="Path 269" d="M-177.788,185.05l.045-.673c-.178-.032-.364-.058-.553-.091Z" transform="translate(-99.662 -100.846)" fill="#377288"/>
    <path id="Path_270" data-name="Path 270" d="M-281.774,217.056l-.121-1.491-.315,1.007-.235-.179.487-1.569v-.042c-.884-.487-1.726-.98-2.525-1.471l.162,1.235Z" transform="translate(-34.446 -118.671)" fill="#377288"/>
    <path id="Path_271" data-name="Path 271" d="M-271.053,206.822c.971.486,1.991.966,3.048,1.435l-.027-2.086-2.965-7.4Z" transform="translate(-42.695 -109.744)" fill="#377288"/>
    <path id="Path_272" data-name="Path 272" d="M-262.76,194.287l.486.19-.335-3.924Z" transform="translate(-47.788 -104.695)" fill="#377288"/>
    <path id="Path_273" data-name="Path 273" d="M-261.5,210.435l-.758-8.916c-.179-.069-.357-.142-.534-.209l.091,6.3,1.119,2.8C-261.552,210.413-261.525,210.426-261.5,210.435Z" transform="translate(-47.77 -111.302)" fill="#377288"/>
    <path id="Path_274" data-name="Path 274" d="M-259.22,202.693c-.5-.187-.99-.372-1.471-.555l.661,7.785Z" transform="translate(-49.059 -111.81)" fill="#377288"/>
    <path id="Path_275" data-name="Path 275" d="M-243.48,171.667l.3-3.764c-.34-.117-.534-.186-.546-.193-.595-.171-1.312-.431-2.113-.745l-.495,6.376Z" transform="translate(-57.876 -90.209)" fill="#377288"/>
    <path id="Path_276" data-name="Path 276" d="M-251.417,171.517l.518-6.645c-.823-.329-1.726-.72-2.668-1.146l-.586,9.4Z" transform="translate(-53.074 -88.22)" fill="#377288"/>
    <path id="Path_277" data-name="Path 277" d="M-258.032,161.288c-.935-.425-1.9-.879-2.873-1.345l-.1,1.808,2.408,8.553Z" transform="translate(-48.868 -85.896)" fill="#377288"/>
    <path id="Path_278" data-name="Path 278" d="M-270.106,167.441c.971.4,1.885.814,2.815,1.239l.429-7.706-.673-2.386c-.021-.007-.042-.019-.064-.027l-2.027.974-.474,7.724Z" transform="translate(-43.277 -85.048)" fill="#377288"/>
    <path id="Path_279" data-name="Path 279" d="M-307.224,184.523c.661.605,1.388,1.235,2.181,1.883l-.059-7.191c-1.039-.663-1.985-1.31-2.849-1.934l0,6.563v0Q-307.6,184.182-307.224,184.523Z" transform="translate(-20.034 -96.544)" fill="#377288"/>
    <path id="Path_280" data-name="Path 280" d="M-262.124,159.274c-.149-.074-.3-.145-.448-.219l.384,1.366Z" transform="translate(-47.903 -85.351)" fill="#377288"/>
    <path id="Path_281" data-name="Path 281" d="M-259.437,187.42c-.895-.385-1.736-.772-2.571-1.156-.013-.008-.027-.011-.044-.02l.486,5.7c.51.2,1.026.392,1.554.585Z" transform="translate(-48.223 -102.05)" fill="#377288"/>
    <path id="Path_282" data-name="Path 282" d="M-237.786,172.884l.386-1.814,1.837.237.062-.883c-1.035-.333-1.874-.612-2.435-.8l-.279,3.513Z" transform="translate(-62.863 -91.841)" fill="#377288"/>
    <path id="Path_283" data-name="Path 283" d="M-262.144,173.885l.154.068c.831.383,1.674.77,2.569,1.156l-2.333-8.269-.391,7.036Z" transform="translate(-48.166 -90.132)" fill="#377288"/>
    <path id="Path_284" data-name="Path 284" d="M-255.631,191.992l-.462,4.157.462.175Z" transform="translate(-51.882 -105.579)" fill="#377288"/>
    <path id="Path_285" data-name="Path 285" d="M-261.789,221.542l-.733-1.833.02,1.525C-262.267,221.338-262.027,221.436-261.789,221.542Z" transform="translate(-47.934 -122.601)" fill="#377288"/>
    <path id="Path_286" data-name="Path 286" d="M-188.171,205.454c-.122-.029-.245-.052-.363-.075l-.042,1.368Z" transform="translate(-93.348 -113.801)" fill="#377288"/>
    <path id="Path_287" data-name="Path 287" d="M-188.694,208.835l.441.621.238-3.348-.661,2.115Z" transform="translate(-93.275 -114.248)" fill="#377288"/>
    <path id="Path_288" data-name="Path 288" d="M-194.13,184.55l-.042-1.107.34-1.747-.43-.074c-.84-.142-1.695-.308-2.558-.482l-.331,5.744Z" transform="translate(-88.081 -98.914)" fill="#377288"/>
    <path id="Path_289" data-name="Path 289" d="M-187.43,257.109c-.272,0-.539,0-.808-.005l.418.611Z" transform="translate(-93.555 -145.567)" fill="#377288"/>
    <path id="Path_290" data-name="Path 290" d="M-186.179,252.589l.183-.107-.326-1.357v-.041l-.085.136.2,1.369Z" transform="translate(-94.68 -141.87)" fill="#377288"/>
    <path id="Path_291" data-name="Path 291" d="M-191.335,258.422l-.757-1.112-1.26,2,.565,1.376Z" transform="translate(-90.415 -145.694)" fill="#377288"/>
    <path id="Path_292" data-name="Path 292" d="M-204.707,188.521l2.456-1.9.349-6.019c-.376-.076-.75-.159-1.128-.242L-205,188.3Z" transform="translate(-83.259 -98.434)" fill="#377288"/>
    <path id="Path_293" data-name="Path 293" d="M-207.543,179.716l.063-1.01c-.5-.12-.987-.242-1.474-.37l-.44,8.023Z" transform="translate(-80.562 -97.192)" fill="#377288"/>
    <path id="Path_294" data-name="Path 294" d="M-219.617,175.224q-.99-.282-1.917-.553l1.819,1.955Z" transform="translate(-73.107 -94.941)" fill="#377288"/>
    <path id="Path_295" data-name="Path 295" d="M-222.369,189.294v-.016l.367-5.272-.255-.52v0l-2.359-.273-.406,5.536C-224.049,188.955-223.17,189.133-222.369,189.294Z" transform="translate(-70.965 -100.187)" fill="#377288"/>
    <path id="Path_296" data-name="Path 296" d="M-203.067,179.842c-.32-.07-.643-.147-.962-.223l-.6,6.5Z" transform="translate(-83.489 -97.98)" fill="#377288"/>
    <path id="Path_297" data-name="Path 297" d="M-217.414,191.431c1,.2,1.882.366,2.671.514l-1.149-2.91-1.189-2.435-.331,4.793Z" transform="translate(-75.637 -102.268)" fill="#377288"/>
    <path id="Path_298" data-name="Path 298" d="M-229.813,187.417l.4-5.506-1.073-.124-1.335-.64-.552,5.682C-231.571,187.028-230.721,187.225-229.813,187.417Z" transform="translate(-66.452 -98.919)" fill="#377288"/>
    <path id="Path_299" data-name="Path 299" d="M-214.013,185.188l.445-8.169c-.9-.232-1.789-.47-2.644-.71l-.233,3.377,1.366,2.794Z" transform="translate(-76.231 -95.947)" fill="#377288"/>
    <path id="Path_300" data-name="Path 300" d="M-268.7,156.109l-.088,1.479,1.555-.752C-267.723,156.591-268.214,156.351-268.7,156.109Z" transform="translate(-44.088 -83.542)" fill="#377288"/>
    <path id="Path_301" data-name="Path 301" d="M-282.065,205.835V199.45l-2.437.718-.155,4.139,0,.01C-283.836,204.823-282.975,205.332-282.065,205.835Z" transform="translate(-34.34 -110.159)" fill="#377288"/>
    <path id="Path_302" data-name="Path 302" d="M-289.344,211.166l-.149-1.109q-1.415-.881-2.665-1.755l.014.1Z" transform="translate(-29.733 -115.596)" fill="#377288"/>
    <path id="Path_303" data-name="Path 303" d="M-292.275,187.3v5.9l2.843-.835.129-3.455C-290.354,188.375-291.344,187.834-292.275,187.3Z" transform="translate(-29.662 -102.701)" fill="#377288"/>
    <path id="Path_304" data-name="Path 304" d="M-289.448,201.514l-2.827.829v1.313q1.255.877,2.682,1.769Z" transform="translate(-29.662 -111.427)" fill="#377288"/>
    <path id="Path_305" data-name="Path 305" d="M-292.275,181.931v.1q1.4.8,2.986,1.619l0-.008.112-1.649-2.906-2.568Z" transform="translate(-29.662 -97.863)" fill="#377288"/>
    <path id="Path_306" data-name="Path 306" d="M-296.175,173.034c.482.082,1,.174,1.533.279l.086-1.131-1.669.807Z" transform="translate(-27.235 -93.413)" fill="#377288"/>
    <path id="Path_307" data-name="Path 307" d="M-293.673,175.9c-.314-.061-.622-.119-.919-.171l.872.769Z" transform="translate(-28.239 -95.589)" fill="#377288"/>
    <path id="Path_308" data-name="Path 308" d="M-298.516,154.163l2.051-.984.777-10.023a18.761,18.761,0,0,0-2.988-1.2l-.71,12.158Z" transform="translate(-25.294 -74.85)" fill="#377288"/>
    <path id="Path_309" data-name="Path 309" d="M-281.793,194.347v-1.4c-.8-.376-1.562-.757-2.3-1.13l-.121,3.239Z" transform="translate(-34.612 -105.472)" fill="#377288"/>
    <path id="Path_310" data-name="Path 310" d="M-194.89,265.438l-.564-1.363-.705,1.124,1.227.306Z" transform="translate(-88.69 -149.848)" fill="#377288"/>
    <path id="Path_311" data-name="Path 311" d="M-304.927,174.454c-1.241-.159-2.238-.228-2.958-.261l-.042.749c.862.628,1.813,1.281,2.856,1.951Z" transform="translate(-20.049 -94.648)" fill="#377288"/>
    <path id="Path_312" data-name="Path 312" d="M-304.067,141.008a12.55,12.55,0,0,0-2.934-.475l-.74,12.513,2.963.176Z" transform="translate(-20.163 -73.976)" fill="#377288"/>
    <path id="Path_313" data-name="Path 313" d="M-291.349,169.413l-.1,1.314c.936.189,1.95.423,3.026.708l.25-3.55Z" transform="translate(-30.168 -90.774)" fill="#377288"/>
    <path id="Path_314" data-name="Path 314" d="M-283.861,188.116l0,.108c.74.378,1.5.757,2.3,1.137l.054-.72-2.25-1.987Z" transform="translate(-34.827 -102.301)" fill="#377288"/>
    <path id="Path_315" data-name="Path 315" d="M-298.491,175.141q-.642-.1-1.219-.183l-.152,2.565q1.248.8,2.666,1.614l.206-2.676Z" transform="translate(-25.001 -95.118)" fill="#377288"/>
    <path id="Path_316" data-name="Path 316" d="M-271.4,154.863c-.393-.2-.773-.392-1.148-.578l-.22,2.923,1.265-.61Z" transform="translate(-41.642 -82.422)" fill="#377288"/>
    <path id="Path_317" data-name="Path 317" d="M-272.821,168.987l.459-7.558-1.266.611-.489,6.562c.443.161.871.328,1.289.493Z" transform="translate(-40.813 -86.809)" fill="#377288"/>
    <path id="Path_318" data-name="Path 318" d="M-273.717,186.865l.268-5.283c-.421-.172-.854-.338-1.3-.5l-.342,4.574Z" transform="translate(-40.214 -98.878)" fill="#377288"/>
    <path id="Path_319" data-name="Path 319" d="M-291.629,176.307l-.056.764,2.906,2.564.182-2.62C-289.677,176.728-290.688,176.5-291.629,176.307Z" transform="translate(-30.024 -95.946)" fill="#377288"/>
    <path id="Path_320" data-name="Path 320" d="M-270.569,182.657l-.257,5.03,2.864-3.884C-268.818,183.408-269.672,183.028-270.569,182.657Z" transform="translate(-42.834 -99.846)" fill="#377288"/>
    <path id="Path_321" data-name="Path 321" d="M-275.215,196.619l.806-.237c-.272-.121-.54-.245-.806-.364Z" transform="translate(-40.139 -108.052)" fill="#377288"/>
    <path id="Path_322" data-name="Path 322" d="M-270.642,190.389l.087.078q1.3.564,2.7,1.121l.213-5.26Z" transform="translate(-42.947 -102.1)" fill="#377288"/>
    <path id="Path_323" data-name="Path 323" d="M-270.336,198.188l2.731,6.821-.085-5.722C-268.6,198.924-269.484,198.557-270.336,198.188Z" transform="translate(-43.135 -109.384)" fill="#377288"/>
    <path id="Path_324" data-name="Path 324" d="M-275.215,194.254v.142c.26.122.521.24.787.358l-.773-.68Z" transform="translate(-40.139 -106.858)" fill="#377288"/>
    <path id="Path_325" data-name="Path 325" d="M-295.632,204.161c.338.246.679.5,1.035.75l0-1.053Z" transform="translate(-27.6 -112.866)" fill="#377288"/>
    <path id="Path_326" data-name="Path 326" d="M-292.908,207.786h0v0Z" transform="translate(-29.272 -115.279)" fill="#377288"/>
    <path id="Path_327" data-name="Path 327" d="M-287.929,153.621l.466-6.688c-.947-.494-1.529-.806-1.556-.823-.445-.261-.888-.5-1.322-.723l-.754,9.763Z" transform="translate(-30.386 -76.956)" fill="#377288"/>
    <path id="Path_328" data-name="Path 328" d="M-275.215,201.841l1.305-4.179-1.305.385Z" transform="translate(-40.139 -109.061)" fill="#377288"/>
    <path id="Path_329" data-name="Path 329" d="M-325.918,163.046l0,.008v0l.013.035.235-.183a.409.409,0,0,0-.044-.114Z" transform="translate(-4 -87.649)" fill="#377288"/>
    <path id="Path_330" data-name="Path 330" d="M-110.908,215l-.968-.968,0,.057.992.992C-110.894,215.057-110.9,215.03-110.908,215Z" transform="translate(-140.451 -119.117)" fill="#377288"/>
    <path id="Path_331" data-name="Path 331" d="M-130.321,195.683l-1.639-1.639-.1-.04,1.619,1.619Z" transform="translate(-128.056 -106.815)" fill="#377288"/>
    <path id="Path_332" data-name="Path 332" d="M-121.617,204.3l-.254-.253,0,.057.254.254Z" transform="translate(-134.313 -112.98)" fill="#377288"/>
  </g>
</svg>
