<svg xmlns="http://www.w3.org/2000/svg" width="561.866" height="855.329" viewBox="0 0 561.866 855.329">
  <g id="Group_54" data-name="Group 54" transform="translate(-192 -3452.862)">
    <g id="Group_6" data-name="Group 6" transform="translate(-1057.911 2576.045)">
      <path id="Path_37" data-name="Path 37" d="M1652.4,1426.344c-9.489,8.2-9.486,1.525-9.223-5.828.149-4.258,7.149-10.228-2.289-12.225-6.592-1.4-12.346-.181-13.772,8.332-.97,5.8-8.123,12,2.641,16.109,3.627,1.382,6.579,4.54,9.841,6.889,6.933-3.877,15.272,1.465,22.06-3.364,7.118-8.313,11.223-.517,14.679,3.567,4.933,5.824,2.5,14.048-2.619,16.566-16.867,8.3-8.072,18.559-3.671,28.645,1.975,4.524,4.7,8.719,7.783,14.321,1.021-6.979,3.208-12.13,9.67-7.968,9.061,5.837,18.363-.913,27.874,1.718,6.115,1.693,2.28-3.944.219-6.448-5.352-5.082,2.771-13.053-3.836-17.862l.279.295c-.973-4.318-1.059-8.316,3.786-10.548l3.817,3c16.572,3.982,33.258,2.162,49.934,1,15.338,1.807,24.859,10.333,29.754,24.872,3.788,11.252-2.01,19.542-13.833,17.837-7.158-1.031-14.175-3.554-21.036-6.018-22.738-8.167-35.623-3.766-48.165,16.584-3.567,5.789-8.626,10.843-11.274,16.981-6.541,15.171-17.13,19.53-32.329,14.346-9.9-6.7-13.154-16.439-11.806-30.3-13.179,16.162-27.219,17.98-42.918,8.642a17.012,17.012,0,0,1-5.165-3.808c-2.7-3.088-4.8-6.693-8-9.356-5-3.491-10.462-2.089-15.839-1.538-.7.082-1.4.124-2.109.19a6.071,6.071,0,0,1-3.849-1.471q-13.007-10.647-26.016-21.3c-2.343-6.332,4.794-4.394,6.376-7.3,1.871-9.337-6.556-10.944-11.458-11.81-9.809-1.734-14.824-7.774-17.786-15.652-4.93-13.126-10.976-25.436-20.1-36.14,1.012-5.1,1.449-10.189-.257-15.243-.637-7.78,9.559-17.634,1.563-22.161-7.72-4.368-14.936,5.65-21.381,11.382-5.684,5.054-11.962,9.441-17.976,14.121-5.342,2.384-11.366-.422-16.679,2.184-13.04-4.023-26.019-7.46-37.417,3.979-8.465,3.189-17.577-.72-26.051,2.368-6.236-2.628-13.208-3.82-18-9.264-1.969-9.3-.178-18.819-1.655-28.143a17.232,17.232,0,0,0-2.413-3.573c-.913-8.734-4.981-13.8-14.112-16.353-5.548-1.554-9.946-7.222-14.86-11.043-3.881-2.767-.865-11.559-9.15-10.475-5.621-1.3-8.161-5.51-6.411-10.32,1.7-4.67,5.225-4.657,11.042-3.4,9.413,2.045,20.462-16.629,16.952-26.47-2.159-5.326.216-11.182-1.921-16.512.849-13.141-5.637-23.952-11.721-34.646-3.221-5.662-8.662-4.226-13.87-1.477-4.686,2.473-9.448,2.362-11.655-3.544-2.26-6.043.9-9.775,6.09-12.552,21.578-11.553,22.409-17.707,6.433-36.91-10.729-12.891-24.621-19.222-40.6-22.091-4.15-.748-8.341-1.3-12.444-2.254-4.074-.945-9.562-2.15-7.983-7.489,1.766-5.951,6.347.805,8.788-.38,4.172-2.023,7.828.494,11.7-.136,7.39-1.208,18.392,5.266,21.378-3.719,2.34-7.042-9.445-9.3-14.606-14.054-9.971-9.175-22.681-10.1-35.334-11.3-4.721-.447-9.863-1.807-11.309-7.124-1.215-4.464,1.934-6.569,6.179-6.988,9.385,2.048,18.791,1.458,28.2.279,3.814.964,7.707,1.747,10.44,4.974,6.062,3.592,12.082,3.849,18.049-.222,10.386-9.7,20.665-16.781,35.046-5.64,4.344,3.364,14.91-10.19,17.6,4.676,8.392-2.438,7.771-12.821,14.638-16.6,5.161.875,10.45,3.082,15.1-1.433,5.618-6.341,2.549-14.343,4.1-21.461,1.031-5.237,3.177-10.6-1.674-15.183l.773-.428-.682.564c-.859-3.608,1.5-5.247,4.112-6.731,17.59-2.254,36.865-1.262,44.3-23.04,2.993-4.892,2.9-9.761-.1-14.612-2.815-16.683-13.778-20.811-29.053-19.961-5.961.33-12.076-2.207-18.122-3.44-1.836-2.336-2-4.619.225-6.819,25.312-.466,50.362-3.656,75.662,5.412,7.3,2.615,21.073-6.344,29.329-14.4,4.889-4.768,9.058-8.9,15.827-3.538,1.6,4.334,2.533,8.655-.226,12.913l-6.176,11.325c-4.223,4.474-2.229,9.454-1.17,14.359-3.658,5.859-7.6,4.058-11.2.13-3.237-3.529-7.437-8.9-11.385-4.79-4.518,4.7-3.751,13.87,1.15,17.266,9.334,6.468,11.776,16.7,17.374,25.094,6.6,9.9,1.328,16.01-8.535,13.81-13.769-3.075-14.283,10.208-21.74,14.587-3.525,2.07-.678,4.87,2.064,7.187,2.679,2.264,4.66,4.524,7.568,1.05,3.052-3.652,6.879-5.954,10.814-8.541,5.837-3.839,11.813-12.454,17.225-2.853,4.86,8.627,14.821,19.8.412,29.77-3.24,4.515-8.307,5.19-13.4,6.271,4.92-.029,9.029-2.464,13.534-3.266,16.157,2.1,21.391,8.189,18.186,21.169-3.792,15.357,4.673,35.036,19.222,44.684,4.118-10.307,2.118-20.814,1.03-31.292l-.01-3.345a45.32,45.32,0,0,0,.054-21.7c3-11.616-8.7-20.747-5.485-32.4,6.341-5.472,1.48-13.436,4.381-19.676,4.036-10.836,21.207-8.11,22.5-21.784,3.069-3.881,2.777-7.786.089-11.712-5.2-12.967-16.109-23.6-15.865-38.79,14.238-11.382,24.111,3.354,35.575,6.7,7.276,2.121,4.182,10.684,3.278,16.835-.526,3.586-1.693,7.432,1.874,10.2a2.741,2.741,0,0,0,4.042-.783c2.422-3.5,1.487-7.3-.326-10.462-4.273-7.447-3.653-16.407-7.945-23.826-6.791-11.743-12.26-13.76-24.324-7.638-5.212,2.644-10.405,4.885-16.182,5.716-7.723,2.356-13.309-.092-16.743-7.425-3.624-7.733-.225-13.531,5.862-17.621,36.413-24.46,65.682-57.692,102.021-82.335,20.512-13.912,38.742-8.1,56.256,3.748,7.767,5.256,14.441,8.05,23.442,5.3,12.108-3.7,22.481-.65,30.046,9.619,1.512,2.054,3.275,1.89,4.8,2.882,19.27,12.546,18.5,11.987,2.964,30.718-6.008,7.244-7.825,17.96-11.553,27.1-2.029,7.349-1.616,14.72-.19,22.1,3.116,14.26,12.016,26.53,16.172,39.63,5.142,16.194,14.067,32.566,12.314,50.422-1.049,10.684,2.527,24.482,6.56,28.172,11.6,10.627,10.021,25.9,18.357,36.808,1.109,1.458,1.122,3.754,1.642,5.662,2.068,5.377.2,11.131,1.592,16.575-3.224,11.185-14.274,16.264-22.2,20.357-10.215,5.272-19.27-4.581-23.635-14.746-2.958-6.889-6.011-11.226-13.55-6.6-4.217,2.587-6.9-.1-10.041-1.569-3.306-1.547-7.025-4.417-10.135-1.268-17.184,17.377-44.145,23.176-55.264,48.146-3.424,7.691-1.87,15.262-4.283,22.532-1.35,7.33-1.791,14.65.2,21.952,1.534,20.861,23.55,22.659,33.058,23.062,26.067,1.1,35.686,19.311,49.259,34.586a97.617,97.617,0,0,0,.019,31.08c-12.064,21.308-19.666,23.683-41.143,13.287-12.72-6.157-24.85-13.614-38.634-17.469-6.164-1.725-9.416-.885-7.235,6.477.922,3.113-5.754,48.837-7.352,51.519-1.316,2.213-2.546,4.477-3.817,6.718C1652.039,1409.661,1656.659,1418.525,1652.4,1426.344Z" transform="translate(0 0)" fill="#377288"/>
      <path id="Path_38" data-name="Path 38" d="M1579.335,1086.352l4.547,4.052c7.964,4.042,9.5,13.208,15.246,19,8.322,3.576,16.7,1.49,25.084.384,4.245-.133,7.768,1.012,9.5,5.333-1.008,3.966.8,7.314,2.768,10.367,3.811,5.9,13.48,10.383,11.074,17.3-2.752,7.91-10.079,14.451-16.087,20.972-22.171,24.082-39.167,50.482-39.8,84.641-.681,3.972-3.4,8.1.9,11.7a7.406,7.406,0,0,1,2.244,7.441c-1.068,4.09-2.726,8.218.71,12.041,3.082,4.054,3.028,8.839,2.9,13.538-.193,7.4-5.741,8.284-9.2,4.344-4.812-5.479-12.888-7.66-12.986-18.851-.085-9.854-8.325-19.634-12.967-29.45-2.669-6.306.111-13.154-1.95-19.52,1.938-8.58,13.148-19.936-6.28-22.184-3.621-.421-8.088-2-11.036,3.212-2.869,5.079-2.045,11.131,1.185,12.938,11.772,6.579,6.018,14.958,1.81,20.947-4.778,6.8-11.54,14.809-22.1,7.254-3.823-4.2-8.858-.771-13.138-2.086-8.291-3.205-16.911-3.453-25.623-2.847-.32.023-.865.384-.875.606a4.978,4.978,0,0,0,.384,1.465c-15.887,3.294-28.479,13.366-42.354,20.779-2.083,1.112-4.961,4.147-4.651,5.745,1.4,7.181,9.359,6.55,15.57,10.5-9.771,6.912-16.733,2.46-22.155-3.3-9.369-9.955-20.77-15.779-33.438-19.906a30.112,30.112,0,0,1-15.846-11.842c-9.118-12.751-21.92-20.683-37.407-24.76-17.231-4.537-34.225-10.044-51.164-15.608-14.222-4.667-25.018-13.132-28.112-28.857,1.04-1.525,2.175-1.677,3.424-.241l7.473,1.62c-.745-20.652,14.254-8.484,17.589-5.989,8.313,6.217,7.222-1.218,10.405-4.144,4.607-4.226,4.936-6.562-.377-10.117-8.519-5.7-10.63-16.435-19.438-23.061-9.825-7.387-3.424-29.384,10.044-36.146,10.739-5.393,20.931-13.142,33.857-13.3,9.406,3.272,19.485-1.134,28.854,2.546,13.513,8.456,31.6,10.4,36.168,30.972,1.931,8.693,14.955,9.223,23.068,12.732,6.395,2.765,12.171,3.6,14.206,11.984,1.725,7.1,11.312,2.838,15.513,7.612,2.885,3.4,5.878,2.815,8.922.237.263-10.155-1.354-21.143,15.728-16.533,5.628,1.519,8.538-4.816,7.1-11.014-1.15-4.977-2.428-9.926-4.071-16.6,14.961,3.794,23.442,24.742,41.272,13.068-3.611-6.182.374-13.3-2.416-19.587-.574-5.609-5.761-6.756-9.293-9.4-5.767-4.321-2.907-7.32,1.221-10.313,4.229-2.137,8.034-6.553,13.42-2.508,4.616,3.541,10.706,6.4,12.942-.758,3.335-10.694,10.332-5.358,16.213-5.628l3.247.152a9.637,9.637,0,0,1,3.357,3.047c4.014,6.141,6.874,15.12,16.28,5.1C1572.918,1083.163,1576.6,1084.694,1579.335,1086.352Z" transform="translate(35.1 432.374)" fill="#377288"/>
      <path id="Path_39" data-name="Path 39" d="M1332.019,1091.239c-5.9,2.774-6.956,14.669-16.559,9.8-5.383-2.729-11.648-7.466-11-14.026.745-7.578,9.889-3.095,14.08-6.689a31.924,31.924,0,0,1,19.561.082l-.139-.14C1342.4,1087.4,1333.607,1087.367,1332.019,1091.239Z" transform="translate(118.291 438.448)" fill="#377288"/>
      <path id="Path_40" data-name="Path 40" d="M1319.207,929.432q-.114,3.41-.225,6.819c-28.7-9.365-31.818-12.3-32.168-32.157C1293.457,918.244,1309.5,919.486,1319.207,929.432Z" transform="translate(80.097 59.202)" fill="#377288"/>
      <path id="Path_41" data-name="Path 41" d="M1331.674,1099.135c-4.635-6.309-10.609-11.734-12.945-18.426-2.112-6.062,6.474-5.954,9.733-6.861,4.521-1.252,12.618,1,11.762,6.769C1339.356,1086.444,1338.2,1093.843,1331.674,1099.135Z" transform="translate(148.646 426.909)" fill="#377288"/>
      <path id="Path_42" data-name="Path 42" d="M1301.489,1064.7c-15.472-5.209-22.4-15.747-18.962-28.369.78-2.863,2.454-5.015,4.79-5.564,3.021-.71,4.667,1.852,4.959,4.673.976,9.518,7.023,16.984,10.164,25.617A2.682,2.682,0,0,1,1301.489,1064.7Z" transform="translate(68.919 333.868)" fill="#377288"/>
      <path id="Path_43" data-name="Path 43" d="M1367.264,1079.875c-9.8-3.4-19.637-6.712-29.361-10.313-1.094-.406-1.585-2.445-3.243-5.2a159.483,159.483,0,0,1,36.523,9.159A9.768,9.768,0,0,1,1367.264,1079.875Z" transform="translate(183.94 407.042)" fill="#377288"/>
      <path id="Path_44" data-name="Path 44" d="M1408.068,1067.44q-1.893,5.274-3.782,10.545c-.9-1.173-2.355-2.242-2.6-3.539-1.122-5.973-16.682-7.587-6.588-15.865C1403.017,1052.089,1401.153,1067.894,1408.068,1067.44Z" transform="translate(307.757 391.102)" fill="#377288"/>
      <path id="Path_45" data-name="Path 45" d="M1328.154,1093.959c5.2,1.76,8.648,5.355,4.169,9.9-3.263,3.313-10.167,2.689-12.923-.326a11.948,11.948,0,0,1-.4-15.332c2.828-3.361,5.26-.222,5.973,3.342C1324.777,1094.006,1324.423,1096.679,1328.154,1093.959Z" transform="translate(144.323 455.685)" fill="#377288"/>
      <path id="Path_46" data-name="Path 46" d="M1280.377,1056.568c-1.214-6.407-.273-11.794,7.437-12.707,2.8-.33,6.867-2.045,8.418,1.535,1.37,3.167-1.829,5.615-3.773,8.008C1288.617,1055.169,1285.77,1060.727,1280.377,1056.568Z" transform="translate(65.17 361.035)" fill="#377288"/>
      <path id="Path_47" data-name="Path 47" d="M1448.008,1062.249c-16.727,3.668-33.416,5.352-49.937-1Q1423.043,1061.752,1448.008,1062.249Z" transform="translate(321.568 400.288)" fill="#377288"/>
      <path id="Path_48" data-name="Path 48" d="M1335.335,1133.491c8.947-7.165,18.11-3.849,27.269-.558,1.024.593,1.363,1.179,1.021,1.766s-.682.878-1.031.878Q1348.965,1134.531,1335.335,1133.491Z" transform="translate(185.405 547.829)" fill="#377288"/>
      <path id="Path_49" data-name="Path 49" d="M1272.939,1122.5q-1.712.124-3.424.241a40.773,40.773,0,0,1-2.023-4.258c-1.632-4.74-5.735-10.39-.161-14.076,3.988-2.638,8.215-1.059,5.4,5.608-.764,1.8-.38,4.137-.33,6.224S1272.749,1120.414,1272.939,1122.5Z" transform="translate(31.668 491.332)" fill="#377288"/>
      <path id="Path_50" data-name="Path 50" d="M1280.076,1049.556q6.039-1.583,12.082-3.164c-.171,1.008.007,2.33-.57,2.974-3.139,3.506,3.151,11.242-3.64,11.638C1282.479,1061.321,1280.853,1054.759,1280.076,1049.556Z" transform="translate(65.47 368.047)" fill="#377288"/>
      <path id="Path_51" data-name="Path 51" d="M1346.807,961.4c3.643,10.564,5.114,21.055-1.034,31.3C1349.163,982.364,1345.663,971.8,1346.807,961.4Z" transform="translate(208.062 183.582)" fill="#377288"/>
      <path id="Path_52" data-name="Path 52" d="M1410.895,1044.568a40.212,40.212,0,0,1-.019-31.083C1412.99,1023.846,1412.27,1034.207,1410.895,1044.568Z" transform="translate(342.598 296.625)" fill="#377288"/>
      <path id="Path_53" data-name="Path 53" d="M1289.846,1061.8q-.057-14.158-.111-28.309c7.07,10.028,4.159,20.589,1.664,31.124Z" transform="translate(86.434 340.048)" fill="#377288"/>
      <path id="Path_54" data-name="Path 54" d="M1314.8,1084.364c-9.6-1-19.637,2.882-28.85-2.546C1295.694,1081.181,1305.782,1076.724,1314.8,1084.364Z" transform="translate(78.215 440.877)" fill="#377288"/>
      <path id="Path_55" data-name="Path 55" d="M1280.145,952.532c-9.438,3.678-18.842,4.008-28.2-.279A84.884,84.884,0,0,1,1280.145,952.532Z" transform="translate(4.412 161.46)" fill="#377288"/>
      <path id="Path_56" data-name="Path 56" d="M1276.953,1021.975c11.195-3.627,8.921,4.515,9.15,10.475C1279,1032.5,1282.19,1023.554,1276.953,1021.975Z" transform="translate(58.692 313.102)" fill="#377288"/>
      <path id="Path_57" data-name="Path 57" d="M1395.921,1063.537c7.808,4.549,3.123,11.791,3.842,17.862C1390.543,1077.147,1399.475,1069,1395.921,1063.537Z" transform="translate(315.84 405.258)" fill="#377288"/>
      <path id="Path_58" data-name="Path 58" d="M1377.12,1067c1.328-8.164-3.177-17.016,2.907-24.618C1378,1050.463,1383.939,1059.486,1377.12,1067Z" transform="translate(275.285 359.343)" fill="#377288"/>
      <path id="Path_59" data-name="Path 59" d="M1328.775,1063.04c7.422-1.557,11.648-.143,13.985,6.556C1337.211,1069.751,1332.674,1069.149,1328.775,1063.04Z" transform="translate(171.167 402.931)" fill="#377288"/>
      <path id="Path_60" data-name="Path 60" d="M1295.936,1048.258c8.268-5.355,17.361-1.668,26.051-2.371C1313.909,1053.321,1304.677,1048.084,1295.936,1048.258Z" transform="translate(99.893 365.67)" fill="#377288"/>
      <path id="Path_61" data-name="Path 61" d="M1394.886,1053.308c-6.49,6.794-14.711,2.219-22.06,3.364C1379.338,1050.036,1387.7,1055.527,1394.886,1053.308Z" transform="translate(266.776 382.95)" fill="#377288"/>
      <path id="Path_62" data-name="Path 62" d="M1410.7,926.509c-3.7-7.4-4.02-14.771.19-22.1Q1410.791,915.455,1410.7,926.509Z" transform="translate(342.733 59.884)" fill="#377288"/>
      <path id="Path_63" data-name="Path 63" d="M1348.768,937.074c-1.116,6.639,4.958,14.882-4.385,19.679C1347.927,950.656,1342.389,942.536,1348.768,937.074Z" transform="translate(205.043 130.782)" fill="#377288"/>
      <path id="Path_64" data-name="Path 64" d="M1311.841,921.618c7.33,3.912,2.166,10.031,2.622,15.148a2.17,2.17,0,0,1-1.294.32c-.45-.1-.824-.555-1.23-.856Q1311.892,928.926,1311.841,921.618Z" transform="translate(134.413 97.236)" fill="#377288"/>
      <path id="Path_65" data-name="Path 65" d="M1345.4,1085.4c4.908,6.024,1.877,13.024,2.416,19.587C1340.509,1099.261,1344.469,1092.143,1345.4,1085.4Z" transform="translate(203.109 452.71)" fill="#377288"/>
      <path id="Path_66" data-name="Path 66" d="M1324.552,1090.689c-.5,2.213,2.27,5.006-.783,6.633a3.571,3.571,0,0,1-5.032-1.633c-1.585-3.237-.222-5.64,2.635-7.412Q1322.96,1089.485,1324.552,1090.689Z" transform="translate(147.925 458.954)" fill="#377288"/>
      <path id="Path_67" data-name="Path 67" d="M1384.824,1010.328c-4.112-7.279-3.786-14.6-.2-21.949Q1384.724,999.351,1384.824,1010.328Z" transform="translate(286.333 242.137)" fill="#377288"/>
      <path id="Path_68" data-name="Path 68" d="M1346.151,953.5c4.032,7.244,3.972,14.479-.054,21.7Z" transform="translate(208.763 166.433)" fill="#377288"/>
      <path id="Path_69" data-name="Path 69" d="M1335.069,921.049q.11-6.458.222-12.913C1342.469,912.568,1341.4,916.854,1335.069,921.049Z" transform="translate(184.828 67.975)" fill="#377288"/>
      <path id="Path_70" data-name="Path 70" d="M1344.944,1073.6a6.512,6.512,0,0,1,3.916-6.357q4.132.166,8.252.339-3.191,3.657-6.379,7.308Q1347.837,1074.248,1344.944,1073.6Z" transform="translate(206.26 413.313)" fill="#377288"/>
      <path id="Path_71" data-name="Path 71" d="M1352.951,926.509c6.7,2.99,2.65,8.11,2.409,12.453a2.094,2.094,0,0,1-1.341.2c-.441-.136-.777-.615-1.157-.945Q1352.9,932.362,1352.951,926.509Z" transform="translate(223.446 107.851)" fill="#377288"/>
      <path id="Path_72" data-name="Path 72" d="M1328.429,1082.26q-9.782-.039-19.561-.082C1315.418,1075.612,1321.93,1077.6,1328.429,1082.26Z" transform="translate(127.961 436.593)" fill="#377288"/>
      <path id="Path_73" data-name="Path 73" d="M1334.716,931.142c-3.826-4.99-3.376-10.339-1.261-15.792a2.55,2.55,0,0,1,1.4.26,4.922,4.922,0,0,1,1.03,1.17Q1335.3,923.961,1334.716,931.142Z" transform="translate(177.834 83.565)" fill="#377288"/>
      <path id="Path_74" data-name="Path 74" d="M1360.332,1124.482c4.322,6.141,1.671,12.976,1.953,19.523C1356.372,1138.023,1359.283,1131.159,1360.332,1124.482Z" transform="translate(236.086 537.534)" fill="#377288"/>
      <path id="Path_75" data-name="Path 75" d="M1282.183,953.125c-5.951,5.853-11.968,5.979-18.052.216Q1273.162,953.236,1282.183,953.125Z" transform="translate(30.864 165.619)" fill="#377288"/>
      <path id="Path_76" data-name="Path 76" d="M1315.955,1046.15c5.057-4.578,11.03-2.175,16.683-2.184C1327.752,1049.856,1321.674,1046.645,1315.955,1046.15Z" transform="translate(143.342 361.431)" fill="#377288"/>
      <path id="Path_77" data-name="Path 77" d="M1333.847,1042.486c3.9,5.015,3.573,10.1.26,15.243C1332.147,1052.679,1332.7,1047.587,1333.847,1042.486Z" transform="translate(179.924 359.569)" fill="#377288"/>
      <path id="Path_78" data-name="Path 78" d="M1296.572,935.574c7.067,4.343,4.939,9.7,1.674,15.183Q1297.409,943.167,1296.572,935.574Z" transform="translate(101.273 127.526)" fill="#377288"/>
      <path id="Path_79" data-name="Path 79" d="M1304.436,934.881q-2.055,3.362-4.108,6.731c-3.1-2.118-5.834-4.461-5.4-8.757Z" transform="translate(97.613 121.625)" fill="#377288"/>
      <path id="Path_80" data-name="Path 80" d="M1354.97,1081.808q-6.715,1.256-13.424,2.514C1344.326,1074.4,1349.089,1075.109,1354.97,1081.808Z" transform="translate(198.885 434.077)" fill="#377288"/>
      <path id="Path_81" data-name="Path 81" d="M1313.12,1090.255c.669-4.369,6.49-5.948,5.942-10.973C1324.337,1087.69,1323.979,1088.352,1313.12,1090.255Z" transform="translate(137.189 439.431)" fill="#377288"/>
      <path id="Path_82" data-name="Path 82" d="M1306.146,947.132c-4.486,6.262-9.7,4.784-15.1,1.433Q1298.6,947.847,1306.146,947.132Z" transform="translate(89.278 152.612)" fill="#377288"/>
      <path id="Path_83" data-name="Path 83" d="M1284.248,1003.477c4.315,5.076,1.982,10.929,1.924,16.512C1280.006,1015.128,1283.7,1009.12,1284.248,1003.477Z" transform="translate(71.06 274.904)" fill="#377288"/>
      <path id="Path_84" data-name="Path 84" d="M1332.635,1101.544c1.008,6.16-3.744,2.378-5.688,2.977-1.131.349-6.119,1.762-3.237-3.215Z" transform="translate(158.255 487.234)" fill="#377288"/>
      <path id="Path_85" data-name="Path 85" d="M1428.111,978.64c-3.668-5.225-1.7-10.989-1.6-16.575C1431.763,967.138,1429.54,972.927,1428.111,978.64Z" transform="translate(381.954 185.023)" fill="#377288"/>
      <path id="Path_86" data-name="Path 86" d="M1343.933,1133.432q0-1.322.01-2.644c3.725,2.089,9.907-4.433,11.987,3.424Z" transform="translate(204.066 549.975)" fill="#377288"/>
      <path id="Path_87" data-name="Path 87" d="M1371.82,1142.1c-6.588-3.418-3.77-7.555-.9-11.7Q1371.37,1136.248,1371.82,1142.1Z" transform="translate(255.842 550.376)" fill="#377288"/>
      <path id="Path_88" data-name="Path 88" d="M1372.541,1148.477c-5.611-3.7-4.061-7.815-.71-12.042Q1372.183,1142.457,1372.541,1148.477Z" transform="translate(258.076 563.479)" fill="#377288"/>
      <path id="Path_89" data-name="Path 89" d="M1377.621,1079.343q-10.81-.1-21.616-.206C1363.261,1074.007,1370.471,1073.639,1377.621,1079.343Z" transform="translate(230.267 430.522)" fill="#377288"/>
      <path id="Path_90" data-name="Path 90" d="M1369.96,1087.474l28.283.257C1388.777,1091.757,1379.345,1092.1,1369.96,1087.474Z" transform="translate(260.555 457.211)" fill="#377288"/>
    </g>
    <circle id="Ellipse_1" data-name="Ellipse 1" cx="5" cy="5" r="5" transform="translate(678 3915)" fill="#fff"/>
    <text id="Korsnæbsvej_60_4673_Rødvig_Stevns" data-name="Korsnæbsvej 60, 4673 Rødvig Stevns" transform="translate(338 3780.604)" fill="#fff" font-size="25" font-family="HelveticaNeue, Helvetica Neue"><tspan x="0" y="24">Korsnæbsvej 60, 4673 </tspan><tspan x="0" y="54">Rødvig Stevns</tspan></text>
    <g id="Rectangle_18" data-name="Rectangle 18" transform="translate(325 3776)" fill="none" stroke="#fff" stroke-width="1">
      <rect width="278" height="78" rx="12" stroke="none"/>
      <rect x="0.5" y="0.5" width="277" height="77" rx="11.5" fill="none"/>
    </g>
    <line id="Line_1" data-name="Line 1" x2="89" y2="67" transform="translate(594.5 3853.5)" fill="none" stroke="#fff" stroke-width="1"/>
  </g>
</svg>
