<svg xmlns="http://www.w3.org/2000/svg" width="27.65" height="57.634" viewBox="0 0 27.65 57.634">
  <g id="Group_52" data-name="Group 52" transform="translate(-10014.541 -4125.5)">
    <path id="Path_23" data-name="Path 23" d="M-7038-1961.644h-8.719c-.832,0-1.663,0-2.493.068a16.221,16.221,0,0,0-4.351.877,9.165,9.165,0,0,0-5.639,5.464,17.135,17.135,0,0,0-1.044,6.225c-.014,2.063,0,4.126,0,6.19,0,.314,0,.278-.3.278q-2.2,0-4.393,0c-.386,0-.352-.047-.352.358q0,4.492,0,8.985c0,.078,0,.155,0,.233s.037.146.139.141c.077,0,.155,0,.232,0h4.193c.477,0,.477,0,.477.46v27.886c0,.078,0,.155,0,.233.007.227.007.227.248.233.056,0,.111,0,.167,0q6.09,0,12.179,0c.486,0,.422.064.422-.424q0-12.213,0-24.426,0-1.847,0-3.694c0-.265,0-.268.269-.268h7.188c.316,0,.313,0,.344-.326.028-.3.061-.6.094-.893q.185-1.686.371-3.371.188-1.7.375-3.4c.061-.562.119-1.123.183-1.73h-.4q-4.01,0-8.02,0c-.455,0-.414.07-.414-.4q0-2.662.007-5.324a9.827,9.827,0,0,1,.086-1.427,2.275,2.275,0,0,1,1.769-2.046,7.512,7.512,0,0,1,1.941-.235c1.808,0,3.616,0,5.424,0,.078,0,.156,0,.233,0,.093,0,.149-.027.143-.132,0-.066,0-.133,0-.2q0-4.493,0-8.985C-7037.637-1961.682-7037.587-1961.644-7038-1961.644Z" transform="translate(17079.826 6087.145)" fill="#fff"/>
  </g>
</svg>
