<svg xmlns="http://www.w3.org/2000/svg" width="57.683" height="57.635" viewBox="0 0 57.683 57.635">
  <g id="Group_53" data-name="Group 53" transform="translate(-10098.968 -4125.266)">
    <g id="Group_2" data-name="Group 2" transform="translate(10098.968 4125.266)">
      <path id="Path_24" data-name="Path 24" d="M-4818.645-901.018l-.051,0v.294a.279.279,0,0,1,.087.267l.012,0a3.429,3.429,0,0,0-.049-.537Z" transform="translate(4855.293 951.195)" fill="#fff"/>
      <path id="Path_25" data-name="Path 25" d="M-4816.662-889.449q0,.07,0,.14a.246.246,0,0,0,.082.18c-.068-.095-.009-.217-.068-.313Z" transform="translate(4853.359 940.193)" fill="#fff"/>
      <path id="Path_26" data-name="Path 26" d="M-4818.7-916.984v.49h.048C-4818.663-916.658-4818.6-916.829-4818.7-916.984Z" transform="translate(4855.293 966.379)" fill="#fff"/>
      <path id="Path_27" data-name="Path 27" d="M-4818.645-906.724c0-.076,0-.152,0-.227a.067.067,0,0,1-.05-.033v.294A.07.07,0,0,1-4818.645-906.724Z" transform="translate(4855.293 956.869)" fill="#fff"/>
      <path id="Path_28" data-name="Path 28" d="M-4817.606-901.64a.073.073,0,0,0-.054-.03v.032Z" transform="translate(4854.308 951.816)" fill="#fff"/>
      <path id="Path_29" data-name="Path 29" d="M-4817.7-906.982a.067.067,0,0,0,.049-.035h-.051c0,.006,0,.013,0,.019Z" transform="translate(4854.35 956.9)" fill="#fff"/>
      <path id="Path_30" data-name="Path 30" d="M-4818.7-894.984v.294a.094.094,0,0,1,.063-.03C-4818.664-894.805-4818.614-894.913-4818.7-894.984Z" transform="translate(4855.293 945.457)" fill="#fff"/>
      <path id="Path_31" data-name="Path 31" d="M-4817.379-889.554h0c0-.012,0-.024,0-.036a.079.079,0,0,0-.024,0A.139.139,0,0,0-4817.379-889.554Z" transform="translate(4854.063 940.33)" fill="#fff"/>
      <path id="Path_32" data-name="Path 32" d="M-5266.339-1610.272a15.038,15.038,0,0,0-15.209,14.5,14.641,14.641,0,0,0,4.426,11.208,14.551,14.551,0,0,0,10.613,4.4,14.539,14.539,0,0,0,10.246-4.033c3.168-2.965,4.751-6.657,4.8-9.5C-5251.406-1603.437-5258.1-1610.2-5266.339-1610.272Zm-.19,26.007a10.879,10.879,0,0,1-10.927-10.582,10.9,10.9,0,0,1,10.877-11.321,10.91,10.91,0,0,1,11.023,10.965A10.906,10.906,0,0,1-5266.529-1584.264Z" transform="translate(5295.486 1625.714)" fill="#fff"/>
      <path id="Path_33" data-name="Path 33" d="M-4705.574-1714.521a2.653,2.653,0,0,0-2.7,2.661,2.682,2.682,0,0,0,2.678,2.705,2.7,2.7,0,0,0,2.71-2.68A2.671,2.671,0,0,0-4705.574-1714.521Z" transform="translate(4750.283 1724.86)" fill="#fff"/>
      <path id="Path_34" data-name="Path 34" d="M-5508.3-1909.875a13.8,13.8,0,0,0-.211-2.237,16.015,16.015,0,0,0-1.671-4.937,15.954,15.954,0,0,0-2.588-3.577,16.031,16.031,0,0,0-5.155-3.617,14.975,14.975,0,0,0-6.047-1.342q-6.575-.012-13.149,0h-13.052c-.391,0-.781.005-1.172.042a15.95,15.95,0,0,0-5.968,1.762,16.2,16.2,0,0,0-4.683,3.689,15.918,15.918,0,0,0-3.236,5.734,16.342,16.342,0,0,0-.741,5.037q.006,12.562,0,25.123a16.244,16.244,0,0,0,.95,5.592,16.058,16.058,0,0,0,3.664,5.816,15.837,15.837,0,0,0,4.578,3.268,16.1,16.1,0,0,0,6.984,1.565c3.958-.006,7.917,0,11.875,0q6.819,0,13.639,0a14.866,14.866,0,0,0,3.084-.324,15.98,15.98,0,0,0,8.393-4.637,16.014,16.014,0,0,0,3.36-5.182,14.732,14.732,0,0,0,1.142-5.452C-5508.286-1892.327-5508.3-1901.1-5508.3-1909.875Zm-4.131,26.207a11.093,11.093,0,0,1-1.116,4.7,11.62,11.62,0,0,1-2.478,3.495,11.911,11.911,0,0,1-6.934,3.329,13.709,13.709,0,0,1-1.708.095q-12.635,0-25.27-.007a11.681,11.681,0,0,1-7.5-2.679,11.789,11.789,0,0,1-3.99-6.051,10.938,10.938,0,0,1-.44-2.843c-.08-4.594-.022-9.188-.035-13.783-.011-3.877,0-7.754,0-11.631a13.354,13.354,0,0,1,.57-4.053,11.908,11.908,0,0,1,2.646-4.553,11.917,11.917,0,0,1,5.75-3.461,10.383,10.383,0,0,1,2.7-.385q13.161-.005,26.322.011a10.8,10.8,0,0,1,4.224.948,11.856,11.856,0,0,1,4.5,3.368,11.9,11.9,0,0,1,2.644,5.887,9.889,9.889,0,0,1,.115,1.535q0,6.562,0,13.125C-5512.428-1892.3-5512.419-1887.986-5512.433-1883.668Z" transform="translate(5565.979 1925.59)" fill="#fff"/>
    </g>
  </g>
</svg>
