<svg xmlns="http://www.w3.org/2000/svg" width="213.029" height="106.25" viewBox="0 0 213.029 106.25">
  <g id="Group_1" data-name="Group 1" transform="translate(-681.713 -843.102)">
    <path id="Path_19" data-name="Path 19" d="M748.155,864.165l-2.62,11.92a1.165,1.165,0,0,0,1.138,1.416h6.746a1.165,1.165,0,0,0,1.139-1.413l-2.587-11.92a1.165,1.165,0,0,0-1.139-.919h-1.537A1.167,1.167,0,0,0,748.155,864.165Z" transform="translate(3.986 1.259)" fill="#dcd8d6"/>
    <path id="Path_20" data-name="Path 20" d="M739.908,900.313l-3.368,15.1a1.165,1.165,0,0,0,1.138,1.419h7.92a1.166,1.166,0,0,0,1.138-1.419l-3.369-15.1a1.166,1.166,0,0,0-1.138-.912h-1.183A1.166,1.166,0,0,0,739.908,900.313Z" transform="translate(3.424 3.518)" fill="#dcd8d6"/>
    <path id="Path_21" data-name="Path 21" d="M798.174,899.773H790.6a1.165,1.165,0,0,0-1.166,1.167v24.238a1.165,1.165,0,0,0,1.166,1.166h7.618c1.979,0,4.947-.906,4.947-5.439V905.211C803.168,900.68,800.153,899.773,798.174,899.773Z" transform="translate(6.732 3.541)" fill="#dcd8d6"/>
    <path id="Path_22" data-name="Path 22" d="M681.713,844.268V948.184a1.166,1.166,0,0,0,1.166,1.167h210.7a1.167,1.167,0,0,0,1.167-1.167V844.268a1.166,1.166,0,0,0-1.167-1.166h-210.7A1.165,1.165,0,0,0,681.713,844.268Zm91.4,15.1.812-.776h5.787l.814.728v25.85a1.165,1.165,0,0,0,1.166,1.166h12.231l.865.68v4.775a1.165,1.165,0,0,1-.489.949l-.223.159a1.165,1.165,0,0,1-.678.217H773.877l-.762-.725Zm-63.188-.048.763-.728h5a1.166,1.166,0,0,1,.893.417l.19.226a1.167,1.167,0,0,1,.273.75V872a1.165,1.165,0,0,0,1.166,1.166h0a1.168,1.168,0,0,0,.942-.479l9.927-13.614a1.166,1.166,0,0,1,.941-.479h4.687l.815.728v2.151a1.171,1.171,0,0,1-.209.667l-9.577,13.741v.676l9.948,12.808a1.167,1.167,0,0,1,.244.715v1.715a1.166,1.166,0,0,1-.362.845l-.166.158a1.17,1.17,0,0,1-.8.32h-4.354a1.166,1.166,0,0,1-.912-.439l-9.264-11.612a1.166,1.166,0,0,0-.912-.439h-.947a1.166,1.166,0,0,0-1.166,1.167v10.6l-.813.725h-5.546l-.763-.725Zm19.9,74.11-.34.388H710.265l-.339-.388V899.674l.339-.387h3.869a1.7,1.7,0,0,0,.242.387v28.784a1.166,1.166,0,0,0,1.167,1.166H729.49l.34.388Zm28.061.388H754.5a1.166,1.166,0,0,1-1.136-.9l-1.813-7.876a1.165,1.165,0,0,0-1.136-.9H739.7a1.167,1.167,0,0,0-1.137.9l-1.812,7.876a1.165,1.165,0,0,1-1.136.9h-3.4v-.388l7.638-33.234a1.165,1.165,0,0,1,1.136-.905h8.142a1.165,1.165,0,0,1,1.136.909q3.752,16.616,7.625,33.183Zm1.487-48.782H748.725a1.165,1.165,0,0,0-1.137.907l-1.423,6.266a1.166,1.166,0,0,1-1.137.907H738.9v-1.019a1.16,1.16,0,0,1,.033-.277l7.932-32.339a1.165,1.165,0,0,1,1.132-.888h12.063a1.165,1.165,0,0,1,1.132.888l7.933,32.287a1.161,1.161,0,0,1,.034.277v1.071h-6.093a1.167,1.167,0,0,1-1.138-.911l-1.406-6.259A1.165,1.165,0,0,0,759.379,885.032Zm26.084,48.346-.339.436-4.366-.041a1.168,1.168,0,0,1-1.038-.658L767.507,907.93a1.045,1.045,0,0,1-.059-.148l-.7-2.151v27.795l-.339.388h-3.513l-.388-.388V899.674l.388-.387h4.214a1.167,1.167,0,0,1,1.048.656l12.26,25.182a1.144,1.144,0,0,1,.058.141l.8,2.4V899.625l.388-.338h3.464l.339.338Zm28.4-8.764c0,3-1.5,9.249-9.1,9.249h-12.22a2.959,2.959,0,0,1-.388-.387v-33.8l.486-.387h11.928c7.8,0,9.3,6.246,9.3,9.2Zm-5.253-43.991h-.946a1.167,1.167,0,0,0-1.167,1.167v10.6l-.813.725h-5.547l-.762-.725V859.317l.762-.728h5a1.164,1.164,0,0,1,.893.417l.19.226a1.168,1.168,0,0,1,.273.75V872a1.166,1.166,0,0,0,1.167,1.166h0a1.166,1.166,0,0,0,.941-.479l9.927-13.614a1.168,1.168,0,0,1,.942-.479h4.686l.815.728v2.151a1.171,1.171,0,0,1-.209.667l-9.577,13.741v.676l9.948,12.808a1.161,1.161,0,0,1,.245.715v1.715a1.167,1.167,0,0,1-.363.845l-.166.158a1.168,1.168,0,0,1-.8.32H819.7a1.164,1.164,0,0,1-.911-.439l-9.264-11.612A1.167,1.167,0,0,0,808.612,880.623Zm11.042,18.985.387-.339h19.516l.338.339v4.118l-.386.388H820.821a1.166,1.166,0,0,1-1.167-1.166Zm19.255,14.618v4.065l-.339.415H820.948a1.167,1.167,0,0,1-1.167-1.167v-2.513a1.166,1.166,0,0,1,1.167-1.166h17.622Zm1.113,19.2-.339.388H820.265l-.483-.483v-3.009a1.167,1.167,0,0,1,1.167-1.167h18.688l.387.439Zm26.5-30.3-.484.484h-7.259a1.166,1.166,0,0,0-1.166,1.167v28.651l-.388.388H854.5a1.165,1.165,0,0,1-1.166-1.166V904.775a1.167,1.167,0,0,0-1.167-1.167h-6.944l-.339-.34v-3.594l.339-.387h20.967l.339.338Z" transform="translate(0 0)" fill="#dcd8d6"/>
  </g>
</svg>
