<?xml version="1.0" encoding="utf-8"?>
<!-- Generator: Adobe Illustrator 23.0.3, SVG Export Plug-In . SVG Version: 6.00 Build 0)  -->
<svg version="1.1" id="New_Symbol_35" xmlns="http://www.w3.org/2000/svg" xmlns:xlink="http://www.w3.org/1999/xlink" x="0px"
	 y="0px" viewBox="0 0 100.7 106.2" style="enable-background:new 0 0 100.7 106.2;" xml:space="preserve">
<style type="text/css">
	.st0{fill:#FFFFFF;}
	.st1{fill:#19A6A2;}
</style>
<polygon class="st0" points="0,12.6 -0.1,105.4 1.7,106.2 77.8,106 67.8,65 58.7,55.9 58.7,50.3 67.8,41.1 39.9,13.7 "/>
<path id="Path_1" class="st1" d="M25.1,55.6l-0.2,0.3c0.3,0.7,0.5,1.4,0.6,2.1c0,0.1,0,0.4,0,0.7c0,0.6,0,1.2-0.1,1.7
	c-0.1,0.1-0.3,1-0.5,1.7c-0.3,1.1-0.6,2.2-1.1,3.3c-0.4,1-0.6,2.1-0.6,3.2c0.2,1.2,0.9,2.3,1.9,3.1c0.2,0.1,0.4,0.2,0.5,0.3
	c0.4,0.3,0.8,0.4,1.3,0.5c0,0,0,0,0.1,0c1.3,0.1,2.7,0.1,4,0c1.5-0.4,3-0.8,4.4-1.4c0.5-0.2,4.3-1.5,4.7-1.6
	c0.2-0.1,1.2-0.3,2.1-0.6c1.1-0.3,2.2-0.6,2.4-0.7c1-0.3,2-0.4,3.1-0.4c0.1,0,0.2,0,0.3,0.1c0.7,0.4,1.1,1,1.3,1.7
	c0.4,1.3,0.4,2.8,0.1,4.1c-0.3,1.9-0.8,3.6-1.1,4.8c-0.2,0.8-0.5,1.6-0.8,2.4l0,0c-0.1,0.1-0.9,1.3-1.5,2.3
	c-0.9,1.3-1.5,2.2-1.6,2.4c-0.2,0.3-2.3,2.5-2.5,2.8c-0.9,1.6-1.7,3.3-2.4,5c-0.2,0.9-0.2,5.7-0.2,6.2c0,0.7,0.2,1.3,0.4,2
	c0,0.1,0.1,0.2,0.1,0.3l0,0L40,102h0.1c0.4,0,0.8-0.1,1.1-0.3c0.5-0.4,1.1-0.8,1.6-1.2s1.1-0.8,1.6-1.1c1.3-1.1,2.5-2.4,3.5-3.8
	c0.5-0.7,1-1.4,1.6-2c0.4-0.4,0.8-1,0.9-1.1c0.5-0.7,1-1.3,1.6-1.9c0.3-0.4,0.8-0.9,0.9-1c0.2-0.3,0.7-2.1,1.2-3.6l0,0l-0.6,0
	l-0.1-0.2c-0.7-0.8-1.2-1.7-1.6-2.6c0-0.1-0.1-0.3-0.1-0.5c-0.5-1.5-0.7-3.1-0.5-4.7c0.2-0.8,0.3-1.6,0.4-2.4
	c0.1-0.9,0.1-1.2,0.3-1.4c0.4-1.2,0.7-2.4,0.8-3.6c0.2-2,0.2-4.1,0.2-6.1c-0.3-1.8-0.7-3.6-1.3-5.4c-0.1-0.3-0.2-0.6-0.4-0.9
	c-0.2-0.6-0.6-1.5-0.8-1.5c-0.4-0.1-0.8-0.1-1.1,0c-0.3,0.3-1.3,1.1-2,1.7s-1.2,1-1.3,1c-0.2,0.2-2.4,2.5-2.7,2.8
	c-0.2,0.3-3.3,3.9-3.7,4.2c-1.3,0.8-2.7,1.4-4.2,1.9h-0.3c-0.6,0.1-1.2,0.1-1.8,0c-0.8-0.1-1.5-0.4-2-0.9c-0.9-1.1-1.7-2.4-2.2-3.8
	c-0.1-0.3-0.5-2.6-0.5-3c0-0.3-0.8-3.2-0.9-3.5c-0.1-0.2-0.6-1.5-0.7-1.7c-0.3-0.2-0.5-0.4-0.8-0.5L25.1,55.6z"/>
<path id="Path_2" class="st1" d="M56.6,44.5c-0.9-1.6-2-3.2-3.1-4.8c-0.1-0.1-0.3-0.4-0.7-0.8c-0.6-0.7-1.4-1.7-2.2-2.6
	c-0.5-0.6-1-1.2-1.6-1.7c-0.3,0-0.6-0.2-0.9-0.3c-0.1,0.3-0.3,0.4-0.4,0.4c-0.2,0-0.4,0-0.7,0c-1.2-0.2-2.4-0.4-3.5-0.8
	c-0.2-0.1-0.6-0.3-1.1-0.5c-0.8-0.3-1.7-0.7-2.1-0.9l-0.1-0.1c-0.9-0.5-1.9-0.9-2.9-1.2c-1.3-0.4-2.6-0.7-3.9-0.9
	c-0.1,0-0.3,0-0.4,0c-0.2,0-0.4,0-0.6,0c-0.5,0-1.2,0-1.7,0c-0.9,0.1-1,0.2-1,0.2s0,0.1-0.1,0.1c-0.3,0.4-0.4,0.6-0.1,0.9
	c0.2,0.2,0.4,0.4,0.6,0.8c0.6,0.7,1.2,1.4,1.8,2.1c0.7,0.7,1.6,1.6,1.7,1.8c0.1,0.1,0.6,0.9,0.8,1.1c0.3,0.2,0.5,0.5,0.7,0.8
	c0.1,0.1,0.2,0.3,0.4,0.5c0.3,0.4,0.5,0.8,0.7,1.2c0.1,0.1,0.1,0.3,0.2,0.4c0.5,0.8,0.5,0.9,0.5,1s0.1,0.3,0.1,0.5
	c0.4,1.2,0.7,2.4,0.3,2.9c-0.6,0.7-1.5,1.1-2.4,1.4c-1,0.2-2.1,0.3-3.1,0.4h-0.1c-0.9,0-2.3,0-2.5,0.1c-0.1,0-0.2,0-0.4,0.1
	c-0.9,0.1-1.8,0.4-2.7,0.8c-0.4,0.3-0.2,1.4,0,1.6l0.1,0.1l0,0c0.1,0,0.2-0.1,0.3-0.1c0.5-0.3,1.1-0.4,1.7-0.3c0.1,0,0.1,0,0.2,0
	c1,0.1,2,0.3,3,0.6c0.5,0.1,3.5,1.7,3.9,1.8c0.7,0.3,1.5,0.6,2.3,0.7c0.1,0,0.1,0,0.2,0c0.2,0,0.4-0.1,0.7-0.2s0.5-0.1,0.6-0.2
	c0.4-0.1,0.8-0.2,1.1-0.5c0.7-0.7,1-1.7,1-2.7c-0.3-2-0.7-3.9-1.3-5.8c-0.4-1.1-0.8-2.2-1.1-3.3c-0.9-3.2-0.7-3.5-0.7-3.6
	c0.2-0.4,0.6-1.2,1.2-1.2l0,0c0.2,0.1,4.7,1.6,5.1,1.8c0,0,0.2,0.2,0.5,0.4c1.6,1.1,3.1,2.3,4.6,3.6c0.1,0.1,0.7,0.8,1.2,1.3
	c1.1,1.2,1.8,2,1.9,2.2c1.1,1.3,2.3,2.5,3.6,3.6c0.1,0.1,0.4,0.2,0.8,0.4c0.3,0.1,0.7,0.3,1,0.5c-0.2-0.4-0.4-0.9-0.5-1.4
	C57.1,46,56.9,45.3,56.6,44.5z"/>
<path id="Path_3" class="st1" d="M12.6,89.9c3.6-1.7,7-3,7.7-3.7c1.2-1.3,1-1.5,1.2-3.2c0.3-2.3-6.7-2.7-12.2-7.3
	c-1.2-1.1-2.6-2.1-3.9-3c-2.1-1.4-3.9-3.2-5.4-5.2V99c0.6-1.3,1.5-2.5,2.5-3.6C3.8,94.1,8.1,92.1,12.6,89.9z"/>
<path id="Path_4" class="st1" d="M27.8,54.6c0.1,0.4,1.4,3.3,1.6,4.1c0.1,0.6,0.2,1.2,0.2,1.8c0,0.7,0.1,1.5,0.3,2.2
	c0.1,0.2,0.2,0.5,0.3,0.8c0.2,0.9,0.6,1.7,1.1,2.4l0.3,0.3c0.4,0.6,1,1,1.7,1.2c0.1,0,0.1,0,0.2,0c0.2,0,0.4,0,0.7-0.1
	c1,0,1.9-0.2,2.8-0.4c0.9-0.5,1.8-1.1,2.6-1.7c0.1-0.2,0.6-0.6,1-1.1c0.6-0.6,1.4-1.4,1.6-1.7c0.4-0.5,1.4-1.7,1.8-2.2
	c0.2-0.2,0.6-0.6,1-1c0.5-0.5,1-1.1,1.3-1.4c0.6-0.8,1.4-1.5,2.3-2.1c0.5-0.4,1.2-0.6,1.8-0.7c0.1,0,0.1,0,0.2,0.1c0,0,0,0,0.1,0
	l0,0c0,0,0,0,0.1,0c0.3,0,0.5,0.2,0.8,0.7c1,2.3,1.8,4.6,2.4,7.1c0.3,1.8,0.4,3.6,0.4,5.4v0.2c-0.1,1.7-0.3,3.3-0.8,4.9
	c-0.5,1.4-1,2.9-1.2,4.4c-0.1,1.2-0.1,2.3,0,3.5c0.3,1.2,0.8,2.3,1.3,3.4c0.3,0.4,0.5,0.8,0.5,0.8v0.1v-0.1l0.4-0.1
	c0.4-0.1,0.9-0.2,1.3-0.3c0.5-0.4,1-0.8,1.4-1.4c0.9-1.3,1.6-2.7,2-4.2c0.2-0.7,0.5-1.8,0.8-2.7c0.2-0.7,0.5-1.4,0.5-1.6
	c0.2-1.7,0.6-4.7,0.9-5.7c0.1-0.5,0-1.1-0.2-1.5l-0.8-1l0.3-0.1c-0.1-0.1-0.2-0.2-0.3-0.2s-0.4-0.3-0.6-0.4
	c-0.3-0.2-0.6-0.4-0.9-0.6c0,0-0.1-0.1-0.3-0.2c-0.5-0.4-0.9-0.8-1.3-1.3c-0.1-0.1-0.1-0.2-0.2-0.3c-0.5-0.6-1-1.3-1.4-2
	c-0.5-1.4-0.9-2.9-1.2-4.4c-0.2-0.6-0.3-1.2-0.3-1.3c-0.1-0.2-0.2-0.7-0.4-1.3c-0.3-0.8-0.6-1.8-0.7-2c-0.1-0.2-0.4-0.8-0.7-1.3
	s-0.5-1-0.6-1.2c-0.1-0.3-1.3-2.3-1.4-2.5c-0.8-1-1.8-1.9-2.8-2.8l0,0c-0.3-0.1-0.6-0.2-0.9-0.3l0,0c-0.2,0.5-1.5,3.8-1.6,4.4
	c-0.1,0.4-0.4,1.5-0.7,2.6c-0.2,0.8-0.5,1.8-0.5,2c-0.1,0.4-1.5,4.8-2.4,5.5c-1.3,1.1-2.4,1.5-3.1,1.5c-0.1,0-0.2,0-0.3,0
	c-0.7-0.1-1.5-0.3-2.1-0.6l0,0c0,0-0.2-0.2-0.5-0.3c-0.9-0.6-1.8-1.2-2.5-2c-1-1.4-2.1-2.7-3.3-4c-0.4-0.4-0.8-0.7-1.4-0.9h-0.1
	c-0.1,0.1-0.3,0.2-0.4,0.3c-0.2,0.1-0.6,0.4-0.6,0.5c0,0.2,0.1,0.5,0.2,0.6C27.6,54.3,27.7,54.5,27.8,54.6z"/>
<path id="Path_5" class="st1" d="M100.7,1.1L99.5,0H1.1L0,1.1v32.3l0.1-0.2C0.4,32.8,2,30.8,2.8,30c0.7-0.6,1.5-1.1,2.4-1.4
	c0.7-0.7,1.5-1.4,2.4-1.9c0.4-0.2,1-0.5,1.6-0.8c0.7-0.3,1.4-0.7,1.7-0.8c1.6-0.8,3.4-1.4,5.1-1.8c0.2,0,0.4,0,0.7,0
	c0.2,0,0.3,0,0.4,0.1c0.1,0,0.2,0,0.2,0c0.1,0,0.2,0,0.3,0c0.1,0,0.1-0.1,0.2-0.1c0.4-0.3,0.9-0.5,1.4-0.5c0.3,0,0.6-0.1,0.9-0.2
	c1.1-0.3,2.3-0.4,3.4-0.4c2,0,4,0.2,5.9,0.4c0.2,0,0.5,0.1,0.7,0.1s0.5,0.1,0.8,0.1c1.2,0.1,2.5,0.4,3.6,0.9l1,0.6
	c0.5,0.2,3.7,1.4,4.8,1.7c1.6,0.6,3.1,1.5,4.5,2.7c1.3,1.1,2.5,2.3,3.5,3.7c0,0.1,0.1,0.1,0.1,0.2c0.2,0.3,0.5,0.4,0.8,0.5
	C50,33.3,50.8,34,54,38c0.3,0.4,0.5,0.6,0.6,0.8c0.3,0.4,1.2,1.7,1.9,2.7c1.4,2.2,1.5,2.5,1.5,2.7c0.1,0.2,0.4,1.2,0.7,1.9
	c0.3,0.8,0.6,1.6,0.8,2.4c0,0.1,0.2,0.4,0.3,0.6l40.8-40.8L100.7,1.1L100.7,1.1z"/>
<path id="Path_6" class="st1" d="M34,105.4c1.1-0.6,2.2-1.2,3.3-1.9c0.3-0.3,1.1-1.1,1.4-1.4l0.1-0.1c-0.2-0.7-0.4-1.5-0.4-2.2
	c0-0.2,0-0.7-0.1-1.2c-0.1-0.8-0.1-1.7-0.1-2.5c0-0.3,0-0.6,0-1c0-0.6,0-1.3,0.2-1.9l0.1-0.1c1.2-3.4,2.2-5.3,2.8-5.9
	c0.8-0.8,1.6-1.8,2.3-2.7c0.1-0.1,0.3-0.4,0.6-0.8c0.5-0.7,1-1.4,1.5-2.2c0.2-0.4,0.7-1.8,1-2.6c0.1-0.3,0.2-0.5,0.3-0.6
	c0.2-0.4,0.8-2.9,0.9-3.4c0.1-0.4,0.2-3.6,0.1-3.9c0-0.1-0.1-0.2-0.1-0.3c-0.2-1.1-0.4-1.2-0.5-1.2c-1.7,0-3.3,0.2-4.9,0.6
	c-2.9,0.9-8.1,2.5-8.7,2.7c-2,0.6-4.1,1-6.2,1.2h-0.3c-1-0.1-1.9-0.5-2.7-1l-0.1-0.1c-0.6-0.5-2.1-1.8-2.2-3c-0.1-1.3,0-2.5,0.2-3.8
	c0.1-0.2,0.3-0.8,0.5-1.5c0.2-0.7,0.5-1.5,0.8-2.2c0.3-1,0.6-1.9,0.8-2.9c0-0.4,0.1-0.9,0-1.3c0-0.7-0.2-0.9-0.2-0.9
	c-0.4-0.1-0.9,0-1.2,0.3c-0.2,0.4-0.4,0.9-0.5,1.3c-0.1,0.4-0.3,0.8-0.5,1.2c-0.2,0.3-1.1,1.3-2.3,2.5c-0.5,0.6-1,1-1.1,1.2
	c-0.3,0.3-0.6,0.6-1,0.8c-1,0.8-2.5,2-2.7,2.8c-0.4,1.4-0.6,2.8,0.2,4c1.1,1.2,2.4,2.2,3.8,3c2,0.7,4.1,1.3,6.2,1.8
	c0.5,0.1,6,0.3,6.4,0.4c0.3,0,3.4,0.2,5.6,0.5c0.8,0,1.6,0.2,2.3,0.5c0.6,0.4,1.8,1.4,1.5,2.4c0,0.1-1.2,5.1-4.3,7.9
	c-2,1.8-4.6,3.9-6,5.1c-0.6,0.5-1,0.8-1.1,0.9c-0.3,0.3-4.7,4.8-5.1,5.5c-0.1,0.2-0.3,0.5-0.6,0.8c-0.7,0.8-1.3,1.8-1.7,2.8
	c0,0.3-0.1,0.5-0.1,0.8c-0.1,0.5-0.1,1.1-0.1,1.6c0,0.2,0,0.5-0.1,0.7h9.7C32.8,105.9,33.6,105.6,34,105.4z"/>
<path id="Path_7" class="st1" d="M0.6,50.9c0,0.1,0.1,0.2,0.2,0.3C1,51.7,1.5,52.7,1.7,53c0.1,0.2,0.3,0.5,0.4,0.8
	c0.2,0.6,0.6,1.2,1,1.8c0.2,0.2,0.4,0.4,0.5,0.6c0.3,0.3,0.6,0.6,1,0.9c0.5,0.3,1,0.6,1.5,0.7c0.1,0,0.1,0,0.2,0c0.2,0,0.3,0,0.5,0
	s0.3,0,0.4-0.2c0.1-0.1,0.1-0.2,0.2-0.3c0.3-0.4,0.4-0.8,0.4-1.3c0-0.3,0-0.7,0-1.1c0-0.5,0-0.9,0-1.2c0-0.2,0-0.5,0-0.7
	c0-0.4,0-0.9,0-1.3v-0.1C7.9,51,8,50.4,8.2,49.8c0-0.1,0.1-0.2,0.1-0.3c0.2-0.5,0.5-1,0.9-1.4L9.3,48c0.5-0.4,1.2-0.7,1.8-0.7h0.1
	c0.4,0.1,0.8,0.3,1.2,0.5c0.1,0.1,0.3,0.1,0.4,0.2c0.3,0.1,0.5,0.3,0.7,0.5c0.1,0.1,0.4,0.4,0.8,0.7c0.4,0.4,1,1,1.2,1.1
	c0,0,0.1,0.1,0.2,0.1c0.4,0.3,0.7,0.6,1.2,0.8l0,0l0.1-0.8c0-0.2,0-0.5-0.1-0.7c0-0.1,0-0.2,0-0.4c0-0.1,0-0.1-0.1-0.2
	c-0.3-0.2-0.5-0.5-0.7-0.8c-0.2-0.3-0.3-0.5-0.4-0.8c-0.1-0.1-0.1-0.2-0.1-0.3c-0.1-0.2-0.2-0.4-0.3-0.7c-0.1-0.2-0.1-0.4-0.2-0.6
	c-0.1-0.2-0.1-0.4-0.2-0.6c0-0.2-0.1-0.4-0.2-0.6c-0.1-0.3-0.2-0.5-0.3-0.8v-0.1c0,0,0-0.1-0.1-0.1c-0.2-0.5-0.7-0.9-1.2-1.1
	c-0.2-0.1-0.5-0.1-0.7-0.3l0,0c-0.1,0-0.1,0-0.2,0l-0.3,0.1c-0.8,0.1-1.5,0.5-2,1.2c-0.9,1.3-1.7,2.6-2.3,4c-0.6,1-1.2,2-2,2.9
	c-0.1,0.1-0.1,0.1-0.2,0.2c-0.4,0.5-0.8,1-1.2,1H4.1c-0.1,0-0.1,0-0.2,0c-0.1,0-0.1,0-0.2,0c-0.3-0.1-0.7-0.4-1-0.7
	c-0.5-0.6-1-1.3-1.3-2.1c-0.3-0.7-0.5-1.5-0.6-2.3s-0.1-1.6,0-2.4c0-0.3,0.1-0.6,0.1-0.9c0.2-0.7,0.2-1.3,0-2
	c-0.1-0.3-0.1-0.6-0.1-0.9l0,0l-0.1-0.1c-0.2-0.1-0.4-0.3-0.6-0.5c-0.1-0.1-0.2-0.2-0.2-0.2V50C0.2,50.3,0.4,50.6,0.6,50.9z"/>
<path id="Path_8" class="st1" d="M0.1,65.2c0.8,1.3,1.7,2.5,2.7,3.6c0.3,0.2,0.6,0.5,0.8,0.8c0,0,0.1,0.1,0.2,0.2
	c0.2,0,0.4-0.1,0.5-0.2c-0.4-0.7-0.5-1.6-0.4-2.4c0.2-0.5,0.4-1.1,0.6-1.6l0,0l0,0c0.1-0.2,0.2-0.3,0.3-0.5V65
	c-1.1,0.2-1-0.3-1.6-0.5c-0.6-0.3-1.6-2.7-2.4-3.5c-0.3-0.3-0.6-0.6-0.9-0.8V65C0,65.1,0.1,65.2,0.1,65.2z"/>
<path id="Path_9" class="st1" d="M1.8,40C2,41.2,2.1,42.5,2,43.7c-0.1,0.9-0.2,1.9-0.1,2.8v0.1c0,0.7,0.3,1.5,0.7,2.1
	C2.8,49,3,49.3,3.2,49.6c0.2,0.3,0.5,0.7,0.6,0.8h0.1c0.5-0.1,0.9-0.3,1.2-0.8c0.2-0.3,0.5-0.7,0.8-1c0.2-0.2,0.4-0.5,0.6-0.7
	C6.8,47.4,7,47,7.2,46.6c0.1-0.2,0.2-0.4,0.3-0.5c0.1-0.2,0.2-0.5,0.3-0.7C8,45,8.2,44.6,8.3,44.3l0,0c0.3-0.5,0.6-0.9,1-1.3
	c0.5-0.5,1.1-0.9,1.7-1.2l0,0c0.4-0.2,0.9-0.3,1.4-0.2c0.1,0,0.2,0,0.3,0.1c0.1,0,1.6,0.7,1.8,1.2c0.1,0.2,0.4,0.8,0.7,1.7
	c0.1,0.3,0.3,0.7,0.3,0.8c0.1,0.1,0.1,0.3,0.2,0.5c0.2,0.6,0.4,1.1,0.8,1.6c0.1,0.1,0.1,0.2,0.2,0.2c0.2,0.2,0.4,0.4,0.5,0.4
	c0,0,0,0,0.1,0s0.3,0,0.4,0s0.2,0,0.3,0V48c0-0.4-0.1-0.8-0.2-1.2c0-0.2-0.1-0.6-0.1-1c0-0.2,0-0.4-0.1-0.6c-0.1-0.8-0.1-1.5,0-2.3
	c0.1-0.2,0.2-0.8,0.3-2.2v-0.1c0.1-0.4,0.1-0.7,0-1.1c0-0.1-0.1-0.2-0.1-0.3c-0.1-0.2-0.2-0.5-0.3-0.7c-0.3-0.3-0.6-0.5-1-0.6
	c-0.1,0-0.2,0-0.3-0.1c-0.5-0.1-1.1,0-1.6,0.2c-0.8,0.3-1.6,0.6-2.2,1.2c-0.6,0.5-1.3,0.9-2,1.3c-0.2,0.2-0.5,0.3-0.7,0.4
	c-0.6,0.4-1.7,1-2.4,1.4c-0.2,0.1-0.3,0.2-0.4,0.2c-0.2,0.1-0.3,0.2-0.5,0.3c-0.3,0.4-0.8,0.6-1.3,0.6c-0.1,0-0.1,0-0.2,0
	s-0.3-0.1-0.4-0.1c-0.4-0.1-0.5-0.2-0.7-0.7c0-0.1-0.1-0.2-0.2-0.3c-0.1-0.2-0.2-0.4-0.2-0.6c0-0.9,0-1.7,0.2-2.6
	c0-0.1,0-0.2,0.1-0.3C4,38.3,4.2,37.6,4.5,37c0.1-0.1,0.2-0.5,0.4-0.8c0.3-0.6,0.6-1.2,0.9-1.7c0.3-0.4,0.5-0.8,0.7-1.2
	C6.7,33,6.9,32.8,7,32.6c0.3-0.4,0.5-0.8,0.6-1.3c0-0.4-0.1-0.9-0.3-1.3c-0.1,0-0.3-0.1-0.4-0.2c-0.2-0.1-0.3-0.1-0.5-0.2l0,0
	c-0.1,0.1-0.1,0.1-0.2,0.2l-0.1,0.1L5.9,30c-0.7,0.2-1.4,0.6-2,1.1c-0.7,0.7-2.3,2.6-2.6,3C1,34.4,0.5,35.2,0,35.9v2.6
	C0.8,38.6,1.5,39.2,1.8,40z"/>
<path id="Path_10" class="st1" d="M18,56l-0.5,0.1l-1.1,0.1c-0.3,0-0.6,0.1-0.9,0.2c-0.3,0.5-0.7,0.9-1.1,1.4l0.2,1.4l0.7,0.8
	c1.2-0.4,2.3-1,3.3-1.7l1-1.5c0.1-0.2,0.1-0.3,0.3-0.4l0.3-0.5l-0.3-0.4L18,56z"/>
<path id="Path_11" class="st1" d="M3.7,63.3c0.5,0.7,2.2,0.3,2.2,0.3c0.8-0.6,1.7-1.2,2.7-1.7c0.3-0.1,2.2-0.9,3.5-1.3l-1.4-2.9l0,0
	c-0.1-0.2-0.3-1.3-0.4-1.5v-0.1c-0.1-0.5-0.1-0.9-0.1-1.4c0,0,0-0.1,0.1-0.2c0.1-0.5,0.3-0.9,0.5-1.3l0.1-0.1
	c0.1-0.2,0.3-0.3,0.5-0.4c0.1,0,0.1-0.1,0.2-0.1c0.2-0.2,0.5-0.3,0.7-0.2c0.5,0,0.9,0.1,1.3,0.1c0.5,0.1,1,0.2,1.4,0.3
	c0.1,0,0.3,0.1,0.3,0.1c0.1,0,0.1,0,0.2,0C15.7,53,15.8,53,16,53c0.1,0,0.2,0,0.3,0c0.1,0,0.2,0,0.3,0l0.2-0.3
	c0.1-0.2,0.1-0.2,0.1-0.3s0-0.1-0.1-0.2l0,0c-0.1-0.1-0.5-0.3-0.7-0.5c-0.3-0.2-0.6-0.4-0.8-0.6c-0.1-0.1-0.8-0.8-1.1-1
	s-0.7-0.6-1-0.9c-0.1-0.1-0.2-0.2-0.3-0.3s-0.2-0.2-0.3-0.3s-0.2-0.1-0.3-0.2c0,0,0,0-0.1,0c-0.3-0.1-0.6-0.2-0.8-0.2s-0.4,0-0.6,0
	c-0.6,0.2-1.1,0.6-1.4,1.1C9,50,8.8,50.8,8.7,51.7c0,0.1,0,0.6,0,1.1c0,0.6,0,1.1,0,1.7c0,0.1-0.1,0.7-0.1,1.2
	c-0.1,0.8-0.2,1.8-0.3,2.1s-0.4,1.5-1.1,1.5c-0.2,0-0.4,0-0.6,0c-0.5-0.1-1-0.2-1.4-0.5c-0.6-0.4-1.2-0.9-1.7-1.4
	c-0.3-0.3-1.7-2.5-1.9-2.7c-0.1-0.2-1.2-2.5-1.3-2.7c0,0-0.2-0.3-0.4-0.6v7.4C1.1,60,3.3,62.7,3.7,63.3z"/>
<path id="Path_12" class="st1" d="M1.1,106.2h19.5c0.2-0.1,0.3-0.3,0.4-0.4c0.2-0.6,0.3-1.2,0.3-1.8c0.1-0.4,1.1-4.2,2.2-5.4
	c0.1-0.2,0.3-0.4,0.6-0.7c1.6-1.9,3.3-3.7,5.1-5.5l0,0c1.2-0.7,2.3-1.5,3.3-2.3c0.3-0.3,0.6-0.6,1-0.9c0.7-0.6,1.4-1.2,2-1.9
	c1.3-1.6,2.4-3.3,3.2-5.1c0.4-1.2,0.4-2.2-0.1-2.5c-2.6-0.8-5.2-1.5-7.9-2.1l0,0c-0.1,0-0.6,0-1.1,0c-1.7,0-4.9-0.1-6-0.2
	c-0.1,0-0.2,0-0.2,0s-5.6-1.3-7-2.6l-0.3-0.2c-1.2-1.1-2.9-2.8-2.7-4.6c0.1-1.9,1-3.7,2.5-4.8c1.6-1.3,3-2.6,4.4-4.1
	c0.3-0.4,0.7-0.9,0.9-1.4c0.4-0.8,0.4-1,0.4-1c-0.2-0.2-0.4-0.3-0.7-0.4c-0.8,0.9-1.9,1.6-3,2.1s-2.2,1-3.3,1.3
	c-0.2,0.1-0.4,0.1-0.6,0.2c-0.3,0.1-0.7,0.3-1.1,0.5l0.1,0.3l-0.1-0.2c-0.3,0.1-0.7,0.3-1.1,0.5c-1.1,0.5-2.2,1-3,1.3
	c-0.9,0.4-2.7,1.4-3.1,4.9c-0.1,1.1,1.8,2.8,4.5,4.7c1.9,1.4,4,2.6,6.2,3.6c3.6,1.5,6.1,2.6,7.6,3.4c0.3,0.1,0.6,0.3,0.8,0.4h0.1
	c0.3,0.1,0.5,0.2,0.7,0.4c2.8,1.5,4.3,2.8,4.6,3.8c0.6,2.1-1.2,3.1-2.8,4.1c-0.5,0.3-1,0.6-1.5,1c-1.5,1.3-7,3.6-9,4.5
	c-0.3,0.1-0.5,0.2-0.6,0.3c-2.5,0.7-5.1,1.1-7.6,1.4c-0.1,0-0.1,0-0.2,0c-0.2,0-0.4,0.1-0.5,0.1c-1.3,0.4-2.5,1-3.7,1.7
	c-0.5,0.3-1,0.5-1.5,0.8c-0.7,0.8-1.5,1.7-2,2.4c-0.2,0.3-0.3,0.7-0.5,1.1S0,103.7-0.1,104v1.4L1.1,106.2z"/>
<path id="Path_13" class="st1" d="M22.2,44.5c0.2-0.3,0.4-0.6,0.7-0.8c0.2-0.2,0.4-0.4,0.6-0.6c0.5-0.5,1.5-1.6,2.1-2.1
	c0.1-0.1,0.2-0.2,0.4-0.3c0.4-0.3,0.6-0.7,0.8-1.1c0.1-0.3,0.3-0.6,0.5-0.8c0.2-0.3,0.3-0.4,0.3-1.4c0-0.3,0-0.5,0-0.7
	c0-0.9,0-1.1-0.5-1.6c-0.6-0.5-1.3-0.8-2-1c-0.1,0-0.2-0.1-0.3-0.1c-0.6-0.2-1.3-0.4-2-0.6c-0.3-0.1-0.7-0.2-1-0.2
	c-0.5-0.1-0.9-0.2-1.1-0.2c-0.9-0.3-1.7-0.6-2.6-1c-0.5-0.3-1.1-0.9-0.9-1.3c0.2-0.5,0.5-0.9,0.9-1.2c0.1-0.1,0.3-0.2,0.5-0.4
	c0.4-0.3,0.8-0.6,1.2-0.9c0.1,0,0.2-0.1,0.3-0.1c0.5-0.2,1.2-0.5,1.6-0.7c0.1,0,0.2-0.1,0.2-0.1c0.7-0.3,1.4-0.4,2.1-0.6
	c0.6-0.1,1.9-0.1,2.7-0.1h0.4c0.2,0,0.5,0,0.8,0c0.6-0.1,1.2-0.1,1.8,0c0.1,0,0.2,0,0.2,0s0.2,0,0.3,0c0.5,0.1,1.1,0.1,1.6,0
	c0.2,0,0.3-0.1,0.5-0.1c0.4-0.1,0.9-0.2,1.2-0.4c0.3-0.2,0.6-0.4,0.9-0.7L34,25.1c-1-0.4-2-0.7-3-0.7c-0.2,0-0.5-0.1-0.7-0.1
	s-0.5-0.1-0.8-0.1c-1.9-0.3-3.8-0.4-5.8-0.4c-1,0-2.1,0.1-3.1,0.3c-0.4,0.1-0.8,0.2-1.1,0.2c-0.5,0-0.6,0.1-0.7,0.2
	s-0.2,0.1-0.2,0.2c0.2,0.6,0.3,1.3,0.1,1.9c-0.5,0.7-1.1,1.3-1.7,1.8c-0.9,0.4-1.8,0.9-2.6,1.5c-0.1,0.1-0.2,0.2-0.4,0.3
	c-0.7,0.5-2.4,1.9-2.6,2.4c-0.1,0.2-0.2,0.4-0.2,0.6c-0.3,0.6-0.5,1.2-0.2,1.6c0.2,0.5,0.7,0.8,1.3,0.8c0.9,0,1.9,0,2.8-0.2
	c1.7-0.3,3.4-0.5,5.1-0.6l0,0c0.6,0.1,3,1,3.4,2.6c0.2,1.2,0.1,2.5-0.4,3.6c-0.3,0.6-0.7,1.4-0.8,1.6c0,0,0,0.1-0.1,0.2
	c-0.5,0.7-0.9,1.4-1.2,2.3c0,0.2-0.1,0.5-0.2,0.7c-0.1,0.3-0.2,0.7-0.2,0.9c0.4-0.1,0.8-0.2,1.1-0.5C21.8,45.6,22,45,22.2,44.5
	L22.2,44.5z"/>
<path id="Path_14" class="st1" d="M18.6,43.3c0,0.1,0,0.2-0.1,0.4c-0.1,0.4-0.1,0.8-0.1,1.2c0,0.2,0,0.3,0,0.5
	c-0.1,0.5,0,1.1,0.2,1.6c0.1,0.1,0.1,0.1,0.2,0.1l0.1,0.1c0.1,0,0.2-0.1,0.3-0.1c0.1-0.1,0.2-0.1,0.4-0.2c0,0,0,0,0.1,0
	c0,0,0-0.1,0-0.2c0-0.1,0-0.2,0-0.3c0-0.4,0.1-0.7,0.2-1.1c0.1-0.2,0.1-0.4,0.1-0.6c0-0.4,0.2-0.9,0.5-1.2c0.2-0.3,0.4-0.6,0.6-1
	c0.1-0.2,0.3-0.5,0.5-0.7c0.3-0.4,0.5-0.8,0.5-1.3c0-0.2,0.1-0.4,0.2-0.5c0.2-0.4,0.3-0.8,0.3-1.2c0-0.1,0-0.2,0-0.3
	c0-0.5-0.1-1-0.3-1.5c-0.3-0.4-0.7-0.8-1.1-1.1c-0.1,0-0.2-0.1-0.3-0.1c-0.2-0.2-0.5-0.3-0.8-0.3c-0.1,0-0.1,0-0.2,0
	c-1.2,0-2.3,0.1-3.5,0.3C16,35.9,15.5,36,15,36c-0.6,0.1-1.1,0.2-1.5,0.2h-0.2c-0.8,0.2-1.6,0.3-2.4,0.2c-0.1,0-0.3,0-0.4-0.1
	c-0.1,0-0.2,0-0.3,0s-0.1,0-0.2,0c-0.4,0-0.7-0.1-1-0.3c-0.7-0.6,0.3-2.5,0.3-2.6c0.4-0.7,0.8-1.4,1.4-2c0.1-0.1,0.2-0.2,0.4-0.4
	c0.5-0.5,1-1,1.6-1.4c0.2-0.1,0.5-0.3,0.8-0.5c0.6-0.4,1.2-0.8,1.9-1.2c0.5-0.2,1-0.5,1.4-0.7c0.4-0.3,0.7-0.6,0.9-1
	c0.1-0.2,0.1-0.5,0.1-0.7s0-0.4-0.1-0.6l0,0c-0.2,0-0.4,0-0.6,0c-0.1,0-0.2,0-0.3-0.1s-0.2,0-0.3-0.1c-0.2,0-0.3,0-0.5,0
	c-1.5,0.4-3,0.9-4.4,1.6c-0.4,0.2-1.1,0.6-1.9,0.9c-0.6,0.3-1.2,0.5-1.6,0.7c-0.5,0.3-0.9,0.7-1.4,1c0.2,0,0.3,0.1,0.5,0.2l0,0
	C8,29.6,8.3,30.5,8,31.3c-0.2,0.9-0.6,1.7-1,2.5c0,0.1-0.1,0.1-0.1,0.2c-0.1,0.3-0.4,0.7-0.7,1.2c-0.3,0.5-0.7,1.1-0.8,1.4
	c-0.5,1.3-0.9,2.7-1,4.1C4.6,41.8,4.8,41.9,5,42c0.1,0,0.2,0,0.3,0.1c0.3,0,0.6,0,0.9-0.2c0.7-0.3,1.4-0.7,2.1-1.1
	c0.4-0.3,1.9-1.3,2.3-1.6c0.1,0,0.1-0.1,0.2-0.1c0.4-0.2,1-0.6,1.4-0.9c0.6-0.4,1.3-0.7,2.1-1h0.1c0.4-0.2,0.9-0.2,1.3-0.2
	c0.4,0.1,0.8,0.2,1.1,0.3c1.1,0.4,1.8,1.4,1.8,2.6C18.9,40.4,18.7,42.3,18.6,43.3z"/>
<path id="Path_15" class="st1" d="M13.3,58.1c0-0.5,0.2-1.1,0.6-1.4c0.7-0.9,1.9-1.5,3-1.4c0.1,0,0.3,0,0.4,0
	c0.2-0.1,0.4-0.1,0.6-0.2c0.1,0,0.3,0,0.4-0.1l0,0c-0.1-0.3-0.2-0.7-0.5-0.9L17.3,54c-0.1,0-1.2,0-2-0.1c-0.7-0.1-0.9-0.2-1-0.3
	c-0.6-0.2-1.2-0.3-1.9-0.4c-0.6,0.2-1,0.5-1.4,1c0,0,0,0.1,0,0.2c0.1,0.4,0.2,0.9,0.2,1.4s0.1,0.9,0.3,1.4c0.1,0.1,0.2,0.5,0.4,0.9
	c0.3,0.6,0.6,1.3,0.8,1.9c0.1,0.2,0.2,0.4,0.2,0.6l0,0c0.1,0.2,0.6,0,1.6-0.3C13.9,59.6,13.5,58.9,13.3,58.1z"/>
<path id="Path_16" class="st1" d="M58.7,50.3L58.7,50.3v-0.4c-0.2-0.3-0.3-0.7-0.5-1c-0.2-0.1-0.4-0.1-0.6-0.2
	c-1.4-0.5-2.6-1.3-3.6-2.4c-0.7-0.9-1.5-1.8-2.4-2.5l0,0l0,0c-1.1-1.3-2.3-2.8-2.5-3c-0.1,0-0.2-0.1-0.5-0.4c-1.1-0.9-3.6-3-5.1-3.6
	c-0.7-0.3-1.3-0.5-1.8-0.7s-1-0.4-1.5-0.5h-0.1c-0.4,0-0.8,0.5-0.9,0.9c0.3,1.8,0.7,3.5,1.3,5.2l0,0c0,0.1,2.4,6.1,1.6,7.6
	c-1,1.8-1.8,2.7-2.6,2.9c-0.7,0.1-1.5,0.1-2.3,0c-1-0.3-2-0.6-2.9-1c-1.1-0.4-2.5-1-2.8-1c-0.2,0-0.4-0.1-0.8-0.2
	c-0.6-0.1-1.3-0.3-1.9-0.4c-0.7-0.1-0.9,0-0.9,0c-0.2,0.1-0.4,0.3-0.6,0.4c-0.2,0.1-0.4,0.3-0.6,0.5c0.2,0.4,0.4,0.9,0.6,1.3
	c0.1,0,0.4,0,0.6-0.1c0.2,0,0.4,0,0.5,0h0.1c0.6,0.1,1.1,0.3,1.6,0.5c0.1,0,0.2,0.2,1.2,1.4s2.6,3.1,2.8,3.3
	c0.3,0.2,0.5,0.4,0.8,0.6c0.3,0.2,0.6,0.5,0.9,0.8c0.7,0.4,1.5,0.7,2.4,0.7c0.6,0,1.2-0.2,1.7-0.5c0.7-0.5,1.3-1.1,1.7-1.8l0.1-0.2
	c0.4-0.8,0.7-1.7,1-2.6c0-0.3,0.1-0.8,0.2-1.2c0.1-0.5,0.2-1,0.3-1.5c0.1-0.9,0.3-1.8,0.7-2.7c0.1-0.3,0.5-1.7,0.7-2.6
	c0.2-0.6,0.3-1.1,0.3-1.3c0-0.1,0-0.2,0.1-0.3c0.2-0.6,0.4-1.7,1.2-1.6l0,0c0.1,0,0.3,0,0.4,0c0.2,0,0.4,0,0.6,0
	c0.7,0.2,1.2,0.5,1.7,1.1c1.4,1.4,4.4,5,5.2,7.2c0.3,1,1,3,1.5,4.8c1,3.3,1,3.4,1,3.5c0.2,0.9,0.4,1.7,0.7,2.5
	c0.6,0.9,1.2,1.8,1.9,2.6c0.5,0.5,1,0.9,1.6,1.3c0.3,0.2,0.5,0.4,0.7,0.6c0.1,0.1,0.1,0.1,0.1,0.2c0-0.2,0-0.4,0-0.5
	c0-0.2,0-0.5,0-0.7c0-0.5-0.3-3.5-0.5-5.3c-0.1-0.9-0.2-1.6-0.2-1.9l-2.2-2.2L58.7,50.3z"/>
<path id="Path_17" class="st1" d="M25.1,46.3c0.1,0,0.2-0.1,0.4-0.1c0.2,0,0.5-0.1,0.7-0.2h0.1c0.4-0.1,0.9-0.3,1.6-0.4
	c1-0.2,1.9-0.3,2.9-0.4c0.2,0,0.4,0,0.6,0s0.4,0.1,0.5,0.1c0.2,0.1,0.4,0.1,0.6,0.1c0.1,0,0.3,0,0.5-0.1c0.6,0,1.3-0.2,1.9-0.4
	c0.2-0.1,0.3-0.1,0.5-0.2c0.3-0.1,0.4-0.1,0.7-0.7c0.1-0.2,0.2-0.4,0.3-0.7c0.2-0.3,0.2-0.3,0.1-0.9c-0.1-0.3-0.1-0.6-0.2-0.9
	c0-0.4-0.2-0.8-0.3-1.2l0,0c-0.6-1-1.6-2.4-1.9-2.8c0,0,0,0-0.1-0.1c-0.4-0.3-0.6-0.6-0.8-0.8s-0.4-0.4-0.6-0.6
	c-0.4-0.3-0.7-0.7-1.1-1.2c-0.2-0.2-0.4-0.5-0.7-0.7c-0.2-0.2-0.3-0.3-0.4-0.4c-0.2-0.2-0.4-0.4-0.7-0.6c-0.6-0.4-1.1-1-1.5-1.6
	c-0.1-0.1-0.2-0.3-0.2-0.4c-0.1-0.2-0.2-0.4-0.3-0.5c0-0.3,0.1-0.5,0.3-0.6c0.1-0.1,0.2-0.1,0.3-0.2c0.4-0.4,1-0.6,1.6-0.6
	c0.2,0,0.4,0,0.6-0.1c1-0.1,2-0.1,2.9-0.1c0.1,0,0.2,0,0.3,0c0.4,0.1,0.9,0.2,1.3,0.3c0.5,0.1,1,0.3,1.4,0.3c1,0.2,1.9,0.5,2.9,0.9
	c0.4,0.2,0.7,0.4,1.1,0.6c0.4,0.2,0.8,0.5,1.2,0.7c0.5,0.2,0.9,0.5,1.4,0.8c0.4,0.3,0.8,0.5,1.2,0.7c0.4,0.1,1.8,0.4,2.2,0.5h0.1
	c0.1,0,0.2,0,0.3,0.1c0.2,0.1,0.5,0.1,0.7,0.2h0.1l0,0l0,0c0,0,0,0,0-0.1c-0.1-0.1-0.1-0.2-0.2-0.2s-0.1-0.1-0.2-0.2
	c-0.9-1.3-2-2.4-3.2-3.4s-2.6-1.9-4-2.5c-1.1-0.3-4-1.4-4.7-1.7l-0.1,0.1l0,0c-0.6,0.5-1.3,1-2.1,1.3c-0.9,0.2-1.8,0.3-2.7,0.3
	c-0.6,0-3,0.1-3.5,0.2c-0.6,0.1-2.4,0.3-3.3,0.5s-1.8,0.5-2.6,0.9l-0.2,0.1c-0.5,0.2-1,0.6-1.4,1c-0.1,0.2-0.2,0.3-0.3,0.5L19,31
	l0,0c0.7,0.5,1.4,0.9,2.2,1.3c0.1,0,0.3,0.1,0.6,0.1c0.8,0.2,1.7,0.4,2.5,0.7c0.1,0.1,0.4,0.1,0.8,0.2c1.7,0.5,3.3,1.1,3.4,1.9
	c0.2,1,0.2,2.1,0,3.1c-0.1,0.3-0.7,1.6-0.7,1.7l0,0l0,0c-0.2,0.2-1.3,1.5-1.5,1.6s-2.7,2.5-3,2.8c-0.4,0.5-0.7,1-1,1.6
	c0.3,0.1,0.7,0.2,1,0.2c0.1,0,0.2,0,0.4,0l0.1-0.1H24h0.3C24.5,46.3,24.8,46.3,25.1,46.3z"/>
<path id="Path_18" class="st1" d="M63,65.4c0,0.2,0,0.4,0,0.6c0,0.3,0,0.7,0,1s-0.2,0.6-0.4,0.9c0.2,0.6,0.2,1.3,0,1.9
	c-0.2,0.7-0.5,2.7-0.8,5.5c-0.1,0.6-0.3,1.3-0.5,1.9c-0.3,0.9-0.6,1.9-0.7,2.5c-0.5,1.7-1.2,3.4-2.3,4.8c-0.5,0.7-1.2,1.3-1.9,1.7
	c-0.4,0.1-0.8,0.2-1.2,0.3c-0.3,1.2-0.7,2.4-1.2,3.5c-0.3,0.4-0.7,0.8-1.1,1.2c-0.4,0.5-1.2,1.3-1.3,1.5c-0.3,0.5-0.7,1-1.2,1.5
	c-0.5,0.6-1,1.1-1.4,1.7c-1.1,1.5-2.4,3-3.9,4.2c-0.5,0.4-1.1,0.8-1.6,1.2s-1.1,0.8-1.6,1.1c-0.6,0.5-1.4,0.7-2.2,0.6
	c-0.1,0-0.1,0-0.2,0h-0.1c-0.3,0.3-1,1-1.3,1.3c-0.9,0.6-1.8,1.2-2.7,1.7h64l1.1-1.1v-7.3L62.6,59.8c0,0.1,0,0.1,0,0.2
	C62.8,62.7,63.1,64.9,63,65.4z"/>
</svg>
